<svg xmlns="http://www.w3.org/2000/svg" xmlns:xlink="http://www.w3.org/1999/xlink" width="500" zoomAndPan="magnify" viewBox="0 0 375 374.999991" height="500" preserveAspectRatio="xMidYMid meet" version="1.0"><defs><clipPath id="be82b73c5e"><path d="M 19.511719 125 L 298 125 L 298 355 L 19.511719 355 Z M 19.511719 125 " clip-rule="nonzero"/></clipPath><clipPath id="8b24fc971a"><path d="M 323 70 L 355.511719 70 L 355.511719 104 L 323 104 Z M 323 70 " clip-rule="nonzero"/></clipPath></defs><path fill="#e96474" d="M 184.09375 130.957031 C 207.1875 122.929688 224.363281 128.652344 247.835938 135.488281 C 271.308594 142.324219 291.648438 162.109375 295.039062 186.316406 C 298.050781 207.816406 288.050781 228.894531 276.917969 247.53125 C 265.78125 266.164062 252.933594 284.648438 249.316406 306.050781 C 246.925781 320.21875 247.941406 336.789062 237.269531 346.414062 C 226.8125 355.847656 210.21875 353.378906 197.460938 347.421875 C 184.699219 341.460938 172.960938 332.535156 159.0625 330.257812 C 146.53125 328.203125 133.449219 331.816406 121.085938 328.90625 C 99.699219 323.875 86.703125 301.203125 66.09375 293.582031 C 53.621094 288.96875 39.546875 290.34375 26.601562 287.839844 C 21.367188 286.828125 19.710938 280.207031 23.796875 276.777344 C 47.304688 257.066406 76 243.8125 99.796875 224.242188 C 126.320312 202.425781 145.894531 173.507812 165.078125 145.023438 C 165.078125 145.023438 172.417969 135.019531 184.089844 130.960938 Z M 184.09375 130.957031 " fill-opacity="1" fill-rule="nonzero"/><g clip-path="url(#be82b73c5e)"><path fill="#e96474" d="M 184.5625 132.65625 C 197.398438 128.261719 210.402344 127.972656 223.613281 130.765625 C 230.414062 132.203125 237.082031 134.179688 243.75 136.128906 C 249.476562 137.804688 255.007812 139.644531 260.289062 142.464844 C 270.140625 147.722656 278.835938 155.328125 284.9375 164.710938 C 291.480469 174.777344 294.5 186.410156 293.675781 198.394531 C 291.746094 226.46875 272.570312 249.25 259.734375 273.0625 C 253.566406 284.5 248.769531 296.5 247.046875 309.445312 C 245.605469 320.273438 245.8125 332.972656 238.886719 342.082031 C 231.609375 351.648438 218.820312 352.222656 208.066406 349.398438 C 195.761719 346.167969 185.425781 338.359375 173.949219 333.179688 C 168.0625 330.527344 161.960938 328.609375 155.503906 328.046875 C 148.304688 327.421875 141.089844 328.257812 133.882812 328.324219 C 127.425781 328.382812 121.066406 327.644531 115.09375 325.078125 C 110.15625 322.953125 105.632812 319.914062 101.40625 316.621094 C 92.832031 309.9375 85.125 302.082031 75.800781 296.390625 C 70.761719 293.3125 65.308594 291.101562 59.527344 289.875 C 52.816406 288.457031 45.941406 288.121094 39.125 287.59375 C 35.554688 287.316406 31.976562 286.992188 28.441406 286.382812 C 26.070312 285.972656 23.875 285.183594 23.359375 282.539062 C 22.859375 279.957031 24.546875 278.414062 26.371094 276.917969 C 29.085938 274.6875 31.867188 272.542969 34.703125 270.464844 C 45.652344 262.425781 57.261719 255.355469 68.738281 248.101562 C 80.144531 240.894531 91.453125 233.472656 101.839844 224.832031 C 112.214844 216.199219 121.585938 206.414062 130.226562 196.0625 C 138.792969 185.800781 146.679688 174.984375 154.296875 164.003906 C 158.128906 158.476562 161.894531 152.902344 165.65625 147.324219 C 165.976562 146.847656 166.28125 146.363281 166.617188 145.898438 C 166.652344 145.851562 166.796875 145.65625 166.632812 145.875 C 166.449219 146.121094 166.785156 145.683594 166.839844 145.625 C 167.042969 145.375 167.246094 145.128906 167.457031 144.882812 C 168.554688 143.59375 169.738281 142.371094 170.976562 141.214844 C 174.90625 137.523438 179.484375 134.488281 184.574219 132.660156 C 186.691406 131.902344 185.777344 128.5 183.636719 129.265625 C 175.878906 132.046875 168.453125 137.414062 163.578125 144.132812 C 159.5 149.753906 155.800781 155.675781 151.847656 161.390625 C 147.890625 167.117188 143.863281 172.796875 139.703125 178.375 C 131.316406 189.632812 122.355469 200.5 112.410156 210.421875 C 102.363281 220.445312 91.25 229.125 79.457031 237 C 67.667969 244.871094 55.449219 252.082031 43.660156 259.953125 C 37.816406 263.851562 32.078125 267.925781 26.566406 272.285156 C 24.34375 274.046875 21.621094 275.734375 20.449219 278.421875 C 19.585938 280.402344 19.554688 282.664062 20.355469 284.667969 C 22.632812 290.363281 29.753906 290.253906 34.921875 290.765625 C 42.125 291.472656 49.40625 291.613281 56.546875 292.882812 C 62.894531 294.015625 68.78125 296.207031 74.269531 299.589844 C 79.105469 302.5625 83.503906 306.164062 87.820312 309.835938 C 96.292969 317.039062 104.699219 324.785156 115.207031 328.90625 C 128.726562 334.214844 142.976562 330.089844 156.949219 331.726562 C 170.769531 333.347656 182.351562 341.941406 194.507812 347.945312 C 204.808594 353.035156 217.265625 356.589844 228.660156 353.175781 C 234.109375 351.542969 238.792969 348.21875 242.136719 343.617188 C 245.433594 339.082031 247.140625 333.578125 248.171875 328.132812 C 249.273438 322.339844 249.699219 316.449219 250.4375 310.601562 C 251.292969 303.875 252.925781 297.324219 255.304688 290.976562 C 265.285156 264.335938 285.609375 242.882812 293.96875 215.480469 C 297.839844 202.789062 298.78125 189.058594 294.5 176.347656 C 290.847656 165.511719 283.960938 155.917969 275.308594 148.496094 C 270.886719 144.703125 266.023438 141.417969 260.832031 138.777344 C 255.324219 135.980469 249.550781 134.160156 243.640625 132.433594 C 230.6875 128.648438 217.398438 124.773438 203.757812 125.351562 C 196.886719 125.644531 190.140625 127.050781 183.644531 129.273438 C 181.511719 130.003906 182.429688 133.40625 184.582031 132.667969 Z M 184.5625 132.65625 " fill-opacity="1" fill-rule="nonzero"/></g><path fill="#ffa59b" d="M 193.628906 230.199219 C 185.386719 241.898438 173.789062 252.011719 170.5625 266.535156 C 169.078125 273.210938 169.816406 279.871094 172.769531 286.042969 C 175.589844 291.9375 180.101562 296.910156 184.8125 301.355469 C 184.96875 300.128906 185.128906 298.898438 185.285156 297.671875 C 181.796875 299.40625 178.472656 301.441406 175.363281 303.800781 C 172.65625 305.851562 168.910156 308.308594 167.550781 311.546875 C 166.222656 314.707031 168.222656 317.617188 171.433594 318.230469 C 173.90625 318.703125 176.40625 317.9375 178.539062 316.695312 C 182.664062 314.289062 186.015625 310.214844 188.367188 306.113281 C 189.203125 304.648438 190.171875 302.914062 190.238281 301.183594 C 190.335938 298.582031 188.1875 297.910156 185.992188 298.128906 C 178.816406 298.847656 174.730469 305.335938 172.847656 311.679688 C 172.347656 313.363281 174.035156 315.097656 175.734375 314.570312 C 181.394531 312.8125 185.6875 308.675781 187.800781 303.167969 C 188.484375 301.390625 186.5 299.921875 184.914062 300.277344 C 178.601562 301.710938 173.640625 306.203125 171.238281 312.148438 C 170.480469 314.015625 172.59375 315.253906 174.125 315.035156 C 180.011719 314.195312 184.722656 310.09375 186.910156 304.660156 C 188.035156 301.855469 183.496094 300.640625 182.382812 303.410156 C 180.785156 307.394531 177.035156 309.917969 172.878906 310.511719 L 175.765625 313.398438 C 177.558594 308.964844 181.5625 305.847656 186.164062 304.804688 C 185.203125 303.839844 184.238281 302.878906 183.277344 301.917969 C 181.773438 305.828125 178.46875 308.804688 174.488281 310.039062 C 175.453125 311 176.414062 311.964844 177.378906 312.925781 C 178.121094 310.421875 179.152344 307.90625 180.871094 305.902344 C 181.707031 304.925781 182.6875 304.070312 183.84375 303.503906 C 184.253906 303.304688 184.671875 303.148438 185.117188 303.023438 C 185.609375 302.890625 186.648438 302.972656 187.050781 302.75 C 186.007812 300.675781 185.507812 300.097656 185.554688 301.023438 C 185.617188 300.664062 185.625 300.621094 185.570312 300.902344 C 185.484375 301.0625 185.449219 301.359375 185.390625 301.53125 C 185.183594 302.15625 184.855469 302.765625 184.488281 303.421875 C 183.558594 305.097656 182.460938 306.691406 181.21875 308.148438 C 179.890625 309.703125 178.421875 311.207031 176.695312 312.316406 C 175.882812 312.839844 175.03125 313.3125 174.082031 313.535156 C 173.609375 313.648438 172.050781 313.972656 171.769531 313.472656 C 171.242188 312.519531 178.171875 307.511719 178.839844 307.027344 C 181.625 305.011719 184.582031 303.25 187.660156 301.722656 C 189 301.054688 189.183594 299.019531 188.136719 298.035156 C 183.6875 293.839844 179.488281 289.242188 176.828125 283.671875 C 174.128906 278.015625 173.882812 271.804688 175.59375 265.820312 C 179.328125 252.75 190.082031 243.367188 197.691406 232.570312 C 199.433594 230.097656 195.367188 227.75 193.636719 230.199219 Z M 193.628906 230.199219 " fill-opacity="1" fill-rule="nonzero"/><path fill="#ffa59b" d="M 263.757812 218.195312 C 263.335938 230.296875 258 241.425781 251.664062 251.503906 C 244.972656 262.148438 237.25 272.082031 231.203125 283.140625 C 229.71875 285.855469 228.257812 288.609375 226.972656 291.425781 C 225.792969 294.023438 225.636719 296.347656 226.257812 299.125 C 227.445312 304.445312 230.097656 309.417969 233.710938 313.484375 C 235.257812 315.21875 237.453125 316.117188 239.625 314.828125 C 241.667969 313.617188 241.949219 311.023438 242.125 308.875 C 242.53125 303.910156 240.8125 298.820312 237.585938 295.054688 C 235.925781 293.117188 233.589844 291.195312 230.898438 291.25 C 228.074219 291.308594 226.460938 293.8125 226.714844 296.449219 C 227.3125 302.628906 230.863281 308.804688 234.613281 313.585938 C 236.023438 315.386719 238.425781 313.679688 238.621094 311.925781 C 239.296875 305.816406 236.308594 300.246094 233.324219 295.140625 C 231.972656 292.832031 228.367188 294.367188 229.03125 296.949219 C 229.976562 300.628906 231.519531 304.097656 233.636719 307.25 C 234.894531 309.125 238.007812 308.496094 238.007812 306.066406 C 238.007812 301.355469 236.15625 296.925781 232.777344 293.640625 C 230.609375 291.53125 227.289062 294.847656 229.453125 296.960938 C 231.964844 299.402344 233.3125 302.5625 233.308594 306.066406 C 234.765625 305.671875 236.222656 305.277344 237.679688 304.878906 C 235.769531 302.03125 234.40625 299.019531 233.554688 295.699219 C 232.125 296.300781 230.691406 296.902344 229.261719 297.507812 C 231.859375 301.953125 234.507812 306.597656 233.917969 311.925781 C 235.253906 311.375 236.59375 310.816406 237.925781 310.265625 C 235.0625 306.609375 232.964844 302.367188 231.773438 297.886719 C 231.664062 297.46875 231.535156 297.035156 231.460938 296.609375 L 231.367188 296.183594 C 231.46875 295.574219 231.382812 295.492188 231.121094 295.933594 C 231.753906 295.933594 232.429688 296.578125 232.871094 296.953125 C 234.367188 298.234375 235.527344 299.925781 236.304688 301.726562 C 237.039062 303.429688 237.4375 305.316406 237.476562 307.171875 C 237.496094 308.09375 237.453125 309.027344 237.28125 309.933594 C 237.222656 310.269531 237.054688 310.691406 237.03125 311.039062 C 237.164062 310.746094 237.378906 310.683594 237.667969 310.859375 C 237.378906 310.554688 237.09375 310.242188 236.820312 309.929688 C 234.050781 306.746094 232.058594 302.875 231.003906 298.796875 C 230.382812 296.398438 230.527344 294.808594 231.605469 292.585938 C 232.710938 290.308594 233.871094 288.050781 235.085938 285.828125 C 237.457031 281.464844 240.042969 277.21875 242.785156 273.074219 C 248.300781 264.742188 254.351562 256.738281 259.21875 247.996094 C 264.324219 238.8125 268.082031 228.785156 268.453125 218.195312 C 268.558594 215.171875 263.863281 215.175781 263.757812 218.195312 Z M 263.757812 218.195312 " fill-opacity="1" fill-rule="nonzero"/><path fill="#ffcfca" d="M 231.644531 239.316406 C 231.644531 239.316406 237.925781 245.148438 249.9375 243.90625 C 268.976562 241.9375 272.601562 229.867188 272.601562 229.867188 C 272.601562 229.867188 288.140625 234.964844 296.621094 223.898438 C 305.101562 212.835938 301.4375 200.363281 301.4375 200.363281 C 307.863281 195.515625 311.808594 187.53125 311.746094 179.480469 C 311.6875 171.429688 307.632812 163.503906 301.136719 158.746094 C 301.328125 146.171875 289.296875 134.800781 276.757812 135.699219 C 274.429688 125.136719 266.613281 115.945312 256.558594 111.949219 C 246.511719 107.953125 234.511719 109.261719 225.566406 115.34375 C 221.855469 112.304688 219.070312 109.796875 211.648438 109.992188 C 199.578125 110.308594 194.699219 118.664062 194.699219 118.664062 C 184.660156 114.628906 172.664062 115.894531 163.691406 121.9375 C 154.722656 127.984375 149.042969 138.625 149.011719 149.441406 C 136.566406 151.230469 127.226562 164.902344 130.085938 177.148438 C 124.753906 183.175781 122.472656 191.785156 124.132812 199.660156 C 125.789062 207.539062 131.335938 214.503906 138.648438 217.871094 C 138.648438 217.871094 137.722656 230.835938 148.363281 239.84375 C 159.003906 248.855469 173.097656 240.570312 173.097656 240.570312 C 173.097656 240.570312 184.515625 252.15625 198.230469 249.472656 C 210.082031 247.152344 215.128906 241.09375 215.128906 241.09375 C 215.128906 241.09375 222.035156 245.132812 231.644531 239.320312 Z M 231.644531 239.316406 " fill-opacity="1" fill-rule="nonzero"/><path fill="#ffa59b" d="M 155.632812 172.730469 C 155.335938 169.648438 156.039062 166.691406 158.207031 164.386719 C 160.769531 161.667969 164.0625 160.8125 167.699219 161.082031 C 168.894531 161.171875 170.152344 159.933594 170.046875 158.734375 C 169.765625 155.417969 170.4375 152.113281 172.773438 149.679688 C 175.316406 147.035156 178.949219 145.277344 182.691406 145.796875 C 183.945312 145.96875 185.210938 145.492188 185.578125 144.160156 C 185.878906 143.0625 185.203125 141.449219 183.941406 141.269531 C 178.609375 140.53125 173.554688 142.292969 169.730469 146.089844 C 166.375 149.417969 164.953125 154.039062 165.359375 158.738281 C 166.140625 157.957031 166.921875 157.175781 167.703125 156.394531 C 162.898438 156.03125 158.242188 157.515625 154.890625 161.066406 C 151.917969 164.214844 150.527344 168.429688 150.9375 172.730469 C 151.058594 173.992188 151.929688 175.078125 153.285156 175.078125 C 154.460938 175.078125 155.753906 174 155.632812 172.730469 Z M 155.632812 172.730469 " fill-opacity="1" fill-rule="nonzero"/><path fill="#ffa59b" d="M 160.46875 220.6875 C 163.511719 225.171875 167.453125 229.253906 172.429688 231.558594 C 177.875 234.082031 183.953125 234.425781 189.488281 232.015625 C 190.652344 231.507812 190.917969 229.804688 190.332031 228.804688 C 189.632812 227.601562 188.289062 227.453125 187.125 227.960938 C 178.320312 231.800781 169.296875 225.347656 164.523438 218.320312 C 162.835938 215.832031 158.769531 218.179688 160.472656 220.6875 Z M 160.46875 220.6875 " fill-opacity="1" fill-rule="nonzero"/><path fill="#ffa59b" d="M 257.851562 136.960938 C 258.566406 137.21875 259.273438 137.480469 259.976562 137.773438 C 260.382812 137.941406 259.484375 137.554688 260.1875 137.867188 C 260.332031 137.929688 260.480469 137.996094 260.625 138.0625 C 260.988281 138.226562 261.34375 138.398438 261.703125 138.574219 C 263.042969 139.25 264.347656 140.019531 265.542969 140.9375 C 265.351562 140.792969 265.445312 140.863281 265.574219 140.972656 C 265.714844 141.085938 265.855469 141.203125 265.992188 141.320312 C 266.234375 141.53125 266.476562 141.75 266.710938 141.976562 C 267.207031 142.453125 267.675781 142.953125 268.109375 143.484375 C 268.210938 143.601562 268.40625 143.871094 268.210938 143.601562 C 268.320312 143.75 268.421875 143.894531 268.527344 144.039062 C 268.710938 144.304688 268.886719 144.578125 269.050781 144.855469 C 269.234375 145.164062 269.40625 145.476562 269.570312 145.800781 C 269.632812 145.929688 269.695312 146.0625 269.757812 146.1875 C 270.054688 146.824219 269.597656 145.765625 269.851562 146.421875 C 270.296875 147.5625 271.449219 148.480469 272.742188 148.058594 C 273.847656 147.703125 274.859375 146.394531 274.378906 145.171875 C 273.171875 142.082031 271.167969 139.421875 268.550781 137.375 C 265.707031 135.148438 262.484375 133.644531 259.09375 132.425781 C 257.9375 132.011719 256.476562 132.894531 256.207031 134.066406 C 255.90625 135.382812 256.605469 136.507812 257.84375 136.953125 Z M 257.851562 136.960938 " fill-opacity="1" fill-rule="nonzero"/><path fill="#ffa59b" d="M 184.445312 183.785156 C 184.445312 183.785156 182.933594 180.078125 189.898438 178.015625 C 196.863281 175.953125 205.320312 176.308594 203.578125 182.226562 C 201.835938 188.140625 184.078125 190.09375 184.445312 183.789062 Z M 184.445312 183.785156 " fill-opacity="1" fill-rule="nonzero"/><path fill="#ffa59b" d="M 255.601562 168.894531 C 255.601562 168.894531 254.152344 165.164062 261.148438 163.21875 C 268.148438 161.273438 276.59375 161.773438 274.753906 167.660156 C 272.914062 173.542969 255.125 175.195312 255.601562 168.898438 Z M 255.601562 168.894531 " fill-opacity="1" fill-rule="nonzero"/><path fill="#ffffff" d="M 163.0625 149.296875 C 162.246094 150.625 156.84375 153.773438 155.15625 145.679688 C 153.46875 137.589844 162.933594 123.742188 173.871094 123.707031 C 184.808594 123.671875 174.402344 132.523438 170.070312 136.828125 C 165.742188 141.128906 165.015625 146.128906 163.066406 149.296875 Z M 163.0625 149.296875 " fill-opacity="1" fill-rule="nonzero"/><path fill="#ffffff" d="M 249.671875 118.589844 C 247.5625 115.207031 240.683594 115.722656 236.914062 116.726562 C 236.492188 116.835938 236.046875 116.984375 235.777344 117.324219 C 235.421875 117.785156 235.511719 118.476562 235.84375 118.949219 C 236.179688 119.425781 236.699219 119.734375 237.222656 119.988281 C 240.910156 121.824219 245.363281 122.054688 249.226562 120.617188 C 249.6875 120.449219 250.203125 120.164062 250.238281 119.675781 C 250.253906 119.433594 250.140625 119.203125 250.007812 119.003906 C 249.222656 117.824219 247.5625 117.316406 246.25 117.859375 " fill-opacity="1" fill-rule="nonzero"/><path fill="#ffffff" d="M 251.699219 117.40625 C 250.042969 114.859375 247.167969 113.960938 244.28125 113.695312 C 241.683594 113.453125 238.949219 113.773438 236.433594 114.425781 C 235.378906 114.703125 234.359375 115.1875 233.753906 116.140625 C 233.050781 117.242188 233.066406 118.636719 233.636719 119.789062 C 234.515625 121.578125 236.644531 122.410156 238.425781 123.007812 C 241.90625 124.183594 245.898438 124.207031 249.386719 123.046875 C 250.472656 122.6875 251.550781 122.226562 252.160156 121.191406 C 252.988281 119.785156 252.476562 118.164062 251.433594 117.039062 C 250.015625 115.511719 247.601562 114.863281 245.625 115.597656 C 244.476562 116.023438 243.574219 117.207031 243.988281 118.488281 C 244.351562 119.609375 245.644531 120.585938 246.875 120.125 C 246.992188 120.078125 247.121094 120.046875 247.238281 120 C 247.414062 119.933594 247.585938 120.027344 247.183594 119.996094 C 247.273438 120.003906 247.390625 119.96875 247.472656 119.996094 C 247.800781 120.109375 247.089844 119.871094 247.421875 119.980469 C 247.601562 120.042969 248.0625 120.253906 247.679688 120.03125 C 247.792969 120.097656 247.902344 120.160156 248.015625 120.226562 C 247.617188 119.984375 248.089844 120.265625 248.050781 120.292969 L 248.117188 120.363281 L 247.988281 120.191406 C 247.8125 119.097656 247.988281 118.914062 248.558594 118.351562 C 248.496094 118.414062 248.125 118.5625 248.605469 118.359375 C 248.453125 118.425781 248.289062 118.476562 248.136719 118.523438 C 247.550781 118.71875 246.953125 118.878906 246.34375 118.996094 C 246.183594 119.027344 246.023438 119.058594 245.859375 119.085938 C 245.453125 119.15625 246.15625 119.054688 245.746094 119.105469 C 245.460938 119.136719 245.171875 119.160156 244.882812 119.179688 C 244.222656 119.21875 243.566406 119.214844 242.910156 119.171875 C 242.742188 119.160156 242.578125 119.144531 242.417969 119.132812 C 242.417969 119.132812 242.015625 119.085938 242.238281 119.117188 C 242.492188 119.148438 241.988281 119.074219 241.9375 119.066406 C 241.816406 119.042969 241.695312 119.023438 241.574219 118.996094 C 240.929688 118.871094 240.289062 118.699219 239.667969 118.488281 C 239.511719 118.433594 239.355469 118.375 239.203125 118.320312 C 239.167969 118.308594 238.789062 118.160156 239.078125 118.28125 C 238.816406 118.171875 238.558594 118.046875 238.304688 117.917969 C 238.082031 117.804688 237.84375 117.6875 237.644531 117.53125 C 237.949219 117.777344 237.675781 117.523438 237.632812 117.464844 C 237.753906 117.617188 237.84375 117.714844 237.871094 117.917969 C 237.925781 118.238281 237.488281 119.179688 237.105469 119.121094 C 237.257812 119.140625 237.648438 118.957031 237.816406 118.917969 C 238.230469 118.8125 238.652344 118.71875 239.070312 118.644531 C 239.265625 118.605469 239.464844 118.570312 239.660156 118.539062 C 239.878906 118.507812 240.308594 118.453125 239.824219 118.507812 C 240.3125 118.449219 240.800781 118.398438 241.285156 118.367188 C 242.214844 118.304688 243.152344 118.296875 244.082031 118.375 C 244.207031 118.386719 244.324219 118.398438 244.445312 118.410156 C 245.035156 118.460938 244.121094 118.339844 244.445312 118.410156 C 244.707031 118.464844 244.96875 118.5 245.230469 118.554688 C 245.453125 118.605469 245.675781 118.664062 245.894531 118.726562 C 246 118.757812 246.109375 118.792969 246.210938 118.828125 C 246.289062 118.855469 246.746094 118.980469 246.390625 118.886719 C 246.105469 118.804688 246.332031 118.859375 246.40625 118.894531 C 246.527344 118.949219 246.644531 119.007812 246.757812 119.074219 C 246.808594 119.101562 247.363281 119.40625 247.347656 119.441406 C 247.335938 119.472656 246.910156 119.042969 247.222656 119.355469 C 247.292969 119.425781 247.371094 119.492188 247.4375 119.558594 C 247.421875 119.542969 247.636719 119.777344 247.636719 119.777344 C 247.609375 119.792969 247.304688 119.296875 247.621094 119.777344 C 248.289062 120.808594 249.730469 121.332031 250.832031 120.621094 C 251.859375 119.960938 252.390625 118.511719 251.675781 117.414062 Z M 251.699219 117.40625 " fill-opacity="1" fill-rule="nonzero"/><path fill="#ffbdc5" d="M 288.703125 192.003906 C 287.554688 193.472656 285.964844 197.421875 291.476562 198.914062 C 296.988281 200.40625 304.101562 194.535156 306.535156 185.328125 C 308.964844 176.117188 304.015625 174.285156 300.222656 174.671875 C 296.429688 175.0625 293.339844 186.101562 288.703125 192.003906 Z M 288.703125 192.003906 " fill-opacity="1" fill-rule="nonzero"/><path fill="#ffa59b" d="M 214.59375 125.617188 C 215.09375 125.722656 215.589844 125.863281 216.074219 126.035156 C 216.191406 126.078125 216.3125 126.125 216.433594 126.167969 C 216.832031 126.316406 215.929688 125.933594 216.34375 126.128906 C 216.554688 126.230469 216.769531 126.328125 216.976562 126.4375 C 217.414062 126.664062 217.835938 126.921875 218.238281 127.195312 C 218.347656 127.269531 218.445312 127.347656 218.554688 127.417969 C 218.945312 127.691406 218.117188 127.0625 218.484375 127.363281 C 218.683594 127.53125 218.878906 127.691406 219.070312 127.863281 C 219.4375 128.195312 219.777344 128.546875 220.101562 128.921875 C 220.183594 129.019531 220.265625 129.117188 220.34375 129.21875 C 220.582031 129.511719 220.328125 129.234375 220.253906 129.09375 C 220.371094 129.3125 220.554688 129.515625 220.695312 129.722656 C 220.972656 130.152344 221.226562 130.597656 221.449219 131.0625 C 221.503906 131.171875 221.546875 131.304688 221.609375 131.410156 L 221.472656 131.085938 C 221.503906 131.164062 221.539062 131.242188 221.570312 131.324219 C 221.660156 131.5625 221.746094 131.804688 221.820312 132.050781 C 222.191406 133.222656 223.476562 134.089844 224.710938 133.6875 C 225.945312 133.285156 226.742188 132.054688 226.347656 130.800781 C 224.847656 126.027344 220.765625 122.136719 215.839844 121.082031 C 214.640625 120.824219 213.242188 121.4375 212.949219 122.71875 C 212.683594 123.902344 213.308594 125.332031 214.589844 125.609375 Z M 214.59375 125.617188 " fill-opacity="1" fill-rule="nonzero"/><path fill="#ffa59b" d="M 225.402344 135.667969 C 225.535156 135.472656 225.671875 135.28125 225.820312 135.089844 L 225.449219 135.566406 C 226.054688 134.785156 226.753906 134.089844 227.535156 133.488281 C 227.378906 133.613281 227.21875 133.734375 227.0625 133.859375 C 227.847656 133.257812 228.699219 132.765625 229.609375 132.382812 L 229.046875 132.617188 C 229.519531 132.421875 230 132.257812 230.488281 132.128906 C 231.675781 131.808594 232.519531 130.445312 232.128906 129.242188 C 231.738281 128.035156 230.507812 127.257812 229.238281 127.601562 C 226 128.476562 223.222656 130.539062 221.34375 133.300781 C 221.011719 133.785156 220.957031 134.5625 221.105469 135.113281 C 221.253906 135.660156 221.675781 136.246094 222.183594 136.515625 C 223.371094 137.144531 224.65625 136.761719 225.394531 135.671875 Z M 225.402344 135.667969 " fill-opacity="1" fill-rule="nonzero"/><path fill="#ffbdc5" d="M 151.207031 239.777344 C 147.6875 238.308594 138.371094 230.089844 146.164062 219.503906 C 152.363281 211.089844 174.640625 217.359375 177.351562 221.445312 C 177.351562 221.445312 183.867188 221.402344 189.542969 226.457031 C 189.542969 226.457031 199.710938 216.9375 211.515625 219.878906 C 223.320312 222.820312 224.484375 227.382812 228.066406 227.578125 C 231.644531 227.769531 233.894531 221.023438 242.835938 220.835938 C 251.773438 220.644531 255.1875 227.890625 255.1875 227.890625 C 255.1875 227.890625 265.875 224.164062 267.324219 217.898438 C 268.773438 211.628906 278.414062 208.21875 283.996094 212.402344 C 289.582031 216.582031 290.46875 225.808594 283.785156 229.035156 C 277.105469 232.257812 272.816406 229.476562 272.332031 230.265625 C 271.84375 231.054688 266.683594 240.820312 255.691406 243.230469 C 240.773438 246.507812 234.023438 239.839844 234.023438 239.839844 C 234.023438 239.839844 225.171875 244.328125 216.046875 241.003906 C 216.046875 241.003906 214.730469 241.285156 211.375 243.335938 C 204.054688 247.804688 192.542969 249.875 184.769531 246.195312 C 177 242.523438 175.644531 240.097656 173.820312 238.992188 C 173.242188 238.644531 172.488281 238.246094 171.914062 238.59375 C 168.890625 240.4375 162.558594 244.5 151.214844 239.773438 Z M 151.207031 239.777344 " fill-opacity="1" fill-rule="nonzero"/><path fill="#ffa59b" d="M 136.710938 204.863281 C 139.347656 208.101562 142.457031 210.664062 146.351562 212.203125 C 150.25 213.738281 154.769531 213.871094 158.929688 212.882812 C 161.867188 212.1875 160.625 207.65625 157.683594 208.359375 C 154.195312 209.1875 150.902344 208.957031 147.605469 207.675781 C 147.441406 207.613281 147.320312 207.558594 147.550781 207.65625 C 147.417969 207.597656 147.292969 207.542969 147.167969 207.484375 C 146.898438 207.363281 146.636719 207.230469 146.375 207.097656 C 145.605469 206.699219 144.859375 206.25 144.164062 205.726562 C 142.59375 204.554688 141.265625 203.054688 140.03125 201.542969 C 139.230469 200.5625 137.542969 200.710938 136.710938 201.542969 C 135.738281 202.519531 135.910156 203.875 136.710938 204.863281 Z M 136.710938 204.863281 " fill-opacity="1" fill-rule="nonzero"/><path fill="#ffa59b" d="M 288.941406 172.457031 C 291.375 180.585938 287.507812 189.832031 280.035156 193.835938 C 277.375 195.261719 279.738281 199.316406 282.40625 197.890625 C 291.667969 192.921875 296.480469 181.269531 293.46875 171.210938 C 292.605469 168.324219 288.070312 169.554688 288.941406 172.457031 Z M 288.941406 172.457031 " fill-opacity="1" fill-rule="nonzero"/><path fill="#ffd97b" d="M 288.867188 94.652344 C 289.15625 96.699219 289.410156 98.632812 289.675781 100.867188 C 289.941406 103.066406 290.183594 105.261719 290.40625 107.464844 C 290.527344 108.683594 291.394531 109.871094 292.753906 109.8125 C 293.917969 109.757812 295.234375 108.773438 295.101562 107.464844 C 294.625 102.765625 294.050781 98.078125 293.398438 93.40625 C 293.226562 92.183594 291.605469 91.410156 290.511719 91.765625 C 289.171875 92.199219 288.6875 93.347656 288.871094 94.65625 Z M 288.867188 94.652344 " fill-opacity="1" fill-rule="nonzero"/><path fill="#ffd97b" d="M 285.917969 104.242188 C 287.03125 104.007812 288.152344 103.796875 289.273438 103.617188 C 290.460938 103.425781 290.972656 103.355469 292.148438 103.230469 C 294.347656 102.992188 296.558594 102.867188 298.769531 102.84375 C 300 102.832031 301.175781 101.773438 301.117188 100.496094 C 301.0625 99.234375 300.085938 98.132812 298.769531 98.148438 C 294.035156 98.199219 289.304688 98.738281 284.671875 99.71875 C 283.46875 99.972656 282.660156 101.449219 283.035156 102.605469 C 283.445312 103.875 284.632812 104.515625 285.921875 104.242188 Z M 285.917969 104.242188 " fill-opacity="1" fill-rule="nonzero"/><path fill="#ffa59b" d="M 297.722656 157.605469 C 297.011719 159.929688 298.902344 162.332031 301.34375 162.292969 C 303.964844 162.25 305.863281 159.675781 307.492188 157.949219 C 311.308594 153.910156 314.84375 149.601562 318.101562 145.097656 C 324.566406 136.15625 329.800781 126.355469 333.742188 116.050781 C 336.003906 110.140625 337.792969 104.066406 339.132812 97.882812 C 339.769531 94.9375 335.242188 93.679688 334.605469 96.636719 C 332.085938 108.296875 327.910156 119.535156 322.140625 129.976562 C 319.289062 135.136719 316.078125 140.097656 312.519531 144.800781 C 310.703125 147.203125 308.78125 149.53125 306.78125 151.785156 C 305.78125 152.910156 304.769531 154.015625 303.730469 155.101562 C 303.285156 155.566406 302.839844 156.027344 302.386719 156.484375 C 302.113281 156.769531 301.832031 157.046875 301.542969 157.320312 C 300.734375 157.722656 300.972656 158.234375 302.25 158.855469 C 303.140625 155.960938 298.609375 154.726562 297.722656 157.609375 Z M 297.722656 157.605469 " fill-opacity="1" fill-rule="nonzero"/><path fill="#ffa59b" d="M 331.773438 87.652344 C 334.460938 88.871094 337.425781 89.457031 340.371094 89.355469 C 341.320312 89.320312 342.507812 89.019531 342.675781 88.082031 C 342.753906 87.648438 342.570312 87.207031 342.355469 86.820312 C 340.246094 83.015625 335.257812 81.90625 330.914062 82.121094 C 330.191406 82.15625 329.4375 82.226562 328.804688 82.585938 C 327.578125 83.28125 327.164062 84.816406 326.863281 86.191406 C 326.25 88.96875 325.683594 92.050781 327.125 94.5 C 328.371094 96.617188 330.796875 97.691406 333.074219 98.617188 C 336.605469 100.050781 340.5 101.460938 344.140625 100.34375 C 348.753906 98.921875 351.265625 93.957031 352.464844 89.28125 C 352.945312 87.414062 353.300781 85.4375 352.800781 83.570312 C 352.300781 81.707031 350.738281 80.007812 348.808594 79.933594 C 348.464844 79.921875 348.078125 79.9375 347.84375 79.691406 C 347.605469 79.4375 347.652344 79.042969 347.664062 78.699219 C 347.726562 77.210938 346.828125 75.726562 345.480469 75.085938 C 344.136719 74.449219 342.417969 74.695312 341.304688 75.683594 C 340.988281 74.070312 339.375 72.898438 337.734375 72.84375 C 336.09375 72.792969 334.515625 73.726562 333.546875 75.050781 C 331.933594 77.25 332.054688 80.671875 334.074219 82.507812 " fill-opacity="1" fill-rule="nonzero"/><g clip-path="url(#8b24fc971a)"><path fill="#ffa59b" d="M 330.59375 89.679688 C 333.933594 91.144531 338.3125 92.4375 341.980469 91.484375 C 343.753906 91.019531 345.128906 89.546875 345.027344 87.648438 C 344.933594 85.945312 343.664062 84.285156 342.4375 83.191406 C 339.984375 81.007812 336.792969 80.085938 333.574219 79.816406 C 332.089844 79.695312 330.4375 79.636719 328.992188 80.011719 C 327.089844 80.511719 325.84375 81.90625 325.152344 83.683594 C 323.929688 86.792969 323.253906 91.128906 324.476562 94.328125 C 325.84375 97.898438 329.121094 99.519531 332.453125 100.875 C 336.175781 102.390625 340.25 103.746094 344.292969 102.730469 C 347.457031 101.941406 349.960938 99.722656 351.726562 97.046875 C 353.796875 93.902344 355.234375 89.707031 355.386719 85.941406 C 355.464844 83.933594 354.980469 81.941406 353.765625 80.324219 C 353.140625 79.488281 352.378906 78.777344 351.449219 78.285156 C 351.058594 78.078125 350.617188 77.898438 350.1875 77.785156 C 349.863281 77.707031 349.527344 77.652344 349.195312 77.625 C 348.742188 77.550781 348.6875 77.5625 349.035156 77.664062 L 349.878906 78.507812 L 349.71875 78.21875 L 350.042969 79.402344 C 349.917969 78.179688 349.945312 77.085938 349.410156 75.9375 C 348.867188 74.785156 347.964844 73.785156 346.851562 73.164062 C 344.441406 71.8125 341.722656 72.390625 339.652344 74.03125 C 340.960938 74.375 342.269531 74.71875 343.578125 75.066406 C 342.242188 70 336.035156 69.355469 332.578125 72.628906 C 329.367188 75.664062 329.285156 81.082031 332.421875 84.179688 C 334.574219 86.300781 337.894531 82.984375 335.746094 80.855469 C 334.597656 79.726562 334.457031 77.785156 335.421875 76.472656 C 336.246094 75.347656 338.550781 74.410156 339.054688 76.316406 C 339.546875 78.175781 341.652344 78.402344 342.976562 77.351562 C 343.566406 76.886719 344.523438 77.035156 344.980469 77.59375 C 345.378906 78.078125 345.289062 78.476562 345.320312 79.0625 C 345.363281 79.894531 345.59375 80.753906 346.199219 81.359375 C 347.15625 82.3125 348.402344 81.910156 349.421875 82.53125 C 350.324219 83.082031 350.664062 84.246094 350.703125 85.234375 C 350.804688 87.667969 349.898438 90.441406 348.851562 92.613281 C 347.851562 94.683594 346.507812 96.6875 344.398438 97.742188 C 341.757812 99.0625 338.675781 98.195312 336.0625 97.265625 C 333.921875 96.507812 331.015625 95.65625 329.519531 93.828125 C 327.882812 91.824219 328.6875 88.710938 329.230469 86.445312 C 329.433594 85.601562 329.546875 84.683594 330.496094 84.503906 C 331.621094 84.292969 332.988281 84.421875 334.109375 84.566406 C 336.292969 84.84375 338.757812 85.648438 340.0625 87.542969 L 340.164062 87.695312 C 340.429688 88.347656 340.640625 88.105469 340.792969 86.96875 C 340.683594 86.898438 340.519531 87.0625 340.390625 87.019531 C 339.726562 86.792969 338.664062 87.019531 337.933594 86.945312 C 336.246094 86.78125 334.527344 86.316406 332.976562 85.640625 C 331.816406 85.128906 330.457031 85.296875 329.765625 86.484375 C 329.183594 87.480469 329.4375 89.183594 330.609375 89.691406 Z M 330.59375 89.679688 " fill-opacity="1" fill-rule="nonzero"/></g><path fill="#e96474" d="M 340.527344 80.953125 C 340.535156 80.878906 340.539062 80.808594 340.546875 80.738281 C 340.550781 80.695312 340.597656 80.332031 340.554688 80.648438 C 340.519531 80.9375 340.554688 80.675781 340.5625 80.613281 C 340.578125 80.527344 340.59375 80.4375 340.613281 80.347656 C 340.667969 80.042969 340.742188 79.75 340.832031 79.453125 C 340.921875 79.136719 341.039062 78.835938 341.152344 78.53125 C 341.234375 78.316406 341.003906 78.863281 341.101562 78.652344 C 341.140625 78.570312 341.175781 78.488281 341.214844 78.40625 C 341.28125 78.261719 341.355469 78.113281 341.433594 77.96875 C 341.578125 77.695312 341.734375 77.433594 341.898438 77.175781 C 341.988281 77.039062 342.082031 76.90625 342.175781 76.773438 C 342.210938 76.726562 342.367188 76.523438 342.199219 76.734375 C 342.019531 76.960938 342.222656 76.707031 342.265625 76.65625 C 342.679688 76.15625 343.144531 75.695312 343.644531 75.28125 C 344.359375 74.695312 344.300781 73.394531 343.644531 72.792969 C 342.886719 72.09375 341.914062 72.167969 341.15625 72.792969 C 338.710938 74.808594 337.273438 77.820312 337.003906 80.953125 C 336.921875 81.871094 337.871094 82.75 338.761719 82.710938 C 339.78125 82.667969 340.4375 81.9375 340.523438 80.953125 Z M 340.527344 80.953125 " fill-opacity="1" fill-rule="nonzero"/><path fill="#e96474" d="M 346.5625 85.445312 C 346.652344 85.195312 346.746094 84.949219 346.847656 84.703125 L 346.671875 85.125 C 347.066406 84.199219 347.582031 83.335938 348.195312 82.535156 L 347.917969 82.894531 C 348.519531 82.125 349.210938 81.4375 349.984375 80.835938 L 349.628906 81.113281 C 349.699219 81.058594 349.769531 81.007812 349.839844 80.953125 C 350.21875 80.671875 350.519531 80.375 350.648438 79.902344 C 350.765625 79.480469 350.714844 78.917969 350.472656 78.542969 C 350.230469 78.167969 349.871094 77.839844 349.421875 77.734375 C 348.972656 77.632812 348.441406 77.636719 348.0625 77.910156 C 346.871094 78.789062 345.875 79.777344 344.992188 80.972656 C 344.195312 82.042969 343.601562 83.253906 343.164062 84.511719 C 342.863281 85.382812 343.511719 86.476562 344.398438 86.679688 C 345.378906 86.902344 346.238281 86.382812 346.5625 85.445312 Z M 346.5625 85.445312 " fill-opacity="1" fill-rule="nonzero"/><path fill="#e96474" d="M 328.808594 83.996094 C 330.371094 82.730469 333.027344 82.394531 335.066406 82.375 C 337.472656 82.351562 339.898438 83.078125 341.695312 84.730469 C 342.441406 85.414062 343.515625 86.503906 343.339844 87.628906 C 343.1875 88.585938 342.074219 89.15625 341.210938 89.273438 C 339.792969 89.46875 338.332031 88.914062 337.035156 88.417969 C 335.59375 87.867188 334.183594 87.25 332.652344 86.972656 C 331.71875 86.804688 330.753906 87.230469 330.484375 88.203125 C 330.253906 89.058594 330.773438 90.199219 331.71875 90.371094 C 334.769531 90.925781 337.4375 92.8125 340.613281 92.820312 C 343.527344 92.832031 346.546875 90.957031 346.839844 87.859375 C 347.128906 84.816406 344.585938 82.191406 342.175781 80.730469 C 339.863281 79.332031 337.152344 78.75 334.46875 78.875 C 331.585938 79.003906 328.597656 79.664062 326.316406 81.511719 C 325.578125 82.109375 325.695312 83.378906 326.316406 84 C 327.046875 84.730469 328.066406 84.601562 328.804688 84 Z M 328.808594 83.996094 " fill-opacity="1" fill-rule="nonzero"/><path fill="#e96474" d="M 342.828125 90.945312 C 343.480469 91.570312 344.160156 92.144531 344.996094 92.496094 C 345.941406 92.894531 346.953125 92.925781 347.957031 92.75 C 349.601562 92.457031 350.984375 91.355469 352.140625 90.214844 C 352.796875 89.566406 352.839844 88.367188 352.140625 87.726562 C 351.441406 87.085938 350.347656 87.03125 349.652344 87.726562 C 349.433594 87.945312 349.207031 88.160156 348.972656 88.363281 C 348.890625 88.429688 348.71875 88.636719 348.617188 88.660156 C 348.820312 88.503906 348.847656 88.484375 348.695312 88.597656 C 348.636719 88.640625 348.570312 88.683594 348.507812 88.730469 C 348.28125 88.882812 348.046875 89.007812 347.808594 89.136719 C 347.636719 89.21875 347.671875 89.207031 347.914062 89.101562 C 347.839844 89.132812 347.769531 89.160156 347.695312 89.183594 C 347.550781 89.234375 347.398438 89.277344 347.246094 89.3125 C 347.171875 89.332031 347.09375 89.347656 347.015625 89.359375 C 347.292969 89.324219 347.335938 89.320312 347.140625 89.339844 C 346.984375 89.34375 346.832031 89.339844 346.679688 89.347656 C 346.304688 89.359375 347.054688 89.445312 346.691406 89.355469 C 346.65625 89.347656 346.242188 89.253906 346.25 89.234375 C 346.492188 89.34375 346.527344 89.359375 346.347656 89.273438 C 346.28125 89.238281 346.210938 89.203125 346.140625 89.160156 C 346.078125 89.117188 346.007812 89.074219 345.945312 89.03125 C 345.792969 88.921875 345.816406 88.945312 346.019531 89.09375 C 345.914062 89.074219 345.738281 88.851562 345.664062 88.785156 C 345.546875 88.675781 345.433594 88.570312 345.316406 88.457031 C 344.648438 87.820312 343.480469 87.75 342.828125 88.457031 C 342.195312 89.148438 342.117188 90.269531 342.828125 90.945312 Z M 342.828125 90.945312 " fill-opacity="1" fill-rule="nonzero"/><path fill="#000000" d="M 214 155.777344 C 212.621094 155.234375 211.015625 156.175781 210.316406 157.480469 C 209.617188 158.789062 209.605469 160.34375 209.660156 161.824219 C 209.703125 163.046875 209.792969 164.324219 210.410156 165.378906 C 211.03125 166.433594 212.339844 167.183594 213.496094 166.773438 C 215.113281 166.199219 215.308594 164.023438 215.21875 162.308594 C 215.171875 161.445312 215.125 160.582031 215.078125 159.71875 C 215.027344 158.691406 214.953125 157.609375 214.414062 156.734375 C 213.867188 155.859375 212.6875 155.289062 211.773438 155.773438 " fill-opacity="1" fill-rule="nonzero"/><path fill="#000000" d="M 214.957031 153.640625 C 213.296875 153.050781 211.730469 153.28125 210.242188 154.203125 C 208.996094 154.96875 208.152344 156.285156 207.738281 157.660156 C 207.324219 159.03125 207.277344 160.574219 207.332031 162.074219 C 207.390625 163.664062 207.636719 165.199219 208.4375 166.597656 C 210.03125 169.398438 214.121094 170.21875 216.265625 167.566406 C 217.945312 165.484375 217.574219 162.585938 217.441406 160.113281 C 217.351562 158.378906 217.25 156.507812 216.113281 155.089844 C 214.914062 153.589844 212.746094 152.734375 210.917969 153.59375 C 209.8125 154.109375 209.0625 155.425781 209.601562 156.628906 C 210.09375 157.726562 211.453125 158.507812 212.640625 157.945312 C 212.835938 157.855469 212.914062 157.902344 212.457031 157.945312 C 212.5625 157.933594 212.738281 157.957031 212.4375 157.914062 C 212.0625 157.867188 212.402344 157.933594 212.496094 157.9375 C 212.730469 157.949219 212.296875 157.90625 212.28125 157.875 C 212.292969 157.898438 212.550781 157.960938 212.558594 158.007812 L 212.4375 157.933594 C 212.273438 157.832031 212.273438 157.839844 212.4375 157.960938 C 212.492188 158.050781 212.558594 158.191406 212.457031 157.964844 C 212.296875 157.613281 212.53125 158.085938 212.535156 158.117188 C 212.535156 158.089844 212.34375 157.636719 212.503906 158.097656 C 212.53125 158.183594 212.558594 158.289062 212.597656 158.367188 C 212.742188 158.671875 212.542969 157.980469 212.589844 158.3125 C 212.601562 158.410156 212.625 158.507812 212.640625 158.601562 C 212.71875 159.125 212.742188 159.648438 212.769531 160.175781 C 212.824219 161.152344 212.910156 162.132812 212.917969 163.117188 C 212.917969 163.1875 212.917969 163.261719 212.917969 163.335938 C 212.929688 163.644531 212.957031 162.835938 212.917969 163.148438 C 212.894531 163.316406 212.894531 163.492188 212.875 163.660156 C 212.855469 163.828125 212.828125 163.996094 212.792969 164.164062 C 212.777344 164.230469 212.761719 164.300781 212.746094 164.375 C 212.664062 164.820312 212.902344 164.046875 212.78125 164.261719 C 212.753906 164.3125 212.582031 164.628906 212.59375 164.695312 C 212.558594 164.480469 212.894531 164.296875 212.703125 164.519531 C 212.675781 164.550781 212.539062 164.699219 212.539062 164.71875 C 212.539062 164.730469 212.917969 164.371094 212.738281 164.523438 C 212.65625 164.597656 212.414062 164.710938 212.738281 164.558594 C 213.125 164.378906 212.808594 164.53125 212.769531 164.535156 C 212.296875 164.578125 213.1875 164.535156 212.871094 164.527344 C 212.78125 164.527344 212.429688 164.566406 212.796875 164.550781 C 213.164062 164.535156 212.871094 164.523438 212.804688 164.527344 C 212.507812 164.546875 212.800781 164.304688 212.933594 164.574219 C 212.925781 164.550781 212.742188 164.484375 212.71875 164.476562 C 212.433594 164.386719 213.042969 164.742188 212.8125 164.546875 C 212.75 164.496094 212.683594 164.445312 212.617188 164.402344 C 212.25 164.140625 212.671875 164.492188 212.679688 164.496094 C 212.585938 164.460938 212.480469 164.253906 212.429688 164.179688 C 212.398438 164.136719 212.300781 164.027344 212.296875 163.976562 L 212.414062 164.167969 L 212.335938 163.992188 C 212.300781 163.871094 212.246094 163.746094 212.207031 163.628906 C 212.191406 163.585938 212.097656 163.273438 212.179688 163.566406 C 212.269531 163.875 212.167969 163.476562 212.152344 163.398438 C 212.136719 163.304688 212.121094 163.207031 212.105469 163.113281 C 212.074219 162.855469 212.046875 162.59375 212.03125 162.335938 C 211.996094 161.863281 211.980469 161.386719 211.976562 160.90625 C 211.976562 160.816406 211.976562 160.71875 211.976562 160.625 C 211.972656 160.175781 211.964844 160.621094 211.96875 160.691406 C 211.949219 160.449219 211.996094 160.191406 212.023438 159.949219 C 212.054688 159.671875 212.097656 159.398438 212.160156 159.132812 C 212.175781 159.058594 212.1875 158.929688 212.226562 158.863281 C 211.984375 159.253906 212.199219 158.988281 212.261719 158.839844 C 212.296875 158.753906 212.335938 158.671875 212.371094 158.585938 C 212.582031 158.078125 212.179688 158.804688 212.34375 158.601562 C 212.410156 158.519531 212.464844 158.433594 212.53125 158.351562 C 212.695312 158.15625 212.828125 158.191406 212.476562 158.367188 C 212.640625 158.285156 212.816406 158.097656 212.964844 157.988281 C 213.203125 157.8125 213.058594 158.078125 212.839844 158.058594 C 212.902344 158.0625 213.0625 157.964844 213.121094 157.941406 C 213.515625 157.769531 212.980469 158.015625 212.941406 157.972656 C 212.960938 157.992188 213.28125 157.9375 213.3125 157.929688 C 213.535156 157.875 213.085938 157.949219 213.050781 157.921875 C 213.125 157.929688 213.195312 157.941406 213.269531 157.957031 C 213.441406 157.996094 213.367188 157.972656 213.050781 157.886719 C 214.199219 158.296875 215.652344 157.949219 216.144531 156.710938 C 216.582031 155.613281 216.199219 154.054688 214.96875 153.617188 Z M 214.957031 153.640625 " fill-opacity="1" fill-rule="nonzero"/><path fill="#000000" d="M 258.757812 142.949219 C 257.375 142.410156 255.769531 143.351562 255.070312 144.65625 C 254.371094 145.964844 254.363281 147.519531 254.414062 149 C 254.457031 150.222656 254.550781 151.5 255.167969 152.554688 C 255.789062 153.609375 257.097656 154.359375 258.25 153.949219 C 259.867188 153.375 260.066406 151.199219 259.972656 149.480469 C 259.925781 148.621094 259.878906 147.757812 259.835938 146.894531 C 259.78125 145.867188 259.707031 144.785156 259.167969 143.910156 C 258.621094 143.035156 257.441406 142.464844 256.527344 142.945312 " fill-opacity="1" fill-rule="nonzero"/><path fill="#000000" d="M 259.710938 140.816406 C 258.050781 140.226562 256.484375 140.457031 255 141.378906 C 253.75 142.144531 252.90625 143.460938 252.492188 144.832031 C 252.058594 146.277344 252.035156 147.75 252.085938 149.25 C 252.144531 150.839844 252.390625 152.375 253.191406 153.773438 C 254.789062 156.574219 258.875 157.394531 261.019531 154.738281 C 262.699219 152.660156 262.328125 149.761719 262.195312 147.289062 C 262.105469 145.554688 262.003906 143.683594 260.871094 142.265625 C 259.667969 140.765625 257.503906 139.910156 255.671875 140.769531 C 254.570312 141.285156 253.816406 142.601562 254.359375 143.804688 C 254.847656 144.902344 256.210938 145.679688 257.394531 145.121094 C 257.589844 145.03125 257.667969 145.078125 257.210938 145.121094 C 257.320312 145.109375 257.496094 145.132812 257.191406 145.089844 C 256.816406 145.042969 257.15625 145.109375 257.25 145.113281 C 257.488281 145.125 257.050781 145.082031 257.035156 145.046875 C 257.046875 145.074219 257.308594 145.136719 257.316406 145.183594 L 257.191406 145.109375 C 257.027344 145.007812 257.027344 145.015625 257.191406 145.136719 C 257.246094 145.226562 257.316406 145.367188 257.210938 145.140625 C 257.050781 144.789062 257.289062 145.257812 257.292969 145.292969 C 257.292969 145.261719 257.101562 144.8125 257.257812 145.273438 C 257.289062 145.359375 257.316406 145.460938 257.351562 145.542969 C 257.5 145.847656 257.300781 145.15625 257.34375 145.488281 C 257.355469 145.585938 257.378906 145.679688 257.394531 145.777344 C 257.476562 146.300781 257.5 146.824219 257.527344 147.351562 C 257.578125 148.328125 257.664062 149.308594 257.671875 150.292969 C 257.671875 150.363281 257.671875 150.4375 257.671875 150.511719 C 257.6875 150.820312 257.714844 150.011719 257.671875 150.320312 C 257.648438 150.492188 257.648438 150.667969 257.628906 150.835938 C 257.609375 151.003906 257.582031 151.171875 257.546875 151.339844 C 257.535156 151.40625 257.519531 151.476562 257.503906 151.550781 C 257.417969 151.992188 257.65625 151.222656 257.539062 151.4375 C 257.511719 151.488281 257.335938 151.804688 257.347656 151.871094 C 257.316406 151.65625 257.648438 151.472656 257.457031 151.695312 C 257.429688 151.726562 257.296875 151.875 257.296875 151.894531 C 257.296875 151.90625 257.671875 151.546875 257.496094 151.699219 C 257.410156 151.773438 257.167969 151.886719 257.496094 151.734375 C 257.878906 151.554688 257.5625 151.707031 257.527344 151.710938 C 257.054688 151.753906 257.945312 151.710938 257.625 151.703125 C 257.539062 151.703125 257.183594 151.742188 257.550781 151.726562 C 257.921875 151.710938 257.625 151.699219 257.558594 151.703125 C 257.261719 151.722656 257.554688 151.480469 257.691406 151.75 C 257.679688 151.726562 257.5 151.660156 257.472656 151.652344 C 257.1875 151.5625 257.796875 151.917969 257.566406 151.722656 C 257.507812 151.671875 257.4375 151.621094 257.371094 151.574219 C 257.003906 151.316406 257.425781 151.667969 257.433594 151.671875 C 257.339844 151.636719 257.234375 151.429688 257.183594 151.355469 C 257.152344 151.3125 257.058594 151.203125 257.054688 151.148438 L 257.167969 151.34375 L 257.09375 151.164062 C 257.058594 151.046875 257 150.921875 256.960938 150.804688 C 256.945312 150.761719 256.855469 150.449219 256.933594 150.738281 C 257.023438 151.050781 256.921875 150.652344 256.90625 150.574219 C 256.894531 150.480469 256.878906 150.382812 256.863281 150.289062 C 256.828125 150.03125 256.800781 149.769531 256.785156 149.511719 C 256.75 149.039062 256.734375 148.5625 256.730469 148.082031 C 256.730469 147.988281 256.730469 147.894531 256.730469 147.800781 C 256.726562 147.351562 256.71875 147.792969 256.722656 147.867188 C 256.703125 147.625 256.75 147.363281 256.777344 147.125 C 256.808594 146.847656 256.855469 146.574219 256.914062 146.304688 C 256.929688 146.234375 256.941406 146.101562 256.980469 146.039062 C 256.738281 146.429688 256.953125 146.164062 257.015625 146.015625 C 257.050781 145.929688 257.09375 145.847656 257.125 145.761719 C 257.335938 145.25 256.933594 145.980469 257.101562 145.777344 C 257.164062 145.695312 257.21875 145.609375 257.289062 145.527344 C 257.449219 145.332031 257.582031 145.367188 257.230469 145.542969 C 257.394531 145.460938 257.570312 145.273438 257.722656 145.164062 C 257.957031 144.988281 257.8125 145.25 257.59375 145.234375 C 257.65625 145.238281 257.816406 145.140625 257.875 145.117188 C 258.269531 144.945312 257.738281 145.191406 257.699219 145.148438 C 257.71875 145.167969 258.035156 145.113281 258.066406 145.105469 C 258.289062 145.046875 257.839844 145.125 257.804688 145.097656 C 257.878906 145.105469 257.953125 145.117188 258.023438 145.132812 C 258.195312 145.171875 258.125 145.148438 257.804688 145.0625 C 258.957031 145.46875 260.40625 145.125 260.902344 143.886719 C 261.339844 142.789062 260.953125 141.230469 259.722656 140.792969 Z M 259.710938 140.816406 " fill-opacity="1" fill-rule="nonzero"/><path fill="#000000" d="M 226.730469 169.996094 C 236.839844 172.496094 247.828125 169.554688 255.328125 162.320312 C 257.507812 160.21875 254.183594 156.902344 252.007812 159 C 245.722656 165.058594 236.449219 167.566406 227.976562 165.46875 C 225.042969 164.742188 223.792969 169.265625 226.730469 169.992188 Z M 226.730469 169.996094 " fill-opacity="1" fill-rule="nonzero"/><path fill="#ffa59b" d="M 109.976562 245.640625 C 113.203125 241.1875 117.765625 239.699219 120.910156 239.78125 C 124.976562 239.882812 128.339844 242.414062 128.9375 245.503906 C 129.0625 246.15625 129.105469 246.867188 129.507812 247.394531 C 129.855469 247.855469 130.417969 248.097656 130.945312 248.335938 C 131.964844 248.796875 132.992188 249.335938 133.691406 250.210938 C 134.394531 251.082031 134.699219 252.359375 134.15625 253.339844 C 133.617188 254.320312 132.085938 254.6875 131.328125 253.867188 C 132.253906 255.074219 132.328125 256.867188 131.507812 258.140625 C 130.6875 259.421875 129.027344 260.101562 127.542969 259.769531 C 128.234375 261.011719 127.871094 262.738281 126.730469 263.589844 C 125.597656 264.441406 123.835938 264.308594 122.839844 263.296875 C 123.105469 264.457031 121.929688 265.550781 120.746094 265.648438 C 119.554688 265.746094 118.429688 265.160156 117.394531 264.570312 C 113.148438 262.140625 108.816406 258.871094 107.769531 254.097656 C 106.726562 249.339844 109.789062 244.042969 114.429688 242.578125 " fill-opacity="1" fill-rule="nonzero"/><path fill="#ffa59b" d="M 112.007812 246.824219 C 114.679688 243.238281 119.917969 240.660156 124.140625 242.972656 C 125.03125 243.464844 125.84375 244.136719 126.316406 245.058594 C 126.890625 246.175781 126.765625 247.484375 127.484375 248.578125 C 128.40625 249.984375 129.957031 250.242188 131.253906 251.144531 C 131.460938 251.285156 131.664062 251.421875 131.816406 251.625 C 131.898438 251.730469 132.027344 252.148438 132.085938 252.171875 C 132.359375 252.289062 131.699219 252.011719 132.34375 251.960938 C 132.445312 251.953125 133.582031 252.714844 132.988281 252.199219 C 131.101562 250.550781 127.710938 252.703125 129.300781 255.042969 C 129.941406 255.988281 129.746094 257.761719 128.167969 257.5 C 126.089844 257.148438 124.605469 259.015625 125.519531 260.945312 C 125.832031 261.605469 124.972656 262.046875 124.5 261.628906 C 123.144531 260.429688 120.246094 261.101562 120.492188 263.289062 C 120.582031 264.101562 120.589844 263.234375 120.632812 263.242188 C 120.550781 263.230469 120.429688 263.34375 120.304688 263.300781 C 119.679688 263.085938 119.160156 262.863281 118.582031 262.539062 C 117.414062 261.878906 116.273438 261.160156 115.1875 260.371094 C 113.289062 258.992188 111.460938 257.222656 110.515625 255.035156 C 108.824219 251.128906 111.011719 246.203125 115.054688 244.835938 C 117.898438 243.867188 116.675781 239.335938 113.804688 240.308594 C 106.433594 242.808594 103.035156 251.566406 106.945312 258.335938 C 108.878906 261.683594 112.09375 264.128906 115.351562 266.085938 C 117.207031 267.195312 119.300781 268.367188 121.550781 267.875 C 123.613281 267.421875 125.441406 265.5 125.191406 263.289062 C 123.855469 263.839844 122.515625 264.398438 121.183594 264.949219 C 123.128906 266.675781 126.011719 267.054688 128.160156 265.425781 C 130.324219 263.777344 130.691406 260.9375 129.574219 258.578125 C 128.691406 259.730469 127.804688 260.875 126.921875 262.027344 C 129.4375 262.449219 131.953125 261.667969 133.425781 259.476562 C 134.78125 257.457031 134.714844 254.675781 133.359375 252.675781 C 132.132812 253.625 130.902344 254.570312 129.671875 255.523438 C 131.429688 257.050781 134.035156 257.023438 135.648438 255.25 C 137.230469 253.515625 137.019531 250.84375 135.722656 249.027344 C 134.996094 248.015625 133.992188 247.25 132.894531 246.675781 C 132.457031 246.445312 131.96875 246.167969 131.503906 246.007812 C 131.125 245.75 131.105469 245.769531 131.441406 246.066406 C 131.371094 245.804688 131.320312 245.542969 131.277344 245.28125 C 130.90625 243.453125 130.058594 241.820312 128.691406 240.527344 C 125.78125 237.769531 121.632812 236.957031 117.789062 237.757812 C 113.730469 238.601562 110.398438 241.191406 107.960938 244.457031 C 107.203125 245.476562 107.796875 247.082031 108.804688 247.667969 C 110 248.371094 111.253906 247.84375 112.015625 246.824219 Z M 112.007812 246.824219 " fill-opacity="1" fill-rule="nonzero"/><path fill="#e96474" d="M 123.40625 245.136719 C 125.195312 246.96875 127.695312 248.019531 130.25 248.058594 C 131.167969 248.074219 132.050781 247.238281 132.007812 246.300781 C 131.964844 245.332031 131.234375 244.554688 130.25 244.539062 C 129.945312 244.535156 129.644531 244.511719 129.34375 244.476562 L 129.8125 244.539062 C 129.089844 244.441406 128.390625 244.25 127.71875 243.972656 L 128.140625 244.148438 C 127.5 243.871094 126.898438 243.523438 126.347656 243.097656 L 126.703125 243.375 C 126.421875 243.148438 126.148438 242.90625 125.894531 242.648438 C 125.25 241.988281 124.042969 241.953125 123.40625 242.648438 C 122.753906 243.359375 122.71875 244.433594 123.40625 245.136719 Z M 123.40625 245.136719 " fill-opacity="1" fill-rule="nonzero"/><path fill="#ffa59b" d="M 142.195312 187.695312 C 132.179688 193.035156 124.695312 201.953125 118.933594 211.566406 C 113.8125 220.105469 109.332031 229.039062 109.675781 239.238281 C 109.832031 243.875 110.949219 249.144531 114.757812 252.195312 C 117.09375 254.0625 120.4375 250.761719 118.078125 248.871094 C 115.269531 246.625 114.523438 242.910156 114.378906 239.480469 C 114.210938 235.589844 114.757812 231.636719 115.953125 227.929688 C 117.40625 223.421875 119.964844 219.09375 122.34375 215.015625 C 124.957031 210.535156 127.890625 206.226562 131.34375 202.351562 C 135.148438 198.089844 139.507812 194.441406 144.5625 191.746094 C 147.226562 190.320312 144.859375 186.269531 142.191406 187.691406 Z M 142.195312 187.695312 " fill-opacity="1" fill-rule="nonzero"/><path fill="#5e4d5c" d="M 137.75 221.308594 C 140.503906 225.214844 145.011719 227.335938 149.371094 228.949219 C 155.921875 231.378906 162.902344 232.632812 169.804688 233.5625 C 185.960938 235.753906 201.75 232.519531 217.769531 230.753906 C 226.117188 229.835938 234.492188 229.40625 242.835938 228.363281 C 254.46875 226.910156 266.621094 225.425781 277.671875 221.34375 C 287.140625 217.847656 296.566406 212.167969 303.640625 204.863281 C 305.746094 202.695312 302.429688 199.375 300.320312 201.542969 C 294.859375 207.175781 287.863281 211.679688 280.800781 214.980469 C 270.234375 219.925781 258.125 221.589844 246.671875 223.164062 C 239.496094 224.148438 232.304688 224.90625 225.078125 225.398438 C 209.894531 226.421875 194.914062 230.0625 179.636719 229.679688 C 171.363281 229.472656 162.960938 228.121094 155.003906 225.84375 C 150.632812 224.59375 144.589844 222.886719 141.800781 218.9375 C 140.070312 216.484375 136 218.828125 137.746094 221.304688 Z M 137.75 221.308594 " fill-opacity="1" fill-rule="nonzero"/><path fill="#ffa59b" d="M 234.53125 210.007812 C 241.03125 210.039062 247.324219 206.105469 249.890625 200.082031 L 246.679688 200.925781 C 252.789062 204.8125 260.964844 204.765625 267.015625 200.777344 C 269.527344 199.121094 267.175781 195.054688 264.644531 196.722656 C 259.917969 199.839844 253.828125 199.914062 249.046875 196.871094 C 248.070312 196.253906 246.320312 196.574219 245.835938 197.714844 C 243.890625 202.28125 239.539062 205.339844 234.53125 205.316406 C 231.511719 205.300781 231.507812 209.996094 234.53125 210.011719 Z M 234.53125 210.007812 " fill-opacity="1" fill-rule="nonzero"/><path fill="#ffd97b" d="M 326.554688 189.527344 C 328.152344 189.621094 329.753906 189.515625 331.347656 189.386719 C 332.050781 189.328125 332.753906 189.261719 333.453125 189.199219 C 333.726562 189.175781 334.007812 189.164062 334.277344 189.128906 C 334.386719 189.117188 335.085938 189.128906 334.625 189.054688 C 334.277344 188.855469 333.933594 188.652344 333.589844 188.453125 C 334.933594 189.496094 336.597656 189.4375 337.675781 188 C 338.515625 186.882812 338.480469 185.28125 338.738281 184.070312 C 339.523438 180.460938 339.257812 176.742188 339.722656 173.09375 L 335.027344 173.09375 C 335.15625 177.46875 335.425781 181.878906 336.058594 186.210938 C 336.296875 187.84375 337.144531 189.738281 339.238281 189.175781 C 340.335938 188.878906 341 187.847656 341.03125 186.75 C 341.070312 185.175781 340.019531 184.132812 338.492188 183.972656 C 337.636719 183.878906 336.921875 184.503906 336.464844 185.132812 C 335.230469 186.828125 336.890625 188.683594 338.476562 189.207031 C 339.59375 189.574219 340.84375 189.644531 342.015625 189.703125 C 343.839844 189.804688 345.679688 189.785156 347.503906 189.695312 C 347.296875 188.160156 347.089844 186.625 346.878906 185.085938 C 343.976562 185.945312 340.980469 186.664062 338.128906 187.675781 C 336.179688 188.371094 336 191.136719 335.585938 192.886719 C 335.007812 195.34375 334.375 197.878906 334.257812 200.40625 L 338.867188 199.78125 C 338.363281 196.195312 338.109375 192.574219 338.042969 188.953125 C 338.019531 187.839844 337.3125 187.058594 336.320312 186.691406 C 334.765625 186.109375 333.085938 185.9375 331.449219 185.753906 C 330.3125 185.625 328.5625 185.53125 327.738281 185.15625 C 326.589844 184.628906 325.210938 184.832031 324.53125 186 C 323.9375 187.007812 324.214844 188.679688 325.375 189.210938 C 328.4375 190.613281 331.941406 190.054688 335.074219 191.21875 C 334.496094 190.464844 333.921875 189.710938 333.351562 188.957031 C 333.429688 193.003906 333.785156 197.023438 334.34375 201.03125 C 334.722656 203.753906 338.839844 202.917969 338.953125 200.40625 C 339.089844 197.480469 340.164062 193.734375 341.011719 190.566406 C 340.464844 191.113281 339.917969 191.660156 339.371094 192.207031 C 342.292969 191.34375 345.214844 190.476562 348.132812 189.613281 C 350.59375 188.882812 350.234375 184.871094 347.507812 185.003906 C 346.324219 185.058594 345.132812 185.078125 343.945312 185.066406 C 343.015625 185.058594 342.089844 185.03125 341.160156 184.949219 C 340.617188 184.902344 340.804688 184.949219 340.292969 184.832031 C 340.183594 184.804688 340.007812 184.730469 339.898438 184.734375 C 339.5625 184.746094 339.953125 184.734375 340.136719 184.898438 C 340.335938 185.246094 340.539062 185.589844 340.738281 185.933594 L 340.695312 185.78125 C 340.617188 186.382812 340.539062 186.984375 340.457031 187.589844 L 340.519531 187.507812 C 339.84375 187.894531 339.167969 188.28125 338.496094 188.667969 L 338.597656 188.679688 C 337.921875 188.292969 337.246094 187.90625 336.574219 187.519531 L 336.65625 187.652344 C 336.550781 187.257812 336.441406 186.863281 336.335938 186.46875 C 336.390625 186.210938 336.484375 185.960938 336.605469 185.726562 C 337.074219 185.367188 337.542969 185.007812 338.011719 184.648438 L 337.992188 184.648438 C 338.75 184.855469 339.515625 185.054688 340.273438 185.257812 C 341.238281 186.117188 340.78125 186.464844 340.707031 185.714844 C 340.691406 185.539062 340.644531 185.355469 340.617188 185.179688 C 340.554688 184.761719 340.628906 185.292969 340.59375 184.992188 C 340.445312 183.871094 340.339844 182.742188 340.238281 181.621094 C 339.984375 178.785156 339.804688 175.945312 339.722656 173.097656 C 339.683594 171.828125 338.671875 170.75 337.375 170.75 C 335.96875 170.75 335.1875 171.835938 335.027344 173.097656 C 334.726562 175.429688 334.738281 177.777344 334.570312 180.117188 C 334.488281 181.214844 334.339844 182.269531 334.09375 183.339844 C 333.988281 183.808594 333.878906 184.25 333.824219 184.734375 C 333.710938 185.722656 333.582031 185.238281 334.238281 184.859375 C 334.839844 184.78125 335.441406 184.703125 336.046875 184.625 L 335.964844 184.609375 C 336.3125 184.808594 336.65625 185.011719 337.003906 185.210938 C 335.558594 184.09375 333.96875 184.460938 332.28125 184.613281 C 330.378906 184.78125 328.460938 184.945312 326.550781 184.835938 C 323.53125 184.65625 323.542969 189.351562 326.550781 189.527344 Z M 326.554688 189.527344 " fill-opacity="1" fill-rule="nonzero"/><path fill="#5e4d5c" d="M 226.820312 224.488281 C 223.460938 225.046875 220.761719 227.4375 218.914062 230.175781 C 217.953125 231.601562 217.222656 233.167969 216.535156 234.742188 C 215.832031 236.367188 214.980469 238.066406 215.023438 239.886719 C 215.066406 241.742188 215.945312 243.617188 217.640625 244.503906 C 219.453125 245.449219 221.484375 245.046875 223.253906 244.234375 C 226.339844 242.820312 228.371094 239.839844 229.578125 236.773438 C 230.292969 234.949219 230.734375 233.007812 231.046875 231.078125 C 231.371094 229.0625 231.433594 226.960938 230.273438 225.171875 C 229.117188 223.382812 225.800781 223.914062 225.902344 226.355469 C 226.046875 229.882812 226.132812 233.410156 226.34375 236.929688 C 226.542969 240.246094 227.59375 243.835938 230.980469 245.167969 C 232.460938 245.75 234.160156 245.644531 235.566406 244.898438 C 237.078125 244.101562 237.894531 242.535156 238.136719 240.898438 C 238.625 237.625 238.21875 234.160156 237.011719 231.078125 C 235.800781 227.996094 233.382812 224.128906 229.476562 224.476562 C 228.214844 224.589844 227.128906 225.476562 227.128906 226.824219 C 227.128906 228.007812 228.207031 229.285156 229.476562 229.171875 C 229.648438 229.148438 229.824219 229.140625 229.996094 229.148438 C 229.792969 229.109375 229.832031 229.125 230.113281 229.191406 C 229.816406 229.066406 230.414062 229.339844 230.476562 229.378906 C 230.703125 229.527344 231.175781 230.011719 231.347656 230.238281 C 232.144531 231.296875 232.636719 232.601562 233.011719 233.859375 C 233.414062 235.230469 233.628906 236.609375 233.648438 238.039062 C 233.652344 238.632812 233.640625 239.503906 233.570312 239.941406 C 233.53125 240.183594 233.40625 240.644531 233.359375 240.75 C 233.402344 240.652344 233.050781 240.929688 233.367188 240.777344 C 233.585938 240.667969 232.609375 240.933594 233.070312 240.859375 C 232.78125 240.84375 232.738281 240.847656 232.945312 240.875 C 232.820312 240.855469 232.699219 240.820312 232.582031 240.777344 C 232.46875 240.734375 232.117188 240.460938 231.957031 240.253906 C 231.25 239.308594 231.101562 238.070312 231.027344 236.765625 C 230.835938 233.296875 230.738281 229.828125 230.59375 226.355469 C 229.136719 226.75 227.679688 227.148438 226.222656 227.542969 C 226.585938 228.101562 226.59375 228.363281 226.578125 229.015625 C 226.5625 229.769531 226.449219 230.265625 226.292969 231.046875 C 225.992188 232.578125 225.632812 234.132812 225.03125 235.578125 C 224.429688 237.019531 223.691406 238.113281 222.597656 239.097656 C 221.917969 239.710938 220.742188 240.417969 219.996094 240.398438 C 219.628906 240.386719 219.703125 240.226562 219.894531 240.4375 C 219.808594 240.34375 219.71875 239.980469 219.734375 240.152344 C 219.6875 239.550781 219.832031 239.046875 220.042969 238.449219 C 220.574219 236.945312 221.289062 235.457031 222.050781 234.0625 C 223.429688 231.550781 225.265625 229.488281 228.066406 229.019531 C 229.316406 228.8125 230.015625 227.261719 229.703125 226.128906 C 229.339844 224.804688 228.070312 224.28125 226.816406 224.492188 Z M 226.820312 224.488281 " fill-opacity="1" fill-rule="nonzero"/></svg>