<svg xmlns="http://www.w3.org/2000/svg" xmlns:xlink="http://www.w3.org/1999/xlink" width="500" zoomAndPan="magnify" viewBox="0 0 375 374.999991" height="500" preserveAspectRatio="xMidYMid meet" version="1.0"><path fill="#ffcfca" d="M 56.230469 319.164062 C 64.398438 328.4375 71.589844 333.140625 83.582031 336.136719 C 92.171875 338.285156 111.675781 335.640625 114.632812 332.21875 C 116.921875 346.664062 124.457031 360.695312 136.769531 368.585938 C 149.085938 376.476562 166.347656 377.082031 177.941406 368.171875 C 179.140625 367.25 180.359375 366.195312 181.859375 365.964844 C 184.621094 365.53125 186.898438 367.957031 188.835938 369.96875 C 198.199219 379.683594 212.433594 384.441406 225.761719 382.3125 C 239.082031 380.171875 251.121094 371.199219 256.972656 359.039062 C 260.570312 366.578125 268.308594 371.980469 276.628906 372.757812 C 284.945312 373.535156 293.550781 369.660156 298.484375 362.917969 C 299.46875 361.574219 300.378906 360.066406 301.867188 359.320312 C 303.621094 358.4375 305.710938 358.828125 307.652344 359.125 C 331.167969 362.679688 354.796875 347 365.425781 325.726562 C 368.886719 318.808594 371.246094 311.054688 370.332031 303.375 C 369.582031 297.085938 366.292969 290.886719 361.136719 287.386719 C 359.5625 286.316406 359.457031 284.09375 360.890625 282.84375 C 370.050781 274.871094 374.949219 262.09375 373.140625 250.046875 C 371.207031 237.1875 361.722656 225.789062 349.511719 221.394531 C 348.675781 221.09375 348.414062 220.089844 349.003906 219.417969 C 358.625 208.453125 360.375 191.136719 352.882812 178.5625 C 345.535156 166.242188 329.964844 159.554688 315.953125 162.347656 C 314.585938 162.621094 313.269531 161.609375 313.152344 160.21875 C 312.308594 150.316406 306.8125 140.851562 298.527344 135.332031 C 290.113281 129.726562 279.054688 128.335938 269.488281 131.558594 C 268.125 132.019531 266.644531 131.894531 265.457031 131.082031 C 263.507812 129.75 260.339844 127.671875 257.53125 126.253906 C 244.566406 119.714844 218.855469 118.183594 204.027344 130.984375 C 202.195312 132.566406 199.589844 132.871094 197.550781 131.585938 C 182.210938 121.914062 162.691406 119.019531 145.234375 124.003906 C 126.429688 129.378906 110.425781 143.78125 103.113281 161.917969 C 102.074219 164.5 101.191406 167.304688 101.144531 170.058594 C 101.101562 172.167969 99.558594 173.914062 97.453125 174.011719 C 85.628906 174.59375 73.980469 179.777344 66.3125 188.773438 C 57.726562 198.851562 54.707031 213.671875 59.597656 225.980469 C 42.421875 238.441406 37.4375 264.871094 48.90625 282.726562 C 48.90625 282.726562 44.328125 305.683594 56.222656 319.171875 Z M 56.230469 319.164062 " fill-opacity="1" fill-rule="nonzero"/><path fill="#ffa59b" d="M 77.1875 243.394531 C 77.1875 243.394531 75.601562 237.511719 86.515625 235.699219 C 97.433594 233.890625 110.136719 236.027344 106.390625 244.636719 C 102.644531 253.25 75.441406 252.855469 77.1875 243.394531 Z M 77.1875 243.394531 " fill-opacity="1" fill-rule="nonzero"/><path fill="#ffa59b" d="M 212.300781 267.230469 C 212.300781 267.230469 210.714844 261.347656 221.632812 259.539062 C 232.546875 257.726562 245.253906 259.867188 241.507812 268.476562 C 237.761719 277.085938 210.554688 276.695312 212.300781 267.230469 Z M 212.300781 267.230469 " fill-opacity="1" fill-rule="nonzero"/><path fill="#ffa59b" d="M 278.53125 202.863281 C 288.574219 204.664062 294.675781 214.203125 291.636719 224.0625 C 290.140625 228.914062 296.820312 231.199219 299.453125 227.363281 C 303.109375 222.039062 310.707031 226.859375 313.886719 229.996094 C 318.199219 234.246094 322.878906 240.921875 318.847656 246.847656 C 315.738281 251.410156 323.152344 255.695312 326.234375 251.164062 C 338.542969 233.09375 305.785156 203.050781 292.074219 223.042969 C 294.683594 224.140625 297.289062 225.238281 299.894531 226.34375 C 304.214844 212.351562 295.332031 197.230469 280.816406 194.621094 C 278.546875 194.214844 276.203125 195.238281 275.554688 197.605469 C 274.988281 199.675781 276.253906 202.457031 278.539062 202.867188 Z M 278.53125 202.863281 " fill-opacity="1" fill-rule="nonzero"/><path fill="#ffa59b" d="M 241.492188 339.625 L 239.914062 339.359375 C 234.457031 338.4375 232.5 345.59375 237.640625 347.605469 C 255.128906 354.460938 276.078125 349.835938 289.34375 336.664062 C 293.257812 332.777344 287.203125 326.730469 283.289062 330.609375 C 272.003906 341.820312 254.652344 345.132812 239.914062 339.351562 C 239.160156 342.097656 238.398438 344.851562 237.640625 347.597656 L 239.222656 347.863281 C 241.5 348.25 243.828125 347.265625 244.484375 344.878906 C 245.050781 342.824219 243.785156 340.003906 241.5 339.617188 Z M 241.492188 339.625 " fill-opacity="1" fill-rule="nonzero"/><path fill="#ffa59b" d="M 117.949219 179.386719 C 117.980469 179.296875 118.117188 178.617188 118.230469 178.578125 C 117.980469 179.148438 117.949219 179.226562 118.140625 178.800781 L 118.265625 178.535156 C 118.53125 177.996094 118.832031 177.472656 119.167969 176.976562 C 119.335938 176.71875 119.515625 176.464844 119.699219 176.214844 C 120.304688 175.355469 119.105469 176.886719 119.808594 176.082031 C 120.242188 175.59375 120.675781 175.097656 121.136719 174.628906 C 121.597656 174.160156 122.117188 173.675781 122.625 173.230469 C 122.886719 173 123.148438 172.777344 123.421875 172.558594 C 123.507812 172.488281 124.277344 171.894531 123.820312 172.238281 C 123.386719 172.566406 124.289062 171.902344 124.386719 171.824219 C 124.679688 171.617188 124.972656 171.414062 125.273438 171.210938 C 125.875 170.804688 126.484375 170.414062 127.105469 170.035156 C 128.300781 169.308594 129.523438 168.640625 130.773438 168.015625 C 131.417969 167.695312 132.066406 167.386719 132.730469 167.09375 C 132.851562 167.039062 133.953125 166.589844 133.011719 166.96875 C 133.332031 166.84375 133.652344 166.703125 133.984375 166.578125 C 136.324219 165.667969 138.734375 164.929688 141.203125 164.480469 C 143.410156 164.082031 144.855469 161.28125 144.1875 159.21875 C 143.417969 156.847656 141.292969 155.808594 138.921875 156.234375 C 133.03125 157.289062 127.203125 159.855469 122.164062 163.035156 C 116.832031 166.394531 111.667969 170.929688 109.699219 177.121094 C 109.019531 179.253906 110.496094 181.882812 112.683594 182.386719 C 115.015625 182.917969 117.21875 181.679688 117.945312 179.402344 Z M 117.949219 179.386719 " fill-opacity="1" fill-rule="nonzero"/><path fill="#000000" d="M 139.546875 261.265625 C 152.878906 271.320312 172.046875 272.765625 186.621094 264.480469 C 188.617188 263.339844 189.765625 261.074219 188.757812 258.839844 C 187.878906 256.890625 185.132812 255.554688 183.117188 256.699219 C 171.085938 263.550781 155.703125 262.765625 144.605469 254.394531 C 140.210938 251.082031 135.164062 257.957031 139.546875 261.265625 Z M 139.546875 261.265625 " fill-opacity="1" fill-rule="nonzero"/><path fill="#000000" d="M 125.6875 215.804688 C 123.289062 214.558594 120.195312 215.949219 118.679688 218.179688 C 117.160156 220.410156 116.839844 223.226562 116.644531 225.917969 C 116.484375 228.136719 116.398438 230.464844 117.316406 232.507812 C 118.230469 234.539062 120.460938 236.160156 122.632812 235.636719 C 125.679688 234.910156 126.457031 231.003906 126.625 227.878906 C 126.707031 226.308594 126.792969 224.734375 126.875 223.164062 C 126.972656 221.289062 127.058594 219.320312 126.246094 217.628906 C 125.4375 215.9375 123.402344 214.671875 121.65625 215.371094 " fill-opacity="1" fill-rule="nonzero"/><path fill="#000000" d="M 127.839844 212.121094 C 124.9375 210.738281 122.066406 210.847656 119.1875 212.226562 C 116.785156 213.371094 114.996094 215.585938 113.980469 218 C 112.914062 220.527344 112.578125 223.191406 112.382812 225.917969 C 112.171875 228.808594 112.324219 231.640625 113.5 234.332031 C 115.847656 239.710938 123.085938 241.996094 127.492188 237.609375 C 130.941406 234.167969 130.832031 228.84375 131.074219 224.335938 C 131.242188 221.179688 131.425781 217.769531 129.648438 214.980469 C 127.769531 212.023438 124.011719 210.058594 120.523438 211.253906 C 118.417969 211.980469 116.804688 214.210938 117.546875 216.503906 C 118.222656 218.585938 120.53125 220.261719 122.792969 219.480469 C 123.164062 219.355469 123.289062 219.460938 122.457031 219.445312 C 122.652344 219.445312 122.96875 219.523438 122.429688 219.390625 C 121.757812 219.222656 122.359375 219.417969 122.527344 219.445312 C 122.953125 219.515625 122.171875 219.347656 122.152344 219.285156 C 122.164062 219.332031 122.625 219.5 122.632812 219.585938 L 122.421875 219.429688 C 122.144531 219.214844 122.144531 219.226562 122.421875 219.480469 C 122.5 219.648438 122.597656 219.921875 122.453125 219.492188 C 122.226562 218.824219 122.570312 219.722656 122.570312 219.789062 C 122.570312 219.730469 122.3125 218.871094 122.507812 219.746094 C 122.542969 219.90625 122.578125 220.09375 122.632812 220.253906 C 122.835938 220.835938 122.613281 219.542969 122.632812 220.15625 C 122.632812 220.332031 122.660156 220.507812 122.667969 220.6875 C 122.710938 221.644531 122.648438 222.609375 122.597656 223.566406 C 122.5 225.351562 122.464844 227.144531 122.285156 228.929688 C 122.269531 229.0625 122.25 229.195312 122.242188 229.328125 C 122.207031 229.894531 122.417969 228.433594 122.285156 228.992188 C 122.214844 229.292969 122.171875 229.605469 122.101562 229.914062 C 122.03125 230.222656 121.957031 230.515625 121.859375 230.808594 C 121.816406 230.933594 121.773438 231.054688 121.730469 231.179688 C 121.496094 231.96875 122.074219 230.621094 121.816406 230.984375 C 121.753906 231.074219 121.382812 231.605469 121.390625 231.730469 C 121.367188 231.332031 122.003906 231.058594 121.621094 231.429688 C 121.5625 231.480469 121.292969 231.730469 121.292969 231.757812 C 121.292969 231.78125 122.046875 231.199219 121.691406 231.445312 C 121.523438 231.5625 121.066406 231.722656 121.683594 231.507812 C 122.417969 231.253906 121.816406 231.472656 121.738281 231.472656 C 120.871094 231.453125 122.492188 231.550781 121.921875 231.480469 C 121.757812 231.457031 121.109375 231.464844 121.789062 231.507812 C 122.429688 231.550781 121.925781 231.472656 121.800781 231.472656 C 121.257812 231.445312 121.835938 231.066406 122.023438 231.578125 C 122.011719 231.535156 121.695312 231.382812 121.648438 231.359375 C 121.152344 231.136719 122.191406 231.898438 121.808594 231.5 C 121.710938 231.394531 121.59375 231.289062 121.488281 231.199219 C 120.871094 230.65625 121.5625 231.375 121.578125 231.382812 C 121.417969 231.296875 121.261719 230.90625 121.1875 230.757812 C 121.136719 230.675781 120.992188 230.464844 120.992188 230.367188 C 121.046875 230.492188 121.101562 230.613281 121.164062 230.738281 L 121.0625 230.402344 C 121.019531 230.1875 120.941406 229.941406 120.894531 229.726562 C 120.871094 229.640625 120.765625 229.054688 120.859375 229.597656 C 120.957031 230.179688 120.859375 229.4375 120.84375 229.292969 C 120.832031 229.117188 120.824219 228.941406 120.816406 228.761719 C 120.800781 228.285156 120.808594 227.808594 120.832031 227.34375 C 120.863281 226.476562 120.929688 225.609375 121.011719 224.742188 C 121.027344 224.574219 121.046875 224.398438 121.0625 224.230469 C 121.136719 223.414062 121.039062 224.21875 121.039062 224.351562 C 121.054688 223.910156 121.1875 223.441406 121.285156 223.015625 C 121.394531 222.527344 121.527344 222.039062 121.695312 221.5625 C 121.738281 221.429688 121.789062 221.199219 121.871094 221.09375 C 121.355469 221.757812 121.792969 221.316406 121.933594 221.058594 C 122.019531 220.914062 122.109375 220.773438 122.1875 220.625 C 122.667969 219.746094 121.800781 220.984375 122.128906 220.652344 C 122.261719 220.519531 122.382812 220.375 122.515625 220.242188 C 122.84375 219.921875 123.082031 220.011719 122.410156 220.261719 C 122.730469 220.144531 123.082031 219.84375 123.375 219.667969 C 123.84375 219.394531 123.527344 219.851562 123.128906 219.773438 C 123.242188 219.792969 123.546875 219.65625 123.660156 219.621094 C 124.410156 219.390625 123.394531 219.722656 123.332031 219.640625 C 123.359375 219.683594 123.953125 219.640625 124.003906 219.640625 C 124.421875 219.585938 123.589844 219.625 123.535156 219.578125 C 123.667969 219.605469 123.800781 219.640625 123.925781 219.683594 C 124.234375 219.789062 124.101562 219.730469 123.542969 219.515625 C 125.546875 220.472656 128.238281 220.136719 129.378906 217.984375 C 130.382812 216.082031 130 213.175781 127.847656 212.148438 Z M 127.839844 212.121094 " fill-opacity="1" fill-rule="nonzero"/><path fill="#000000" d="M 212.085938 234.527344 C 209.6875 233.28125 206.59375 234.671875 205.074219 236.902344 C 203.558594 239.132812 203.238281 241.949219 203.042969 244.636719 C 202.882812 246.859375 202.796875 249.1875 203.714844 251.226562 C 204.628906 253.261719 206.859375 254.882812 209.03125 254.359375 C 212.078125 253.632812 212.855469 249.726562 213.023438 246.601562 C 213.105469 245.03125 213.191406 243.457031 213.273438 241.886719 C 213.371094 240.011719 213.453125 238.042969 212.644531 236.351562 C 211.832031 234.660156 209.800781 233.394531 208.054688 234.09375 " fill-opacity="1" fill-rule="nonzero"/><path fill="#000000" d="M 214.238281 230.851562 C 211.335938 229.464844 208.464844 229.578125 205.585938 230.953125 C 203.183594 232.101562 201.394531 234.316406 200.378906 236.726562 C 199.367188 239.136719 198.976562 241.917969 198.78125 244.644531 C 198.570312 247.539062 198.722656 250.367188 199.898438 253.058594 C 202.246094 258.441406 209.484375 260.726562 213.886719 256.335938 C 217.339844 252.898438 217.230469 247.574219 217.472656 243.066406 C 217.640625 239.90625 217.824219 236.496094 216.046875 233.707031 C 214.167969 230.753906 210.40625 228.789062 206.921875 229.984375 C 204.816406 230.710938 203.203125 232.941406 203.945312 235.230469 C 204.621094 237.316406 206.929688 238.992188 209.191406 238.207031 C 209.5625 238.082031 209.6875 238.1875 208.855469 238.175781 C 209.050781 238.175781 209.367188 238.25 208.828125 238.117188 C 208.15625 237.949219 208.757812 238.144531 208.925781 238.175781 C 209.351562 238.242188 208.570312 238.078125 208.550781 238.011719 C 208.5625 238.0625 209.023438 238.230469 209.03125 238.3125 L 208.820312 238.160156 C 208.542969 237.945312 208.542969 237.957031 208.820312 238.207031 C 208.898438 238.375 208.996094 238.648438 208.851562 238.222656 C 208.625 237.550781 208.96875 238.453125 208.96875 238.515625 C 208.96875 238.460938 208.710938 237.601562 208.90625 238.472656 C 208.941406 238.636719 208.976562 238.824219 209.03125 238.984375 C 209.234375 239.566406 209.011719 238.273438 209.03125 238.886719 C 209.03125 239.0625 209.058594 239.234375 209.066406 239.417969 C 209.109375 240.375 209.046875 241.339844 208.996094 242.296875 C 208.898438 244.078125 208.863281 245.875 208.683594 247.65625 C 208.667969 247.789062 208.648438 247.921875 208.640625 248.054688 C 208.605469 248.621094 208.816406 247.160156 208.683594 247.71875 C 208.613281 248.019531 208.570312 248.335938 208.5 248.644531 C 208.429688 248.949219 208.351562 249.242188 208.253906 249.539062 C 208.214844 249.664062 208.171875 249.78125 208.128906 249.90625 C 207.890625 250.699219 208.472656 249.347656 208.214844 249.710938 C 208.152344 249.804688 207.78125 250.332031 207.789062 250.460938 C 207.765625 250.0625 208.402344 249.789062 208.019531 250.160156 C 207.960938 250.207031 207.691406 250.460938 207.691406 250.488281 C 207.691406 250.507812 208.445312 249.929688 208.089844 250.171875 C 207.921875 250.292969 207.464844 250.453125 208.082031 250.234375 C 208.816406 249.984375 208.214844 250.199219 208.136719 250.199219 C 207.269531 250.179688 208.890625 250.277344 208.320312 250.207031 C 208.15625 250.1875 207.507812 250.195312 208.1875 250.234375 C 208.828125 250.277344 208.324219 250.199219 208.199219 250.199219 C 207.65625 250.171875 208.234375 249.796875 208.421875 250.304688 C 208.410156 250.265625 208.09375 250.109375 208.046875 250.089844 C 207.550781 249.867188 208.589844 250.628906 208.207031 250.230469 C 208.109375 250.125 207.988281 250.019531 207.886719 249.929688 C 207.269531 249.382812 207.960938 250.101562 207.976562 250.109375 C 207.816406 250.027344 207.660156 249.636719 207.585938 249.488281 C 207.535156 249.40625 207.390625 249.195312 207.390625 249.097656 L 207.5625 249.46875 L 207.460938 249.132812 C 207.417969 248.914062 207.339844 248.671875 207.292969 248.453125 C 207.269531 248.371094 207.164062 247.78125 207.257812 248.328125 C 207.355469 248.910156 207.257812 248.167969 207.242188 248.019531 C 207.226562 247.847656 207.222656 247.671875 207.214844 247.488281 C 207.199219 247.015625 207.207031 246.539062 207.226562 246.070312 C 207.261719 245.203125 207.328125 244.335938 207.410156 243.472656 C 207.425781 243.304688 207.445312 243.128906 207.460938 242.960938 C 207.535156 242.144531 207.4375 242.945312 207.4375 243.078125 C 207.453125 242.640625 207.585938 242.171875 207.683594 241.746094 C 207.792969 241.257812 207.925781 240.765625 208.09375 240.292969 C 208.136719 240.160156 208.1875 239.929688 208.269531 239.824219 C 207.753906 240.488281 208.191406 240.046875 208.332031 239.789062 C 208.417969 239.640625 208.507812 239.5 208.585938 239.355469 C 209.066406 238.472656 208.199219 239.710938 208.527344 239.382812 C 208.660156 239.25 208.78125 239.101562 208.914062 238.972656 C 209.242188 238.648438 209.480469 238.738281 208.808594 238.992188 C 209.128906 238.871094 209.480469 238.574219 209.773438 238.398438 C 210.242188 238.125 209.925781 238.578125 209.527344 238.503906 C 209.640625 238.523438 209.945312 238.382812 210.058594 238.347656 C 210.804688 238.117188 209.792969 238.453125 209.730469 238.371094 C 209.757812 238.410156 210.351562 238.371094 210.402344 238.371094 C 210.820312 238.3125 209.988281 238.355469 209.933594 238.308594 C 210.066406 238.335938 210.199219 238.371094 210.324219 238.410156 C 210.632812 238.515625 210.5 238.460938 209.941406 238.242188 C 211.945312 239.203125 214.636719 238.867188 215.773438 236.714844 C 216.78125 234.8125 216.398438 231.90625 214.246094 230.878906 Z M 214.238281 230.851562 " fill-opacity="1" fill-rule="nonzero"/><path fill="#ffa59b" d="M 164.277344 200.316406 C 165.828125 186.046875 176.792969 173.734375 190.527344 169.980469 C 193.347656 169.210938 194.273438 166.144531 193.082031 163.699219 C 188.066406 153.390625 199.484375 143.894531 206.339844 138.128906 C 210.5625 134.578125 204.480469 128.554688 200.289062 132.074219 C 189.785156 140.910156 178.625 153.488281 185.695312 168.011719 C 186.550781 165.914062 187.402344 163.824219 188.253906 161.726562 C 170.574219 166.5625 157.695312 182.21875 155.730469 200.3125 C 155.136719 205.777344 163.699219 205.734375 164.285156 200.3125 Z M 164.277344 200.316406 " fill-opacity="1" fill-rule="nonzero"/><path fill="#ffa59b" d="M 270.46875 157.066406 C 264.546875 155.613281 258.34375 155.621094 252.464844 157.296875 C 249.578125 158.121094 246.734375 159.335938 244.167969 160.890625 C 243.582031 161.246094 242.660156 161.679688 242.21875 162.175781 L 241.472656 162.734375 C 242.058594 163.035156 242.644531 163.335938 243.234375 163.636719 C 243.378906 163.390625 240.039062 160.757812 239.667969 160.46875 C 231.121094 153.734375 219.144531 149.589844 208.589844 153.871094 C 206.433594 154.746094 204.964844 156.710938 205.605469 159.132812 C 206.144531 161.167969 208.730469 162.992188 210.871094 162.117188 C 220.644531 158.148438 229.988281 163.230469 237.382812 169.863281 C 242.484375 174.445312 247.300781 168.359375 252.09375 166.421875 C 257.230469 164.355469 262.847656 163.984375 268.214844 165.296875 C 273.582031 166.613281 275.839844 158.359375 270.488281 157.050781 Z M 270.46875 157.066406 " fill-opacity="1" fill-rule="nonzero"/><path fill="#ffa59b" d="M 231.839844 356.628906 C 247.210938 361.820312 262.011719 353.335938 274.527344 345.238281 C 279.132812 342.261719 274.847656 334.851562 270.207031 337.851562 C 259.667969 344.671875 247.160156 352.792969 234.113281 348.375 C 228.886719 346.605469 226.640625 354.867188 231.839844 356.621094 Z M 231.839844 356.628906 " fill-opacity="1" fill-rule="nonzero"/><path fill="#ffffff" d="M 341.9375 215.699219 C 343.851562 212.570312 345.535156 207.96875 345.640625 204.449219 C 345.753906 200.75 345.304688 197.101562 344.871094 193.425781 C 344.132812 187.082031 340.722656 181.273438 336.488281 176.101562 C 336.375 175.964844 336.234375 175.835938 336.117188 175.699219 C 334.738281 174.089844 332.851562 172.683594 331.71875 171.957031 C 325.855469 168.191406 320.265625 166.71875 312.921875 168.410156 C 306.183594 169.960938 304.941406 174.804688 307.519531 181.203125 C 308.75 184.25 311.1875 186.460938 313.460938 188.835938 C 315.6875 191.164062 317.605469 193.71875 319.246094 196.4375 C 320.824219 199.050781 322.125 201.777344 323.105469 204.644531 C 324.1875 207.824219 324.621094 211.242188 326.304688 214.21875 C 330.042969 220.835938 337.871094 222.339844 341.9375 215.699219 Z M 341.9375 215.699219 " fill-opacity="1" fill-rule="nonzero"/><path fill="#ffffff" d="M 354.550781 240.3125 C 356.046875 243.742188 357.0625 247.78125 354.929688 251.101562 C 353.847656 252.792969 352.160156 254.210938 350.164062 254.667969 C 348.039062 255.148438 346.054688 254.777344 344.117188 253.855469 C 340.996094 252.367188 339.128906 248.984375 338.535156 245.699219 C 338.242188 244.074219 337.988281 242.316406 337.980469 240.65625 C 337.980469 238.140625 339.128906 235.902344 341.238281 234.539062 C 343.019531 233.386719 345.160156 233.207031 347.199219 233.5625 C 348.882812 233.855469 350.632812 234.511719 351.867188 235.664062 C 352.855469 236.582031 353.449219 237.789062 354.550781 240.3125 Z M 354.550781 240.3125 " fill-opacity="1" fill-rule="nonzero"/><path fill="#ffffff" d="M 94.078125 213.175781 C 94.960938 209.164062 96.21875 207.390625 99.300781 204.816406 C 102.421875 202.210938 108.496094 199.765625 106.75 194.601562 C 105.03125 189.527344 97.992188 191.503906 94.6875 193.582031 C 90.851562 195.992188 87.011719 199.695312 85.617188 203.992188 C 84.359375 207.871094 84.46875 208.640625 84.867188 211.421875 C 85.054688 212.742188 85.777344 215.183594 87.585938 216.621094 C 87.585938 216.621094 89.390625 218.292969 91.472656 217.613281 C 93.554688 216.9375 93.765625 214.601562 94.070312 213.183594 Z M 94.078125 213.175781 " fill-opacity="1" fill-rule="nonzero"/><path fill="#ffffff" d="M 225.445312 212.09375 C 223.449219 212.8125 222.757812 214.664062 222.625 216.683594 C 222.414062 219.792969 225.035156 222.171875 227.101562 224.097656 C 229.339844 226.183594 231.742188 228.097656 234.257812 229.828125 C 235.351562 230.578125 236.476562 231.386719 237.664062 231.96875 C 239.90625 233.074219 242.199219 231.914062 243.039062 229.664062 C 243.539062 228.304688 243.324219 226.867188 243.039062 225.484375 C 242.757812 224.15625 242.277344 222.890625 241.714844 221.652344 C 240.695312 219.367188 239.117188 217.242188 237.257812 215.574219 C 235.320312 213.832031 232.589844 212.332031 229.925781 211.800781 C 227.699219 211.351562 226.503906 211.714844 225.445312 212.09375 Z M 228.328125 216.859375 C 228.328125 216.859375 228.328125 216.875 228.328125 216.878906 C 228.328125 216.867188 228.328125 216.867188 228.320312 216.851562 C 228.320312 216.839844 228.320312 216.851562 228.320312 216.839844 C 228.320312 216.839844 228.320312 216.84375 228.328125 216.851562 Z M 237.640625 227.867188 C 237.640625 227.867188 237.640625 227.902344 237.636719 227.90625 C 237.566406 228.039062 237.601562 227.972656 237.640625 227.867188 Z M 237.640625 227.867188 " fill-opacity="1" fill-rule="nonzero"/><path fill="#ffffff" d="M 126.9375 144.136719 C 126.9375 144.136719 125.863281 141.699219 129.53125 137.757812 C 133.207031 133.816406 144.152344 127.820312 151.964844 126.539062 C 159.777344 125.261719 164.328125 125.660156 163.550781 131.300781 C 162.773438 136.9375 148.839844 138.363281 144.21875 139.796875 C 139.601562 141.222656 129.035156 148.015625 126.9375 144.136719 Z M 126.9375 144.136719 " fill-opacity="1" fill-rule="nonzero"/><path fill="#ffbdc5" d="M 71.679688 314.367188 C 71.679688 314.367188 61.246094 301.371094 74.671875 292.503906 C 88.089844 283.640625 99.753906 298.199219 102.855469 301.707031 C 105.957031 305.214844 114.339844 306.046875 126.9375 305.019531 C 139.539062 303.992188 146.792969 320.917969 154.527344 323.949219 C 162.265625 326.984375 167.277344 327.703125 178.242188 320.769531 C 189.199219 313.839844 201.726562 322.847656 210.003906 327.394531 C 218.277344 331.953125 238.1875 333.742188 247.578125 325.242188 C 256.972656 316.746094 253.6875 316.25 258.984375 313.613281 C 264.289062 310.980469 273.605469 316.074219 286.316406 312.71875 C 299.027344 309.367188 311.257812 295.648438 315.863281 286.582031 C 324.675781 269.214844 342.355469 271.894531 350.476562 279.121094 C 356.996094 284.917969 360.917969 296.164062 358.382812 312.496094 C 355.84375 328.828125 338.324219 351.21875 319.832031 351.667969 C 301.34375 352.113281 303.886719 350.589844 303.886719 350.589844 C 303.886719 350.589844 296.707031 363.070312 281.089844 362.730469 C 265.476562 362.378906 261.898438 352.863281 257.644531 353.929688 C 253.394531 355 242.828125 372.261719 219.816406 375.148438 C 196.800781 378.035156 184.269531 358.03125 184.269531 358.03125 C 184.269531 358.03125 166.820312 364.617188 150.273438 361.476562 C 133.71875 358.347656 120.628906 332.441406 121.585938 329.175781 C 121.585938 329.175781 112.25 329.269531 106.433594 322.785156 C 106.433594 322.785156 83.457031 331.007812 71.679688 314.367188 Z M 71.679688 314.367188 " fill-opacity="1" fill-rule="nonzero"/><path fill="#ffa59b" d="M 146.714844 281.320312 C 141.238281 288.910156 140.460938 299.191406 143.703125 307.855469 C 145.269531 312.042969 147.574219 315.78125 150.40625 319.226562 C 151.824219 320.945312 153.382812 322.550781 155.039062 324.035156 C 155.871094 324.773438 156.738281 325.480469 157.601562 326.179688 C 158.113281 326.5625 158.625 326.960938 159.121094 327.375 C 159.175781 324.761719 158.894531 324.0625 158.28125 325.285156 C 157.007812 326.429688 156.179688 329.625 155.765625 331.21875 C 155.183594 333.46875 154.917969 335.902344 155.003906 338.21875 C 155.164062 342.617188 156.378906 346.957031 158.464844 350.828125 C 162.789062 358.863281 170.664062 364.414062 178.792969 368.117188 C 183.769531 370.382812 188.113281 363.007812 183.109375 360.730469 C 176.277344 357.621094 169.46875 353.328125 165.851562 346.507812 C 164.019531 343.054688 163.136719 338.949219 163.675781 335.054688 C 164.160156 331.5625 167.359375 328.617188 167.039062 325.125 C 166.695312 321.421875 162.710938 319.527344 160.265625 317.234375 C 157.40625 314.558594 154.953125 311.546875 153.125 308.078125 C 149.320312 300.902344 149.28125 292.320312 154.101562 285.640625 C 157.332031 281.167969 149.917969 276.898438 146.714844 281.320312 Z M 146.714844 281.320312 " fill-opacity="1" fill-rule="nonzero"/><path fill="#ffa59b" d="M 55.496094 265.660156 C 52.769531 273.90625 53.621094 282.257812 57.710938 289.902344 C 61.667969 297.296875 68.269531 302.886719 76.082031 305.828125 C 78.242188 306.640625 80.773438 304.925781 81.34375 302.84375 C 82.003906 300.449219 80.527344 298.402344 78.363281 297.582031 C 72.777344 295.480469 68.003906 291.015625 65.105469 285.589844 C 62.203125 280.167969 61.679688 274.199219 63.753906 267.9375 C 64.480469 265.742188 62.917969 263.269531 60.773438 262.675781 C 58.445312 262.03125 56.234375 263.464844 55.507812 265.660156 Z M 55.496094 265.660156 " fill-opacity="1" fill-rule="nonzero"/><path fill="#5e4d5c" d="M 126.519531 256.363281 C 111.792969 263.75 93.367188 257.335938 84.734375 243.730469 C 75.761719 229.578125 76.214844 207.996094 87.949219 195.375 C 98.433594 184.097656 118.914062 180.191406 131.96875 189.144531 C 137.53125 192.957031 142.3125 198.011719 145.339844 204.070312 C 149.292969 211.988281 149.097656 220.933594 147.308594 229.402344 C 145.800781 236.558594 143.089844 243.597656 137.832031 248.84375 C 134.5625 252.109375 130.578125 254.261719 126.519531 256.371094 C 121.632812 258.914062 125.953125 266.296875 130.835938 263.757812 C 135.539062 261.3125 140.097656 258.679688 143.886719 254.898438 C 149.496094 249.285156 153 241.917969 154.949219 234.296875 C 157.535156 224.175781 158.238281 213.238281 154.324219 203.371094 C 151.105469 195.25 145.449219 188.632812 138.53125 183.398438 C 130.4375 177.269531 120.675781 175.242188 110.648438 176.136719 C 100.851562 177.011719 92.730469 180.335938 85.035156 186.480469 C 68.621094 199.589844 66.371094 225.902344 75.027344 243.871094 C 84.890625 264.324219 110.292969 274.074219 130.835938 263.765625 C 135.757812 261.300781 131.433594 253.910156 126.519531 256.378906 Z M 126.519531 256.363281 " fill-opacity="1" fill-rule="nonzero"/><path fill="#5e4d5c" d="M 232.246094 278.980469 C 217.523438 286.367188 199.09375 279.949219 190.464844 266.34375 C 181.488281 252.191406 181.945312 230.613281 193.679688 217.992188 C 204.160156 206.710938 224.644531 202.804688 237.699219 211.757812 C 243.261719 215.574219 248.039062 220.625 251.066406 226.683594 C 255.023438 234.601562 254.828125 243.546875 253.039062 252.019531 C 251.527344 259.175781 248.816406 266.210938 243.5625 271.460938 C 240.289062 274.722656 236.308594 276.875 232.246094 278.988281 C 227.363281 281.53125 231.679688 288.910156 236.566406 286.375 C 241.269531 283.925781 245.824219 281.292969 249.613281 277.511719 C 255.226562 271.898438 258.726562 264.535156 260.675781 256.910156 C 263.261719 246.789062 263.96875 235.855469 260.054688 225.984375 C 256.832031 217.867188 251.179688 211.246094 244.261719 206.011719 C 236.167969 199.882812 226.40625 197.859375 216.375 198.753906 C 206.578125 199.625 198.457031 202.953125 190.761719 209.09375 C 174.347656 222.207031 172.097656 248.515625 180.757812 266.484375 C 190.617188 286.9375 216.019531 296.6875 236.566406 286.378906 C 241.484375 283.914062 237.160156 276.527344 232.246094 278.992188 Z M 232.246094 278.980469 " fill-opacity="1" fill-rule="nonzero"/><path fill="#5e4d5c" d="M 67 198.855469 C 66.964844 198.746094 66.933594 198.632812 66.914062 198.523438 L 67.066406 199.660156 C 67.054688 199.484375 67.046875 199.332031 67.066406 199.164062 L 66.914062 200.304688 C 66.941406 200.136719 66.984375 199.988281 67.03125 199.828125 L 66.601562 200.847656 C 66.691406 200.640625 66.796875 200.449219 66.929688 200.261719 C 66.703125 200.546875 66.480469 200.839844 66.257812 201.128906 C 66.445312 200.890625 66.648438 200.695312 66.886719 200.507812 C 66.601562 200.730469 66.304688 200.953125 66.019531 201.175781 C 66.269531 201.003906 66.53125 200.855469 66.816406 200.738281 L 65.796875 201.171875 C 66.027344 201.085938 66.257812 201.023438 66.503906 200.972656 L 65.363281 201.128906 C 65.683594 201.085938 65.976562 201.09375 66.292969 201.128906 L 65.152344 200.972656 C 65.503906 201.039062 65.832031 201.128906 66.167969 201.253906 L 65.144531 200.820312 C 65.742188 201.074219 66.277344 201.40625 66.796875 201.800781 C 66.507812 201.574219 66.214844 201.351562 65.929688 201.128906 C 67.355469 202.246094 68.570312 203.601562 69.96875 204.753906 C 71.078125 205.679688 72.164062 206.613281 73.203125 207.613281 C 74.816406 209.164062 77.667969 209.339844 79.257812 207.613281 C 80.800781 205.9375 80.980469 203.21875 79.257812 201.5625 C 78.242188 200.582031 77.1875 199.667969 76.105469 198.773438 C 74.753906 197.667969 73.582031 196.375 72.234375 195.277344 C 69.828125 193.320312 66.761719 191.792969 63.601562 192.875 C 60.199219 194.042969 57.660156 197.445312 58.738281 201.136719 C 59.367188 203.28125 61.777344 204.839844 64 204.121094 C 66.179688 203.414062 67.664062 201.15625 66.984375 198.855469 Z M 67 198.855469 " fill-opacity="1" fill-rule="nonzero"/><path fill="#ffa59b" d="M 223.335938 353.324219 C 197.851562 371.429688 170.191406 386.140625 144.703125 404.246094 C 146.652344 404.757812 148.601562 405.269531 150.550781 405.785156 C 147.546875 399.125 142.628906 389.585938 134.84375 387.753906 C 131.300781 386.921875 127.65625 388.488281 125.875 391.660156 C 123.863281 395.253906 125.066406 399.371094 126.5625 402.882812 C 128.609375 407.699219 131.550781 414.542969 137.21875 415.996094 C 141.335938 417.050781 144.683594 414.578125 147.582031 412.003906 C 148.617188 411.089844 149.195312 409.160156 148.679688 407.847656 C 147.5625 404.988281 146.261719 402.417969 143.648438 400.65625 C 141.472656 399.195312 139.035156 398.308594 136.902344 396.726562 C 133.199219 393.996094 129.265625 399.140625 131.054688 402.578125 C 132.84375 406.015625 135.164062 408.390625 138.191406 410.507812 C 140.9375 412.429688 144.589844 409.84375 144.625 406.820312 C 144.6875 401.863281 142.96875 397.585938 139.796875 393.835938 C 137.867188 391.550781 133.082031 392.597656 132.648438 395.722656 C 131.703125 402.527344 133.375 408.65625 137.917969 413.878906 C 141.535156 418.035156 147.566406 411.96875 143.96875 407.824219 C 141.648438 405.164062 140.410156 401.535156 140.902344 397.992188 C 138.519531 398.621094 136.136719 399.25 133.75 399.878906 C 135.464844 401.90625 136.105469 404.207031 136.070312 406.820312 C 138.21875 405.589844 140.363281 404.359375 142.507812 403.128906 C 140.675781 401.851562 139.460938 400.230469 138.441406 398.265625 C 136.492188 400.214844 134.542969 402.164062 132.59375 404.113281 C 135.273438 406.097656 139.152344 406.832031 140.441406 410.117188 L 141.535156 405.960938 C 140.808594 406.609375 140.382812 406.960938 140.082031 407.183594 C 139.761719 407.421875 139.40625 407.589844 139.0625 407.785156 C 139.585938 407.484375 138.777344 407.589844 139.460938 407.699219 C 139.152344 407.652344 139.390625 407.917969 139.019531 407.457031 C 138.027344 406.230469 137.164062 405.128906 136.378906 403.714844 C 135.253906 401.675781 134.464844 399.570312 133.585938 397.425781 C 133.4375 396.992188 133.355469 396.546875 133.339844 396.085938 C 132.730469 396.023438 132.640625 396.035156 133.066406 396.132812 C 133.710938 395.972656 134.90625 397.253906 135.332031 397.65625 C 138.804688 400.949219 141.214844 405.800781 143.160156 410.097656 C 144.054688 412.082031 147.265625 412.863281 149.007812 411.632812 C 174.496094 393.527344 202.15625 378.816406 227.640625 360.710938 C 232.09375 357.542969 227.824219 350.128906 223.324219 353.324219 Z M 223.335938 353.324219 " fill-opacity="1" fill-rule="nonzero"/><path fill="#ffa59b" d="M 56.355469 321.617188 C 42.929688 324.339844 29.601562 327.527344 16.394531 331.183594 C 18.199219 332.558594 20 333.929688 21.8125 335.304688 C 21.875 333.707031 22.152344 333.644531 22.886719 332.210938 C 23.867188 330.296875 23.796875 328.253906 23.046875 326.269531 C 22.734375 325.445312 22.335938 324.671875 21.980469 323.867188 C 22.007812 323.921875 22.441406 325.011719 22.152344 324.265625 C 21.910156 323.636719 21.683594 323 21.433594 322.371094 C 20.644531 320.386719 19.792969 318.394531 18.644531 316.585938 C 15.960938 312.355469 11.117188 307.835938 5.933594 311.121094 C -0.015625 314.886719 1.441406 321.875 4.347656 327.066406 C 6.910156 331.644531 10.175781 336.234375 15.285156 338.128906 C 17.90625 339.101562 20.886719 338.78125 22.640625 336.410156 C 24.398438 334.042969 24.089844 331.164062 23.171875 328.582031 C 22.257812 326.003906 21.019531 323.238281 19.617188 320.75 C 18.203125 318.246094 16.457031 314.832031 13.832031 313.425781 C 11 311.910156 7.46875 313.277344 6.351562 316.261719 C 5.367188 318.910156 6.109375 322.246094 6.542969 324.96875 C 7.316406 329.804688 9.988281 337.3125 15.101562 339.046875 C 18.574219 340.21875 22.179688 337.921875 22.453125 334.214844 C 22.621094 331.9375 22.601562 328.878906 21.804688 326.726562 C 21.007812 324.570312 18.902344 323.089844 16.542969 323.742188 C 14.460938 324.3125 12.746094 326.824219 13.558594 329.003906 C 14.027344 330.261719 14.0625 332.652344 13.898438 334.222656 L 14.488281 332.0625 L 14.152344 332.652344 L 15.6875 331.113281 L 15.199219 331.398438 C 15.917969 331.203125 16.640625 331.007812 17.359375 330.8125 C 18.367188 330.769531 18.324219 331.328125 17.511719 330.070312 C 17.234375 329.644531 16.96875 329.207031 16.722656 328.757812 C 16.171875 327.765625 15.753906 326.773438 15.4375 325.675781 C 15.136719 324.648438 14.925781 323.601562 14.773438 322.539062 C 14.695312 321.972656 14.648438 321.40625 14.59375 320.839844 C 14.558594 320.449219 14.753906 318.507812 14.222656 319.554688 L 12.683594 321.09375 L 13.144531 320.777344 C 12.425781 320.972656 11.707031 321.167969 10.984375 321.363281 L 11.671875 321.398438 L 9.511719 320.8125 C 10.265625 321.316406 10.847656 322.769531 11.328125 323.546875 C 12.027344 324.671875 12.671875 325.832031 13.265625 327.011719 C 13.761719 327.996094 14.214844 328.996094 14.613281 330.03125 C 14.828125 330.589844 14.941406 331.53125 15.289062 331.964844 C 15.988281 332.839844 12.523438 332.476562 16.316406 330.6875 L 18.476562 330.101562 C 15.382812 330.261719 12.433594 324.117188 11.285156 321.957031 C 10.777344 321 10.417969 320.113281 10.195312 319.058594 C 10.167969 318.933594 10.386719 318.472656 10.371094 318.445312 C 10.832031 318.121094 10.609375 318.050781 9.699219 318.253906 C 8.757812 318.09375 8.554688 318.148438 9.078125 318.429688 C 9.183594 318.792969 10.183594 319.4375 10.441406 319.75 C 11.007812 320.433594 11.46875 321.230469 11.902344 322.007812 C 13.132812 324.222656 13.632812 326.851562 14.96875 329.011719 C 15.871094 330.46875 14.691406 327.886719 15.367188 328.128906 C 15.324219 328.117188 14.738281 329.121094 14.691406 329.207031 C 13.65625 331.105469 13.332031 333.160156 13.25 335.300781 C 13.132812 338.09375 16.074219 340.140625 18.667969 339.421875 C 31.875 335.769531 45.195312 332.574219 58.625 329.855469 C 64.015625 328.765625 61.734375 320.511719 56.355469 321.609375 Z M 56.355469 321.617188 " fill-opacity="1" fill-rule="nonzero"/><path fill="#5e4d5c" d="M 262.285156 247.585938 C 270.523438 245.183594 278.929688 243.316406 287.433594 242.15625 C 291.636719 241.585938 295.863281 241.1875 300.089844 240.933594 C 302.070312 240.816406 304.046875 240.71875 306.03125 240.683594 C 306.695312 240.667969 307.378906 240.632812 308.042969 240.683594 C 309.558594 240.808594 308.589844 240.78125 308.582031 240.808594 C 308.359375 243.109375 310.707031 245.085938 312.859375 245.085938 C 315.359375 245.085938 316.910156 243.113281 317.136719 240.808594 C 317.652344 235.53125 312.648438 232.457031 308.007812 232.144531 C 302.816406 231.792969 297.351562 232.484375 292.195312 233.03125 C 281.292969 234.183594 270.53125 236.273438 260.003906 239.339844 C 254.730469 240.878906 256.972656 249.140625 262.277344 247.585938 Z M 262.285156 247.585938 " fill-opacity="1" fill-rule="nonzero"/><path fill="#5e4d5c" d="M 151.054688 236.992188 C 159.957031 241.746094 169.820312 243.414062 179.792969 242.019531 C 182.015625 241.703125 183.425781 238.761719 182.777344 236.753906 C 181.984375 234.316406 179.898438 233.4375 177.511719 233.769531 C 178.226562 233.671875 176.597656 233.863281 176.453125 233.875 C 176.011719 233.917969 175.570312 233.945312 175.125 233.972656 C 174.089844 234.03125 173.054688 234.050781 172.027344 234.03125 C 169.695312 233.980469 168.457031 233.855469 166.554688 233.5 C 164.507812 233.121094 162.496094 232.582031 160.523438 231.898438 C 158.554688 231.214844 157.449219 230.71875 155.375 229.605469 C 153.402344 228.550781 150.628906 229.046875 149.523438 231.144531 C 148.476562 233.128906 148.953125 235.867188 151.0625 236.992188 Z M 151.054688 236.992188 " fill-opacity="1" fill-rule="nonzero"/><path fill="#b6c9e0" d="M 51.855469 273.746094 C 50.765625 271.898438 26.738281 230.570312 20.644531 229.214844 C 14.550781 227.859375 7.121094 230.257812 11.859375 241.082031 C 16.597656 251.90625 33.734375 284.25 36.976562 293.464844 C 37.492188 294.941406 59.402344 340.960938 71.890625 360.429688 C 75.609375 366.222656 79.136719 364.09375 81.542969 363.867188 C 86.972656 363.359375 154.621094 342.21875 161.382812 338.828125 C 168.148438 335.445312 168.828125 334.089844 169.503906 327.324219 C 170.183594 320.5625 150.558594 249.507812 145.144531 242.746094 C 139.726562 235.980469 136.34375 235.300781 129.578125 239.363281 C 122.816406 243.421875 56.800781 282.132812 51.847656 273.738281 Z M 51.855469 273.746094 " fill-opacity="1" fill-rule="nonzero"/><path fill="#ffffff" d="M 95.519531 339.113281 C 95.519531 339.113281 93.34375 336.796875 91.414062 329.078125 C 90.585938 325.761719 93.839844 324.027344 95.148438 322.734375 C 97.035156 320.867188 139.40625 307.421875 139.40625 307.421875 C 139.40625 307.421875 145.617188 304.933594 148.105469 310.734375 C 150.59375 316.535156 152.082031 320.511719 152.082031 320.511719 C 152.082031 320.511719 155.90625 327.25 145.6875 331.503906 C 137.300781 334.992188 119.574219 339.96875 109.105469 343.355469 C 104.875 344.726562 99.472656 348.234375 95.519531 339.121094 Z M 95.519531 339.113281 " fill-opacity="1" fill-rule="nonzero"/><path fill="#ffffff" d="M 93.289062 298.554688 C 101.988281 295.101562 110.695312 291.648438 119.398438 288.191406 C 120.65625 287.695312 121.914062 287.191406 123.171875 286.695312 C 125.316406 285.84375 126.820312 283.835938 126.15625 281.433594 C 125.597656 279.390625 123.050781 277.589844 120.894531 278.449219 C 112.191406 281.902344 103.484375 285.351562 94.785156 288.8125 C 93.527344 289.308594 92.269531 289.8125 91.011719 290.308594 C 88.863281 291.160156 87.363281 293.167969 88.027344 295.570312 C 88.585938 297.609375 91.128906 299.414062 93.289062 298.554688 Z M 93.289062 298.554688 " fill-opacity="1" fill-rule="nonzero"/><path fill="#ffffff" d="M 99.976562 311.488281 C 104.402344 309.796875 108.824219 308.101562 113.253906 306.410156 C 113.882812 306.171875 114.511719 305.925781 115.140625 305.6875 C 116.210938 305.277344 117.097656 304.746094 117.699219 303.726562 C 118.238281 302.808594 118.460938 301.453125 118.132812 300.425781 C 117.476562 298.394531 115.105469 296.582031 112.871094 297.441406 C 108.445312 299.132812 104.023438 300.832031 99.59375 302.523438 C 98.964844 302.761719 98.335938 303.007812 97.707031 303.242188 C 96.636719 303.65625 95.75 304.1875 95.148438 305.207031 C 94.609375 306.121094 94.386719 307.476562 94.714844 308.503906 C 95.371094 310.539062 97.742188 312.347656 99.976562 311.488281 Z M 99.976562 311.488281 " fill-opacity="1" fill-rule="nonzero"/><path fill="#ffffff" d="M 51.203125 287.539062 C 53.714844 295.058594 55.488281 302.796875 57.472656 310.460938 C 60.164062 320.863281 63.292969 331.128906 67.019531 341.203125 C 68.914062 346.320312 77.179688 344.113281 75.265625 338.933594 C 71.539062 328.855469 68.410156 318.597656 65.71875 308.191406 C 63.734375 300.523438 61.960938 292.789062 59.449219 285.269531 C 57.71875 280.078125 49.449219 282.300781 51.203125 287.539062 Z M 51.203125 287.539062 " fill-opacity="1" fill-rule="nonzero"/><path fill="#ffa59b" d="M 268.007812 286.339844 C 261.703125 301.105469 245.300781 307.359375 230.960938 311.636719 C 215.710938 316.179688 198.472656 315.535156 182.875 313.195312 C 179.164062 312.636719 175.480469 311.902344 171.886719 310.796875 C 166.898438 309.261719 161.308594 307.75 156.703125 311.113281 C 154.320312 312.851562 153.96875 315.542969 155.835938 317.828125 C 158.324219 320.882812 162.230469 321.476562 165.941406 321.078125 C 168.902344 320.761719 173.371094 319.039062 176.09375 320.730469 C 176.4375 318.121094 176.773438 315.515625 177.113281 312.910156 C 172.964844 314.632812 168.519531 316.257812 163.984375 316.417969 C 161.804688 316.492188 159.671875 316.023438 157.503906 316.046875 C 155.632812 316.058594 154.234375 316.382812 152.453125 316.207031 C 150.929688 316.058594 149.546875 317.144531 148.761719 318.324219 C 146.875 321.167969 148.867188 325.171875 151.539062 326.683594 C 154.472656 328.339844 158.40625 327.730469 161.609375 327.386719 C 168.699219 326.621094 175.800781 324.867188 181.28125 320.058594 C 183.878906 317.78125 181.953125 312.273438 178.253906 312.753906 C 170.65625 313.746094 163.515625 316.355469 156.078125 318.074219 C 150.707031 319.316406 152.992188 327.480469 158.351562 326.320312 C 161.585938 325.621094 164.828125 326.792969 168.058594 326.179688 C 172.445312 325.347656 171.796875 319.121094 168.058594 317.933594 C 161.972656 315.996094 156.164062 315.046875 150.929688 319.40625 C 148.140625 321.734375 150.371094 326.976562 153.957031 326.710938 C 163.167969 326.027344 172.273438 325.558594 180.414062 320.730469 C 185.144531 317.925781 180.847656 310.527344 176.09375 313.339844 C 169.308594 317.367188 161.621094 317.582031 153.957031 318.15625 L 156.980469 325.460938 C 159.28125 323.546875 163.335938 325.402344 165.785156 326.1875 L 165.785156 317.941406 C 165.828125 317.933594 162.902344 317.582031 162.105469 317.550781 C 160.0625 317.449219 158.078125 317.648438 156.085938 318.078125 L 158.359375 326.328125 C 164.996094 324.789062 171.476562 322.203125 178.261719 321.316406 C 177.253906 318.882812 176.242188 316.445312 175.234375 314.011719 C 172.542969 316.375 168.972656 317.445312 165.535156 318.183594 C 163.914062 318.535156 162.273438 318.785156 160.621094 318.941406 C 159.679688 319.03125 158.730469 319.09375 157.777344 319.136719 L 156.785156 319.175781 C 155.617188 318.996094 155.5 319.136719 156.421875 319.597656 C 156.277344 320.695312 156.136719 321.789062 155.988281 322.894531 L 156.148438 322.648438 C 154.917969 323.355469 153.691406 324.0625 152.460938 324.769531 C 153.816406 324.902344 155.746094 324.675781 157.511719 324.605469 C 160.078125 324.507812 162.566406 325.117188 165.15625 324.90625 C 170.121094 324.503906 174.824219 323.070312 179.402344 321.167969 C 182.699219 319.792969 183.804688 315.445312 180.421875 313.347656 C 177.121094 311.300781 173.433594 311.40625 169.726562 311.9375 C 167.546875 312.246094 163.507812 313.773438 161.894531 311.785156 L 161.027344 318.5 C 164.226562 316.164062 169.167969 319.023438 172.601562 319.890625 C 176.339844 320.828125 180.15625 321.414062 183.976562 321.917969 C 192.726562 323.054688 201.597656 323.488281 210.414062 323.238281 C 227.472656 322.75 245.316406 317.960938 259.664062 308.492188 C 266.414062 304.03125 272.191406 298.167969 275.402344 290.65625 C 277.539062 285.652344 270.171875 281.285156 268.015625 286.339844 Z M 268.007812 286.339844 " fill-opacity="1" fill-rule="nonzero"/><path fill="#ffa59b" d="M 35.082031 272.59375 C 34.335938 269.832031 32.878906 267.261719 30.894531 265.191406 C 29.785156 264.039062 28.246094 262.976562 26.695312 263.382812 L 30.894531 265.191406 C 30.007812 264.644531 27.457031 260.871094 24.773438 261.84375 C 23.796875 262.199219 23.207031 263.3125 23.144531 264.351562 C 23.082031 265.386719 23.542969 266.367188 23.992188 267.296875 C 25.535156 270.460938 26.6875 272.527344 30.085938 276.15625 C 30.894531 277.015625 31.460938 276.898438 32.558594 277.332031 C 32.957031 277.484375 34.304688 277.433594 34.675781 277.234375 C 34.933594 277.085938 35.074219 276.804688 35.171875 276.527344 C 35.613281 275.269531 35.425781 273.878906 35.074219 272.59375 Z M 35.082031 272.59375 " fill-opacity="1" fill-rule="nonzero"/><path fill="#ffa59b" d="M 39.207031 271.453125 C 38.367188 268.441406 36.898438 265.765625 34.949219 263.339844 C 34.011719 262.179688 32.929688 261.144531 31.679688 260.328125 C 29.832031 259.125 27.703125 258.796875 25.5625 259.25 C 23.921875 259.601562 22.710938 261.234375 22.503906 262.808594 C 22.292969 264.378906 23.007812 266.40625 24.542969 267.070312 C 25.941406 267.671875 27.339844 268.28125 28.742188 268.882812 C 29.839844 269.355469 30.832031 269.644531 32.042969 269.316406 C 33.035156 269.042969 34.109375 268.273438 34.601562 267.351562 C 35.738281 265.199219 35.0625 262.824219 33.0625 261.5 C 32.71875 261.269531 34.125 262.429688 33.53125 261.835938 C 33.390625 261.695312 33.242188 261.558594 33.105469 261.410156 C 32.726562 261.027344 32.355469 260.640625 31.957031 260.285156 C 30.691406 259.144531 29.199219 258.035156 27.5 257.636719 C 25.160156 257.089844 22.621094 257.617188 20.917969 259.390625 C 19.058594 261.328125 18.476562 264.171875 19.183594 266.730469 C 19.628906 268.355469 20.523438 269.957031 21.320312 271.453125 C 21.878906 272.5 22.496094 273.507812 23.1875 274.472656 C 24.199219 275.882812 25.304688 277.238281 26.472656 278.53125 C 27.136719 279.265625 27.855469 280 28.742188 280.46875 C 29.554688 280.894531 30.449219 281.140625 31.316406 281.410156 C 33.566406 282.125 36.367188 281.648438 38.015625 279.949219 C 40.140625 277.769531 39.910156 274.15625 39.207031 271.453125 C 38.640625 269.285156 36.125 267.761719 33.941406 268.46875 C 31.761719 269.175781 30.351562 271.410156 30.957031 273.730469 C 31.035156 274.03125 31.085938 274.347656 31.167969 274.648438 C 31.292969 275.085938 31.121094 274.179688 31.121094 274.171875 C 31.105469 274.332031 31.15625 274.535156 31.160156 274.703125 C 31.160156 274.890625 31.085938 275.945312 31.167969 275.183594 C 31.246094 274.519531 31.195312 275.003906 31.140625 275.136719 C 30.691406 276.148438 32.628906 273.464844 32.523438 273.542969 C 33.292969 272.996094 33.613281 273.136719 33.1875 273.222656 C 33.082031 273.242188 34.339844 273.128906 33.90625 273.125 C 33.691406 273.125 33.480469 273.152344 33.265625 273.144531 C 32.449219 273.125 33.738281 273.199219 33.746094 273.222656 C 33.683594 273.089844 33.117188 273.011719 32.964844 272.960938 C 32.875 272.933594 32.398438 272.738281 32.355469 272.78125 C 32.34375 272.789062 33.292969 273.191406 32.976562 273.039062 C 32.816406 272.960938 32.460938 272.683594 33.011719 273.101562 C 33.628906 273.5625 32.949219 272.957031 32.8125 272.808594 C 32.550781 272.527344 32.300781 272.257812 32.054688 271.96875 C 31.664062 271.53125 31.28125 271.082031 30.910156 270.621094 C 30.328125 269.910156 31.371094 271.25 30.945312 270.675781 C 30.777344 270.445312 30.601562 270.222656 30.441406 269.984375 C 29.367188 268.460938 28.5 266.8125 27.6875 265.136719 C 27.703125 265.164062 27.429688 264.644531 27.445312 264.625 C 27.464844 264.597656 27.738281 265.457031 27.597656 264.988281 C 27.519531 264.738281 27.457031 264.269531 27.324219 264.046875 C 27.414062 264.199219 27.339844 265.042969 27.421875 264.347656 C 27.421875 264.296875 27.199219 265.367188 27.347656 264.960938 C 27.375 264.875 27.421875 264.738281 27.429688 264.652344 C 27.128906 265.304688 27.050781 265.476562 27.207031 265.183594 C 27.234375 265.121094 27.269531 265.058594 27.3125 264.996094 C 27.464844 264.625 26.941406 265.457031 26.953125 265.441406 C 27.351562 264.960938 26.605469 265.679688 26.5625 265.714844 C 26.683594 265.625 27.09375 265.457031 26.417969 265.765625 C 25.558594 266.148438 26.890625 265.785156 25.878906 265.917969 C 24.863281 266.050781 26.507812 266.066406 25.445312 265.917969 C 24.578125 265.792969 25.425781 265.96875 25.648438 266.03125 C 26.117188 266.15625 24.710938 265.546875 25.125 265.820312 C 25.222656 265.890625 25.339844 265.9375 25.445312 266.003906 C 25.605469 266.101562 26.359375 266.652344 25.703125 266.148438 C 25.046875 265.644531 25.765625 266.21875 25.914062 266.351562 C 26.085938 266.511719 26.261719 266.671875 26.429688 266.839844 C 27.183594 267.582031 27.855469 268.300781 28.742188 268.894531 C 30.183594 266.433594 31.621094 263.96875 33.0625 261.507812 C 31.664062 260.90625 30.265625 260.300781 28.863281 259.699219 C 28.519531 262.304688 28.183594 264.910156 27.84375 267.519531 C 27.148438 267.574219 26.976562 267.601562 27.316406 267.589844 C 27.660156 267.589844 27.480469 267.554688 26.785156 267.484375 C 26.90625 267.503906 27.023438 267.53125 27.144531 267.566406 C 27.457031 267.664062 27.3125 267.59375 26.703125 267.359375 C 26.792969 267.492188 27.226562 267.660156 27.375 267.734375 C 28.023438 268.089844 26.878906 267.273438 27.234375 267.617188 C 27.589844 267.957031 27.925781 268.257812 28.242188 268.617188 C 28.414062 268.8125 28.582031 269.007812 28.75 269.210938 C 29.351562 269.914062 28.199219 268.40625 28.714844 269.167969 C 29.234375 269.929688 29.769531 270.753906 30.195312 271.613281 C 30.308594 271.84375 30.40625 272.097656 30.53125 272.320312 C 29.972656 271.3125 30.378906 271.957031 30.496094 272.265625 C 30.679688 272.753906 30.832031 273.25 30.972656 273.753906 C 31.574219 275.90625 34.027344 277.457031 36.234375 276.734375 C 38.4375 276.023438 39.867188 273.78125 39.21875 271.472656 Z M 39.207031 271.453125 " fill-opacity="1" fill-rule="nonzero"/></svg>