<svg xmlns="http://www.w3.org/2000/svg" xmlns:xlink="http://www.w3.org/1999/xlink" width="500" zoomAndPan="magnify" viewBox="0 0 375 374.999991" height="500" preserveAspectRatio="xMidYMid meet" version="1.0"><defs><clipPath id="9754108598"><path d="M 65 97.554688 L 75 97.554688 L 75 117 L 65 117 Z M 65 97.554688 " clip-rule="nonzero"/></clipPath></defs><path fill="#ffcfca" d="M 54.667969 386.707031 C 62.875 396.023438 70.105469 400.75 82.15625 403.761719 C 90.789062 405.917969 110.394531 403.261719 113.363281 399.824219 C 115.667969 414.332031 123.238281 428.429688 135.617188 436.355469 C 147.992188 444.28125 165.339844 444.894531 176.992188 435.941406 C 178.199219 435.015625 179.421875 433.957031 180.933594 433.722656 C 183.707031 433.289062 185.996094 435.726562 187.941406 437.746094 C 197.355469 447.503906 211.660156 452.285156 225.054688 450.144531 C 238.445312 447.996094 250.546875 438.980469 256.425781 426.765625 C 260.042969 434.34375 267.816406 439.769531 276.183594 440.546875 C 284.539062 441.328125 293.1875 437.4375 298.144531 430.664062 C 299.136719 429.316406 300.050781 427.800781 301.546875 427.046875 C 303.308594 426.164062 305.410156 426.554688 307.359375 426.851562 C 330.996094 430.425781 354.742188 414.671875 365.425781 393.300781 C 368.902344 386.351562 371.277344 378.566406 370.355469 370.851562 C 369.605469 364.53125 366.296875 358.304688 361.113281 354.789062 C 359.535156 353.714844 359.429688 351.480469 360.867188 350.222656 C 370.078125 342.214844 375 329.378906 373.179688 317.277344 C 371.234375 304.359375 361.703125 292.910156 349.433594 288.496094 C 348.589844 288.191406 348.332031 287.179688 348.921875 286.507812 C 358.59375 275.492188 360.347656 258.097656 352.820312 245.464844 C 345.4375 233.089844 329.789062 226.371094 315.707031 229.179688 C 314.328125 229.453125 313.007812 228.433594 312.886719 227.039062 C 312.039062 217.089844 306.519531 207.585938 298.1875 202.039062 C 289.730469 196.410156 278.621094 195.011719 269.003906 198.246094 C 267.632812 198.710938 266.144531 198.585938 264.953125 197.769531 C 262.992188 196.429688 259.808594 194.34375 256.988281 192.917969 C 243.957031 186.347656 218.117188 184.8125 203.210938 197.671875 C 201.371094 199.257812 198.753906 199.566406 196.703125 198.277344 C 181.285156 188.558594 161.667969 185.652344 144.121094 190.660156 C 125.21875 196.058594 109.136719 210.527344 101.789062 228.746094 C 100.742188 231.339844 99.855469 234.15625 99.808594 236.921875 C 99.765625 239.042969 98.214844 240.796875 96.097656 240.894531 C 84.214844 241.480469 72.507812 246.6875 64.800781 255.722656 C 56.167969 265.847656 53.136719 280.738281 58.050781 293.101562 C 40.789062 305.617188 35.777344 332.167969 47.304688 350.105469 C 47.304688 350.105469 42.703125 373.167969 54.660156 386.714844 Z M 54.667969 386.707031 " fill-opacity="1" fill-rule="nonzero"/><path fill="#ffa59b" d="M 85.261719 314.433594 C 85.261719 314.433594 83.667969 308.523438 94.636719 306.703125 C 105.609375 304.886719 118.378906 307.035156 114.613281 315.683594 C 110.847656 324.332031 83.503906 323.941406 85.261719 314.433594 Z M 85.261719 314.433594 " fill-opacity="1" fill-rule="nonzero"/><path fill="#ffa59b" d="M 215.417969 317.125 C 215.417969 317.125 213.824219 311.210938 224.796875 309.394531 C 235.765625 307.574219 248.535156 309.722656 244.773438 318.371094 C 241.007812 327.023438 213.664062 326.628906 215.417969 317.125 Z M 215.417969 317.125 " fill-opacity="1" fill-rule="nonzero"/><path fill="#ffa59b" d="M 278.09375 269.882812 C 288.1875 271.695312 294.316406 281.277344 291.261719 291.183594 C 289.757812 296.054688 296.472656 298.351562 299.121094 294.496094 C 302.796875 289.148438 310.429688 293.992188 313.625 297.144531 C 317.960938 301.410156 322.664062 308.117188 318.613281 314.070312 C 315.488281 318.652344 322.941406 322.957031 326.039062 318.40625 C 338.40625 300.253906 305.484375 270.074219 291.703125 290.15625 C 294.324219 291.261719 296.945312 292.363281 299.566406 293.472656 C 303.90625 279.417969 294.976562 264.226562 280.390625 261.605469 C 278.105469 261.199219 275.753906 262.222656 275.101562 264.605469 C 274.53125 266.683594 275.804688 269.476562 278.101562 269.890625 Z M 278.09375 269.882812 " fill-opacity="1" fill-rule="nonzero"/><path fill="#ffa59b" d="M 116.691406 246.296875 C 116.722656 246.203125 116.863281 245.523438 116.972656 245.480469 C 116.722656 246.054688 116.691406 246.132812 116.882812 245.707031 L 117.007812 245.4375 C 117.277344 244.898438 117.578125 244.371094 117.914062 243.871094 C 118.082031 243.613281 118.265625 243.359375 118.449219 243.109375 C 119.058594 242.246094 117.851562 243.78125 118.5625 242.972656 C 118.996094 242.484375 119.433594 241.984375 119.894531 241.515625 C 120.359375 241.042969 120.878906 240.558594 121.390625 240.109375 C 121.652344 239.878906 121.917969 239.652344 122.191406 239.4375 C 122.277344 239.367188 123.050781 238.769531 122.59375 239.113281 C 122.15625 239.441406 123.0625 238.777344 123.160156 238.699219 C 123.457031 238.488281 123.753906 238.285156 124.054688 238.082031 C 124.65625 237.675781 125.269531 237.28125 125.894531 236.902344 C 127.09375 236.171875 128.324219 235.496094 129.582031 234.871094 C 130.226562 234.550781 130.882812 234.242188 131.546875 233.945312 C 131.667969 233.890625 132.777344 233.441406 131.828125 233.820312 C 132.152344 233.695312 132.476562 233.554688 132.804688 233.425781 C 135.160156 232.515625 137.582031 231.769531 140.0625 231.320312 C 142.28125 230.921875 143.734375 228.105469 143.058594 226.035156 C 142.289062 223.65625 140.152344 222.609375 137.773438 223.035156 C 131.851562 224.097656 125.992188 226.671875 120.929688 229.867188 C 115.570312 233.246094 110.378906 237.800781 108.398438 244.019531 C 107.714844 246.160156 109.199219 248.800781 111.398438 249.308594 C 113.742188 249.839844 115.957031 248.597656 116.6875 246.308594 Z M 116.691406 246.296875 " fill-opacity="1" fill-rule="nonzero"/><path fill="#000000" d="M 137.335938 321.175781 C 151.734375 329.800781 171.042969 329.210938 184.726562 319.390625 C 186.601562 318.042969 187.507812 315.664062 186.265625 313.527344 C 185.183594 311.675781 182.289062 310.636719 180.398438 311.992188 C 169.097656 320.105469 153.644531 320.964844 141.664062 313.773438 C 136.921875 310.929688 132.609375 318.335938 137.335938 321.175781 Z M 137.335938 321.175781 " fill-opacity="1" fill-rule="nonzero"/><path fill="#000000" d="M 124.476562 282.886719 C 122.066406 281.636719 118.953125 283.03125 117.429688 285.273438 C 115.90625 287.511719 115.582031 290.339844 115.386719 293.042969 C 115.226562 295.277344 115.140625 297.613281 116.0625 299.664062 C 116.980469 301.714844 119.222656 303.335938 121.40625 302.808594 C 124.46875 302.078125 125.25 298.152344 125.417969 295.015625 C 125.5 293.4375 125.585938 291.855469 125.667969 290.277344 C 125.769531 288.394531 125.851562 286.417969 125.039062 284.71875 C 124.222656 283.019531 122.179688 281.746094 120.421875 282.449219 " fill-opacity="1" fill-rule="nonzero"/><path fill="#000000" d="M 126.640625 279.183594 C 123.722656 277.796875 120.835938 277.90625 117.945312 279.289062 C 115.527344 280.441406 113.730469 282.667969 112.710938 285.089844 C 111.636719 287.628906 111.300781 290.304688 111.101562 293.042969 C 110.890625 295.949219 111.046875 298.792969 112.226562 301.496094 C 114.585938 306.902344 121.863281 309.195312 126.289062 304.789062 C 129.757812 301.335938 129.644531 295.984375 129.890625 291.457031 C 130.058594 288.285156 130.242188 284.859375 128.457031 282.054688 C 126.570312 279.085938 122.789062 277.113281 119.285156 278.316406 C 117.171875 279.042969 115.546875 281.285156 116.292969 283.585938 C 116.972656 285.679688 119.292969 287.363281 121.566406 286.578125 C 121.941406 286.453125 122.066406 286.558594 121.230469 286.542969 C 121.425781 286.542969 121.742188 286.621094 121.203125 286.488281 C 120.527344 286.316406 121.132812 286.515625 121.300781 286.542969 C 121.730469 286.613281 120.941406 286.445312 120.921875 286.382812 C 120.9375 286.429688 121.398438 286.597656 121.40625 286.683594 L 121.195312 286.527344 C 120.914062 286.3125 120.914062 286.324219 121.195312 286.578125 C 121.273438 286.746094 121.371094 287.019531 121.222656 286.589844 C 121 285.917969 121.34375 286.824219 121.34375 286.886719 C 121.34375 286.832031 121.082031 285.96875 121.28125 286.84375 C 121.316406 287.007812 121.351562 287.195312 121.40625 287.355469 C 121.609375 287.941406 121.386719 286.640625 121.40625 287.257812 C 121.40625 287.433594 121.433594 287.609375 121.441406 287.792969 C 121.484375 288.753906 121.421875 289.722656 121.371094 290.683594 C 121.273438 292.476562 121.238281 294.277344 121.054688 296.070312 C 121.039062 296.203125 121.019531 296.335938 121.011719 296.46875 C 120.976562 297.039062 121.1875 295.570312 121.054688 296.132812 C 120.984375 296.433594 120.941406 296.75 120.871094 297.058594 C 120.800781 297.367188 120.726562 297.664062 120.625 297.957031 C 120.585938 298.085938 120.542969 298.203125 120.5 298.328125 C 120.261719 299.125 120.84375 297.769531 120.585938 298.132812 C 120.519531 298.222656 120.148438 298.757812 120.15625 298.882812 C 120.136719 298.484375 120.773438 298.210938 120.386719 298.582031 C 120.332031 298.632812 120.058594 298.882812 120.058594 298.914062 C 120.058594 298.933594 120.816406 298.351562 120.457031 298.597656 C 120.289062 298.714844 119.832031 298.878906 120.449219 298.660156 C 121.1875 298.40625 120.585938 298.625 120.507812 298.625 C 119.636719 298.605469 121.265625 298.703125 120.691406 298.632812 C 120.527344 298.609375 119.875 298.617188 120.554688 298.660156 C 121.203125 298.703125 120.695312 298.625 120.570312 298.625 C 120.023438 298.597656 120.605469 298.21875 120.796875 298.730469 C 120.78125 298.6875 120.464844 298.535156 120.414062 298.511719 C 119.917969 298.289062 120.964844 299.054688 120.578125 298.652344 C 120.480469 298.546875 120.359375 298.441406 120.253906 298.351562 C 119.636719 297.804688 120.332031 298.527344 120.34375 298.535156 C 120.183594 298.449219 120.03125 298.054688 119.953125 297.910156 C 119.902344 297.824219 119.753906 297.613281 119.753906 297.515625 L 119.929688 297.886719 C 119.894531 297.773438 119.859375 297.664062 119.824219 297.550781 C 119.785156 297.332031 119.707031 297.085938 119.65625 296.871094 C 119.636719 296.785156 119.53125 296.195312 119.621094 296.742188 C 119.71875 297.324219 119.621094 296.582031 119.609375 296.433594 C 119.59375 296.257812 119.585938 296.082031 119.578125 295.902344 C 119.566406 295.421875 119.574219 294.945312 119.59375 294.476562 C 119.628906 293.605469 119.691406 292.734375 119.777344 291.863281 C 119.789062 291.695312 119.8125 291.519531 119.824219 291.351562 C 119.902344 290.53125 119.804688 291.335938 119.804688 291.472656 C 119.820312 291.027344 119.953125 290.558594 120.050781 290.128906 C 120.164062 289.636719 120.296875 289.148438 120.464844 288.667969 C 120.507812 288.535156 120.554688 288.304688 120.640625 288.199219 C 120.121094 288.867188 120.5625 288.425781 120.703125 288.164062 C 120.789062 288.015625 120.878906 287.875 120.957031 287.730469 C 121.441406 286.84375 120.570312 288.085938 120.902344 287.757812 C 121.035156 287.625 121.152344 287.476562 121.285156 287.34375 C 121.617188 287.019531 121.855469 287.113281 121.179688 287.363281 C 121.503906 287.246094 121.855469 286.941406 122.152344 286.765625 C 122.621094 286.492188 122.304688 286.949219 121.90625 286.871094 C 122.015625 286.894531 122.328125 286.753906 122.4375 286.71875 C 123.191406 286.488281 122.171875 286.824219 122.109375 286.738281 C 122.136719 286.78125 122.734375 286.738281 122.78125 286.738281 C 123.203125 286.683594 122.367188 286.726562 122.3125 286.675781 C 122.445312 286.703125 122.578125 286.738281 122.707031 286.78125 C 123.015625 286.886719 122.882812 286.832031 122.320312 286.613281 C 124.335938 287.574219 127.039062 287.238281 128.183594 285.074219 C 129.195312 283.164062 128.808594 280.246094 126.644531 279.214844 Z M 126.640625 279.183594 " fill-opacity="1" fill-rule="nonzero"/><path fill="#000000" d="M 215.476562 282.886719 C 213.066406 281.636719 209.953125 283.03125 208.429688 285.273438 C 206.90625 287.511719 206.582031 290.339844 206.386719 293.042969 C 206.226562 295.277344 206.140625 297.613281 207.0625 299.664062 C 207.980469 301.714844 210.222656 303.335938 212.40625 302.808594 C 215.46875 302.078125 216.25 298.152344 216.417969 295.015625 C 216.5 293.4375 216.585938 291.855469 216.667969 290.277344 C 216.769531 288.394531 216.851562 286.417969 216.039062 284.71875 C 215.222656 283.019531 213.179688 281.746094 211.421875 282.449219 " fill-opacity="1" fill-rule="nonzero"/><path fill="#000000" d="M 217.640625 279.183594 C 214.722656 277.796875 211.835938 277.90625 208.945312 279.289062 C 206.527344 280.441406 204.730469 282.667969 203.710938 285.089844 C 202.636719 287.628906 202.300781 290.304688 202.101562 293.042969 C 201.890625 295.949219 202.046875 298.792969 203.226562 301.496094 C 205.585938 306.902344 212.863281 309.195312 217.289062 304.789062 C 220.757812 301.335938 220.644531 295.984375 220.890625 291.457031 C 221.058594 288.285156 221.242188 284.859375 219.457031 282.054688 C 217.570312 279.085938 213.789062 277.113281 210.285156 278.316406 C 208.171875 279.042969 206.546875 281.285156 207.292969 283.585938 C 207.972656 285.679688 210.292969 287.363281 212.566406 286.578125 C 212.941406 286.453125 213.066406 286.558594 212.230469 286.542969 C 212.425781 286.542969 212.742188 286.621094 212.203125 286.488281 C 211.527344 286.316406 212.132812 286.515625 212.300781 286.542969 C 212.730469 286.613281 211.941406 286.445312 211.921875 286.382812 C 211.9375 286.429688 212.398438 286.597656 212.40625 286.683594 L 212.195312 286.527344 C 211.914062 286.3125 211.914062 286.324219 212.195312 286.578125 C 212.273438 286.746094 212.371094 287.019531 212.222656 286.589844 C 212 285.917969 212.34375 286.824219 212.34375 286.886719 C 212.34375 286.832031 212.082031 285.96875 212.28125 286.84375 C 212.316406 287.007812 212.351562 287.195312 212.40625 287.355469 C 212.609375 287.941406 212.386719 286.640625 212.40625 287.257812 C 212.40625 287.433594 212.433594 287.609375 212.441406 287.792969 C 212.484375 288.753906 212.421875 289.722656 212.371094 290.683594 C 212.273438 292.476562 212.238281 294.277344 212.054688 296.070312 C 212.042969 296.203125 212.019531 296.335938 212.011719 296.46875 C 211.976562 297.039062 212.1875 295.570312 212.054688 296.132812 C 211.984375 296.433594 211.941406 296.75 211.871094 297.058594 C 211.800781 297.367188 211.726562 297.664062 211.625 297.957031 C 211.585938 298.085938 211.542969 298.203125 211.5 298.328125 C 211.261719 299.125 211.84375 297.769531 211.585938 298.132812 C 211.519531 298.222656 211.148438 298.757812 211.15625 298.882812 C 211.136719 298.484375 211.773438 298.210938 211.386719 298.582031 C 211.332031 298.632812 211.058594 298.882812 211.058594 298.914062 C 211.058594 298.933594 211.816406 298.351562 211.457031 298.597656 C 211.289062 298.714844 210.832031 298.878906 211.449219 298.660156 C 212.1875 298.40625 211.585938 298.625 211.507812 298.625 C 210.636719 298.605469 212.265625 298.703125 211.691406 298.632812 C 211.527344 298.609375 210.875 298.617188 211.554688 298.660156 C 212.203125 298.703125 211.695312 298.625 211.570312 298.625 C 211.023438 298.597656 211.605469 298.21875 211.796875 298.730469 C 211.78125 298.6875 211.464844 298.535156 211.414062 298.511719 C 210.917969 298.289062 211.964844 299.054688 211.578125 298.652344 C 211.480469 298.546875 211.359375 298.441406 211.253906 298.351562 C 210.636719 297.804688 211.332031 298.527344 211.347656 298.535156 C 211.183594 298.449219 211.03125 298.054688 210.953125 297.910156 C 210.902344 297.824219 210.753906 297.613281 210.753906 297.515625 L 210.929688 297.886719 L 210.824219 297.550781 C 210.785156 297.332031 210.707031 297.085938 210.65625 296.871094 C 210.636719 296.785156 210.53125 296.195312 210.621094 296.742188 C 210.71875 297.324219 210.621094 296.582031 210.609375 296.433594 C 210.59375 296.257812 210.585938 296.082031 210.582031 295.902344 C 210.566406 295.421875 210.574219 294.945312 210.59375 294.476562 C 210.628906 293.605469 210.691406 292.734375 210.777344 291.863281 C 210.789062 291.695312 210.8125 291.519531 210.824219 291.351562 C 210.902344 290.53125 210.804688 291.335938 210.804688 291.472656 C 210.820312 291.027344 210.953125 290.558594 211.050781 290.128906 C 211.164062 289.636719 211.296875 289.148438 211.464844 288.667969 C 211.507812 288.535156 211.554688 288.304688 211.640625 288.199219 C 211.121094 288.867188 211.5625 288.425781 211.703125 288.164062 C 211.789062 288.015625 211.878906 287.875 211.957031 287.730469 C 212.441406 286.84375 211.570312 288.085938 211.902344 287.757812 C 212.035156 287.625 212.152344 287.476562 212.285156 287.34375 C 212.617188 287.019531 212.855469 287.113281 212.179688 287.363281 C 212.503906 287.246094 212.855469 286.941406 213.152344 286.765625 C 213.621094 286.492188 213.304688 286.949219 212.90625 286.871094 C 213.015625 286.894531 213.328125 286.753906 213.4375 286.71875 C 214.191406 286.488281 213.171875 286.824219 213.109375 286.738281 C 213.136719 286.78125 213.734375 286.738281 213.78125 286.738281 C 214.203125 286.683594 213.367188 286.726562 213.3125 286.675781 C 213.445312 286.703125 213.578125 286.738281 213.707031 286.78125 C 214.015625 286.886719 213.882812 286.832031 213.320312 286.613281 C 215.335938 287.574219 218.039062 287.238281 219.183594 285.074219 C 220.195312 283.164062 219.808594 280.246094 217.644531 279.214844 Z M 217.640625 279.183594 " fill-opacity="1" fill-rule="nonzero"/><path fill="#ffa59b" d="M 163.261719 267.328125 C 164.820312 252.992188 175.839844 240.621094 189.640625 236.851562 C 192.480469 236.082031 193.40625 233 192.214844 230.542969 C 187.167969 220.1875 198.648438 210.644531 205.535156 204.855469 C 209.78125 201.289062 203.667969 195.234375 199.453125 198.773438 C 188.898438 207.648438 177.679688 220.285156 184.789062 234.871094 C 185.644531 232.765625 186.503906 230.667969 187.359375 228.5625 C 169.589844 233.417969 156.644531 249.144531 154.671875 267.320312 C 154.074219 272.8125 162.679688 272.769531 163.269531 267.320312 Z M 163.261719 267.328125 " fill-opacity="1" fill-rule="nonzero"/><path fill="#ffa59b" d="M 269.988281 223.878906 C 264.039062 222.417969 257.800781 222.425781 251.894531 224.109375 C 248.992188 224.9375 246.132812 226.160156 243.558594 227.71875 C 242.96875 228.078125 242.039062 228.511719 241.597656 229.011719 C 241.34375 229.199219 241.089844 229.390625 240.84375 229.574219 L 242.617188 230.476562 C 242.761719 230.234375 239.40625 227.585938 239.035156 227.296875 C 230.445312 220.53125 218.40625 216.367188 207.796875 220.671875 C 205.628906 221.546875 204.152344 223.519531 204.800781 225.957031 C 205.339844 228 207.9375 229.832031 210.089844 228.953125 C 219.914062 224.96875 229.304688 230.070312 236.738281 236.734375 C 241.863281 241.339844 246.703125 235.222656 251.523438 233.28125 C 256.683594 231.203125 262.332031 230.828125 267.726562 232.148438 C 273.097656 233.460938 275.386719 225.179688 270.007812 223.863281 Z M 269.988281 223.878906 " fill-opacity="1" fill-rule="nonzero"/><path fill="#ffd97b" d="M 79.214844 184.355469 C 86.609375 177.972656 94.421875 169.476562 95.285156 159.75 C 96.140625 150.019531 92.550781 139.851562 85.3125 133.289062 C 78.070312 126.722656 67.085938 124.429688 56.273438 128.066406 C 49.132812 130.464844 45.238281 134.214844 40.703125 140.226562 C 38.792969 142.753906 37.789062 144.621094 36.75 147.609375 C 34.5 154.054688 35.160156 163.371094 38.449219 169.351562 C 41.734375 175.332031 46.714844 180.191406 51.878906 184.664062 C 51.878906 184.664062 55.117188 189.808594 65.804688 188.972656 C 76.496094 188.136719 79.222656 184.347656 79.222656 184.347656 Z M 79.214844 184.355469 " fill-opacity="1" fill-rule="nonzero"/><path fill="#ffffff" d="M 82.945312 165.328125 C 82.65625 165.238281 82.359375 165.148438 82.058594 165.089844 C 81.566406 165.007812 81.070312 164.921875 80.570312 164.902344 C 80.5 164.902344 80.429688 164.902344 80.359375 164.902344 C 79.921875 164.929688 79.472656 165 79.046875 165.070312 C 78.925781 165.089844 78.8125 165.117188 78.703125 165.160156 C 78.328125 165.300781 77.929688 165.460938 77.578125 165.636719 C 77.523438 165.667969 77.464844 165.695312 77.410156 165.730469 C 77.023438 165.960938 76.664062 166.269531 76.320312 166.558594 C 76.222656 166.636719 76.128906 166.726562 76.054688 166.824219 C 75.765625 167.175781 75.464844 167.527344 75.226562 167.914062 C 75.195312 167.960938 75.167969 168.003906 75.148438 168.054688 C 74.964844 168.425781 74.804688 168.820312 74.65625 169.203125 C 74.613281 169.304688 74.585938 169.410156 74.558594 169.511719 C 74.472656 169.929688 74.429688 170.371094 74.382812 170.792969 C 74.382812 170.855469 74.367188 170.917969 74.367188 170.980469 C 74.367188 171.035156 74.367188 171.085938 74.367188 171.140625 C 74.402344 171.554688 74.464844 171.984375 74.535156 172.390625 C 74.558594 172.511719 74.578125 172.625 74.621094 172.730469 C 74.753906 173.121094 74.929688 173.507812 75.105469 173.878906 C 75.125 173.929688 75.148438 173.976562 75.175781 174.027344 C 75.308594 174.289062 75.511719 174.511719 75.6875 174.738281 C 75.855469 174.953125 76.019531 175.199219 76.222656 175.398438 C 76.265625 175.4375 76.3125 175.480469 76.363281 175.523438 C 76.671875 175.78125 77.007812 176.042969 77.339844 176.273438 C 77.429688 176.335938 77.523438 176.394531 77.621094 176.4375 C 77.984375 176.605469 78.371094 176.765625 78.742188 176.914062 C 78.808594 176.933594 78.863281 176.957031 78.925781 176.976562 C 78.988281 176.996094 79.050781 177.003906 79.117188 177.019531 C 79.523438 177.089844 79.953125 177.144531 80.367188 177.1875 C 80.484375 177.199219 80.605469 177.199219 80.722656 177.1875 C 81.140625 177.160156 81.566406 177.082031 81.976562 177.023438 C 82.03125 177.019531 82.085938 177.011719 82.136719 176.996094 C 82.261719 176.96875 82.390625 176.933594 82.507812 176.886719 C 82.9375 176.714844 83.386719 176.554688 83.785156 176.332031 C 84.1875 176.105469 84.550781 175.777344 84.910156 175.488281 C 85 175.410156 85.09375 175.332031 85.171875 175.242188 C 85.4375 174.941406 85.675781 174.601562 85.914062 174.28125 C 85.957031 174.222656 86 174.160156 86.042969 174.097656 C 86.078125 174.042969 86.097656 173.984375 86.125 173.929688 C 86.292969 173.5625 86.484375 173.171875 86.601562 172.785156 C 86.625 172.722656 86.636719 172.660156 86.644531 172.59375 C 86.703125 172.28125 86.777344 171.746094 86.808594 171.421875 C 86.808594 171.367188 86.8125 171.3125 86.8125 171.253906 C 86.8125 171.183594 86.8125 171.121094 86.800781 171.050781 C 86.75 170.628906 86.707031 170.1875 86.625 169.773438 C 86.597656 169.625 86.554688 169.484375 86.496094 169.351562 C 86.324219 168.867188 86.117188 168.390625 85.894531 167.925781 C 85.832031 167.792969 85.753906 167.652344 85.675781 167.527344 C 85.660156 167.503906 85.648438 167.484375 85.632812 167.457031 C 85.429688 167.167969 85.164062 166.8125 84.929688 166.542969 C 84.769531 166.363281 84.59375 166.257812 84.382812 166.09375 C 84.515625 166.199219 84.054688 165.8125 83.90625 165.730469 L 83.863281 165.703125 C 83.519531 165.554688 83.183594 165.414062 82.839844 165.265625 C 82.429688 165.132812 81.980469 165.0625 81.554688 165.078125 C 81.355469 165.082031 80.984375 165.152344 80.929688 165.160156 C 80.203125 165.257812 80.449219 165.1875 79.78125 165.46875 C 79.515625 165.582031 79.320312 165.632812 79.117188 165.785156 C 78.730469 166.066406 78.308594 166.355469 77.976562 166.707031 C 77.648438 167.054688 77.339844 167.46875 77.058594 167.886719 C 76.972656 168.011719 76.894531 168.144531 76.832031 168.285156 C 76.515625 168.777344 76.347656 169.308594 76.320312 169.886719 C 76.195312 170.453125 76.214844 171.03125 76.398438 171.597656 C 76.53125 172.160156 76.785156 172.644531 77.171875 173.058594 C 77.472656 173.527344 77.871094 173.894531 78.378906 174.167969 L 79.402344 174.601562 C 80.164062 174.808594 80.929688 174.808594 81.6875 174.601562 C 82.03125 174.457031 82.367188 174.316406 82.710938 174.167969 C 83.359375 173.789062 83.871094 173.269531 84.257812 172.625 C 84.339844 172.433594 84.445312 172.265625 84.574219 172.105469 C 84.347656 172.390625 84.125 172.6875 83.898438 172.972656 C 84.027344 172.8125 84.167969 172.671875 84.328125 172.539062 C 84.039062 172.765625 83.746094 172.988281 83.457031 173.214844 C 83.503906 173.171875 83.554688 173.144531 83.609375 173.113281 L 82.585938 173.550781 L 82.640625 173.535156 L 81.496094 173.691406 C 81.496094 173.691406 81.566406 173.691406 81.59375 173.691406 L 80.449219 173.535156 C 80.449219 173.535156 80.515625 173.550781 80.542969 173.5625 C 80.199219 173.417969 79.859375 173.277344 79.515625 173.128906 C 79.542969 173.144531 79.574219 173.164062 79.601562 173.183594 L 78.730469 172.511719 C 78.773438 172.546875 78.808594 172.589844 78.84375 172.628906 C 78.617188 172.34375 78.390625 172.046875 78.167969 171.761719 C 78.335938 171.976562 78.457031 172.230469 78.5625 172.484375 L 78.125 171.457031 C 78.222656 171.691406 78.300781 171.921875 78.34375 172.167969 L 78.1875 171.023438 C 78.210938 171.15625 78.210938 171.289062 78.195312 171.421875 L 78.351562 170.277344 C 78.335938 170.382812 78.308594 170.488281 78.273438 170.585938 C 78.421875 170.242188 78.5625 169.90625 78.707031 169.5625 C 78.652344 169.695312 78.574219 169.824219 78.484375 169.933594 L 79.15625 169.0625 C 79.050781 169.199219 78.933594 169.316406 78.800781 169.414062 L 79.671875 168.742188 C 79.539062 168.839844 79.390625 168.925781 79.242188 168.992188 L 80.269531 168.558594 C 80.078125 168.636719 79.882812 168.691406 79.679688 168.71875 L 80.824219 168.566406 C 80.652344 168.585938 80.492188 168.585938 80.324219 168.566406 C 80.703125 168.613281 81.082031 168.671875 81.46875 168.71875 C 81.300781 168.699219 81.144531 168.65625 80.992188 168.59375 L 82.015625 169.027344 C 81.871094 168.964844 81.730469 168.882812 81.59375 168.785156 C 81.882812 169.007812 82.179688 169.234375 82.464844 169.457031 C 82.324219 169.34375 82.199219 169.21875 82.085938 169.070312 L 82.761719 169.941406 C 82.664062 169.808594 82.585938 169.667969 82.515625 169.519531 C 82.664062 169.863281 82.804688 170.203125 82.949219 170.546875 C 82.886719 170.390625 82.84375 170.242188 82.816406 170.082031 C 82.867188 170.460938 82.921875 170.839844 82.972656 171.226562 C 82.949219 171.066406 82.949219 170.902344 82.972656 170.742188 L 82.816406 171.886719 C 82.839844 171.746094 82.878906 171.605469 82.929688 171.472656 L 82.496094 172.496094 C 82.558594 172.351562 82.640625 172.210938 82.734375 172.074219 C 82.507812 172.363281 82.285156 172.660156 82.058594 172.945312 C 82.171875 172.800781 82.296875 172.671875 82.4375 172.566406 L 81.566406 173.242188 C 81.6875 173.15625 81.804688 173.085938 81.941406 173.023438 C 81.59375 173.171875 81.257812 173.3125 80.914062 173.460938 C 81.054688 173.402344 81.195312 173.367188 81.34375 173.339844 L 80.199219 173.492188 C 80.378906 173.472656 80.5625 173.472656 80.753906 173.492188 L 79.609375 173.339844 C 79.957031 173.390625 80.296875 173.488281 80.632812 173.597656 C 81.203125 173.78125 81.777344 173.804688 82.347656 173.675781 C 82.914062 173.648438 83.449219 173.480469 83.949219 173.164062 C 84.445312 172.898438 84.855469 172.523438 85.15625 172.054688 C 85.535156 171.640625 85.796875 171.15625 85.929688 170.59375 L 86.082031 169.449219 C 86.082031 168.679688 85.886719 167.953125 85.492188 167.28125 L 84.820312 166.410156 C 84.285156 165.878906 83.652344 165.511719 82.921875 165.308594 Z M 82.945312 165.328125 " fill-opacity="1" fill-rule="nonzero"/><path fill="#ffffff" d="M 83.402344 144.878906 C 82.460938 142.570312 81.378906 140.253906 79.65625 138.441406 C 78.777344 137.515625 77.710938 136.722656 76.476562 136.417969 C 75.238281 136.117188 73.8125 136.378906 72.933594 137.304688 C 71.882812 138.421875 71.847656 140.140625 72.058594 141.664062 C 72.476562 144.683594 73.617188 147.597656 75.359375 150.101562 C 76.742188 152.097656 78.511719 153.851562 79.550781 156.046875 L 79.523438 155.773438 C 79.988281 156.609375 80.675781 157.363281 81.566406 157.71875 C 82.460938 158.070312 83.570312 157.949219 84.242188 157.277344 C 84.664062 156.855469 84.875 156.265625 85.023438 155.691406 C 85.941406 152.101562 84.785156 148.324219 83.394531 144.886719 Z M 83.402344 144.878906 " fill-opacity="1" fill-rule="nonzero"/><path fill="#ffffff" d="M 87.550781 143.734375 C 85.972656 139.867188 84.109375 136 80.519531 133.582031 C 76.117188 130.621094 69.871094 132.054688 68.109375 137.304688 C 66.816406 141.144531 68.339844 145.734375 69.941406 149.246094 C 70.792969 151.097656 71.953125 152.707031 73.203125 154.308594 C 73.503906 154.695312 73.804688 155.074219 74.109375 155.457031 C 74.675781 156.167969 73.75 154.933594 74.324219 155.746094 C 74.902344 156.5625 75.421875 157.332031 75.851562 158.210938 C 76.65625 159.839844 78.996094 160.738281 80.703125 160.183594 C 82.367188 159.644531 84.066406 157.945312 83.855469 156.042969 L 83.828125 155.769531 C 81.160156 156.492188 78.492188 157.214844 75.820312 157.9375 C 77.242188 160.324219 79.566406 162.101562 82.417969 162.199219 C 85.628906 162.3125 88.0625 160.167969 89.046875 157.257812 C 90.542969 152.847656 89.210938 147.882812 87.542969 143.734375 C 86.707031 141.65625 84.636719 139.964844 82.253906 140.738281 C 80.246094 141.390625 78.355469 143.792969 79.257812 146.023438 C 79.78125 147.34375 80.28125 148.675781 80.640625 150.054688 C 80.800781 150.679688 80.929688 151.304688 81.039062 151.933594 C 80.871094 150.964844 81.039062 152.171875 81.046875 152.308594 C 81.0625 152.621094 81.070312 152.9375 81.0625 153.253906 C 81.054688 153.570312 81.035156 153.878906 81.003906 154.195312 C 81.070312 153.5625 81.027344 153.96875 80.933594 154.363281 C 80.898438 154.523438 80.859375 155.007812 80.71875 155.121094 C 80.757812 154.855469 80.878906 154.628906 81.054688 154.441406 C 81.203125 154.222656 81.398438 154.046875 81.628906 153.914062 C 81.835938 153.789062 82.921875 153.613281 82.566406 153.621094 C 82.207031 153.625 83.246094 153.78125 83.457031 153.886719 C 82.753906 153.535156 83.785156 154.433594 83.324219 153.789062 C 83.738281 154.363281 83.476562 154.003906 83.246094 153.621094 C 82.3125 152.046875 80.199219 151.0625 78.390625 151.648438 C 76.726562 152.1875 75.027344 153.886719 75.238281 155.789062 L 75.265625 156.0625 C 77.9375 155.339844 80.605469 154.617188 83.273438 153.894531 C 82.542969 152.410156 81.53125 151.128906 80.519531 149.835938 C 80.332031 149.597656 80.140625 149.359375 79.953125 149.121094 C 79.777344 148.894531 79.269531 148.234375 79.71875 148.839844 C 79.285156 148.257812 78.855469 147.660156 78.476562 147.035156 C 78.125 146.464844 77.808594 145.867188 77.515625 145.265625 C 77.347656 144.921875 77.207031 144.554688 77.429688 145.117188 C 77.296875 144.78125 77.164062 144.4375 77.050781 144.085938 C 76.820312 143.390625 76.621094 142.6875 76.46875 141.972656 C 76.40625 141.679688 76.363281 141.367188 76.292969 141.074219 C 76.234375 140.738281 76.25 140.835938 76.320312 141.367188 C 76.300781 141.214844 76.285156 141.058594 76.277344 140.898438 C 76.257812 140.640625 76.277344 140.371094 76.257812 140.113281 C 76.195312 139.039062 76.242188 141.074219 76.257812 140.035156 C 76.375 139.664062 76.371094 139.648438 76.234375 139.980469 C 76.082031 140.300781 76.101562 140.292969 76.277344 139.957031 C 76.152344 140.132812 75.378906 140.710938 75.722656 140.535156 C 75.996094 140.371094 75.890625 140.40625 75.40625 140.640625 C 75.800781 140.546875 75.816406 140.527344 75.457031 140.582031 C 74.808594 140.765625 75.675781 140.511719 75.84375 140.617188 C 75.226562 140.527344 75.160156 140.539062 75.660156 140.660156 L 75.273438 140.484375 C 75.589844 140.644531 75.871094 140.820312 76.164062 141.011719 C 75.554688 140.632812 76.089844 140.96875 76.363281 141.234375 C 76.574219 141.4375 76.769531 141.65625 76.964844 141.882812 C 77.085938 142.015625 77.199219 142.148438 77.3125 142.289062 C 77.035156 141.9375 76.988281 141.882812 77.171875 142.132812 C 77.316406 142.386719 77.5 142.625 77.65625 142.878906 C 78.027344 143.488281 78.363281 144.121094 78.671875 144.761719 C 78.828125 145.082031 78.976562 145.414062 79.121094 145.734375 C 79.507812 146.578125 78.863281 145.097656 79.242188 146.03125 C 80.09375 148.101562 82.136719 149.808594 84.53125 149.027344 C 86.53125 148.382812 88.445312 145.96875 87.53125 143.742188 Z M 87.550781 143.734375 " fill-opacity="1" fill-rule="nonzero"/><path fill="#ffd97b" d="M 15.390625 147.054688 C 18.515625 147.96875 21.640625 148.878906 24.765625 149.792969 C 25.828125 150.101562 27.132812 149.914062 28.082031 149.359375 C 28.972656 148.839844 29.824219 147.8125 30.054688 146.789062 C 30.582031 144.484375 29.359375 142.175781 27.054688 141.503906 C 23.929688 140.589844 20.804688 139.675781 17.679688 138.765625 C 16.617188 138.457031 15.3125 138.644531 14.363281 139.199219 C 13.472656 139.71875 12.621094 140.746094 12.390625 141.769531 C 11.863281 144.070312 13.085938 146.382812 15.390625 147.054688 Z M 15.390625 147.054688 " fill-opacity="1" fill-rule="nonzero"/><path fill="#ffd97b" d="M 28.769531 119.410156 C 30.734375 120.898438 32.703125 122.386719 34.664062 123.875 C 34.941406 124.09375 35.230469 124.300781 35.511719 124.519531 C 36.003906 124.835938 36.539062 125.003906 37.113281 125.03125 C 37.683594 125.160156 38.257812 125.136719 38.828125 124.957031 C 39.824219 124.683594 40.90625 123.910156 41.398438 122.984375 C 41.925781 121.984375 42.191406 120.777344 41.832031 119.667969 L 41.398438 118.644531 C 41.019531 118 40.5 117.484375 39.851562 117.101562 C 37.886719 115.613281 35.917969 114.125 33.960938 112.632812 C 33.679688 112.417969 33.390625 112.207031 33.109375 111.988281 C 32.617188 111.671875 32.085938 111.503906 31.507812 111.476562 C 30.941406 111.351562 30.363281 111.371094 29.792969 111.554688 C 28.796875 111.828125 27.714844 112.601562 27.222656 113.527344 C 26.699219 114.523438 26.429688 115.730469 26.789062 116.839844 L 27.222656 117.863281 C 27.601562 118.511719 28.125 119.023438 28.769531 119.410156 Z M 28.769531 119.410156 " fill-opacity="1" fill-rule="nonzero"/><g clip-path="url(#9754108598)"><path fill="#ffd97b" d="M 65.800781 101.941406 C 65.863281 105.375 65.933594 108.808594 65.996094 112.242188 C 66.015625 113.359375 66.460938 114.488281 67.253906 115.28125 C 67.996094 116.027344 69.21875 116.585938 70.292969 116.539062 C 72.582031 116.433594 74.640625 114.648438 74.59375 112.242188 C 74.53125 108.808594 74.460938 105.375 74.394531 101.941406 C 74.375 100.828125 73.933594 99.695312 73.140625 98.902344 C 72.394531 98.160156 71.171875 97.597656 70.097656 97.644531 C 67.808594 97.75 65.75 99.535156 65.800781 101.941406 Z M 65.800781 101.941406 " fill-opacity="1" fill-rule="nonzero"/></g><path fill="#ffd97b" d="M 98.742188 128.761719 C 101.824219 126.304688 104.90625 123.839844 107.992188 121.382812 C 108.796875 120.742188 109.246094 119.324219 109.246094 118.34375 C 109.246094 117.289062 108.777344 116.03125 107.992188 115.300781 C 107.203125 114.574219 106.09375 113.988281 104.949219 114.046875 L 103.804688 114.199219 C 103.074219 114.402344 102.441406 114.777344 101.90625 115.300781 C 98.824219 117.757812 95.742188 120.222656 92.65625 122.679688 C 91.851562 123.320312 91.402344 124.738281 91.402344 125.71875 C 91.402344 126.773438 91.871094 128.03125 92.65625 128.761719 C 93.445312 129.492188 94.554688 130.074219 95.699219 130.015625 L 96.84375 129.863281 C 97.574219 129.660156 98.207031 129.285156 98.742188 128.761719 Z M 98.742188 128.761719 " fill-opacity="1" fill-rule="nonzero"/><path fill="#ffd97b" d="M 107.394531 152.480469 C 110.519531 151.660156 113.636719 150.832031 116.761719 150.011719 C 117.804688 149.738281 118.792969 148.957031 119.335938 148.039062 C 119.875 147.117188 120.101562 145.757812 119.769531 144.726562 C 119.046875 142.492188 116.8125 141.109375 114.480469 141.726562 C 111.355469 142.546875 108.238281 143.375 105.109375 144.199219 C 104.070312 144.472656 103.082031 145.25 102.539062 146.171875 C 102 147.089844 101.773438 148.453125 102.105469 149.484375 C 102.828125 151.71875 105.0625 153.101562 107.394531 152.480469 Z M 107.394531 152.480469 " fill-opacity="1" fill-rule="nonzero"/><path fill="#b6c9e0" d="M 77.773438 201.378906 C 77.773438 197.285156 77.746094 194.757812 80.519531 193.796875 C 81.511719 193.453125 82.691406 193.53125 83.5 192.855469 C 84.292969 192.1875 83.957031 191.039062 84.03125 190.007812 C 84.242188 187.183594 84.6875 183.882812 80.597656 183.335938 C 75.722656 182.675781 69.148438 183.890625 62.371094 184.261719 C 60.117188 184.390625 57.863281 184.507812 55.613281 184.636719 C 53.367188 184.761719 49.855469 183.757812 48.738281 185.253906 C 47.390625 187.058594 47.085938 191.558594 48.332031 193.4375 C 49.308594 194.914062 50.320312 193.882812 51.539062 195.160156 C 54.847656 198.621094 53.078125 204.515625 55.769531 209.542969 C 56.140625 210.328125 59.085938 213.144531 63.46875 212.605469 C 68.480469 211.988281 74.085938 213.066406 76.277344 209.277344 C 77.605469 206.972656 77.773438 203.378906 77.78125 201.386719 Z M 77.773438 201.378906 " fill-opacity="1" fill-rule="nonzero"/><path fill="#90b2d3" d="M 57.320312 199.425781 C 62.898438 199.839844 68.445312 199.519531 73.96875 198.667969 C 74.957031 198.515625 76.054688 197.523438 76.539062 196.695312 C 77.078125 195.777344 77.304688 194.414062 76.972656 193.382812 C 76.636719 192.34375 75.992188 191.339844 75 190.8125 C 73.910156 190.238281 72.894531 190.195312 71.683594 190.378906 C 71.339844 190.433594 70.996094 190.484375 70.652344 190.53125 C 70.320312 190.582031 70.457031 190.558594 71.050781 190.476562 C 70.90625 190.496094 70.757812 190.511719 70.609375 190.53125 C 69.964844 190.609375 69.324219 190.679688 68.679688 190.742188 C 67.433594 190.855469 66.191406 190.941406 64.949219 190.980469 C 62.40625 191.074219 59.863281 191.015625 57.328125 190.828125 C 55.082031 190.660156 52.929688 192.925781 53.03125 195.125 C 53.140625 197.59375 54.917969 199.238281 57.328125 199.421875 Z M 57.320312 199.425781 " fill-opacity="1" fill-rule="nonzero"/><path fill="#ffa59b" d="M 51.007812 298.042969 C 37.472656 290.023438 31.285156 274.390625 30.40625 259.234375 C 29.933594 251.0625 32.617188 243.078125 31.734375 234.976562 C 31.289062 230.914062 29.746094 227.261719 29.761719 223.078125 C 29.761719 221.21875 29.921875 219.359375 30.265625 217.527344 C 30.457031 216.523438 30.695312 215.523438 30.96875 214.542969 C 31.15625 213.882812 32.464844 211.796875 31.179688 212.507812 L 27.863281 212.941406 C 27.292969 212.484375 26.726562 212.027344 26.15625 211.574219 L 26.207031 212.140625 C 26.085938 212.394531 26.21875 213.039062 26.210938 213.328125 C 26.199219 214.238281 26.128906 215.152344 26.03125 216.058594 C 25.832031 217.882812 25.488281 219.695312 25.195312 221.507812 C 24.226562 227.5 23.535156 233.511719 23.25 239.582031 L 31.691406 238.4375 C 31.347656 236.410156 30.660156 234.472656 30.316406 232.449219 C 29.394531 226.996094 21.15625 229.328125 22.027344 234.734375 C 22.28125 236.296875 23.234375 237.582031 23.488281 239.132812 C 26.105469 238.03125 28.726562 236.929688 31.347656 235.820312 C 25.65625 227.347656 14.210938 223.789062 6.484375 231.988281 C -0.0078125 238.882812 0.933594 250.445312 9.621094 254.992188 C 17.453125 259.09375 30.378906 254.71875 28.804688 244.230469 C 27.378906 234.738281 9.628906 229.648438 6.132812 240.1875 C 2.765625 250.332031 15.324219 257.0625 23.507812 252.488281 C 31.691406 247.910156 30.628906 233.414062 20.507812 231.75 C 10.3125 230.070312 3.800781 242.449219 11.976562 249.34375 C 20.328125 256.390625 31.242188 245.839844 28.1875 236.613281 C 26.632812 231.929688 21.414062 229.019531 16.589844 230.273438 C 11.503906 231.601562 9.199219 237.21875 11.34375 241.921875 C 13.410156 246.457031 18.976562 247.691406 23.324219 245.839844 C 29.058594 243.386719 30.335938 237.015625 30.628906 231.410156 C 30.847656 227.324219 25.953125 226.238281 23.289062 228.371094 C 19.890625 231.101562 18.269531 234.878906 17.875 239.148438 C 17.480469 243.417969 24.195312 245.1875 25.882812 241.316406 C 30.117188 231.617188 32.402344 221.4375 32.464844 210.828125 L 23.867188 210.828125 C 23.886719 218.796875 22.988281 226.722656 23.011719 234.691406 L 31.605469 234.691406 C 31.390625 232.289062 31.804688 229.910156 31.585938 227.507812 C 31.085938 222.046875 22.488281 221.992188 22.988281 227.507812 C 23.207031 229.910156 22.792969 232.289062 23.011719 234.691406 C 23.5 240.101562 31.621094 240.3125 31.605469 234.691406 C 31.585938 226.722656 32.484375 218.796875 32.464844 210.828125 C 32.449219 205.296875 23.894531 205.289062 23.867188 210.828125 C 23.816406 219.828125 22.070312 228.714844 18.464844 236.980469 C 21.132812 237.703125 23.804688 238.425781 26.472656 239.148438 C 26.664062 237.089844 27.8125 235.703125 29.375 234.453125 C 26.929688 233.441406 24.476562 232.421875 22.035156 231.410156 C 21.929688 233.363281 21.929688 236.523438 20.179688 237.863281 C 19.878906 238.09375 19.429688 237.988281 19.140625 238.144531 C 18.78125 238.332031 19.167969 238.382812 19.105469 238.125 C 18.800781 238.300781 18.746094 238.453125 18.9375 238.585938 C 19.230469 238.574219 19.484375 238.644531 19.695312 238.8125 C 19.941406 239.289062 20.089844 239.472656 20.144531 240.046875 C 20.242188 241.03125 19.253906 243.214844 17.972656 243.050781 C 15.085938 242.6875 18.492188 237.84375 20.367188 241.183594 C 22.390625 244.777344 17.046875 246.5 14.707031 244.433594 C 14.53125 244.28125 14.144531 243.417969 14.203125 243.164062 C 13.738281 243.421875 13.800781 243.445312 14.398438 243.21875 L 15.3125 243.148438 C 16.855469 243.039062 20.867188 243.632812 20.25 246.085938 C 19.359375 249.628906 13.675781 247.945312 12.054688 246.210938 C 9.558594 243.550781 10.902344 239.148438 13.535156 237.089844 C 17.285156 234.164062 21.648438 236.761719 23.921875 240.152344 C 26.738281 244.351562 32.542969 241.605469 31.78125 236.839844 C 31.53125 235.273438 30.574219 233.988281 30.320312 232.4375 C 27.5625 233.195312 24.792969 233.960938 22.035156 234.71875 C 22.378906 236.746094 23.066406 238.683594 23.410156 240.707031 C 24.246094 245.675781 31.636719 244.183594 31.851562 239.5625 C 32.238281 231.304688 34.078125 223.308594 34.71875 215.109375 C 34.992188 211.578125 34.894531 206.734375 31.171875 205.03125 C 25.617188 202.480469 23.359375 209.375 22.363281 213.417969 C 21.097656 218.542969 20.859375 223.851562 21.640625 229.066406 C 22.019531 231.617188 23.09375 234.121094 23.226562 236.683594 C 23.390625 239.667969 22.996094 242.398438 22.546875 245.324219 C 20.761719 256.902344 21.957031 269.125 26.085938 280.113281 C 30.027344 290.59375 36.964844 299.683594 46.667969 305.433594 C 51.433594 308.261719 55.769531 300.835938 51.007812 298.015625 Z M 51.007812 298.042969 " fill-opacity="1" fill-rule="nonzero"/><path fill="#ffffff" d="M 341.820312 282.773438 C 343.742188 279.628906 345.4375 275.007812 345.542969 271.46875 C 345.65625 267.757812 345.203125 264.089844 344.769531 260.398438 C 344.023438 254.023438 340.597656 248.191406 336.339844 242.996094 C 336.230469 242.855469 336.089844 242.730469 335.96875 242.589844 C 334.585938 240.972656 332.6875 239.5625 331.550781 238.832031 C 325.65625 235.046875 320.039062 233.566406 312.65625 235.265625 C 305.886719 236.824219 304.636719 241.691406 307.226562 248.121094 C 308.464844 251.179688 310.914062 253.398438 313.199219 255.785156 C 315.4375 258.125 317.363281 260.695312 319.011719 263.425781 C 320.601562 266.050781 321.90625 268.789062 322.890625 271.667969 C 323.980469 274.859375 324.414062 278.292969 326.105469 281.285156 C 329.863281 287.933594 337.730469 289.441406 341.820312 282.773438 Z M 341.820312 282.773438 " fill-opacity="1" fill-rule="nonzero"/><path fill="#ffffff" d="M 354.496094 307.503906 C 356 310.953125 357.019531 315.011719 354.875 318.34375 C 353.789062 320.042969 352.09375 321.46875 350.085938 321.925781 C 347.953125 322.410156 345.957031 322.039062 344.011719 321.109375 C 340.871094 319.617188 338.996094 316.21875 338.398438 312.917969 C 338.105469 311.28125 337.851562 309.519531 337.84375 307.847656 C 337.84375 305.320312 338.996094 303.074219 341.117188 301.707031 C 342.910156 300.546875 345.058594 300.367188 347.109375 300.722656 C 348.800781 301.019531 350.558594 301.679688 351.800781 302.835938 C 352.789062 303.757812 353.386719 304.972656 354.496094 307.503906 Z M 354.496094 307.503906 " fill-opacity="1" fill-rule="nonzero"/><path fill="#ffffff" d="M 77.949219 289.707031 C 79.539062 282.507812 81.785156 279.324219 87.328125 274.707031 C 92.933594 270.03125 103.839844 265.636719 100.699219 256.375 C 97.617188 247.277344 84.972656 250.824219 79.046875 254.535156 C 72.15625 258.863281 67.34375 265.945312 65.546875 273.851562 C 64.429688 278.777344 64.367188 283.789062 65.082031 288.773438 C 65.417969 291.148438 65.660156 294.171875 67.5 295.921875 C 67.5 295.921875 69.535156 298.882812 73.273438 297.664062 C 77.007812 296.441406 77.382812 292.257812 77.941406 289.707031 Z M 77.949219 289.707031 " fill-opacity="1" fill-rule="nonzero"/><path fill="#ffffff" d="M 268.644531 271.714844 C 266.636719 272.4375 265.941406 274.300781 265.808594 276.328125 C 265.597656 279.453125 268.230469 281.839844 270.308594 283.777344 C 272.558594 285.867188 274.972656 287.792969 277.503906 289.535156 C 278.597656 290.285156 279.730469 291.097656 280.921875 291.679688 C 283.179688 292.789062 285.480469 291.625 286.324219 289.363281 C 286.832031 288.003906 286.613281 286.558594 286.324219 285.167969 C 286.042969 283.832031 285.558594 282.5625 284.996094 281.320312 C 283.972656 279.023438 282.382812 276.890625 280.515625 275.210938 C 278.570312 273.464844 275.824219 271.953125 273.148438 271.421875 C 270.90625 270.972656 269.707031 271.335938 268.644531 271.714844 Z M 271.539062 276.503906 C 271.539062 276.503906 271.539062 276.515625 271.539062 276.523438 C 271.539062 276.511719 271.539062 276.511719 271.53125 276.496094 C 271.53125 276.484375 271.53125 276.496094 271.53125 276.484375 C 271.53125 276.484375 271.53125 276.488281 271.539062 276.496094 Z M 280.902344 287.5625 C 280.902344 287.5625 280.902344 287.59375 280.894531 287.601562 C 280.824219 287.734375 280.859375 287.664062 280.902344 287.5625 Z M 280.902344 287.5625 " fill-opacity="1" fill-rule="nonzero"/><path fill="#ffffff" d="M 125.734375 210.882812 C 125.734375 210.882812 124.652344 208.433594 128.339844 204.476562 C 132.03125 200.515625 143.03125 194.492188 150.886719 193.207031 C 158.738281 191.921875 163.308594 192.324219 162.53125 197.988281 C 161.75 203.652344 147.746094 205.085938 143.101562 206.523438 C 138.460938 207.957031 127.839844 214.78125 125.734375 210.882812 Z M 125.734375 210.882812 " fill-opacity="1" fill-rule="nonzero"/><path fill="#ffbdc5" d="M 70.195312 381.894531 C 70.195312 381.894531 59.710938 368.835938 73.203125 359.925781 C 86.6875 351.023438 98.410156 365.648438 101.527344 369.171875 C 104.648438 372.695312 113.070312 373.53125 125.734375 372.5 C 138.398438 371.46875 145.6875 388.472656 153.460938 391.519531 C 161.238281 394.566406 166.273438 395.289062 177.292969 388.324219 C 188.308594 381.359375 200.902344 390.410156 209.21875 394.980469 C 217.535156 399.554688 237.542969 401.351562 246.984375 392.816406 C 256.425781 384.28125 253.125 383.78125 258.445312 381.132812 C 263.777344 378.488281 273.140625 383.605469 285.917969 380.234375 C 298.695312 376.867188 310.984375 363.085938 315.613281 353.980469 C 324.472656 336.535156 342.242188 339.222656 350.402344 346.480469 C 356.957031 352.308594 360.894531 363.605469 358.347656 380.011719 C 355.796875 396.417969 338.1875 418.910156 319.601562 419.359375 C 301.019531 419.808594 303.574219 418.28125 303.574219 418.28125 C 303.574219 418.28125 296.363281 430.816406 280.664062 430.472656 C 264.972656 430.121094 261.375 420.5625 257.097656 421.636719 C 252.828125 422.710938 242.207031 440.050781 219.078125 442.949219 C 195.949219 445.847656 183.355469 425.757812 183.355469 425.757812 C 183.355469 425.757812 165.816406 432.371094 149.183594 429.21875 C 132.546875 426.070312 119.390625 400.046875 120.351562 396.769531 C 120.351562 396.769531 110.96875 396.859375 105.125 390.34375 C 105.125 390.34375 82.03125 398.609375 70.195312 381.894531 Z M 70.195312 381.894531 " fill-opacity="1" fill-rule="nonzero"/><path fill="#ffa59b" d="M 145.601562 348.695312 C 140.097656 356.316406 139.316406 366.644531 142.574219 375.351562 C 144.148438 379.554688 146.46875 383.3125 149.3125 386.773438 C 150.738281 388.5 152.304688 390.113281 153.96875 391.601562 C 154.804688 392.347656 155.675781 393.054688 156.546875 393.757812 C 157.058594 394.144531 157.570312 394.542969 158.070312 394.957031 C 158.125 392.332031 157.84375 391.628906 157.226562 392.859375 C 155.949219 394.011719 155.113281 397.21875 154.699219 398.820312 C 154.117188 401.078125 153.847656 403.523438 153.933594 405.851562 C 154.09375 410.269531 155.316406 414.628906 157.410156 418.519531 C 161.757812 426.589844 169.671875 432.164062 177.84375 435.886719 C 182.84375 438.160156 187.210938 430.753906 182.183594 428.464844 C 175.3125 425.339844 168.472656 421.03125 164.835938 414.179688 C 162.992188 410.710938 162.109375 406.582031 162.648438 402.671875 C 163.132812 399.164062 166.351562 396.207031 166.027344 392.695312 C 165.683594 388.976562 161.679688 387.074219 159.222656 384.769531 C 156.347656 382.082031 153.882812 379.054688 152.042969 375.574219 C 148.222656 368.363281 148.179688 359.742188 153.027344 353.03125 C 156.273438 348.539062 148.820312 344.25 145.601562 348.695312 Z M 145.601562 348.695312 " fill-opacity="1" fill-rule="nonzero"/><path fill="#ffa59b" d="M 53.929688 332.96875 C 51.1875 341.253906 52.046875 349.640625 56.15625 357.320312 C 60.128906 364.75 66.769531 370.367188 74.621094 373.320312 C 76.792969 374.136719 79.332031 372.414062 79.910156 370.324219 C 80.570312 367.914062 79.085938 365.859375 76.910156 365.035156 C 71.296875 362.925781 66.5 358.4375 63.585938 352.988281 C 60.671875 347.542969 60.144531 341.546875 62.230469 335.257812 C 62.960938 333.050781 61.386719 330.566406 59.230469 329.96875 C 56.894531 329.324219 54.671875 330.765625 53.941406 332.96875 Z M 53.929688 332.96875 " fill-opacity="1" fill-rule="nonzero"/><path fill="#ffa59b" d="M 332.402344 362.09375 C 340.925781 376.703125 342.402344 394.878906 335.464844 410.4375 C 332.335938 417.449219 327.730469 423.726562 322.003906 428.84375 C 316.679688 433.605469 308.730469 437.023438 308.714844 445.246094 C 308.714844 447.503906 310.691406 449.625 313.015625 449.539062 C 317.300781 449.378906 320.160156 446.867188 322.320312 443.347656 C 323.648438 441.1875 325.019531 436.089844 327.589844 435.09375 L 322.300781 429.808594 C 321.15625 434.410156 319.6875 439.277344 316.710938 443.066406 C 315.4375 444.691406 313.824219 446.042969 312.707031 447.800781 C 311.871094 449.121094 310.765625 450.398438 310.015625 451.71875 C 309.304688 452.964844 309.136719 454.820312 310.015625 456.054688 C 311.898438 458.695312 315.359375 459.574219 318.316406 458.195312 C 321.132812 456.882812 322.855469 453.78125 324.421875 451.234375 C 328.109375 445.238281 331.289062 438.125 330.734375 430.9375 C 330.425781 426.90625 324.941406 424.808594 322.730469 428.769531 C 319.167969 435.136719 317.1875 442.167969 314.273438 448.816406 C 312.082031 453.816406 319.421875 458.210938 321.695312 453.15625 C 323.074219 450.09375 326.023438 448.191406 327.40625 445.25 C 329.035156 441.785156 325.371094 436.609375 321.527344 439.375 C 316.5625 442.941406 311.519531 447.027344 311.925781 453.761719 C 312.179688 458 317.585938 459.628906 319.933594 455.929688 C 324.960938 448.003906 329.746094 440.484375 330.742188 430.9375 C 331.320312 425.441406 322.714844 425.480469 322.144531 430.9375 C 321.332031 438.707031 316.574219 445.179688 312.507812 451.589844 C 315.179688 452.3125 317.847656 453.035156 320.515625 453.761719 C 320.3125 450.410156 323.417969 448.550781 325.863281 446.796875 C 323.902344 444.835938 321.941406 442.878906 319.984375 440.917969 C 318.667969 443.699219 315.636719 445.804688 314.273438 448.824219 C 316.746094 450.269531 319.222656 451.71875 321.695312 453.164062 C 324.605469 446.523438 326.597656 439.453125 330.152344 433.113281 C 327.484375 432.390625 324.816406 431.667969 322.144531 430.945312 C 322.449219 434.828125 321.359375 438.492188 319.703125 441.980469 C 318.902344 443.671875 317.988281 445.308594 317.003906 446.902344 C 316.546875 447.644531 316.089844 448.390625 315.585938 449.105469 L 315.023438 449.933594 C 313.738281 451.050781 314.546875 451.648438 317.445312 451.722656 L 317.445312 456.0625 C 316.890625 457.046875 318.796875 454.6875 318.835938 454.625 C 319.34375 453.824219 319.589844 452.933594 320.136719 452.144531 C 321.507812 450.152344 323.402344 448.550781 324.765625 446.523438 C 327.652344 442.21875 329.351562 437.085938 330.59375 432.09375 C 331.320312 429.1875 328.515625 425.566406 325.308594 426.808594 C 321.542969 428.269531 319.289062 430.9375 317.371094 434.410156 C 316.640625 435.738281 314.890625 440.878906 313.015625 440.949219 C 314.449219 442.378906 315.878906 443.8125 317.3125 445.246094 C 317.3125 442.023438 321.976562 439.804688 324.203125 438.105469 C 327.46875 435.613281 330.488281 432.847656 333.1875 429.742188 C 338.582031 423.515625 342.726562 416.347656 345.375 408.550781 C 351.078125 391.785156 348.695312 372.964844 339.824219 357.765625 C 337.035156 352.988281 329.605469 357.308594 332.402344 362.101562 Z M 332.402344 362.09375 " fill-opacity="1" fill-rule="nonzero"/></svg>