<svg xmlns="http://www.w3.org/2000/svg" xmlns:xlink="http://www.w3.org/1999/xlink" width="500" zoomAndPan="magnify" viewBox="0 0 375 374.999991" height="500" preserveAspectRatio="xMidYMid meet" version="1.0"><path fill="#ffcfca" d="M 76.535156 365.550781 C 83.382812 373.335938 89.410156 377.285156 99.460938 379.800781 C 106.660156 381.601562 123.011719 379.382812 125.488281 376.507812 C 127.410156 388.632812 133.722656 400.410156 144.046875 407.03125 C 154.367188 413.65625 168.835938 414.164062 178.554688 406.6875 C 179.5625 405.914062 180.582031 405.027344 181.839844 404.832031 C 184.15625 404.46875 186.0625 406.503906 187.6875 408.195312 C 195.535156 416.347656 207.46875 420.339844 218.640625 418.554688 C 229.804688 416.757812 239.898438 409.226562 244.800781 399.019531 C 247.816406 405.351562 254.300781 409.882812 261.277344 410.535156 C 268.25 411.1875 275.460938 407.9375 279.597656 402.277344 C 280.421875 401.148438 281.183594 399.882812 282.429688 399.253906 C 283.902344 398.515625 285.652344 398.84375 287.28125 399.089844 C 306.992188 402.078125 326.796875 388.914062 335.707031 371.058594 C 338.609375 365.253906 340.589844 358.75 339.820312 352.300781 C 339.195312 347.023438 336.433594 341.820312 332.113281 338.882812 C 330.792969 337.984375 330.707031 336.121094 331.90625 335.070312 C 339.585938 328.378906 343.691406 317.65625 342.175781 307.542969 C 340.554688 296.75 332.605469 287.183594 322.371094 283.496094 C 321.667969 283.242188 321.449219 282.398438 321.941406 281.835938 C 330.007812 272.632812 331.472656 258.097656 325.195312 247.546875 C 319.035156 237.203125 305.984375 231.589844 294.242188 233.9375 C 293.09375 234.167969 291.992188 233.316406 291.890625 232.148438 C 291.183594 223.835938 286.578125 215.894531 279.632812 211.261719 C 272.578125 206.558594 263.3125 205.390625 255.292969 208.09375 C 254.148438 208.480469 252.90625 208.375 251.910156 207.695312 C 250.277344 206.574219 247.625 204.832031 245.269531 203.644531 C 234.402344 198.152344 212.851562 196.867188 200.421875 207.613281 C 198.886719 208.9375 196.703125 209.195312 194.992188 208.117188 C 182.132812 200 165.773438 197.570312 151.140625 201.753906 C 135.375 206.265625 121.960938 218.351562 115.835938 233.574219 C 114.960938 235.746094 114.222656 238.097656 114.183594 240.40625 C 114.148438 242.179688 112.851562 243.644531 111.089844 243.726562 C 101.179688 244.214844 91.414062 248.566406 84.988281 256.113281 C 77.789062 264.574219 75.257812 277.011719 79.359375 287.34375 C 64.960938 297.800781 60.78125 319.984375 70.394531 334.96875 C 70.394531 334.96875 66.558594 354.238281 76.527344 365.558594 Z M 76.535156 365.550781 " fill-opacity="1" fill-rule="nonzero"/><path fill="#ffa59b" d="M 102.050781 305.167969 C 102.050781 305.167969 100.722656 300.230469 109.871094 298.710938 C 119.019531 297.191406 129.671875 298.984375 126.53125 306.210938 C 123.390625 313.4375 100.585938 313.109375 102.050781 305.167969 Z M 102.050781 305.167969 " fill-opacity="1" fill-rule="nonzero"/><path fill="#ffa59b" d="M 210.601562 307.414062 C 210.601562 307.414062 209.273438 302.476562 218.421875 300.957031 C 227.574219 299.4375 238.222656 301.230469 235.082031 308.457031 C 231.941406 315.683594 209.136719 315.355469 210.601562 307.414062 Z M 210.601562 307.414062 " fill-opacity="1" fill-rule="nonzero"/><path fill="#ffa59b" d="M 262.871094 267.945312 C 271.289062 269.457031 276.402344 277.464844 273.855469 285.742188 C 272.601562 289.8125 278.203125 291.730469 280.410156 288.511719 C 283.472656 284.039062 289.839844 288.085938 292.507812 290.722656 C 296.121094 294.289062 300.046875 299.890625 296.664062 304.863281 C 294.058594 308.691406 300.273438 312.289062 302.859375 308.488281 C 313.171875 293.320312 285.71875 268.105469 274.222656 284.886719 C 276.410156 285.804688 278.59375 286.726562 280.78125 287.652344 C 284.398438 275.910156 276.953125 263.21875 264.789062 261.03125 C 262.882812 260.691406 260.921875 261.546875 260.375 263.535156 C 259.902344 265.269531 260.960938 267.605469 262.878906 267.953125 Z M 262.871094 267.945312 " fill-opacity="1" fill-rule="nonzero"/><path fill="#ffa59b" d="M 231.824219 382.734375 C 231.386719 382.65625 230.941406 382.585938 230.5 382.507812 C 225.925781 381.734375 224.285156 387.742188 228.597656 389.429688 C 243.253906 395.183594 260.816406 391.300781 271.933594 380.246094 C 275.214844 376.984375 270.140625 371.910156 266.859375 375.164062 C 257.402344 384.574219 242.855469 387.355469 230.5 382.503906 C 229.867188 384.808594 229.230469 387.121094 228.597656 389.425781 C 229.035156 389.5 229.480469 389.570312 229.921875 389.648438 C 231.832031 389.96875 233.78125 389.144531 234.332031 387.144531 C 234.808594 385.417969 233.746094 383.050781 231.832031 382.726562 Z M 231.824219 382.734375 " fill-opacity="1" fill-rule="nonzero"/><path fill="#ffa59b" d="M 128.265625 248.238281 C 128.289062 248.160156 128.40625 247.59375 128.5 247.558594 C 128.289062 248.039062 128.265625 248.101562 128.421875 247.746094 L 128.527344 247.523438 C 128.75 247.070312 129.003906 246.628906 129.285156 246.214844 C 129.425781 245.996094 129.578125 245.785156 129.730469 245.574219 C 130.238281 244.851562 129.230469 246.136719 129.824219 245.464844 C 130.1875 245.050781 130.550781 244.636719 130.9375 244.242188 C 131.324219 243.851562 131.757812 243.445312 132.183594 243.070312 C 132.398438 242.875 132.621094 242.6875 132.851562 242.507812 C 132.921875 242.449219 133.566406 241.949219 133.183594 242.238281 C 132.820312 242.511719 133.578125 241.957031 133.660156 241.890625 C 133.90625 241.714844 134.152344 241.546875 134.402344 241.375 C 134.90625 241.035156 135.417969 240.707031 135.9375 240.390625 C 136.941406 239.78125 137.964844 239.214844 139.015625 238.695312 C 139.554688 238.425781 140.097656 238.167969 140.652344 237.921875 C 140.753906 237.875 141.679688 237.496094 140.886719 237.816406 C 141.15625 237.710938 141.425781 237.59375 141.703125 237.484375 C 143.664062 236.722656 145.6875 236.101562 147.753906 235.726562 C 149.605469 235.390625 150.816406 233.039062 150.253906 231.308594 C 149.609375 229.320312 147.828125 228.449219 145.84375 228.804688 C 140.90625 229.691406 136.019531 231.84375 131.796875 234.511719 C 127.328125 237.332031 123 241.140625 121.347656 246.335938 C 120.777344 248.125 122.015625 250.332031 123.847656 250.753906 C 125.804688 251.199219 127.648438 250.160156 128.257812 248.25 Z M 128.265625 248.238281 " fill-opacity="1" fill-rule="nonzero"/><path fill="#000000" d="M 145.480469 310.796875 C 157.488281 318.007812 173.59375 317.515625 185.003906 309.308594 C 186.566406 308.183594 187.324219 306.195312 186.285156 304.410156 C 185.382812 302.863281 182.972656 301.996094 181.394531 303.125 C 171.96875 309.90625 159.082031 310.621094 149.089844 304.617188 C 145.136719 302.242188 141.539062 308.429688 145.480469 310.796875 Z M 145.480469 310.796875 " fill-opacity="1" fill-rule="nonzero"/><path fill="#000000" d="M 134.753906 278.808594 C 132.746094 277.765625 130.152344 278.929688 128.878906 280.800781 C 127.609375 282.671875 127.339844 285.039062 127.175781 287.296875 C 127.039062 289.160156 126.96875 291.113281 127.738281 292.828125 C 128.503906 294.539062 130.375 295.894531 132.195312 295.453125 C 134.75 294.84375 135.398438 291.566406 135.539062 288.945312 C 135.609375 287.625 135.679688 286.304688 135.75 284.984375 C 135.832031 283.414062 135.902344 281.757812 135.222656 280.339844 C 134.542969 278.917969 132.839844 277.859375 131.375 278.445312 " fill-opacity="1" fill-rule="nonzero"/><path fill="#000000" d="M 136.558594 275.71875 C 134.128906 274.554688 131.722656 274.648438 129.308594 275.804688 C 127.292969 276.765625 125.792969 278.625 124.941406 280.648438 C 124.046875 282.773438 123.765625 285.007812 123.601562 287.296875 C 123.425781 289.722656 123.554688 292.097656 124.539062 294.359375 C 126.507812 298.875 132.574219 300.792969 136.265625 297.109375 C 139.160156 294.222656 139.066406 289.753906 139.273438 285.96875 C 139.414062 283.320312 139.566406 280.457031 138.078125 278.117188 C 136.5 275.636719 133.347656 273.988281 130.425781 274.988281 C 128.664062 275.601562 127.308594 277.472656 127.929688 279.394531 C 128.5 281.144531 130.433594 282.550781 132.328125 281.894531 C 132.640625 281.789062 132.746094 281.875 132.050781 281.863281 C 132.214844 281.863281 132.476562 281.929688 132.027344 281.816406 C 131.464844 281.675781 131.96875 281.839844 132.109375 281.863281 C 132.464844 281.921875 131.808594 281.78125 131.792969 281.730469 C 131.804688 281.769531 132.191406 281.910156 132.195312 281.980469 L 132.019531 281.851562 C 131.785156 281.671875 131.785156 281.683594 132.019531 281.894531 C 132.085938 282.035156 132.167969 282.261719 132.042969 281.90625 C 131.855469 281.34375 132.144531 282.097656 132.144531 282.152344 C 132.144531 282.105469 131.925781 281.382812 132.089844 282.117188 C 132.121094 282.25 132.148438 282.410156 132.195312 282.542969 C 132.363281 283.03125 132.179688 281.945312 132.195312 282.460938 C 132.195312 282.609375 132.21875 282.753906 132.226562 282.910156 C 132.261719 283.710938 132.207031 284.519531 132.167969 285.324219 C 132.085938 286.820312 132.054688 288.328125 131.902344 289.824219 C 131.890625 289.933594 131.875 290.046875 131.867188 290.15625 C 131.839844 290.632812 132.015625 289.40625 131.902344 289.875 C 131.84375 290.128906 131.808594 290.394531 131.75 290.652344 C 131.691406 290.910156 131.628906 291.15625 131.546875 291.402344 C 131.511719 291.507812 131.476562 291.605469 131.441406 291.710938 C 131.242188 292.375 131.726562 291.242188 131.511719 291.546875 C 131.457031 291.625 131.148438 292.070312 131.152344 292.175781 C 131.136719 291.839844 131.667969 291.613281 131.347656 291.921875 C 131.300781 291.964844 131.070312 292.175781 131.070312 292.199219 C 131.070312 292.21875 131.703125 291.730469 131.40625 291.933594 C 131.265625 292.035156 130.882812 292.167969 131.398438 291.988281 C 132.015625 291.777344 131.511719 291.957031 131.445312 291.957031 C 130.71875 291.941406 132.078125 292.023438 131.597656 291.964844 C 131.464844 291.945312 130.917969 291.953125 131.488281 291.988281 C 132.027344 292.023438 131.605469 291.957031 131.5 291.957031 C 131.042969 291.933594 131.527344 291.617188 131.6875 292.046875 C 131.675781 292.011719 131.410156 291.882812 131.371094 291.863281 C 130.953125 291.675781 131.828125 292.316406 131.503906 291.980469 C 131.421875 291.894531 131.324219 291.804688 131.234375 291.730469 C 130.71875 291.273438 131.300781 291.875 131.3125 291.882812 C 131.175781 291.8125 131.046875 291.484375 130.984375 291.359375 C 130.941406 291.289062 130.820312 291.113281 130.820312 291.03125 L 130.964844 291.34375 C 130.9375 291.25 130.90625 291.15625 130.878906 291.0625 C 130.84375 290.878906 130.777344 290.675781 130.738281 290.492188 C 130.71875 290.421875 130.632812 289.929688 130.707031 290.386719 C 130.789062 290.875 130.707031 290.25 130.695312 290.128906 C 130.683594 289.980469 130.679688 289.835938 130.671875 289.683594 C 130.660156 289.285156 130.667969 288.886719 130.683594 288.492188 C 130.714844 287.765625 130.765625 287.039062 130.835938 286.308594 C 130.847656 286.167969 130.867188 286.023438 130.878906 285.882812 C 130.941406 285.195312 130.859375 285.871094 130.859375 285.980469 C 130.871094 285.613281 130.984375 285.21875 131.066406 284.863281 C 131.160156 284.449219 131.269531 284.039062 131.410156 283.640625 C 131.445312 283.53125 131.488281 283.335938 131.558594 283.25 C 131.125 283.804688 131.492188 283.4375 131.609375 283.21875 C 131.679688 283.097656 131.757812 282.980469 131.820312 282.855469 C 132.226562 282.117188 131.5 283.15625 131.773438 282.878906 C 131.886719 282.769531 131.984375 282.644531 132.097656 282.53125 C 132.371094 282.261719 132.570312 282.339844 132.007812 282.550781 C 132.277344 282.449219 132.570312 282.199219 132.816406 282.050781 C 133.207031 281.824219 132.945312 282.203125 132.609375 282.140625 C 132.703125 282.15625 132.960938 282.039062 133.054688 282.011719 C 133.683594 281.816406 132.832031 282.097656 132.78125 282.027344 C 132.804688 282.0625 133.300781 282.027344 133.34375 282.027344 C 133.695312 281.980469 132.996094 282.015625 132.949219 281.976562 C 133.0625 282 133.171875 282.027344 133.277344 282.0625 C 133.535156 282.152344 133.425781 282.105469 132.957031 281.921875 C 134.636719 282.726562 136.894531 282.445312 137.847656 280.636719 C 138.691406 279.042969 138.371094 276.601562 136.566406 275.742188 Z M 136.558594 275.71875 " fill-opacity="1" fill-rule="nonzero"/><path fill="#000000" d="M 210.648438 278.808594 C 208.640625 277.765625 206.046875 278.929688 204.773438 280.800781 C 203.503906 282.671875 203.234375 285.039062 203.070312 287.296875 C 202.933594 289.160156 202.863281 291.113281 203.632812 292.828125 C 204.398438 294.539062 206.269531 295.894531 208.089844 295.453125 C 210.644531 294.84375 211.292969 291.566406 211.433594 288.945312 C 211.503906 287.625 211.574219 286.304688 211.644531 284.984375 C 211.726562 283.414062 211.796875 281.757812 211.117188 280.339844 C 210.4375 278.917969 208.734375 277.859375 207.269531 278.445312 " fill-opacity="1" fill-rule="nonzero"/><path fill="#000000" d="M 212.453125 275.71875 C 210.023438 274.554688 207.613281 274.648438 205.203125 275.804688 C 203.1875 276.765625 201.6875 278.625 200.835938 280.648438 C 199.941406 282.773438 199.660156 285.007812 199.496094 287.296875 C 199.320312 289.722656 199.449219 292.097656 200.433594 294.359375 C 202.402344 298.875 208.46875 300.792969 212.160156 297.109375 C 215.054688 294.222656 214.960938 289.753906 215.164062 285.96875 C 215.304688 283.320312 215.457031 280.457031 213.972656 278.117188 C 212.394531 275.636719 209.242188 273.988281 206.320312 274.988281 C 204.558594 275.601562 203.203125 277.472656 203.824219 279.394531 C 204.394531 281.144531 206.328125 282.550781 208.222656 281.894531 C 208.535156 281.789062 208.640625 281.875 207.941406 281.863281 C 208.105469 281.863281 208.371094 281.929688 207.917969 281.816406 C 207.355469 281.675781 207.859375 281.839844 208 281.863281 C 208.359375 281.921875 207.703125 281.78125 207.683594 281.730469 C 207.695312 281.769531 208.082031 281.910156 208.089844 281.980469 L 207.914062 281.851562 C 207.679688 281.671875 207.679688 281.683594 207.914062 281.894531 C 207.976562 282.035156 208.058594 282.261719 207.9375 281.90625 C 207.75 281.34375 208.035156 282.097656 208.035156 282.152344 C 208.035156 282.105469 207.820312 281.382812 207.984375 282.117188 C 208.011719 282.25 208.042969 282.410156 208.089844 282.542969 C 208.257812 283.03125 208.070312 281.945312 208.089844 282.460938 C 208.089844 282.609375 208.113281 282.753906 208.117188 282.910156 C 208.152344 283.710938 208.101562 284.519531 208.058594 285.324219 C 207.976562 286.820312 207.949219 288.328125 207.796875 289.824219 C 207.785156 289.933594 207.765625 290.046875 207.761719 290.15625 C 207.730469 290.632812 207.90625 289.40625 207.796875 289.875 C 207.738281 290.128906 207.703125 290.394531 207.644531 290.652344 C 207.585938 290.910156 207.519531 291.15625 207.4375 291.402344 C 207.402344 291.507812 207.367188 291.605469 207.332031 291.710938 C 207.132812 292.375 207.621094 291.242188 207.402344 291.546875 C 207.351562 291.625 207.039062 292.070312 207.046875 292.175781 C 207.027344 291.839844 207.5625 291.613281 207.238281 291.921875 C 207.191406 291.964844 206.964844 292.175781 206.964844 292.199219 C 206.964844 292.21875 207.597656 291.730469 207.296875 291.933594 C 207.15625 292.035156 206.777344 292.167969 207.292969 291.988281 C 207.90625 291.777344 207.402344 291.957031 207.339844 291.957031 C 206.613281 291.941406 207.972656 292.023438 207.492188 291.964844 C 207.355469 291.945312 206.8125 291.953125 207.378906 291.988281 C 207.917969 292.023438 207.496094 291.957031 207.390625 291.957031 C 206.933594 291.933594 207.421875 291.617188 207.578125 292.046875 C 207.566406 292.011719 207.304688 291.882812 207.261719 291.863281 C 206.847656 291.675781 207.71875 292.316406 207.398438 291.980469 C 207.316406 291.894531 207.214844 291.804688 207.128906 291.730469 C 206.613281 291.273438 207.191406 291.875 207.203125 291.882812 C 207.070312 291.8125 206.941406 291.484375 206.875 291.359375 C 206.835938 291.289062 206.710938 291.113281 206.710938 291.03125 L 206.859375 291.34375 L 206.769531 291.0625 C 206.734375 290.878906 206.671875 290.675781 206.632812 290.492188 C 206.613281 290.421875 206.527344 289.929688 206.601562 290.386719 C 206.683594 290.875 206.601562 290.25 206.589844 290.128906 C 206.578125 289.980469 206.574219 289.835938 206.566406 289.683594 C 206.554688 289.285156 206.5625 288.886719 206.578125 288.492188 C 206.609375 287.765625 206.660156 287.039062 206.730469 286.308594 C 206.742188 286.167969 206.757812 286.023438 206.769531 285.882812 C 206.835938 285.195312 206.753906 285.871094 206.753906 285.980469 C 206.765625 285.613281 206.875 285.21875 206.957031 284.863281 C 207.050781 284.449219 207.164062 284.039062 207.304688 283.640625 C 207.339844 283.53125 207.378906 283.335938 207.449219 283.25 C 207.015625 283.804688 207.386719 283.4375 207.503906 283.21875 C 207.574219 283.097656 207.648438 282.980469 207.714844 282.855469 C 208.117188 282.117188 207.390625 283.15625 207.667969 282.878906 C 207.777344 282.769531 207.878906 282.644531 207.988281 282.53125 C 208.265625 282.261719 208.464844 282.339844 207.902344 282.550781 C 208.171875 282.449219 208.464844 282.199219 208.710938 282.050781 C 209.101562 281.824219 208.839844 282.203125 208.503906 282.140625 C 208.597656 282.15625 208.855469 282.039062 208.949219 282.011719 C 209.578125 281.816406 208.726562 282.097656 208.675781 282.027344 C 208.699219 282.0625 209.195312 282.027344 209.238281 282.027344 C 209.589844 281.980469 208.890625 282.015625 208.84375 281.976562 C 208.957031 282 209.066406 282.027344 209.171875 282.0625 C 209.429688 282.152344 209.320312 282.105469 208.851562 281.921875 C 210.53125 282.726562 212.789062 282.445312 213.742188 280.636719 C 214.585938 279.042969 214.261719 276.601562 212.460938 275.742188 Z M 212.453125 275.71875 " fill-opacity="1" fill-rule="nonzero"/><path fill="#ffa59b" d="M 167.101562 265.808594 C 168.402344 253.832031 177.59375 243.5 189.105469 240.347656 C 191.472656 239.703125 192.242188 237.128906 191.25 235.074219 C 187.042969 226.425781 196.613281 218.453125 202.359375 213.613281 C 205.898438 210.632812 200.800781 205.578125 197.289062 208.535156 C 188.484375 215.949219 179.128906 226.507812 185.054688 238.695312 C 185.769531 236.933594 186.484375 235.179688 187.199219 233.421875 C 172.378906 237.480469 161.585938 250.617188 159.9375 265.804688 C 159.441406 270.390625 166.617188 270.355469 167.109375 265.804688 Z M 167.101562 265.808594 " fill-opacity="1" fill-rule="nonzero"/><path fill="#ffa59b" d="M 256.113281 229.507812 C 251.152344 228.289062 245.949219 228.296875 241.023438 229.703125 C 238.601562 230.394531 236.21875 231.414062 234.070312 232.71875 C 233.578125 233.015625 232.804688 233.378906 232.433594 233.796875 C 232.222656 233.957031 232.011719 234.113281 231.808594 234.265625 L 233.285156 235.023438 C 233.40625 234.816406 230.605469 232.605469 230.296875 232.367188 C 223.132812 226.710938 213.09375 223.234375 204.246094 226.828125 C 202.4375 227.5625 201.207031 229.210938 201.746094 231.246094 C 202.195312 232.953125 204.363281 234.484375 206.15625 233.75 C 214.351562 230.417969 222.183594 234.683594 228.382812 240.25 C 232.65625 244.097656 236.691406 238.988281 240.710938 237.363281 C 245.015625 235.625 249.726562 235.316406 254.226562 236.417969 C 258.707031 237.515625 260.617188 230.59375 256.128906 229.496094 Z M 256.113281 229.507812 " fill-opacity="1" fill-rule="nonzero"/><path fill="#ffd97b" d="M 97.007812 196.488281 C 103.175781 191.15625 109.691406 184.058594 110.410156 175.929688 C 111.125 167.796875 108.132812 159.304688 102.09375 153.820312 C 96.050781 148.335938 86.890625 146.417969 77.875 149.457031 C 71.917969 151.464844 68.671875 154.59375 64.890625 159.617188 C 63.296875 161.726562 62.457031 163.289062 61.589844 165.785156 C 59.714844 171.171875 60.265625 178.953125 63.007812 183.953125 C 65.75 188.949219 69.902344 193.007812 74.207031 196.746094 C 74.207031 196.746094 76.910156 201.042969 85.824219 200.347656 C 94.742188 199.648438 97.011719 196.480469 97.011719 196.480469 Z M 97.007812 196.488281 " fill-opacity="1" fill-rule="nonzero"/><path fill="#ffffff" d="M 100.117188 180.589844 C 99.878906 180.515625 99.632812 180.4375 99.378906 180.390625 C 98.96875 180.320312 98.554688 180.25 98.136719 180.234375 C 98.078125 180.234375 98.019531 180.234375 97.960938 180.234375 C 97.597656 180.257812 97.222656 180.316406 96.867188 180.375 C 96.765625 180.390625 96.671875 180.414062 96.578125 180.449219 C 96.269531 180.566406 95.933594 180.703125 95.640625 180.847656 C 95.59375 180.871094 95.546875 180.894531 95.5 180.925781 C 95.179688 181.121094 94.882812 181.378906 94.59375 181.617188 C 94.511719 181.683594 94.4375 181.757812 94.371094 181.839844 C 94.132812 182.132812 93.878906 182.425781 93.679688 182.75 C 93.65625 182.789062 93.632812 182.824219 93.617188 182.867188 C 93.464844 183.179688 93.328125 183.507812 93.207031 183.828125 C 93.171875 183.910156 93.148438 184 93.125 184.085938 C 93.054688 184.433594 93.019531 184.804688 92.976562 185.15625 C 92.976562 185.207031 92.964844 185.261719 92.964844 185.3125 C 92.964844 185.359375 92.964844 185.402344 92.964844 185.449219 C 92.996094 185.792969 93.046875 186.152344 93.105469 186.492188 C 93.125 186.589844 93.140625 186.6875 93.175781 186.773438 C 93.289062 187.101562 93.433594 187.425781 93.582031 187.734375 C 93.597656 187.777344 93.617188 187.816406 93.640625 187.859375 C 93.75 188.074219 93.921875 188.261719 94.066406 188.449219 C 94.207031 188.632812 94.34375 188.839844 94.511719 189.003906 C 94.546875 189.039062 94.589844 189.074219 94.628906 189.109375 C 94.886719 189.324219 95.167969 189.542969 95.441406 189.734375 C 95.519531 189.789062 95.59375 189.835938 95.675781 189.871094 C 95.980469 190.011719 96.304688 190.144531 96.613281 190.269531 C 96.667969 190.285156 96.714844 190.304688 96.765625 190.320312 C 96.820312 190.339844 96.871094 190.34375 96.925781 190.355469 C 97.265625 190.414062 97.621094 190.464844 97.96875 190.5 C 98.066406 190.511719 98.167969 190.511719 98.265625 190.5 C 98.613281 190.476562 98.96875 190.410156 99.308594 190.363281 C 99.355469 190.355469 99.402344 190.351562 99.445312 190.339844 C 99.550781 190.316406 99.65625 190.285156 99.753906 190.246094 C 100.113281 190.105469 100.488281 189.96875 100.820312 189.78125 C 101.15625 189.59375 101.460938 189.320312 101.757812 189.078125 C 101.835938 189.015625 101.910156 188.949219 101.976562 188.875 C 102.199219 188.621094 102.398438 188.339844 102.59375 188.070312 C 102.628906 188.023438 102.664062 187.96875 102.699219 187.917969 C 102.730469 187.871094 102.746094 187.824219 102.769531 187.777344 C 102.910156 187.472656 103.070312 187.144531 103.167969 186.820312 C 103.1875 186.769531 103.199219 186.714844 103.203125 186.660156 C 103.25 186.398438 103.316406 185.953125 103.339844 185.683594 C 103.339844 185.636719 103.34375 185.589844 103.34375 185.542969 C 103.34375 185.484375 103.34375 185.429688 103.332031 185.371094 C 103.292969 185.019531 103.257812 184.648438 103.1875 184.304688 C 103.164062 184.179688 103.128906 184.0625 103.082031 183.953125 C 102.933594 183.546875 102.765625 183.148438 102.578125 182.761719 C 102.523438 182.648438 102.460938 182.53125 102.398438 182.425781 C 102.386719 182.410156 102.375 182.390625 102.363281 182.367188 C 102.191406 182.128906 101.96875 181.828125 101.777344 181.605469 C 101.640625 181.453125 101.496094 181.367188 101.320312 181.230469 C 101.429688 181.320312 101.042969 180.996094 100.921875 180.925781 L 100.886719 180.902344 C 100.597656 180.777344 100.316406 180.660156 100.03125 180.539062 C 99.691406 180.425781 99.316406 180.367188 98.957031 180.378906 C 98.792969 180.386719 98.484375 180.445312 98.4375 180.449219 C 97.832031 180.53125 98.039062 180.472656 97.480469 180.707031 C 97.257812 180.800781 97.09375 180.84375 96.925781 180.972656 C 96.601562 181.207031 96.25 181.449219 95.976562 181.742188 C 95.699219 182.035156 95.441406 182.378906 95.207031 182.726562 C 95.136719 182.832031 95.074219 182.945312 95.023438 183.0625 C 94.757812 183.472656 94.617188 183.917969 94.59375 184.398438 C 94.488281 184.875 94.507812 185.355469 94.660156 185.828125 C 94.769531 186.296875 94.980469 186.703125 95.300781 187.050781 C 95.554688 187.441406 95.886719 187.746094 96.308594 187.976562 L 97.164062 188.339844 C 97.796875 188.507812 98.4375 188.507812 99.070312 188.339844 C 99.355469 188.214844 99.636719 188.097656 99.925781 187.976562 C 100.464844 187.660156 100.890625 187.226562 101.214844 186.6875 C 101.285156 186.527344 101.371094 186.386719 101.476562 186.25 C 101.289062 186.492188 101.101562 186.738281 100.914062 186.980469 C 101.019531 186.84375 101.136719 186.726562 101.273438 186.613281 C 101.03125 186.804688 100.785156 186.992188 100.546875 187.179688 C 100.585938 187.144531 100.628906 187.121094 100.675781 187.097656 L 99.820312 187.460938 L 99.867188 187.449219 L 98.910156 187.578125 C 98.910156 187.578125 98.96875 187.578125 98.992188 187.578125 L 98.039062 187.449219 C 98.039062 187.449219 98.089844 187.460938 98.113281 187.472656 C 97.828125 187.347656 97.546875 187.230469 97.257812 187.109375 C 97.28125 187.121094 97.304688 187.136719 97.328125 187.15625 L 96.601562 186.589844 C 96.636719 186.621094 96.667969 186.65625 96.695312 186.691406 C 96.507812 186.449219 96.320312 186.203125 96.132812 185.964844 C 96.273438 186.144531 96.375 186.355469 96.460938 186.566406 L 96.097656 185.710938 C 96.179688 185.90625 96.246094 186.097656 96.28125 186.304688 L 96.152344 185.347656 C 96.167969 185.460938 96.167969 185.570312 96.15625 185.683594 L 96.285156 184.726562 C 96.273438 184.816406 96.25 184.902344 96.222656 184.984375 C 96.34375 184.695312 96.460938 184.414062 96.585938 184.128906 C 96.539062 184.238281 96.472656 184.34375 96.398438 184.4375 L 96.960938 183.710938 C 96.871094 183.824219 96.773438 183.921875 96.660156 184.003906 L 97.386719 183.441406 C 97.277344 183.523438 97.152344 183.59375 97.03125 183.652344 L 97.886719 183.289062 C 97.726562 183.355469 97.5625 183.402344 97.394531 183.425781 L 98.347656 183.296875 C 98.207031 183.3125 98.074219 183.3125 97.933594 183.296875 C 98.25 183.335938 98.566406 183.382812 98.886719 183.425781 C 98.746094 183.40625 98.617188 183.371094 98.488281 183.320312 L 99.34375 183.683594 C 99.222656 183.628906 99.105469 183.558594 98.992188 183.476562 C 99.234375 183.664062 99.480469 183.851562 99.71875 184.039062 C 99.601562 183.945312 99.496094 183.839844 99.402344 183.71875 L 99.964844 184.445312 C 99.882812 184.332031 99.820312 184.214844 99.761719 184.09375 C 99.882812 184.378906 100 184.660156 100.125 184.949219 C 100.070312 184.820312 100.035156 184.695312 100.011719 184.5625 C 100.054688 184.878906 100.101562 185.195312 100.140625 185.519531 C 100.125 185.382812 100.125 185.25 100.140625 185.113281 L 100.011719 186.070312 C 100.03125 185.953125 100.066406 185.835938 100.105469 185.722656 L 99.742188 186.578125 C 99.796875 186.457031 99.867188 186.339844 99.941406 186.226562 C 99.753906 186.46875 99.566406 186.714844 99.378906 186.957031 C 99.472656 186.832031 99.578125 186.726562 99.695312 186.636719 L 98.96875 187.203125 C 99.070312 187.132812 99.167969 187.074219 99.28125 187.019531 C 98.992188 187.144531 98.710938 187.261719 98.425781 187.382812 C 98.542969 187.335938 98.660156 187.308594 98.78125 187.285156 L 97.828125 187.414062 C 97.980469 187.394531 98.132812 187.394531 98.289062 187.414062 L 97.335938 187.285156 C 97.628906 187.324219 97.910156 187.40625 98.191406 187.5 C 98.664062 187.652344 99.144531 187.671875 99.621094 187.566406 C 100.09375 187.542969 100.539062 187.402344 100.957031 187.136719 C 101.371094 186.914062 101.710938 186.601562 101.964844 186.210938 C 102.28125 185.863281 102.496094 185.460938 102.605469 184.992188 L 102.734375 184.035156 C 102.734375 183.390625 102.570312 182.785156 102.246094 182.222656 L 101.683594 181.496094 C 101.238281 181.050781 100.710938 180.742188 100.101562 180.574219 Z M 100.117188 180.589844 " fill-opacity="1" fill-rule="nonzero"/><path fill="#ffffff" d="M 100.5 163.503906 C 99.714844 161.574219 98.8125 159.640625 97.375 158.125 C 96.644531 157.351562 95.753906 156.691406 94.722656 156.4375 C 93.691406 156.183594 92.503906 156.402344 91.769531 157.175781 C 90.890625 158.109375 90.863281 159.546875 91.039062 160.820312 C 91.390625 163.339844 92.339844 165.773438 93.792969 167.871094 C 94.945312 169.535156 96.421875 171 97.289062 172.835938 L 97.265625 172.609375 C 97.652344 173.304688 98.226562 173.933594 98.96875 174.234375 C 99.714844 174.527344 100.640625 174.425781 101.203125 173.863281 C 101.554688 173.511719 101.730469 173.019531 101.851562 172.539062 C 102.617188 169.539062 101.652344 166.386719 100.492188 163.511719 Z M 100.5 163.503906 " fill-opacity="1" fill-rule="nonzero"/><path fill="#ffffff" d="M 103.960938 162.550781 C 102.640625 159.316406 101.089844 156.085938 98.097656 154.066406 C 94.425781 151.59375 89.214844 152.789062 87.746094 157.175781 C 86.667969 160.386719 87.9375 164.222656 89.273438 167.152344 C 89.984375 168.703125 90.949219 170.046875 91.992188 171.382812 C 92.246094 171.707031 92.496094 172.023438 92.75 172.34375 C 93.222656 172.9375 92.449219 171.90625 92.929688 172.585938 C 93.410156 173.265625 93.84375 173.910156 94.203125 174.644531 C 94.875 176.003906 96.824219 176.753906 98.25 176.292969 C 99.636719 175.839844 101.054688 174.421875 100.878906 172.832031 L 100.855469 172.601562 C 98.628906 173.207031 96.402344 173.8125 94.179688 174.414062 C 95.359375 176.410156 97.300781 177.894531 99.679688 177.976562 C 102.355469 178.070312 104.386719 176.28125 105.207031 173.847656 C 106.457031 170.164062 105.34375 166.015625 103.953125 162.550781 C 103.257812 160.8125 101.53125 159.398438 99.542969 160.042969 C 97.867188 160.589844 96.292969 162.597656 97.042969 164.460938 C 97.480469 165.5625 97.898438 166.679688 98.195312 167.828125 C 98.332031 168.351562 98.4375 168.871094 98.53125 169.398438 C 98.390625 168.589844 98.53125 169.597656 98.535156 169.710938 C 98.546875 169.976562 98.554688 170.238281 98.546875 170.503906 C 98.542969 170.765625 98.523438 171.023438 98.5 171.289062 C 98.554688 170.761719 98.519531 171.101562 98.441406 171.429688 C 98.414062 171.5625 98.378906 171.96875 98.261719 172.0625 C 98.296875 171.839844 98.394531 171.652344 98.542969 171.492188 C 98.664062 171.3125 98.828125 171.164062 99.023438 171.054688 C 99.191406 170.949219 100.101562 170.800781 99.800781 170.808594 C 99.503906 170.8125 100.371094 170.941406 100.546875 171.03125 C 99.960938 170.738281 100.820312 171.488281 100.433594 170.949219 C 100.78125 171.429688 100.5625 171.128906 100.371094 170.808594 C 99.589844 169.492188 97.828125 168.671875 96.320312 169.160156 C 94.933594 169.609375 93.515625 171.03125 93.691406 172.621094 L 93.714844 172.847656 C 95.941406 172.246094 98.167969 171.640625 100.394531 171.035156 C 99.785156 169.800781 98.941406 168.726562 98.097656 167.644531 C 97.9375 167.445312 97.78125 167.246094 97.621094 167.046875 C 97.476562 166.859375 97.054688 166.308594 97.429688 166.8125 C 97.066406 166.328125 96.707031 165.828125 96.390625 165.304688 C 96.097656 164.832031 95.835938 164.332031 95.589844 163.828125 C 95.449219 163.539062 95.332031 163.234375 95.519531 163.703125 C 95.40625 163.421875 95.296875 163.136719 95.203125 162.84375 C 95.011719 162.261719 94.847656 161.675781 94.71875 161.078125 C 94.664062 160.832031 94.628906 160.574219 94.570312 160.328125 C 94.523438 160.042969 94.535156 160.125 94.59375 160.574219 C 94.578125 160.445312 94.566406 160.316406 94.558594 160.179688 C 94.542969 159.960938 94.558594 159.738281 94.542969 159.523438 C 94.488281 158.625 94.53125 160.328125 94.542969 159.457031 C 94.640625 159.148438 94.636719 159.136719 94.523438 159.410156 C 94.394531 159.679688 94.414062 159.675781 94.558594 159.394531 C 94.453125 159.539062 93.808594 160.019531 94.097656 159.875 C 94.324219 159.738281 94.238281 159.769531 93.832031 159.960938 C 94.160156 159.886719 94.171875 159.867188 93.875 159.914062 C 93.335938 160.066406 94.054688 159.855469 94.195312 159.945312 C 93.679688 159.867188 93.628906 159.878906 94.042969 159.980469 L 93.722656 159.832031 C 93.984375 159.96875 94.21875 160.113281 94.464844 160.273438 C 93.957031 159.957031 94.402344 160.238281 94.628906 160.460938 C 94.804688 160.632812 94.96875 160.8125 95.132812 161 C 95.230469 161.113281 95.324219 161.222656 95.417969 161.339844 C 95.191406 161.046875 95.148438 161 95.300781 161.210938 C 95.425781 161.421875 95.578125 161.621094 95.707031 161.832031 C 96.015625 162.34375 96.296875 162.871094 96.554688 163.40625 C 96.683594 163.675781 96.808594 163.949219 96.929688 164.222656 C 97.253906 164.925781 96.714844 163.6875 97.03125 164.46875 C 97.738281 166.199219 99.445312 167.621094 101.441406 166.972656 C 103.109375 166.433594 104.703125 164.414062 103.941406 162.554688 Z M 103.960938 162.550781 " fill-opacity="1" fill-rule="nonzero"/><path fill="#ffd97b" d="M 43.777344 165.324219 C 46.382812 166.085938 48.992188 166.847656 51.597656 167.609375 C 52.480469 167.871094 53.570312 167.710938 54.363281 167.246094 C 55.105469 166.8125 55.816406 165.957031 56.007812 165.101562 C 56.449219 163.175781 55.429688 161.246094 53.507812 160.683594 C 50.898438 159.921875 48.292969 159.160156 45.6875 158.394531 C 44.800781 158.136719 43.710938 158.296875 42.921875 158.761719 C 42.179688 159.195312 41.46875 160.050781 41.277344 160.90625 C 40.835938 162.832031 41.855469 164.761719 43.777344 165.324219 Z M 43.777344 165.324219 " fill-opacity="1" fill-rule="nonzero"/><path fill="#ffd97b" d="M 54.9375 142.226562 C 56.578125 143.46875 58.214844 144.710938 59.851562 145.957031 C 60.085938 146.136719 60.324219 146.3125 60.558594 146.496094 C 60.96875 146.757812 61.414062 146.898438 61.894531 146.921875 C 62.371094 147.027344 62.851562 147.011719 63.324219 146.859375 C 64.15625 146.628906 65.058594 145.984375 65.46875 145.210938 C 65.90625 144.378906 66.128906 143.371094 65.832031 142.441406 L 65.46875 141.585938 C 65.152344 141.046875 64.71875 140.617188 64.179688 140.296875 C 62.539062 139.050781 60.898438 137.808594 59.265625 136.566406 C 59.03125 136.382812 58.789062 136.207031 58.554688 136.027344 C 58.144531 135.761719 57.703125 135.621094 57.222656 135.597656 C 56.746094 135.492188 56.265625 135.507812 55.792969 135.660156 C 54.960938 135.890625 54.058594 136.535156 53.648438 137.308594 C 53.207031 138.144531 52.984375 139.152344 53.285156 140.078125 L 53.648438 140.933594 C 53.964844 141.476562 54.398438 141.902344 54.9375 142.226562 Z M 54.9375 142.226562 " fill-opacity="1" fill-rule="nonzero"/><path fill="#ffd97b" d="M 85.820312 127.632812 C 85.871094 130.5 85.929688 133.367188 85.984375 136.238281 C 86 137.167969 86.371094 138.113281 87.03125 138.777344 C 87.652344 139.398438 88.671875 139.867188 89.566406 139.828125 C 91.476562 139.738281 93.195312 138.25 93.152344 136.238281 C 93.101562 133.367188 93.042969 130.5 92.988281 127.632812 C 92.972656 126.699219 92.601562 125.753906 91.941406 125.09375 C 91.320312 124.46875 90.300781 124 89.402344 124.042969 C 87.496094 124.128906 85.777344 125.621094 85.820312 127.632812 Z M 85.820312 127.632812 " fill-opacity="1" fill-rule="nonzero"/><path fill="#ffd97b" d="M 113.292969 150.039062 C 115.863281 147.984375 118.433594 145.925781 121.007812 143.875 C 121.679688 143.339844 122.054688 142.15625 122.054688 141.332031 C 122.054688 140.453125 121.664062 139.402344 121.007812 138.792969 C 120.351562 138.183594 119.425781 137.699219 118.46875 137.746094 L 117.515625 137.875 C 116.90625 138.042969 116.378906 138.355469 115.933594 138.792969 C 113.363281 140.847656 110.789062 142.90625 108.21875 144.957031 C 107.546875 145.492188 107.171875 146.675781 107.171875 147.5 C 107.171875 148.378906 107.5625 149.429688 108.21875 150.039062 C 108.875 150.648438 109.800781 151.136719 110.753906 151.089844 L 111.710938 150.960938 C 112.320312 150.789062 112.847656 150.476562 113.292969 150.039062 Z M 113.292969 150.039062 " fill-opacity="1" fill-rule="nonzero"/><path fill="#ffd97b" d="M 120.507812 169.859375 C 123.117188 169.171875 125.714844 168.480469 128.324219 167.792969 C 129.191406 167.5625 130.015625 166.914062 130.46875 166.144531 C 130.917969 165.375 131.105469 164.238281 130.832031 163.375 C 130.226562 161.511719 128.363281 160.355469 126.417969 160.871094 C 123.8125 161.558594 121.210938 162.25 118.605469 162.9375 C 117.738281 163.164062 116.914062 163.816406 116.460938 164.585938 C 116.011719 165.351562 115.824219 166.492188 116.097656 167.351562 C 116.703125 169.21875 118.5625 170.375 120.507812 169.859375 Z M 120.507812 169.859375 " fill-opacity="1" fill-rule="nonzero"/><path fill="#b6c9e0" d="M 95.804688 210.710938 C 95.804688 207.289062 95.78125 205.179688 98.097656 204.375 C 98.921875 204.089844 99.90625 204.152344 100.582031 203.589844 C 101.242188 203.03125 100.960938 202.070312 101.027344 201.207031 C 101.203125 198.851562 101.570312 196.09375 98.160156 195.636719 C 94.097656 195.085938 88.613281 196.097656 82.960938 196.410156 C 81.078125 196.515625 79.199219 196.617188 77.324219 196.722656 C 75.449219 196.828125 72.523438 195.988281 71.589844 197.238281 C 70.464844 198.746094 70.214844 202.503906 71.25 204.078125 C 72.066406 205.308594 72.90625 204.445312 73.925781 205.511719 C 76.6875 208.40625 75.210938 213.332031 77.453125 217.53125 C 77.765625 218.1875 80.21875 220.539062 83.875 220.089844 C 88.054688 219.574219 92.730469 220.476562 94.558594 217.308594 C 95.664062 215.386719 95.804688 212.382812 95.8125 210.714844 Z M 95.804688 210.710938 " fill-opacity="1" fill-rule="nonzero"/><path fill="#90b2d3" d="M 78.75 209.078125 C 83.398438 209.425781 88.027344 209.15625 92.632812 208.445312 C 93.457031 208.316406 94.371094 207.492188 94.777344 206.796875 C 95.226562 206.03125 95.414062 204.890625 95.136719 204.03125 C 94.859375 203.160156 94.320312 202.324219 93.492188 201.882812 C 92.585938 201.402344 91.734375 201.367188 90.726562 201.519531 C 90.441406 201.566406 90.152344 201.605469 89.867188 201.648438 C 89.589844 201.6875 89.703125 201.671875 90.199219 201.601562 C 90.078125 201.617188 89.953125 201.628906 89.832031 201.648438 C 89.292969 201.710938 88.757812 201.773438 88.21875 201.824219 C 87.183594 201.917969 86.148438 201.988281 85.109375 202.023438 C 82.988281 202.101562 80.867188 202.054688 78.753906 201.894531 C 76.878906 201.753906 75.085938 203.648438 75.167969 205.484375 C 75.261719 207.550781 76.746094 208.921875 78.753906 209.074219 Z M 78.75 209.078125 " fill-opacity="1" fill-rule="nonzero"/><path fill="#ffa59b" d="M 73.480469 291.472656 C 62.195312 284.773438 57.035156 271.710938 56.300781 259.046875 C 55.910156 252.21875 58.144531 245.550781 57.410156 238.78125 C 57.039062 235.386719 55.75 232.335938 55.761719 228.839844 C 55.761719 227.285156 55.898438 225.730469 56.183594 224.199219 C 56.34375 223.363281 56.542969 222.53125 56.769531 221.707031 C 56.929688 221.15625 58.015625 219.414062 56.945312 220.007812 L 54.179688 220.371094 C 53.707031 219.988281 53.230469 219.609375 52.757812 219.226562 L 52.796875 219.703125 C 52.699219 219.914062 52.808594 220.453125 52.804688 220.695312 C 52.792969 221.457031 52.734375 222.21875 52.652344 222.976562 C 52.488281 224.5 52.199219 226.011719 51.953125 227.527344 C 51.144531 232.535156 50.570312 237.554688 50.332031 242.628906 L 57.375 241.675781 C 57.085938 239.980469 56.511719 238.359375 56.226562 236.671875 C 55.457031 232.113281 48.585938 234.0625 49.3125 238.578125 C 49.523438 239.886719 50.320312 240.957031 50.53125 242.253906 C 52.714844 241.332031 54.902344 240.414062 57.085938 239.488281 C 52.339844 232.40625 42.792969 229.433594 36.347656 236.285156 C 30.9375 242.042969 31.722656 251.703125 38.96875 255.503906 C 45.5 258.929688 56.277344 255.277344 54.964844 246.511719 C 53.777344 238.582031 38.972656 234.332031 36.054688 243.132812 C 33.25 251.609375 43.722656 257.234375 50.546875 253.410156 C 57.375 249.585938 56.488281 237.472656 48.046875 236.085938 C 39.542969 234.683594 34.113281 245.023438 40.929688 250.785156 C 47.894531 256.671875 57 247.855469 54.449219 240.148438 C 53.15625 236.238281 48.804688 233.804688 44.777344 234.851562 C 40.539062 235.960938 38.617188 240.652344 40.402344 244.582031 C 42.125 248.371094 46.769531 249.40625 50.394531 247.855469 C 55.175781 245.808594 56.242188 240.484375 56.488281 235.804688 C 56.671875 232.390625 52.585938 231.480469 50.367188 233.261719 C 47.53125 235.542969 46.179688 238.699219 45.851562 242.265625 C 45.523438 245.832031 51.121094 247.3125 52.527344 244.078125 C 56.0625 235.972656 57.964844 227.46875 58.015625 218.605469 L 50.847656 218.605469 C 50.863281 225.261719 50.117188 231.882812 50.132812 238.542969 L 57.304688 238.542969 C 57.121094 236.535156 57.46875 234.546875 57.285156 232.542969 C 56.871094 227.976562 49.699219 227.929688 50.117188 232.542969 C 50.296875 234.546875 49.953125 236.535156 50.132812 238.542969 C 50.542969 243.0625 57.316406 243.242188 57.304688 238.542969 C 57.285156 231.882812 58.035156 225.261719 58.015625 218.605469 C 58.003906 213.984375 50.871094 213.976562 50.847656 218.605469 C 50.804688 226.125 49.347656 233.550781 46.34375 240.453125 C 48.570312 241.058594 50.792969 241.664062 53.019531 242.265625 C 53.179688 240.546875 54.140625 239.386719 55.441406 238.34375 C 53.402344 237.496094 51.355469 236.648438 49.320312 235.804688 C 49.230469 237.433594 49.230469 240.074219 47.773438 241.191406 C 47.519531 241.386719 47.144531 241.296875 46.90625 241.429688 C 46.605469 241.585938 46.929688 241.628906 46.875 241.410156 C 46.625 241.558594 46.578125 241.6875 46.734375 241.796875 C 46.980469 241.785156 47.191406 241.84375 47.367188 241.984375 C 47.574219 242.382812 47.695312 242.535156 47.742188 243.015625 C 47.824219 243.839844 47 245.664062 45.933594 245.527344 C 43.523438 245.222656 46.367188 241.175781 47.929688 243.96875 C 49.617188 246.96875 45.160156 248.40625 43.207031 246.683594 C 43.0625 246.554688 42.742188 245.832031 42.789062 245.621094 C 42.402344 245.839844 42.453125 245.855469 42.949219 245.667969 L 43.710938 245.609375 C 45 245.515625 48.347656 246.015625 47.832031 248.0625 C 47.085938 251.023438 42.347656 249.617188 40.996094 248.167969 C 38.914062 245.945312 40.035156 242.265625 42.230469 240.546875 C 45.359375 238.101562 48.996094 240.273438 50.894531 243.105469 C 53.242188 246.613281 58.082031 244.320312 57.449219 240.335938 C 57.238281 239.027344 56.441406 237.957031 56.230469 236.660156 C 53.929688 237.292969 51.621094 237.933594 49.320312 238.566406 C 49.605469 240.261719 50.179688 241.878906 50.464844 243.570312 C 51.164062 247.722656 57.328125 246.472656 57.507812 242.613281 C 57.828125 235.714844 59.363281 229.035156 59.898438 222.183594 C 60.125 219.234375 60.042969 215.1875 56.941406 213.761719 C 52.304688 211.632812 50.425781 217.390625 49.59375 220.769531 C 48.539062 225.050781 48.339844 229.484375 48.992188 233.84375 C 49.308594 235.972656 50.203125 238.066406 50.316406 240.207031 C 50.449219 242.699219 50.121094 244.980469 49.746094 247.429688 C 48.257812 257.101562 49.253906 267.3125 52.699219 276.492188 C 55.984375 285.25 61.773438 292.84375 69.863281 297.648438 C 73.839844 300.011719 77.453125 293.804688 73.480469 291.449219 Z M 73.480469 291.472656 " fill-opacity="1" fill-rule="nonzero"/><path fill="#ffffff" d="M 316.019531 278.714844 C 317.625 276.085938 319.035156 272.226562 319.125 269.269531 C 319.21875 266.167969 318.84375 263.105469 318.480469 260.019531 C 317.859375 254.695312 315 249.820312 311.449219 245.480469 C 311.355469 245.363281 311.238281 245.257812 311.140625 245.140625 C 309.988281 243.792969 308.40625 242.613281 307.457031 242.003906 C 302.542969 238.839844 297.855469 237.605469 291.699219 239.023438 C 286.050781 240.324219 285.007812 244.390625 287.171875 249.761719 C 288.203125 252.320312 290.246094 254.171875 292.148438 256.167969 C 294.019531 258.121094 295.625 260.269531 297 262.550781 C 298.324219 264.742188 299.414062 267.03125 300.234375 269.433594 C 301.140625 272.105469 301.503906 274.972656 302.917969 277.472656 C 306.050781 283.027344 312.609375 284.285156 316.019531 278.714844 Z M 316.019531 278.714844 " fill-opacity="1" fill-rule="nonzero"/><path fill="#ffffff" d="M 326.59375 299.378906 C 327.847656 302.257812 328.695312 305.648438 326.910156 308.433594 C 326 309.855469 324.589844 311.042969 322.914062 311.425781 C 321.132812 311.832031 319.46875 311.519531 317.847656 310.746094 C 315.230469 309.496094 313.664062 306.65625 313.167969 303.902344 C 312.921875 302.535156 312.710938 301.0625 312.703125 299.664062 C 312.703125 297.554688 313.664062 295.675781 315.433594 294.535156 C 316.929688 293.566406 318.71875 293.414062 320.429688 293.710938 C 321.84375 293.957031 323.308594 294.511719 324.34375 295.476562 C 325.171875 296.246094 325.667969 297.261719 326.59375 299.378906 Z M 326.59375 299.378906 " fill-opacity="1" fill-rule="nonzero"/><path fill="#ffffff" d="M 95.953125 284.507812 C 97.277344 278.492188 99.152344 275.835938 103.773438 271.976562 C 108.449219 268.070312 117.542969 264.398438 114.925781 256.660156 C 112.355469 249.058594 101.8125 252.019531 96.867188 255.125 C 91.121094 258.738281 87.109375 264.65625 85.609375 271.257812 C 84.675781 275.378906 84.625 279.566406 85.222656 283.730469 C 85.503906 285.710938 85.703125 288.238281 87.238281 289.699219 C 87.238281 289.699219 88.933594 292.175781 92.050781 291.15625 C 95.167969 290.132812 95.476562 286.640625 95.945312 284.507812 Z M 95.953125 284.507812 " fill-opacity="1" fill-rule="nonzero"/><path fill="#ffffff" d="M 254.992188 269.476562 C 253.316406 270.082031 252.738281 271.636719 252.625 273.328125 C 252.449219 275.941406 254.648438 277.933594 256.382812 279.554688 C 258.257812 281.300781 260.269531 282.910156 262.378906 284.363281 C 263.292969 284.992188 264.238281 285.671875 265.234375 286.15625 C 267.113281 287.085938 269.035156 286.109375 269.738281 284.222656 C 270.160156 283.085938 269.976562 281.875 269.738281 280.714844 C 269.503906 279.601562 269.097656 278.539062 268.628906 277.5 C 267.773438 275.582031 266.449219 273.800781 264.894531 272.398438 C 263.269531 270.9375 260.980469 269.675781 258.75 269.230469 C 256.878906 268.855469 255.878906 269.160156 254.992188 269.476562 Z M 257.40625 273.476562 C 257.40625 273.476562 257.40625 273.488281 257.40625 273.496094 C 257.40625 273.484375 257.40625 273.484375 257.402344 273.472656 C 257.402344 273.460938 257.402344 273.472656 257.402344 273.460938 C 257.402344 273.460938 257.402344 273.464844 257.40625 273.472656 Z M 265.214844 282.714844 C 265.214844 282.714844 265.214844 282.742188 265.210938 282.75 C 265.152344 282.863281 265.179688 282.804688 265.214844 282.714844 Z M 265.214844 282.714844 " fill-opacity="1" fill-rule="nonzero"/><path fill="#ffffff" d="M 135.804688 218.652344 C 135.804688 218.652344 134.902344 216.605469 137.976562 213.296875 C 141.058594 209.988281 150.230469 204.957031 156.78125 203.882812 C 163.328125 202.808594 167.144531 203.144531 166.492188 207.878906 C 165.84375 212.609375 154.164062 213.808594 150.289062 215.011719 C 146.417969 216.207031 137.5625 221.90625 135.804688 218.652344 Z M 135.804688 218.652344 " fill-opacity="1" fill-rule="nonzero"/><path fill="#ffbdc5" d="M 89.484375 361.527344 C 89.484375 361.527344 80.738281 350.617188 91.992188 343.175781 C 103.238281 335.738281 113.015625 347.957031 115.617188 350.902344 C 118.21875 353.84375 125.242188 354.542969 135.804688 353.679688 C 146.367188 352.820312 152.445312 367.023438 158.929688 369.570312 C 165.414062 372.117188 169.613281 372.71875 178.804688 366.902344 C 187.992188 361.082031 198.496094 368.644531 205.429688 372.460938 C 212.367188 376.285156 229.054688 377.789062 236.925781 370.65625 C 244.800781 363.523438 242.046875 363.105469 246.488281 360.894531 C 250.933594 358.683594 258.742188 362.960938 269.398438 360.144531 C 280.054688 357.328125 290.304688 345.816406 294.164062 338.207031 C 301.550781 323.632812 316.371094 325.878906 323.179688 331.945312 C 328.644531 336.8125 331.929688 346.25 329.804688 359.957031 C 327.675781 373.664062 312.992188 392.457031 297.492188 392.832031 C 281.992188 393.207031 284.125 391.929688 284.125 391.929688 C 284.125 391.929688 278.109375 402.40625 265.015625 402.117188 C 251.929688 401.824219 248.929688 393.835938 245.363281 394.734375 C 241.800781 395.628906 232.945312 410.117188 213.65625 412.539062 C 194.363281 414.964844 183.863281 398.175781 183.863281 398.175781 C 183.863281 398.175781 169.234375 403.703125 155.363281 401.066406 C 141.484375 398.441406 130.515625 376.695312 131.316406 373.957031 C 131.316406 373.957031 123.492188 374.035156 118.617188 368.589844 C 118.617188 368.589844 99.355469 375.496094 89.484375 361.527344 Z M 89.484375 361.527344 " fill-opacity="1" fill-rule="nonzero"/><path fill="#ffa59b" d="M 152.375 333.792969 C 147.78125 340.160156 147.132812 348.789062 149.851562 356.0625 C 151.164062 359.574219 153.097656 362.714844 155.46875 365.605469 C 156.65625 367.046875 157.964844 368.398438 159.351562 369.640625 C 160.050781 370.261719 160.777344 370.855469 161.503906 371.441406 C 161.929688 371.765625 162.355469 372.097656 162.773438 372.445312 C 162.820312 370.25 162.585938 369.664062 162.070312 370.691406 C 161.003906 371.652344 160.308594 374.332031 159.960938 375.671875 C 159.476562 377.558594 159.253906 379.601562 159.324219 381.546875 C 159.457031 385.238281 160.476562 388.878906 162.222656 392.128906 C 165.847656 398.875 172.449219 403.53125 179.261719 406.640625 C 183.433594 408.539062 187.078125 402.351562 182.882812 400.441406 C 177.152344 397.832031 171.449219 394.230469 168.414062 388.503906 C 166.878906 385.605469 166.140625 382.15625 166.59375 378.890625 C 166.996094 375.957031 169.679688 373.488281 169.410156 370.554688 C 169.125 367.445312 165.785156 365.859375 163.734375 363.933594 C 161.339844 361.6875 159.28125 359.160156 157.746094 356.25 C 154.5625 350.226562 154.527344 343.023438 158.566406 337.414062 C 161.273438 333.660156 155.058594 330.078125 152.375 333.792969 Z M 152.375 333.792969 " fill-opacity="1" fill-rule="nonzero"/><path fill="#ffa59b" d="M 75.917969 320.652344 C 73.632812 327.574219 74.347656 334.582031 77.777344 341 C 81.089844 347.207031 86.628906 351.898438 93.175781 354.367188 C 94.988281 355.046875 97.105469 353.609375 97.585938 351.863281 C 98.136719 349.851562 96.902344 348.132812 95.085938 347.445312 C 90.40625 345.679688 86.40625 341.933594 83.972656 337.378906 C 81.542969 332.828125 81.101562 327.820312 82.84375 322.566406 C 83.453125 320.722656 82.140625 318.648438 80.339844 318.148438 C 78.390625 317.609375 76.539062 318.8125 75.929688 320.652344 Z M 75.917969 320.652344 " fill-opacity="1" fill-rule="nonzero"/><path fill="#ffa59b" d="M 308.164062 344.988281 C 315.277344 357.195312 316.507812 372.378906 310.71875 385.378906 C 308.113281 391.238281 304.269531 396.480469 299.496094 400.757812 C 295.054688 404.734375 288.425781 407.589844 288.414062 414.457031 C 288.414062 416.347656 290.058594 418.117188 291.996094 418.046875 C 295.570312 417.914062 297.953125 415.8125 299.757812 412.875 C 300.867188 411.070312 302.007812 406.808594 304.152344 405.976562 L 299.742188 401.5625 C 298.785156 405.410156 297.5625 409.472656 295.078125 412.640625 C 294.019531 413.996094 292.671875 415.128906 291.738281 416.59375 C 291.042969 417.695312 290.121094 418.765625 289.496094 419.867188 C 288.902344 420.910156 288.761719 422.460938 289.496094 423.492188 C 291.066406 425.695312 293.953125 426.429688 296.417969 425.28125 C 298.769531 424.183594 300.203125 421.589844 301.511719 419.460938 C 304.585938 414.453125 307.238281 408.511719 306.777344 402.503906 C 306.519531 399.136719 301.945312 397.382812 300.097656 400.691406 C 297.128906 406.011719 295.476562 411.890625 293.046875 417.445312 C 291.21875 421.621094 297.339844 425.292969 299.238281 421.070312 C 300.386719 418.511719 302.847656 416.921875 304 414.464844 C 305.359375 411.566406 302.300781 407.246094 299.097656 409.554688 C 294.957031 412.535156 290.75 415.949219 291.089844 421.574219 C 291.300781 425.117188 295.8125 426.476562 297.765625 423.386719 C 301.960938 416.765625 305.949219 410.480469 306.78125 402.503906 C 307.261719 397.914062 300.085938 397.949219 299.613281 402.503906 C 298.933594 408.996094 294.96875 414.40625 291.574219 419.761719 C 293.800781 420.363281 296.027344 420.96875 298.253906 421.574219 C 298.082031 418.777344 300.671875 417.222656 302.710938 415.753906 C 301.078125 414.117188 299.441406 412.480469 297.808594 410.84375 C 296.710938 413.167969 294.183594 414.929688 293.046875 417.449219 C 295.109375 418.660156 297.175781 419.867188 299.238281 421.074219 C 301.664062 415.527344 303.328125 409.621094 306.289062 404.324219 C 304.0625 403.71875 301.839844 403.113281 299.613281 402.511719 C 299.863281 405.753906 298.957031 408.816406 297.574219 411.730469 C 296.90625 413.144531 296.144531 414.511719 295.324219 415.84375 C 294.945312 416.464844 294.5625 417.085938 294.140625 417.683594 L 293.671875 418.375 C 292.601562 419.308594 293.273438 419.808594 295.695312 419.871094 L 295.695312 423.496094 C 295.230469 424.320312 296.816406 422.347656 296.851562 422.296875 C 297.273438 421.625 297.480469 420.882812 297.9375 420.222656 C 299.078125 418.558594 300.660156 417.222656 301.796875 415.527344 C 304.203125 411.929688 305.621094 407.644531 306.660156 403.472656 C 307.261719 401.042969 304.925781 398.019531 302.25 399.054688 C 299.109375 400.277344 297.226562 402.503906 295.628906 405.410156 C 295.019531 406.515625 293.5625 410.808594 291.996094 410.867188 C 293.191406 412.066406 294.386719 413.261719 295.582031 414.457031 C 295.582031 411.765625 299.472656 409.914062 301.328125 408.492188 C 304.050781 406.410156 306.570312 404.101562 308.820312 401.507812 C 313.320312 396.304688 316.777344 390.316406 318.984375 383.800781 C 323.742188 369.792969 321.753906 354.066406 314.355469 341.371094 C 312.03125 337.378906 305.832031 340.988281 308.164062 344.992188 Z M 308.164062 344.988281 " fill-opacity="1" fill-rule="nonzero"/></svg>