<svg xmlns="http://www.w3.org/2000/svg" xmlns:xlink="http://www.w3.org/1999/xlink" width="500" zoomAndPan="magnify" viewBox="0 0 375 374.999991" height="500" preserveAspectRatio="xMidYMid meet" version="1.0"><path fill="#ffa59b" d="M 74.648438 364.144531 C 73.992188 371.234375 71.402344 378.21875 68.71875 384.757812 C 66 391.398438 62.792969 397.878906 59.125 404.046875 C 58.335938 405.371094 59.023438 407.464844 60.648438 407.78125 C 64.304688 408.492188 68.023438 408.921875 71.753906 408.945312 C 74.59375 408.960938 79.273438 409.371094 79.691406 405.511719 C 80.492188 398.046875 66.867188 401 63.101562 401.90625 C 60.921875 402.429688 60.675781 405.449219 62.492188 406.554688 C 67.3125 409.480469 72.890625 409.675781 78.003906 407.417969 C 80.992188 406.101562 78.40625 401.71875 75.433594 403.027344 C 72.007812 404.535156 68.210938 404.070312 65.0625 402.164062 C 64.859375 403.714844 64.660156 405.261719 64.457031 406.8125 C 66.511719 406.316406 68.578125 405.96875 70.695312 405.851562 C 71.730469 405.796875 72.769531 405.773438 73.804688 405.820312 C 74.207031 405.820312 74.605469 405.84375 75.003906 405.898438 C 76.386719 404.152344 76.375 403.445312 74.984375 403.78125 C 74.078125 403.554688 72.707031 403.863281 71.757812 403.859375 C 70.683594 403.855469 69.605469 403.8125 68.535156 403.746094 C 66.335938 403.601562 64.167969 403.296875 62.007812 402.878906 C 62.515625 404.125 63.023438 405.367188 63.527344 406.613281 C 67.421875 400.0625 70.746094 393.164062 73.632812 386.113281 C 76.511719 379.089844 79.035156 371.746094 79.742188 364.152344 C 80.046875 360.894531 74.957031 360.914062 74.65625 364.152344 Z M 74.648438 364.144531 " fill-opacity="1" fill-rule="nonzero"/><path fill="#ffa59b" d="M 132.722656 366.789062 C 132.980469 379.082031 131.324219 391.265625 127.765625 403.039062 C 127.238281 404.785156 128.644531 406.066406 130.21875 406.261719 C 134.144531 406.75 138.074219 407.285156 142.011719 407.730469 C 144.554688 408.015625 148.113281 406.980469 147.589844 403.675781 C 147.070312 400.417969 142.742188 399.351562 139.980469 398.964844 C 136.566406 398.480469 133.304688 399.089844 130.191406 400.523438 C 128.515625 401.289062 128.539062 404.136719 130.191406 404.914062 C 135.09375 407.21875 140.226562 407.9375 145.570312 407.070312 C 148.796875 406.546875 147.425781 401.644531 144.222656 402.167969 C 140.335938 402.800781 136.316406 402.195312 132.761719 400.523438 L 132.761719 404.914062 C 134.429688 404.144531 136.246094 403.804688 138.078125 403.867188 C 139.09375 403.898438 140.078125 404.078125 141.050781 404.378906 C 141.425781 404.496094 141.804688 404.699219 142.183594 404.78125 L 142.746094 405.054688 C 143.898438 403.527344 144.054688 402.765625 143.21875 402.769531 C 142.578125 402.464844 141.238281 402.554688 140.542969 402.464844 C 139.4375 402.328125 138.332031 402.191406 137.226562 402.054688 C 134.894531 401.765625 132.558594 401.472656 130.226562 401.183594 C 131.042969 402.253906 131.859375 403.328125 132.679688 404.402344 C 136.355469 392.230469 138.085938 379.515625 137.820312 366.800781 C 137.753906 363.53125 132.660156 363.523438 132.730469 366.800781 Z M 132.722656 366.789062 " fill-opacity="1" fill-rule="nonzero"/><path fill="#ffa59b" d="M 226.648438 372.65625 C 222.855469 384.359375 221.144531 396.691406 221.550781 408.984375 L 224.09375 406.441406 C 219.132812 405.839844 213.910156 405.574219 209.554688 408.449219 C 208.09375 409.414062 207.722656 411.96875 209.554688 412.839844 C 212.945312 414.457031 216.988281 414.425781 220.632812 413.851562 C 223.222656 413.445312 227.863281 411.894531 226.546875 408.308594 C 225.429688 405.261719 220.511719 406.574219 221.640625 409.660156 C 221.863281 410.257812 221.863281 408.488281 221.867188 408.484375 C 221.929688 408.117188 222.285156 408.238281 222.109375 408.179688 C 222.003906 408.144531 221.582031 408.421875 221.410156 408.480469 C 220.417969 408.804688 219.367188 408.960938 218.324219 409.039062 C 216.375 409.183594 213.832031 409.265625 212.125 408.449219 L 212.125 412.839844 C 215.699219 410.484375 220.054688 411.039062 224.09375 411.527344 C 225.433594 411.691406 226.679688 410.230469 226.640625 408.984375 C 226.242188 397.101562 227.890625 385.320312 231.550781 374.007812 C 232.5625 370.886719 227.652344 369.546875 226.648438 372.65625 Z M 226.648438 372.65625 " fill-opacity="1" fill-rule="nonzero"/><path fill="#ec4e65" d="M 43.128906 348.09375 C 20.507812 326.742188 2.046875 299.472656 0.933594 268.394531 C 0.160156 246.847656 7.515625 223.476562 25.542969 211.644531 C 32.582031 207.023438 40.789062 204.445312 49.054688 202.808594 C 61.230469 200.402344 74.039062 199.964844 85.890625 203.636719 C 97.746094 207.308594 108.546875 215.488281 113.519531 226.855469 C 120.636719 214.097656 132.386719 205.871094 145.539062 202.0625 C 156.308594 198.941406 168.0625 200.988281 178.300781 205.5625 C 186.992188 209.445312 194.953125 215.195312 200.695312 222.78125 C 209.164062 233.972656 212.3125 248.523438 211.667969 262.539062 C 211.027344 276.554688 206.867188 290.167969 201.910156 303.292969 C 198.457031 312.449219 194.578125 321.488281 189.390625 329.785156 C 185.808594 335.515625 181.613281 340.855469 177.042969 345.828125 C 161.855469 362.355469 142.679688 376.023438 120.980469 381.792969 C 115.792969 383.171875 109.769531 384.140625 99.554688 380.316406 C 89.335938 376.496094 60.566406 364.554688 43.128906 348.097656 Z M 43.128906 348.09375 " fill-opacity="1" fill-rule="nonzero"/><path fill="#ffffff" d="M 25.75 261.128906 C 24.941406 263.457031 17.660156 270.183594 12.269531 258.246094 C 6.878906 246.3125 16.769531 221.640625 33.683594 217.828125 C 50.59375 214.019531 37.535156 231.285156 32.308594 239.429688 C 27.082031 247.574219 27.683594 255.558594 25.753906 261.128906 Z M 25.75 261.128906 " fill-opacity="1" fill-rule="nonzero"/><path fill="#ffffff" d="M 166.046875 210.667969 C 163.125 206.757812 157.324219 208.410156 154.371094 210.21875 C 154.042969 210.421875 153.703125 210.664062 153.582031 211.132812 C 153.417969 211.757812 153.722656 212.605469 154.164062 213.15625 C 154.609375 213.699219 155.160156 214.003906 155.695312 214.246094 C 159.488281 215.988281 163.429688 215.628906 166.316406 213.265625 C 166.664062 212.988281 167.019531 212.550781 166.890625 211.941406 C 166.828125 211.636719 166.65625 211.367188 166.476562 211.140625 C 165.410156 209.78125 163.808594 209.394531 162.84375 210.261719 " fill-opacity="1" fill-rule="nonzero"/><path fill="#ffffff" d="M 168.246094 209.382812 C 167.144531 207.953125 165.898438 206.925781 164.199219 206.28125 C 162.929688 205.804688 161.488281 205.65625 160.140625 205.757812 C 158.761719 205.867188 157.394531 206.136719 156.09375 206.617188 C 154.792969 207.097656 153.359375 207.675781 152.296875 208.605469 C 150.363281 210.296875 150.820312 213.175781 152.367188 214.949219 C 153.597656 216.367188 155.652344 217.117188 157.4375 217.523438 C 161.15625 218.359375 164.976562 217.605469 167.957031 215.199219 C 168.929688 214.414062 169.5625 213.214844 169.445312 211.941406 C 169.324219 210.671875 168.578125 209.460938 167.554688 208.621094 C 166.613281 207.847656 165.53125 207.339844 164.300781 207.269531 C 163.070312 207.195312 162 207.683594 161.050781 208.464844 C 160.019531 209.316406 160.105469 211.195312 161.050781 212.0625 C 162.148438 213.066406 163.550781 212.96875 164.652344 212.0625 C 164.195312 212.441406 164.382812 212.269531 164.527344 212.191406 C 164.03125 212.457031 164.164062 212.335938 164.355469 212.296875 C 164.277344 212.3125 163.738281 212.308594 164.148438 212.34375 C 164.070312 212.335938 163.550781 212.183594 163.957031 212.320312 C 164.019531 212.339844 164.261719 212.378906 164.285156 212.425781 C 164.304688 212.460938 163.839844 212.160156 164.085938 212.363281 C 164.148438 212.410156 164.5 212.617188 164.222656 212.429688 C 163.921875 212.222656 164.355469 212.570312 164.414062 212.625 C 164.855469 213.035156 164.386719 212.625 164.425781 212.605469 L 164.484375 212.703125 C 164.652344 212.996094 164.617188 212.808594 164.386719 212.140625 C 164.390625 211.941406 164.460938 211.6875 164.554688 211.523438 C 164.578125 211.488281 164.882812 211.019531 164.644531 211.375 C 164.625 211.40625 164.40625 211.59375 164.617188 211.410156 C 164.855469 211.207031 164.507812 211.484375 164.449219 211.527344 C 164.183594 211.703125 163.917969 211.871094 163.640625 212.023438 C 163.53125 212.082031 162.753906 212.4375 163.308594 212.214844 C 163.050781 212.320312 162.789062 212.410156 162.523438 212.496094 C 162.289062 212.566406 162.054688 212.625 161.816406 212.675781 C 161.679688 212.707031 161.542969 212.726562 161.40625 212.757812 C 161.101562 212.828125 161.847656 212.734375 161.351562 212.761719 C 160.816406 212.789062 160.285156 212.8125 159.75 212.777344 C 159.605469 212.769531 159.460938 212.746094 159.316406 212.738281 C 158.929688 212.707031 159.722656 212.832031 159.339844 212.738281 C 159.011719 212.65625 158.679688 212.609375 158.355469 212.523438 C 158.058594 212.445312 157.761719 212.351562 157.472656 212.253906 C 157.324219 212.203125 157.179688 212.144531 157.03125 212.089844 C 157.078125 212.109375 157.355469 212.242188 157.089844 212.117188 C 156.839844 211.996094 156.589844 211.882812 156.355469 211.742188 C 156.285156 211.699219 155.964844 211.429688 156.183594 211.636719 C 156.464844 211.90625 155.84375 211.160156 156.246094 211.730469 C 156.167969 211.617188 156.109375 211.496094 156.039062 211.382812 C 156.101562 211.484375 156.167969 211.847656 156.070312 211.414062 C 156.042969 211.273438 156.09375 211.105469 156.054688 211.363281 C 156.027344 211.558594 156.0625 211.75 155.984375 211.953125 C 155.90625 212.15625 155.757812 212.265625 155.640625 212.429688 C 155.464844 212.667969 155.578125 212.476562 155.714844 212.398438 C 155.894531 212.300781 156.066406 212.191406 156.25 212.089844 C 156.578125 211.917969 156.914062 211.765625 157.25 211.605469 C 157.546875 211.464844 156.757812 211.792969 157.070312 211.679688 C 157.167969 211.648438 157.265625 211.601562 157.363281 211.5625 C 157.59375 211.480469 157.820312 211.398438 158.050781 211.328125 C 158.445312 211.203125 158.84375 211.09375 159.246094 211.007812 C 159.4375 210.964844 159.628906 210.933594 159.820312 210.894531 C 160.277344 210.804688 159.679688 210.9375 159.636719 210.910156 C 159.691406 210.941406 160.070312 210.867188 160.136719 210.863281 C 160.636719 210.824219 161.125 210.839844 161.621094 210.863281 C 161.714844 210.867188 161.964844 210.933594 161.609375 210.851562 C 161.183594 210.757812 161.660156 210.867188 161.753906 210.886719 C 161.992188 210.933594 162.226562 210.996094 162.460938 211.070312 C 162.5625 211.101562 162.664062 211.148438 162.769531 211.171875 C 163.058594 211.253906 162.285156 210.917969 162.679688 211.140625 C 162.898438 211.261719 163.109375 211.375 163.320312 211.503906 C 163.402344 211.554688 163.683594 211.789062 163.398438 211.550781 C 163.089844 211.292969 163.46875 211.621094 163.53125 211.679688 C 163.660156 211.800781 164.253906 212.492188 163.847656 211.960938 C 164.273438 212.511719 164.671875 212.9375 165.371094 213.128906 C 165.976562 213.296875 166.792969 213.222656 167.332031 212.871094 C 168.371094 212.203125 169.117188 210.519531 168.246094 209.394531 Z M 168.246094 209.382812 " fill-opacity="1" fill-rule="nonzero"/><path fill="#d83d5b" d="M 124.277344 376.964844 C 132.617188 375.554688 160.953125 361.117188 166.378906 342.46875 C 168.832031 334.039062 153.179688 333.433594 127.515625 351.421875 C 109.390625 364.125 58.882812 318.984375 40.21875 323.746094 C 21.554688 328.507812 88.421875 383.023438 124.277344 376.964844 Z M 124.277344 376.964844 " fill-opacity="1" fill-rule="nonzero"/><path fill="#d83d5b" d="M 80.632812 294.648438 C 80.632812 294.648438 78.878906 290.683594 86.355469 288.230469 C 93.835938 285.773438 103.003906 285.894531 101.304688 292.355469 C 99.605469 298.816406 80.429688 301.492188 80.628906 294.648438 Z M 80.632812 294.648438 " fill-opacity="1" fill-rule="nonzero"/><path fill="#d83d5b" d="M 161.742188 283.160156 C 161.742188 283.160156 160.054688 279.167969 167.574219 276.835938 C 175.09375 274.503906 184.257812 274.785156 182.449219 281.210938 C 180.640625 287.644531 161.421875 289.996094 161.742188 283.15625 Z M 161.742188 283.160156 " fill-opacity="1" fill-rule="nonzero"/><path fill="#ffcfca" d="M 256.570312 382.980469 C 256.570312 382.980469 249.761719 389.300781 236.742188 387.953125 C 216.109375 385.824219 212.183594 372.742188 212.183594 372.742188 C 212.183594 372.742188 195.34375 378.265625 186.152344 366.277344 C 176.964844 354.292969 180.933594 340.78125 180.933594 340.78125 C 173.964844 335.527344 169.691406 326.878906 169.757812 318.15625 C 169.820312 309.433594 174.21875 300.847656 181.257812 295.695312 C 181.050781 282.070312 194.089844 269.753906 207.679688 270.726562 C 210.203125 259.28125 218.675781 249.324219 229.570312 244.992188 C 240.460938 240.664062 253.460938 242.085938 263.160156 248.671875 C 267.179688 245.378906 270.195312 242.664062 278.242188 242.875 C 291.324219 243.21875 296.609375 252.269531 296.609375 252.269531 C 307.488281 247.898438 320.492188 249.269531 330.214844 255.816406 C 339.9375 262.363281 346.089844 273.894531 346.125 285.613281 C 359.613281 287.550781 369.734375 302.363281 366.632812 315.628906 C 372.414062 322.160156 374.882812 331.484375 373.089844 340.019531 C 371.292969 348.554688 365.277344 356.097656 357.355469 359.746094 C 357.355469 359.746094 358.359375 373.792969 346.828125 383.554688 C 335.296875 393.3125 320.019531 384.339844 320.019531 384.339844 C 320.019531 384.339844 307.648438 396.890625 292.78125 393.980469 C 279.9375 391.46875 274.46875 384.910156 274.46875 384.910156 C 274.46875 384.910156 266.984375 389.285156 256.570312 382.984375 Z M 256.570312 382.980469 " fill-opacity="1" fill-rule="nonzero"/><path fill="#ffa59b" d="M 344.042969 310.847656 C 344.492188 306.195312 342.976562 301.625 339.757812 298.214844 C 336.125 294.363281 331.078125 292.753906 325.871094 293.148438 L 328.414062 295.691406 C 328.851562 290.601562 327.308594 285.59375 323.675781 281.984375 C 319.53125 277.871094 314.050781 275.964844 308.273438 276.765625 C 306.910156 276.957031 306.167969 278.695312 306.5 279.894531 C 306.902344 281.359375 308.261719 281.859375 309.628906 281.667969 C 313.679688 281.109375 317.613281 283.011719 320.375 285.878906 C 322.910156 288.511719 323.636719 292.09375 323.328125 295.6875 C 323.21875 296.988281 324.589844 298.324219 325.875 298.230469 C 329.820312 297.929688 333.386719 298.859375 336.160156 301.808594 C 338.515625 304.300781 339.273438 307.507812 338.953125 310.847656 C 338.820312 312.214844 340.21875 313.390625 341.5 313.390625 C 342.984375 313.390625 343.910156 312.21875 344.042969 310.847656 Z M 344.042969 310.847656 " fill-opacity="1" fill-rule="nonzero"/><path fill="#ffa59b" d="M 226.8125 267.1875 C 223.527344 268.363281 220.273438 269.785156 217.453125 271.867188 C 216.898438 272.273438 216.472656 272.703125 216.285156 273.386719 C 216.117188 273.996094 216.191406 274.808594 216.542969 275.347656 C 217.222656 276.40625 218.878906 277.105469 220.019531 276.261719 C 221.316406 275.304688 222.710938 274.480469 224.15625 273.765625 C 224.53125 273.582031 224.910156 273.40625 225.289062 273.234375 C 225.429688 273.171875 225.574219 273.105469 225.714844 273.042969 C 225.8125 273 225.90625 272.960938 226.003906 272.917969 C 225.636719 273.070312 225.578125 273.097656 225.828125 272.992188 C 226.601562 272.675781 227.378906 272.378906 228.164062 272.101562 C 228.796875 271.875 229.335938 271.527344 229.683594 270.933594 C 230.003906 270.386719 230.136719 269.582031 229.941406 268.972656 C 229.542969 267.742188 228.15625 266.714844 226.8125 267.195312 Z M 226.8125 267.1875 " fill-opacity="1" fill-rule="nonzero"/><path fill="#ffffff" d="M 330.894531 285.460938 C 331.78125 286.898438 337.636719 290.3125 339.464844 281.542969 C 341.296875 272.777344 331.035156 257.773438 319.183594 257.738281 C 307.332031 257.699219 318.609375 267.289062 323.300781 271.949219 C 327.992188 276.613281 328.78125 282.03125 330.890625 285.460938 Z M 330.894531 285.460938 " fill-opacity="1" fill-rule="nonzero"/><path fill="#ffffff" d="M 237.035156 252.195312 C 239.320312 248.53125 246.773438 249.085938 250.859375 250.175781 C 251.316406 250.296875 251.796875 250.453125 252.089844 250.824219 C 252.476562 251.320312 252.378906 252.070312 252.019531 252.585938 C 251.65625 253.101562 251.09375 253.433594 250.527344 253.710938 C 246.527344 255.695312 241.703125 255.945312 237.515625 254.390625 C 237.019531 254.210938 236.457031 253.898438 236.417969 253.371094 C 236.402344 253.109375 236.523438 252.859375 236.667969 252.644531 C 237.519531 251.363281 239.320312 250.816406 240.742188 251.402344 " fill-opacity="1" fill-rule="nonzero"/><path fill="#ffffff" d="M 239.230469 253.476562 C 239.214844 253.5 239.410156 253.210938 239.410156 253.210938 C 239.449219 253.253906 238.980469 253.671875 239.320312 253.351562 C 239.453125 253.230469 239.605469 253.09375 239.726562 252.960938 C 239.914062 252.753906 239.550781 253.140625 239.53125 253.109375 C 239.53125 253.101562 239.769531 252.945312 239.808594 252.921875 C 240.023438 252.785156 240.246094 252.667969 240.472656 252.550781 C 240.984375 252.285156 240.160156 252.632812 240.59375 252.5 C 240.824219 252.429688 241.050781 252.347656 241.285156 252.28125 C 241.746094 252.152344 242.214844 252.09375 242.675781 251.992188 C 243.03125 251.910156 242.210938 252.019531 242.578125 252.007812 C 242.710938 252.003906 242.839844 251.976562 242.972656 251.96875 C 243.207031 251.949219 243.441406 251.933594 243.671875 251.925781 C 244.214844 251.898438 244.753906 251.898438 245.292969 251.914062 C 245.761719 251.933594 246.238281 251.960938 246.703125 252.003906 C 246.964844 252.027344 247.230469 252.058594 247.492188 252.085938 C 247.625 252.097656 247.988281 252.167969 247.398438 252.074219 C 247.523438 252.09375 247.652344 252.109375 247.773438 252.132812 C 248.699219 252.277344 249.613281 252.609375 250.527344 252.734375 L 250.640625 252.773438 C 250.386719 252.738281 250.21875 252.578125 250.140625 252.292969 C 249.921875 252 249.785156 251.925781 249.792969 251.601562 C 249.796875 251.355469 249.878906 251.324219 249.929688 251.128906 C 249.941406 251.085938 250.324219 250.71875 249.910156 251.152344 C 249.941406 251.121094 250.210938 250.949219 249.964844 251.117188 C 249.835938 251.210938 249.695312 251.285156 249.558594 251.363281 C 249.222656 251.550781 248.867188 251.714844 248.515625 251.867188 C 248.789062 251.753906 248.097656 252.011719 248 252.042969 C 247.703125 252.148438 247.40625 252.238281 247.105469 252.328125 C 246.421875 252.523438 245.71875 252.679688 245.015625 252.777344 C 245.410156 252.722656 244.597656 252.8125 244.496094 252.816406 C 244.136719 252.847656 243.78125 252.859375 243.425781 252.863281 C 242.757812 252.871094 242.089844 252.839844 241.425781 252.765625 C 240.890625 252.714844 241.191406 252.734375 241.304688 252.753906 C 241.082031 252.722656 240.863281 252.679688 240.648438 252.636719 C 240.25 252.558594 239.859375 252.46875 239.472656 252.359375 C 239.128906 252.265625 238.792969 252.152344 238.453125 252.039062 C 237.753906 251.808594 238.433594 252.015625 238.429688 252.039062 L 238.253906 251.9375 C 238.726562 252.222656 238.914062 252.636719 238.804688 253.191406 C 238.789062 252.996094 239.035156 254.035156 238.730469 254.117188 C 238.683594 254.128906 239.234375 253.675781 238.933594 253.898438 C 238.632812 254.117188 239.109375 253.800781 239.113281 253.808594 C 239.273438 253.726562 239.234375 253.738281 238.980469 253.847656 L 239.179688 253.78125 C 239.3125 253.753906 239.453125 253.714844 239.585938 253.679688 C 239.378906 253.730469 239.238281 253.714844 239.53125 253.714844 C 240.007812 253.714844 239.582031 253.703125 239.480469 253.679688 C 239.683594 253.726562 239.882812 253.785156 240.078125 253.859375 C 241.328125 254.324219 242.921875 253.339844 243.207031 252.085938 C 243.535156 250.644531 242.765625 249.457031 241.433594 248.957031 C 239.453125 248.222656 237.179688 248.777344 235.597656 250.097656 C 234.675781 250.859375 234.023438 251.914062 233.914062 253.121094 C 233.78125 254.542969 234.675781 255.761719 235.871094 256.433594 C 237.644531 257.425781 239.972656 257.753906 241.964844 257.902344 C 243.960938 258.050781 246.015625 257.84375 247.953125 257.363281 C 248.953125 257.113281 249.902344 256.761719 250.847656 256.351562 C 251.789062 255.945312 252.785156 255.488281 253.523438 254.742188 C 255.425781 252.8125 255.351562 249.585938 252.832031 248.210938 C 251.582031 247.527344 249.960938 247.328125 248.570312 247.136719 C 247.015625 246.921875 245.457031 246.773438 243.882812 246.832031 C 240.457031 246.953125 236.828125 247.878906 234.847656 250.914062 C 234.121094 252.03125 234.585938 253.773438 235.761719 254.390625 C 237.03125 255.0625 238.46875 254.671875 239.242188 253.476562 Z M 239.230469 253.476562 " fill-opacity="1" fill-rule="nonzero"/><path fill="#ffbdc5" d="M 194.738281 331.726562 C 195.984375 333.3125 197.703125 337.59375 191.730469 339.210938 C 185.757812 340.824219 178.046875 334.46875 175.414062 324.492188 C 172.777344 314.511719 178.144531 312.527344 182.253906 312.945312 C 186.363281 313.371094 189.710938 325.328125 194.738281 331.726562 Z M 194.738281 331.726562 " fill-opacity="1" fill-rule="nonzero"/><path fill="#ffa59b" d="M 273.699219 254.898438 C 268.359375 256.042969 263.9375 260.253906 262.3125 265.425781 C 261.910156 266.699219 262.78125 268.257812 264.085938 268.554688 C 265.46875 268.871094 266.789062 268.140625 267.214844 266.78125 C 267.296875 266.515625 267.390625 266.253906 267.488281 265.992188 C 267.554688 265.820312 267.785156 265.402344 267.445312 266.085938 C 267.507812 265.964844 267.554688 265.835938 267.617188 265.710938 C 267.847656 265.230469 268.109375 264.765625 268.398438 264.316406 C 268.550781 264.085938 268.714844 263.859375 268.875 263.632812 C 269.054688 263.378906 268.496094 264.097656 268.773438 263.761719 C 268.863281 263.652344 268.949219 263.546875 269.039062 263.441406 C 269.402344 263.015625 269.789062 262.617188 270.199219 262.246094 C 270.40625 262.058594 270.621094 261.878906 270.835938 261.703125 C 271.167969 261.425781 270.453125 261.984375 270.707031 261.804688 C 270.820312 261.726562 270.933594 261.636719 271.042969 261.558594 C 271.480469 261.253906 271.9375 260.976562 272.40625 260.726562 C 272.652344 260.597656 272.902344 260.480469 273.15625 260.363281 C 273.625 260.140625 272.574219 260.585938 273.058594 260.402344 C 273.1875 260.355469 273.316406 260.304688 273.449219 260.257812 C 273.972656 260.070312 274.511719 259.921875 275.054688 259.804688 C 276.355469 259.527344 277.238281 257.933594 276.828125 256.675781 C 276.386719 255.304688 275.097656 254.605469 273.699219 254.902344 Z M 273.699219 254.898438 " fill-opacity="1" fill-rule="nonzero"/><path fill="#ffa59b" d="M 267.730469 268.128906 C 265.695312 265.132812 262.6875 262.902344 259.171875 261.953125 C 257.886719 261.609375 256.351562 262.386719 256.042969 263.726562 C 255.738281 265.066406 256.445312 266.488281 257.816406 266.855469 C 258.347656 267 258.875 267.175781 259.378906 267.386719 L 258.773438 267.128906 C 259.757812 267.546875 260.679688 268.085938 261.535156 268.730469 L 261.019531 268.332031 C 261.863281 268.984375 262.621094 269.734375 263.28125 270.578125 L 262.878906 270.0625 C 263.039062 270.269531 263.1875 270.476562 263.332031 270.691406 C 263.707031 271.242188 264.195312 271.679688 264.855469 271.859375 C 265.460938 272.023438 266.277344 271.949219 266.816406 271.601562 C 267.910156 270.894531 268.527344 269.300781 267.730469 268.125 Z M 267.730469 268.128906 " fill-opacity="1" fill-rule="nonzero"/><path fill="#ffbdc5" d="M 343.742188 383.484375 C 347.558594 381.890625 357.65625 372.988281 349.210938 361.519531 C 342.492188 352.40625 318.351562 359.199219 315.410156 363.621094 C 315.410156 363.621094 308.351562 363.578125 302.199219 369.054688 C 302.199219 369.054688 291.179688 358.742188 278.382812 361.929688 C 265.589844 365.113281 264.332031 370.058594 260.449219 370.265625 C 256.570312 370.472656 254.128906 363.164062 244.441406 362.960938 C 234.757812 362.757812 231.058594 370.605469 231.058594 370.605469 C 231.058594 370.605469 219.472656 366.570312 217.902344 359.78125 C 216.332031 352.992188 205.882812 349.296875 199.832031 353.824219 C 193.78125 358.355469 192.820312 368.351562 200.0625 371.84375 C 207.300781 375.339844 211.949219 372.324219 212.476562 373.179688 C 213.003906 374.035156 218.59375 384.613281 230.507812 387.226562 C 246.679688 390.773438 253.992188 383.554688 253.992188 383.554688 C 253.992188 383.554688 263.585938 388.414062 273.476562 384.8125 C 273.476562 384.8125 274.902344 385.117188 278.539062 387.339844 C 286.46875 392.179688 298.949219 394.421875 307.371094 390.4375 C 315.789062 386.457031 317.261719 383.832031 319.238281 382.636719 C 319.863281 382.257812 320.683594 381.824219 321.304688 382.203125 C 324.582031 384.199219 331.445312 388.601562 343.734375 383.480469 Z M 343.742188 383.484375 " fill-opacity="1" fill-rule="nonzero"/><path fill="#ffa59b" d="M 340.8125 346.402344 C 339.515625 347.992188 338.113281 349.566406 336.480469 350.824219 C 335.71875 351.414062 334.882812 351.921875 334.027344 352.367188 C 333.75 352.511719 333.46875 352.652344 333.179688 352.785156 C 333.042969 352.847656 332.90625 352.910156 332.769531 352.972656 C 332.378906 353.148438 333.332031 352.761719 332.609375 353.039062 C 329.027344 354.429688 325.460938 354.675781 321.683594 353.78125 C 318.5 353.023438 317.140625 357.925781 320.332031 358.683594 C 324.84375 359.753906 329.617188 359.660156 333.960938 357.941406 C 338.1875 356.277344 341.558594 353.496094 344.414062 349.996094 C 345.28125 348.929688 345.453125 347.441406 344.414062 346.398438 C 343.519531 345.503906 341.6875 345.324219 340.8125 346.398438 Z M 340.8125 346.402344 " fill-opacity="1" fill-rule="nonzero"/><path fill="#ffa59b" d="M 189.570312 309.203125 C 186.304688 320.101562 191.519531 332.722656 201.558594 338.105469 C 204.441406 339.648438 207.015625 335.261719 204.125 333.710938 C 196.035156 329.375 191.839844 319.355469 194.476562 310.554688 C 195.417969 307.410156 190.507812 306.070312 189.570312 309.203125 Z M 189.570312 309.203125 " fill-opacity="1" fill-rule="nonzero"/><path fill="#ffa59b" d="M 253.441406 346.148438 C 248.015625 346.171875 243.296875 342.855469 241.191406 337.914062 C 240.664062 336.679688 238.753906 336.332031 237.710938 337 C 232.527344 340.292969 225.933594 340.214844 220.808594 336.835938 C 218.066406 335.027344 215.515625 339.433594 218.238281 341.226562 C 224.792969 345.550781 233.65625 345.597656 240.277344 341.390625 L 236.796875 340.476562 C 239.578125 347 246.394531 351.261719 253.441406 351.230469 C 256.710938 351.210938 256.71875 346.125 253.441406 346.144531 Z M 253.441406 346.148438 " fill-opacity="1" fill-rule="nonzero"/><path fill="#000000" d="M 87.398438 283.535156 C 94.136719 283.707031 100.914062 282.578125 107.214844 280.183594 C 108.5 279.699219 109.378906 278.46875 108.988281 277.058594 C 108.652344 275.828125 107.152344 274.789062 105.859375 275.28125 C 99.941406 277.53125 93.730469 278.613281 87.398438 278.449219 C 86.023438 278.410156 84.855469 279.640625 84.855469 280.992188 C 84.855469 282.339844 86.019531 283.496094 87.398438 283.535156 Z M 87.398438 283.535156 " fill-opacity="1" fill-rule="nonzero"/><path fill="#000000" d="M 113.285156 291.585938 C 126.011719 293.421875 139.785156 294.039062 150.28125 285.335938 C 152.804688 283.246094 149.1875 279.664062 146.683594 281.738281 C 137.8125 289.089844 125.292969 288.222656 114.632812 286.679688 C 113.261719 286.480469 111.914062 287.019531 111.503906 288.453125 C 111.164062 289.644531 111.925781 291.386719 113.28125 291.582031 Z M 113.285156 291.585938 " fill-opacity="1" fill-rule="nonzero"/><path fill="#000000" d="M 152.121094 271.871094 C 159.007812 274.59375 167.09375 273.816406 173.414062 270.011719 C 176.214844 268.324219 173.660156 263.921875 170.84375 265.617188 C 165.550781 268.808594 159.226562 269.242188 153.472656 266.96875 C 152.199219 266.460938 150.679688 267.519531 150.34375 268.742188 C 149.945312 270.1875 150.839844 271.363281 152.117188 271.871094 Z M 152.121094 271.871094 " fill-opacity="1" fill-rule="nonzero"/><path fill="#000000" d="M 231.09375 288.929688 C 225.976562 282.914062 217.425781 281.140625 209.96875 282.894531 C 208.632812 283.210938 207.839844 284.734375 208.195312 286.023438 C 208.574219 287.390625 209.984375 288.113281 211.324219 287.796875 C 214.429688 287.066406 217.566406 287.117188 220.589844 288.027344 C 223.289062 288.839844 225.617188 290.3125 227.5 292.523438 C 228.386719 293.570312 230.179688 293.4375 231.097656 292.523438 C 232.136719 291.488281 231.992188 289.976562 231.097656 288.925781 Z M 231.09375 288.929688 " fill-opacity="1" fill-rule="nonzero"/><path fill="#000000" d="M 230.246094 304.675781 C 235.054688 309.136719 240.648438 311.808594 247.054688 313.1875 C 253.289062 314.535156 260.492188 315.429688 266.710938 313.570312 C 269.84375 312.632812 268.507812 307.722656 265.363281 308.667969 C 260.015625 310.261719 253.769531 309.441406 248.410156 308.285156 C 242.859375 307.089844 238.023438 304.953125 233.847656 301.074219 C 231.449219 298.851562 227.84375 302.4375 230.246094 304.675781 Z M 230.246094 304.675781 " fill-opacity="1" fill-rule="nonzero"/><path fill="#000000" d="M 295.203125 304.109375 C 289.328125 299.597656 281.335938 298.15625 274.214844 300.082031 C 272.890625 300.441406 272.074219 301.890625 272.441406 303.210938 C 272.804688 304.53125 274.242188 305.347656 275.570312 304.984375 C 281.441406 303.398438 287.6875 304.695312 292.636719 308.5 C 293.726562 309.339844 295.484375 308.667969 296.117188 307.585938 C 296.886719 306.273438 296.296875 304.949219 295.203125 304.109375 Z M 295.203125 304.109375 " fill-opacity="1" fill-rule="nonzero"/><path fill="#ffa59b" d="M 52.894531 330.144531 C 63.28125 339.363281 76.242188 345.171875 89.378906 349.324219 C 103.566406 353.816406 118.3125 356.417969 133.082031 358.089844 C 140.796875 358.960938 148.542969 359.539062 156.300781 359.871094 C 159.574219 360.011719 159.566406 354.925781 156.300781 354.785156 C 142.644531 354.199219 129 352.878906 115.542969 350.441406 C 101.582031 347.914062 87.554688 344.320312 74.695312 338.210938 C 68.167969 335.113281 61.90625 331.347656 56.492188 326.539062 C 54.050781 324.371094 50.441406 327.957031 52.890625 330.140625 Z M 52.894531 330.144531 " fill-opacity="1" fill-rule="nonzero"/><path fill="#ffa59b" d="M 302.195312 343.628906 C 297.773438 348.371094 291.808594 351.492188 285.945312 354.078125 C 278.863281 357.203125 271.371094 359.472656 263.855469 361.285156 C 247.976562 365.109375 231.394531 366.113281 215.101562 365.296875 C 204.390625 364.761719 193.832031 363.054688 183.359375 360.796875 C 180.167969 360.113281 178.804688 365.011719 182.007812 365.699219 C 216.070312 373.035156 253.164062 373.125 285.792969 359.625 C 292.992188 356.648438 300.402344 353.003906 305.789062 347.222656 C 308.019531 344.832031 304.429688 341.226562 302.191406 343.625 Z M 302.195312 343.628906 " fill-opacity="1" fill-rule="nonzero"/><path fill="#ffa59b" d="M 169.640625 356.425781 C 165.347656 355.121094 160.546875 353.839844 156.128906 355.320312 C 154.960938 355.710938 153.820312 356.214844 153.195312 357.351562 C 152.625 358.386719 152.667969 360.132812 153.628906 360.980469 C 154.007812 361.3125 153.4375 359.847656 153.445312 360.242188 C 153.445312 360.378906 153.492188 360.582031 153.503906 360.679688 C 153.527344 360.878906 153.546875 361.070312 153.597656 361.261719 C 153.699219 361.664062 153.878906 362.0625 154.078125 362.417969 C 154.949219 363.988281 156.550781 365.113281 158.144531 365.859375 C 161.023438 367.195312 164.105469 367.8125 167.238281 368.222656 C 169.457031 368.515625 174.429688 369.742188 174.449219 366.101562 C 174.453125 365.066406 173.867188 364.347656 173.113281 363.75 C 172.878906 363.566406 172.628906 363.382812 172.398438 363.183594 C 172.328125 363.125 172.261719 363.054688 172.191406 363 C 172.132812 362.945312 172.078125 362.890625 172.023438 362.828125 C 172.265625 363.074219 172.4375 363.355469 172.535156 363.683594 L 172.535156 365.035156 L 172.554688 364.988281 L 171.898438 366.113281 C 171.207031 366.75 172.035156 366.027344 172.128906 365.941406 C 172.332031 365.742188 172.535156 365.496094 172.691406 365.261719 C 172.929688 364.886719 173.109375 364.460938 173.214844 364.03125 C 173.507812 362.8125 173.042969 361.558594 172.144531 360.714844 C 170.8125 359.457031 168.890625 358.628906 167.199219 358.015625 C 165.507812 357.398438 163.824219 357.109375 162.09375 357.011719 C 159.976562 356.894531 157.632812 357.289062 156.996094 359.671875 C 155.871094 363.847656 161.238281 365.851562 164.390625 366.445312 C 166.148438 366.777344 168.144531 367.011719 169.914062 366.605469 C 172.246094 366.070312 173.710938 363.679688 172.527344 361.4375 C 171.609375 359.691406 169.417969 358.636719 167.582031 358.164062 C 165.640625 357.660156 163.558594 357.703125 161.644531 358.304688 C 160.4375 358.6875 159.355469 360.109375 159.871094 361.433594 C 160.65625 363.453125 162.253906 364.222656 164.261719 364.648438 C 166.289062 365.082031 168.339844 365.652344 170.394531 365.917969 C 171.683594 366.082031 173.054688 365.632812 173.746094 364.457031 C 174.480469 363.203125 174.15625 361.566406 173.132812 360.570312 C 171.660156 359.128906 169.140625 358.625 167.148438 358.824219 C 165.449219 358.996094 164.328125 360.308594 164.695312 362.042969 C 165.164062 364.226562 167.703125 365.296875 169.707031 365.527344 C 172.269531 365.820312 174.765625 363.902344 174.445312 361.183594 C 173.957031 357.0625 169.292969 356.105469 165.90625 356.027344 L 165.90625 361.113281 C 166.460938 361.054688 167.019531 361.03125 167.578125 361.089844 C 167.195312 361.046875 167.925781 361.160156 168 361.175781 C 168.316406 361.25 168.632812 361.34375 168.9375 361.453125 C 169.097656 361.515625 169.109375 361.515625 168.972656 361.460938 C 169.101562 361.519531 169.226562 361.582031 169.347656 361.648438 C 169.59375 361.777344 169.835938 361.921875 170.066406 362.078125 C 170.203125 362.175781 170.222656 362.179688 170.113281 362.09375 C 170.222656 362.179688 170.328125 362.273438 170.429688 362.367188 C 171.003906 362.882812 170.445312 362.523438 170.492188 362.039062 C 170.609375 361.613281 170.722656 361.183594 170.839844 360.757812 C 170.714844 361.023438 170.710938 361.035156 170.832031 360.804688 C 171.066406 360.644531 171.105469 360.609375 170.949219 360.714844 C 170.898438 360.726562 170.292969 361.039062 170.582031 360.921875 C 170.839844 360.820312 170.09375 361.058594 170.007812 361.082031 C 169.773438 361.140625 169.535156 361.191406 169.296875 361.238281 C 168.3125 361.429688 167.3125 361.527344 166.335938 361.773438 C 165 362.105469 164.199219 363.601562 164.558594 364.902344 C 164.933594 366.257812 166.351562 367.011719 167.691406 366.675781 C 169.027344 366.339844 170.394531 366.285156 171.703125 365.886719 C 173.714844 365.277344 175.824219 363.8125 175.5625 361.445312 C 175.34375 359.425781 173.261719 357.882812 171.546875 357.074219 C 169.792969 356.25 167.859375 355.820312 165.914062 356.027344 C 164.546875 356.171875 163.371094 357.089844 163.371094 358.570312 C 163.371094 360.050781 164.535156 361.082031 165.914062 361.113281 C 166.285156 361.121094 166.65625 361.132812 167.023438 361.160156 C 167.230469 361.171875 167.441406 361.1875 167.648438 361.214844 C 167.375 361.183594 167.535156 361.191406 167.714844 361.226562 C 168.117188 361.304688 168.503906 361.398438 168.890625 361.527344 C 168.644531 361.445312 168.761719 361.449219 168.933594 361.554688 C 168.980469 361.582031 169.492188 361.910156 169.257812 361.734375 C 169.054688 361.578125 169.398438 361.875 169.429688 361.914062 C 169.527344 362.023438 169.535156 362.027344 169.457031 361.933594 C 169.351562 361.792969 169.378906 361.84375 169.53125 362.082031 C 169.492188 361.867188 169.371094 361.574219 169.457031 361.335938 L 170.035156 360.554688 C 170.113281 360.515625 170.195312 360.496094 170.285156 360.5 C 170.285156 360.417969 170.675781 360.675781 170.246094 360.496094 C 170 360.390625 169.71875 360.339844 169.460938 360.25 C 169.332031 360.203125 168.992188 360.085938 169.316406 360.1875 C 169.078125 360.042969 169.03125 360.019531 169.167969 360.117188 C 169.371094 360.253906 169.519531 360.445312 169.605469 360.691406 L 167.152344 363.910156 C 167.457031 363.878906 167.75 363.871094 168.054688 363.863281 C 168.359375 363.855469 168.34375 363.855469 168.71875 363.941406 C 168.929688 363.992188 169.304688 364.113281 169.414062 364.140625 C 169.875 364.261719 169.535156 364.3125 169.402344 364.042969 L 169.054688 362.757812 L 169.097656 362.496094 L 169.75 361.375 L 169.601562 361.527344 C 169.976562 361.3125 170.351562 361.09375 170.722656 360.875 C 170.878906 360.875 171.03125 360.894531 171.179688 360.925781 C 170.957031 360.878906 170.730469 360.832031 170.507812 360.785156 C 170.171875 360.714844 169.835938 360.644531 169.496094 360.570312 C 168.710938 360.402344 167.921875 360.238281 167.136719 360.066406 C 166.394531 359.910156 165.636719 359.769531 164.894531 359.589844 C 164.675781 359.535156 164.453125 359.484375 164.238281 359.398438 C 164.5 359.507812 164.5 359.5 164.246094 359.363281 C 164.523438 359.515625 164.695312 359.753906 164.78125 360.082031 L 163.003906 363.210938 C 164.304688 362.800781 165.332031 362.769531 166.640625 363.183594 C 166.820312 363.242188 167 363.304688 167.175781 363.371094 C 166.996094 363.304688 167.050781 363.332031 167.335938 363.460938 C 167.503906 363.546875 167.664062 363.640625 167.828125 363.738281 C 168.085938 363.925781 168.132812 363.953125 167.984375 363.8125 C 168.199219 364.035156 168.238281 364.058594 168.09375 363.890625 C 167.785156 362.703125 168.019531 361.957031 168.792969 361.644531 C 168.492188 361.707031 168.492188 361.714844 168.792969 361.664062 C 168.582031 361.683594 168.375 361.691406 168.167969 361.695312 C 166.636719 361.738281 165.433594 361.558594 163.9375 361.070312 C 163.203125 360.835938 162.730469 360.566406 162.015625 360.226562 C 161.761719 360.054688 161.714844 360.03125 161.867188 360.171875 C 161.644531 359.957031 161.613281 359.925781 161.765625 360.074219 C 161.957031 360.382812 162.003906 360.699219 161.898438 361.019531 C 161.648438 361.628906 161.257812 361.980469 160.730469 362.078125 C 161.011719 362.195312 161.628906 362.070312 161.941406 362.085938 C 162.140625 362.09375 162.34375 362.105469 162.542969 362.128906 C 162.867188 362.167969 162.941406 362.171875 162.769531 362.140625 C 163.566406 362.234375 164.359375 362.4375 165.125 362.675781 C 165.785156 362.878906 166.222656 363.046875 166.761719 363.3125 C 167.125 363.488281 167.476562 363.679688 167.828125 363.890625 C 168.132812 364.070312 168.507812 364.441406 168.839844 364.550781 C 168.019531 363.472656 168.023438 362.65625 168.847656 362.089844 C 168.652344 362.21875 168.46875 362.363281 168.296875 362.523438 C 167.820312 363.007812 167.535156 363.679688 167.535156 364.367188 C 167.535156 365.199219 167.929688 365.933594 168.5 366.511719 C 168.769531 366.789062 169.085938 367.023438 169.394531 367.257812 C 169.539062 367.371094 169.675781 367.492188 169.824219 367.597656 C 170.109375 367.808594 170.113281 368.082031 169.707031 367.363281 C 169.589844 366.933594 169.472656 366.507812 169.355469 366.078125 L 169.355469 366.109375 C 169.777344 365.375 170.195312 364.644531 170.617188 363.914062 L 170.59375 363.929688 C 171.023438 363.8125 171.453125 363.699219 171.878906 363.582031 C 170.472656 363.667969 168.90625 363.371094 167.511719 363.179688 C 167.855469 363.222656 167.410156 363.160156 167.371094 363.15625 C 167.195312 363.132812 167.019531 363.105469 166.847656 363.078125 C 166.554688 363.03125 166.261719 362.984375 165.96875 362.929688 C 165.359375 362.816406 164.746094 362.691406 164.144531 362.550781 C 163.199219 362.328125 162.265625 362.066406 161.351562 361.726562 C 161.167969 361.660156 160.988281 361.585938 160.808594 361.519531 C 160.464844 361.394531 161.28125 361.746094 160.714844 361.472656 C 160.386719 361.3125 160.0625 361.152344 159.746094 360.96875 C 159.503906 360.828125 159.28125 360.671875 159.046875 360.519531 C 158.578125 360.203125 159.347656 360.800781 159.144531 360.59375 C 159.054688 360.503906 158.949219 360.421875 158.855469 360.335938 C 158.734375 360.21875 158.585938 359.972656 158.445312 359.890625 C 158.90625 360.140625 158.789062 360.417969 158.617188 360.09375 C 158.570312 360.015625 158.519531 359.929688 158.46875 359.855469 C 158.15625 359.375 158.683594 360.539062 158.519531 359.964844 C 158.335938 359.320312 158.578125 360.625 158.527344 360.160156 C 158.449219 359.460938 158.308594 358.625 157.792969 358.085938 C 157.140625 357.394531 156.371094 360.3125 157.210938 360.320312 C 157.355469 360.320312 157.304688 360.300781 157.191406 360.324219 C 157.636719 360.222656 158.0625 360.039062 158.507812 359.9375 C 159.800781 359.652344 161.628906 359.726562 162.949219 359.957031 C 164.761719 360.273438 166.53125 360.792969 168.285156 361.324219 C 169.597656 361.722656 171.054688 360.847656 171.414062 359.550781 C 171.789062 358.191406 170.957031 356.824219 169.640625 356.421875 Z M 169.640625 356.425781 " fill-opacity="1" fill-rule="nonzero"/><path fill="#ffa59b" d="M 169.457031 367.039062 C 172.363281 367.578125 175.371094 368.132812 178.339844 367.882812 C 181.085938 367.648438 186.226562 366.699219 186.226562 363.082031 C 186.226562 361.199219 184.691406 359.964844 183.25 359.03125 C 182.046875 358.246094 180.699219 357.652344 179.339844 357.199219 C 176.699219 356.320312 173.796875 356.046875 171.027344 356.230469 C 169.414062 356.339844 167.582031 356.457031 166.398438 357.703125 C 164.84375 359.339844 165.046875 361.835938 166.863281 363.15625 C 169.292969 364.921875 172.804688 365.664062 175.757812 365.710938 C 177.394531 365.742188 179.585938 365.746094 180.84375 364.546875 C 182.347656 363.117188 182.273438 360.804688 180.996094 359.269531 C 179.976562 358.042969 178.308594 357.476562 176.8125 357.074219 C 175.25 356.65625 173.585938 356.445312 171.972656 356.484375 C 170.203125 356.53125 168.15625 356.6875 166.777344 357.925781 C 164.910156 359.605469 165.648438 362.265625 167.476562 363.589844 C 170.457031 365.753906 174.582031 365.601562 177.808594 364.167969 C 179.09375 363.59375 179.308594 361.789062 178.722656 360.691406 C 177.648438 358.683594 175.445312 358.457031 173.425781 358.257812 C 172.453125 358.164062 171.480469 358.066406 170.507812 357.972656 C 169.566406 357.882812 168.574219 357.6875 167.632812 357.734375 C 166.25 357.808594 164.976562 358.644531 164.609375 360.027344 C 164.242188 361.414062 164.933594 362.800781 166.101562 363.574219 C 167.886719 364.75 170.316406 364.789062 172.332031 364.359375 C 173.625 364.078125 174.527344 362.480469 174.105469 361.230469 C 172.65625 356.886719 163.878906 356.855469 164.328125 362.285156 C 164.683594 366.636719 169.769531 367.390625 173.203125 367.089844 L 172.523438 362.09375 C 171.71875 362.273438 170.878906 362.265625 170.011719 362.039062 C 169.386719 361.875 169.320312 361.855469 168.808594 361.582031 C 168.566406 361.449219 168.320312 361.308594 168.097656 361.148438 C 168.199219 361.242188 168.1875 361.234375 168.058594 361.117188 C 167.476562 360.558594 167.414062 361.214844 167.867188 363.078125 C 167.972656 363.007812 168.433594 362.640625 167.96875 362.941406 C 168.15625 362.820312 168.347656 362.722656 168.542969 362.617188 C 168.996094 362.371094 168.246094 362.683594 168.804688 362.519531 C 169.035156 362.445312 169.269531 362.363281 169.5 362.292969 C 170.382812 362.027344 171.285156 361.828125 172.152344 361.503906 C 173.441406 361.027344 174.320312 359.785156 173.929688 358.375 C 173.585938 357.136719 172.09375 356.121094 170.796875 356.601562 C 169.34375 357.140625 167.824219 357.417969 166.398438 358.042969 C 164.566406 358.839844 162.691406 360.632812 163.28125 362.828125 C 163.828125 364.890625 166.128906 366.085938 167.988281 366.742188 C 169.875 367.414062 171.933594 367.429688 173.871094 367 C 176.625 366.394531 176.078125 361.75 173.191406 362.007812 C 172.417969 362.078125 171.640625 362.132812 170.871094 362.089844 C 170.699219 362.082031 170.523438 362.074219 170.359375 362.050781 C 170.722656 362.097656 170.320312 362.03125 170.167969 361.996094 C 170.011719 361.957031 169.851562 361.910156 169.691406 361.855469 C 169.34375 361.738281 170.082031 362.132812 169.53125 361.769531 C 169.371094 361.667969 169.234375 361.652344 169.464844 361.746094 L 169.289062 361.574219 L 169.367188 361.699219 C 169.210938 361.386719 169.191406 361.410156 169.3125 361.761719 C 169.4375 362.023438 169.398438 362.269531 169.183594 362.5 C 169.171875 362.734375 169.085938 362.902344 168.914062 363.003906 C 168.875 363.042969 168.828125 363.066406 168.773438 363.078125 C 168.746094 363.226562 168.484375 363.039062 168.914062 363.128906 C 168.769531 363.09375 169.253906 363.226562 169.207031 363.214844 C 169.425781 363.277344 169.652344 363.359375 169.875 363.40625 C 170.019531 363.453125 170.035156 363.460938 169.910156 363.421875 C 169.539062 363.339844 169.300781 363.058594 169.199219 362.582031 L 170.972656 359.453125 C 170.625 359.527344 170.105469 359.582031 169.554688 359.503906 C 169.902344 359.554688 168.992188 359.355469 169.054688 359.367188 L 168.765625 359.277344 C 169.125 359.40625 169.363281 359.691406 169.480469 360.128906 L 169.480469 361.480469 L 169.53125 361.265625 L 168.878906 362.390625 C 167.765625 362.671875 167.503906 362.8125 168.097656 362.816406 C 168.324219 362.835938 168.554688 362.863281 168.78125 362.882812 C 169.128906 362.917969 169.46875 362.949219 169.8125 362.984375 C 170.558594 363.058594 171.300781 363.128906 172.046875 363.203125 C 172.789062 363.277344 173.539062 363.328125 174.277344 363.421875 C 173.765625 363.359375 174.46875 363.472656 174.574219 363.496094 C 175.105469 363.597656 174.441406 363.472656 174.324219 363.253906 C 174.625 362.09375 174.929688 360.933594 175.238281 359.777344 C 175.382812 359.710938 174.726562 359.9375 174.609375 359.972656 C 174.46875 360.007812 174.328125 360.042969 174.1875 360.074219 C 174.171875 360.074219 173.699219 360.15625 173.996094 360.121094 C 173.707031 360.15625 173.410156 360.167969 173.117188 360.160156 C 172.921875 360.160156 172.726562 360.152344 172.53125 360.140625 C 172.480469 360.140625 172.089844 360.078125 172.335938 360.121094 C 171.746094 360.019531 171.082031 359.816406 170.734375 359.628906 C 170.625 359.566406 170.488281 359.460938 170.367188 359.421875 C 169.992188 359.300781 170.402344 359.410156 170.367188 359.421875 L 170.328125 360.507812 C 170.570312 361.058594 170.503906 361.472656 170.128906 361.742188 C 170.140625 361.839844 169.757812 361.804688 170.167969 361.761719 C 171.300781 361.644531 172.734375 361.503906 173.871094 361.644531 C 174.613281 361.738281 175.363281 361.933594 176.078125 362.160156 C 176.382812 362.257812 176.699219 362.351562 176.992188 362.484375 C 176.683594 362.34375 177.085938 362.550781 177.117188 362.566406 C 177.355469 362.738281 177.234375 362.71875 177.230469 362.65625 C 177.179688 362.085938 176.621094 362.34375 176.949219 361.511719 L 177.398438 361.007812 C 177.953125 360.601562 178.050781 360.441406 177.707031 360.53125 C 177.640625 360.496094 177.207031 360.582031 177 360.59375 C 176.273438 360.640625 175.546875 360.632812 174.816406 360.578125 C 173.652344 360.484375 172.1875 360.128906 170.957031 359.609375 C 170.894531 359.585938 170.464844 359.371094 170.289062 359.285156 C 170.148438 359.214844 170.011719 359.128906 169.875 359.066406 C 168.828125 358.621094 171.59375 358.539062 170.25 360.96875 C 170.15625 361.140625 169.933594 361.28125 169.820312 361.429688 C 169.730469 361.550781 169.941406 361.402344 170.03125 361.402344 C 169.660156 361.410156 170.121094 361.390625 170.175781 361.386719 C 170.367188 361.371094 170.554688 361.351562 170.746094 361.335938 C 172.085938 361.234375 173.425781 361.257812 174.765625 361.375 C 174.789062 361.375 175.257812 361.433594 174.941406 361.390625 C 175.128906 361.417969 175.320312 361.449219 175.507812 361.484375 C 175.882812 361.550781 176.257812 361.628906 176.625 361.714844 C 177.359375 361.894531 178.089844 362.113281 178.789062 362.398438 C 178.730469 362.371094 178.5625 362.296875 178.828125 362.417969 C 179.046875 362.511719 179.257812 362.617188 179.464844 362.722656 C 179.761719 362.871094 180.046875 363.03125 180.324219 363.203125 C 180.644531 363.398438 180.972656 363.597656 181.269531 363.832031 C 181.5 364.011719 181.347656 363.878906 181.289062 363.851562 C 181.523438 364.113281 181.539062 364.089844 181.339844 363.785156 C 181.199219 363.457031 181.164062 363.453125 181.234375 363.765625 L 181.234375 362.414062 C 181.347656 362.167969 181.507812 361.96875 181.71875 361.820312 C 181.863281 361.714844 181.824219 361.726562 181.609375 361.867188 C 181.496094 361.910156 181.082031 362.136719 181.101562 362.128906 C 180.765625 362.277344 180.175781 362.453125 179.722656 362.5625 C 178.71875 362.8125 178.097656 362.855469 176.992188 362.859375 C 174.78125 362.867188 172.980469 362.542969 170.820312 362.140625 C 169.46875 361.890625 168.074219 362.511719 167.6875 363.914062 C 167.347656 365.152344 168.109375 366.789062 169.464844 367.042969 Z M 169.457031 367.039062 " fill-opacity="1" fill-rule="nonzero"/><path fill="#e96474" d="M 240.882812 215.066406 C 240.242188 205.703125 227.519531 208.683594 226.140625 216.109375 C 226.238281 211.855469 228.28125 206.710938 223.125 204.796875 C 220.804688 203.929688 217.1875 204.78125 215.449219 208.425781 C 213.21875 213.113281 213.867188 218.679688 216.347656 223.140625 C 217.433594 225.085938 218.71875 226.648438 220.363281 228.136719 C 220.84375 228.574219 223.253906 230.089844 223.253906 230.089844 C 229.691406 229.476562 241.445312 223.246094 240.882812 215.066406 Z M 240.882812 215.066406 " fill-opacity="1" fill-rule="nonzero"/><path fill="#e96474" d="M 243.425781 215.066406 C 243.203125 212.371094 242.273438 209.875 240.03125 208.222656 C 238.285156 206.933594 236.03125 206.492188 233.894531 206.734375 C 229.1875 207.277344 224.660156 210.632812 223.683594 215.4375 C 225.351562 215.660156 227.011719 215.886719 228.679688 216.113281 C 228.765625 213.457031 229.417969 210.859375 228.984375 208.199219 C 228.5 205.265625 226.285156 203.039062 223.453125 202.234375 C 220.695312 201.453125 217.707031 202.3125 215.5625 204.140625 C 212.851562 206.449219 211.757812 210.324219 211.5625 213.761719 C 211.191406 220.363281 214.621094 227.390625 220.117188 231.085938 C 220.71875 231.496094 221.328125 231.949219 221.972656 232.289062 C 223.269531 232.972656 225.039062 232.441406 226.394531 232.101562 C 228.933594 231.457031 231.414062 230.394531 233.683594 229.089844 C 238.703125 226.210938 243.742188 221.316406 243.425781 215.070312 C 243.261719 211.8125 238.171875 211.792969 238.339844 215.070312 C 238.429688 216.855469 238.023438 218.078125 236.953125 219.683594 C 236.054688 221.023438 234.5625 222.410156 233.144531 223.410156 C 231.582031 224.511719 229.691406 225.558594 228.050781 226.214844 C 227.152344 226.570312 226.234375 226.878906 225.300781 227.128906 C 224.914062 227.230469 224.527344 227.324219 224.136719 227.402344 C 223.929688 227.445312 223.726562 227.480469 223.515625 227.519531 C 222.957031 227.613281 223.84375 227.488281 223.25 227.550781 L 224.535156 227.902344 C 224.148438 227.660156 223.765625 227.414062 223.386719 227.164062 C 223.078125 226.960938 222.765625 226.757812 222.460938 226.550781 C 222.300781 226.4375 221.589844 225.789062 222.15625 226.347656 C 220.636719 224.863281 219.335938 223.382812 218.339844 221.488281 C 216.464844 217.929688 215.875 213.246094 217.730469 209.546875 C 218.410156 208.199219 219.398438 207.371094 220.707031 207.089844 C 221.027344 207.03125 221.074219 207.019531 220.851562 207.054688 C 221.03125 207.042969 221.210938 207.035156 221.390625 207.039062 C 221.5625 207.039062 221.738281 207.050781 221.914062 207.066406 C 221.660156 207.039062 221.683594 207.054688 221.984375 207.109375 C 222.59375 207.292969 223.175781 207.597656 223.511719 207.976562 C 223.398438 207.847656 223.820312 208.453125 223.878906 208.59375 C 223.757812 208.308594 224.007812 209.171875 224.027344 209.277344 C 223.972656 208.980469 224.066406 209.898438 224.070312 210.019531 C 224.078125 210.417969 224.0625 210.816406 224.035156 211.210938 C 223.933594 212.851562 223.644531 214.472656 223.585938 216.117188 C 223.492188 218.9375 228.007812 219.636719 228.585938 216.792969 C 228.664062 216.402344 228.761719 216.023438 228.894531 215.648438 C 229.140625 214.964844 228.671875 216.03125 229.011719 215.398438 C 229.105469 215.226562 229.195312 215.058594 229.300781 214.890625 C 229.402344 214.726562 229.507812 214.5625 229.617188 214.40625 C 229.410156 214.695312 229.609375 214.410156 229.726562 214.28125 C 230.019531 213.964844 230.3125 213.660156 230.632812 213.378906 C 230.773438 213.253906 230.871094 213.179688 230.664062 213.339844 C 230.84375 213.195312 231.039062 213.0625 231.234375 212.9375 C 231.5625 212.730469 231.90625 212.550781 232.25 212.371094 C 232.664062 212.152344 232.117188 212.40625 232.382812 212.304688 C 232.5625 212.234375 232.742188 212.171875 232.921875 212.109375 C 233.320312 211.980469 233.71875 211.886719 234.125 211.800781 C 234.53125 211.714844 233.527344 211.839844 234.214844 211.785156 C 234.398438 211.773438 234.578125 211.753906 234.761719 211.75 C 234.945312 211.746094 235.117188 211.75 235.296875 211.75 C 235.308594 211.75 235.960938 211.8125 235.59375 211.761719 C 235.222656 211.714844 235.800781 211.808594 235.871094 211.824219 C 236.070312 211.878906 236.265625 211.9375 236.464844 211.996094 C 236.921875 212.128906 236.257812 211.871094 236.515625 212.011719 C 236.664062 212.09375 236.8125 212.171875 236.960938 212.257812 C 237.023438 212.296875 237.460938 212.636719 237.199219 212.414062 C 236.9375 212.195312 237.359375 212.582031 237.40625 212.632812 C 237.40625 212.632812 237.808594 213.117188 237.617188 212.859375 C 237.425781 212.601562 237.753906 213.09375 237.785156 213.152344 C 237.8125 213.191406 238.121094 213.839844 237.933594 213.382812 C 238.011719 213.574219 238.070312 213.773438 238.128906 213.972656 C 238.269531 214.460938 238.316406 214.824219 238.335938 215.066406 C 238.449219 216.433594 239.425781 217.609375 240.878906 217.609375 C 242.167969 217.609375 243.539062 216.441406 243.421875 215.066406 Z M 243.425781 215.066406 " fill-opacity="1" fill-rule="nonzero"/><path fill="#ffffff" d="M 239.878906 214.464844 C 239.917969 213.957031 239.71875 213.277344 239.4375 212.859375 C 238.988281 212.203125 238.394531 211.71875 237.617188 211.496094 C 237.039062 211.335938 236.515625 211.351562 235.9375 211.46875 C 235.664062 211.527344 235.398438 211.644531 235.152344 211.78125 C 235.101562 211.808594 235.058594 211.839844 235.015625 211.871094 C 234.816406 212.011719 234.585938 212.167969 234.414062 212.347656 C 233.152344 213.660156 233.136719 215.585938 233.425781 217.269531 C 233.734375 219.046875 235.074219 220.753906 237.035156 220.683594 C 238.257812 220.636719 239.472656 219.902344 240.011719 218.785156 C 240.195312 218.40625 240.347656 218.027344 240.410156 217.617188 C 240.476562 217.171875 240.539062 216.726562 240.542969 216.273438 C 240.542969 215.871094 240.480469 215.46875 240.421875 215.070312 C 240.363281 214.671875 240.203125 214.300781 240.023438 213.910156 C 239.871094 213.574219 239.636719 213.257812 239.367188 213.007812 C 239.164062 212.820312 238.917969 212.617188 238.667969 212.480469 C 238.480469 212.382812 238.21875 212.277344 238.019531 212.207031 C 237.957031 212.1875 237.898438 212.167969 237.835938 212.152344 C 237.160156 212.019531 236.488281 212.054688 235.875 212.410156 C 235.347656 212.71875 234.84375 213.324219 234.707031 213.933594 C 234.558594 214.585938 234.589844 215.316406 234.964844 215.894531 C 235.308594 216.425781 235.839844 216.9375 236.484375 217.0625 C 236.546875 217.074219 236.609375 217.089844 236.667969 217.113281 L 236.0625 216.855469 C 236.117188 216.882812 236.167969 216.910156 236.21875 216.949219 L 235.703125 216.550781 C 235.761719 216.59375 235.816406 216.648438 235.867188 216.707031 L 235.46875 216.191406 C 235.535156 216.285156 235.589844 216.375 235.632812 216.480469 L 235.375 215.871094 C 235.445312 216.050781 235.488281 216.234375 235.515625 216.421875 L 235.425781 215.742188 C 235.476562 216.136719 235.464844 216.542969 235.417969 216.941406 L 235.507812 216.261719 C 235.484375 216.457031 235.4375 216.640625 235.363281 216.824219 L 235.621094 216.21875 C 235.574219 216.316406 235.519531 216.402344 235.453125 216.492188 L 235.855469 215.976562 C 235.800781 216.039062 235.742188 216.097656 235.679688 216.152344 L 236.195312 215.75 C 236.128906 215.800781 236.0625 215.84375 235.988281 215.878906 L 236.59375 215.625 C 236.519531 215.652344 236.445312 215.671875 236.367188 215.683594 L 237.042969 215.59375 C 236.980469 215.597656 236.925781 215.59375 236.863281 215.59375 L 237.542969 215.683594 C 237.488281 215.671875 237.4375 215.660156 237.382812 215.644531 L 237.992188 215.902344 C 237.925781 215.871094 237.867188 215.839844 237.804688 215.796875 L 238.320312 216.195312 C 238.25 216.136719 238.1875 216.074219 238.128906 216 L 238.527344 216.515625 C 238.433594 216.390625 238.359375 216.257812 238.300781 216.113281 L 238.558594 216.71875 C 238.4375 216.417969 238.371094 216.09375 238.324219 215.769531 L 238.414062 216.445312 C 238.351562 215.992188 238.347656 215.535156 238.402344 215.078125 L 238.3125 215.757812 C 238.339844 215.550781 238.386719 215.359375 238.460938 215.171875 L 238.203125 215.777344 C 238.242188 215.683594 238.289062 215.601562 238.347656 215.523438 L 237.949219 216.039062 C 238 215.976562 238.046875 215.921875 238.109375 215.871094 L 237.59375 216.269531 C 237.652344 216.230469 237.707031 216.191406 237.773438 216.164062 L 237.167969 216.421875 C 237.214844 216.402344 237.253906 216.394531 237.304688 216.386719 L 236.628906 216.480469 C 236.6875 216.46875 236.75 216.46875 236.8125 216.480469 L 236.136719 216.386719 C 236.199219 216.394531 236.257812 216.414062 236.320312 216.433594 L 235.710938 216.175781 C 235.769531 216.199219 235.820312 216.230469 235.871094 216.261719 L 235.355469 215.863281 C 235.386719 215.894531 235.421875 215.921875 235.449219 215.957031 L 235.050781 215.441406 C 235.078125 215.476562 235.097656 215.507812 235.117188 215.546875 L 234.859375 214.941406 C 234.878906 214.984375 234.886719 215.019531 234.890625 215.066406 L 234.796875 214.390625 C 234.796875 214.417969 234.796875 214.445312 234.796875 214.480469 C 234.75 215.097656 235.117188 215.855469 235.542969 216.28125 C 235.964844 216.703125 236.707031 217.050781 237.34375 217.023438 C 237.976562 216.996094 238.679688 216.777344 239.140625 216.28125 L 239.539062 215.765625 C 239.769531 215.371094 239.886719 214.941406 239.890625 214.480469 Z M 239.878906 214.464844 " fill-opacity="1" fill-rule="nonzero"/><path fill="#ffa59b" d="M 182.132812 357.136719 C 181.316406 355.675781 180.5625 354.070312 179.367188 352.871094 C 178.640625 352.148438 177.734375 351.585938 176.746094 351.304688 C 176.265625 351.167969 175.726562 351.082031 175.226562 351.109375 C 174.449219 351.148438 173.878906 351.339844 173.175781 351.640625 L 172.660156 352.039062 C 172.410156 352.269531 172.238281 352.542969 172.132812 352.859375 C 171.933594 353.332031 171.796875 354.019531 172.003906 354.511719 C 172.351562 355.335938 172.71875 356.042969 173.375 356.675781 C 173.878906 357.15625 174.46875 357.574219 175.078125 357.914062 C 176.0625 358.460938 177.101562 358.875 177.996094 359.5625 L 177.484375 359.164062 C 178.011719 359.582031 178.480469 360.054688 178.890625 360.585938 L 178.492188 360.070312 C 178.75 360.410156 178.96875 360.769531 179.140625 361.160156 L 178.882812 360.550781 C 178.957031 360.753906 179.015625 360.945312 179.054688 361.15625 L 178.960938 360.476562 C 178.984375 360.644531 178.988281 360.796875 178.980469 360.964844 L 179.070312 360.285156 C 179.054688 360.410156 179.027344 360.527344 178.996094 360.648438 C 178.628906 361.929688 179.445312 363.472656 180.769531 363.777344 C 182.128906 364.085938 183.503906 363.371094 183.898438 362.003906 C 184.601562 359.554688 182.980469 357.082031 181.132812 355.609375 C 180.371094 355 179.59375 354.507812 178.726562 354.074219 C 178.078125 353.75 177.421875 353.433594 176.835938 353.003906 L 177.347656 353.402344 C 177.085938 353.203125 176.855469 352.980469 176.648438 352.726562 L 177.046875 353.238281 C 176.90625 353.054688 176.789062 352.863281 176.691406 352.648438 L 176.949219 353.257812 L 176.914062 353.164062 C 176.523438 354.121094 176.132812 355.082031 175.746094 356.035156 L 175.847656 355.992188 L 175.242188 356.25 C 175.386719 356.199219 175.527344 356.160156 175.679688 356.132812 L 175 356.222656 C 175.230469 356.195312 175.449219 356.195312 175.679688 356.222656 C 175.453125 356.195312 175.230469 356.160156 175 356.132812 C 175.269531 356.171875 175.523438 356.25 175.777344 356.351562 L 175.171875 356.09375 C 175.421875 356.207031 175.648438 356.34375 175.875 356.503906 L 175.359375 356.105469 C 175.683594 356.363281 175.960938 356.660156 176.21875 356.984375 L 175.820312 356.46875 C 176.578125 357.464844 177.132812 358.621094 177.746094 359.710938 C 178.398438 360.867188 180.085938 361.359375 181.222656 360.625 C 182.398438 359.867188 182.832031 358.386719 182.136719 357.144531 Z M 182.132812 357.136719 " fill-opacity="1" fill-rule="nonzero"/><path fill="#ffa59b" d="M 159.285156 359.085938 C 162.070312 358.214844 164.859375 357.339844 167.644531 356.46875 C 168.859375 356.085938 169.636719 354.949219 169.464844 353.679688 C 169.3125 352.546875 168.226562 351.332031 166.964844 351.472656 C 165.023438 351.695312 163.1875 352.226562 161.492188 353.222656 C 159.796875 354.21875 158.449219 355.546875 157.328125 357.125 C 156.964844 357.636719 156.910156 358.503906 157.070312 359.085938 C 157.226562 359.667969 157.6875 360.316406 158.238281 360.605469 C 159.546875 361.300781 160.894531 360.855469 161.714844 359.691406 C 161.734375 359.667969 161.949219 359.402344 161.945312 359.378906 C 161.960938 359.4375 161.519531 359.914062 161.828125 359.542969 C 161.976562 359.359375 162.136719 359.1875 162.300781 359.015625 C 162.46875 358.84375 162.636719 358.679688 162.808594 358.519531 C 162.859375 358.476562 163.359375 358.101562 163.351562 358.058594 C 163.359375 358.09375 162.792969 358.476562 163.195312 358.183594 C 163.285156 358.121094 163.371094 358.058594 163.457031 357.996094 C 163.671875 357.851562 163.890625 357.714844 164.109375 357.585938 C 164.523438 357.347656 164.945312 357.140625 165.382812 356.953125 C 165.179688 357.042969 164.980469 357.125 164.777344 357.210938 C 165.617188 356.867188 166.484375 356.628906 167.382812 356.5 L 166.703125 356.59375 C 166.792969 356.582031 166.875 356.570312 166.960938 356.5625 L 166.285156 351.570312 C 163.5 352.441406 160.710938 353.316406 157.925781 354.1875 C 156.65625 354.585938 155.714844 355.976562 156.152344 357.316406 C 156.585938 358.652344 157.921875 359.519531 159.28125 359.089844 Z M 159.285156 359.085938 " fill-opacity="1" fill-rule="nonzero"/><path fill="#e96474" d="M 166.871094 357.9375 C 168.820312 360.015625 171.0625 361.964844 173.585938 363.308594 C 173.722656 363.378906 173.855469 363.441406 173.984375 363.515625 C 174.035156 363.542969 174.089844 363.578125 174.140625 363.609375 C 173.960938 363.460938 173.945312 363.449219 174.078125 363.570312 C 173.941406 363.375 173.921875 363.351562 174.011719 363.503906 C 173.941406 363.40625 173.902344 363.300781 173.902344 363.183594 C 173.890625 363.027344 173.886719 363.023438 173.894531 363.175781 C 173.882812 363.359375 173.894531 363.324219 173.917969 363.058594 C 173.863281 363.230469 173.878906 363.203125 173.972656 362.976562 C 173.941406 363.046875 173.902344 363.109375 173.863281 363.175781 L 173.988281 363.007812 C 173.863281 363.128906 173.882812 363.121094 174.058594 362.984375 C 173.992188 363.03125 173.921875 363.074219 173.84375 363.117188 C 173.675781 363.199219 173.695312 363.191406 173.90625 363.097656 C 173.90625 363.113281 173.554688 363.199219 173.542969 363.203125 C 173.351562 363.238281 173.375 363.238281 173.613281 363.203125 C 173.53125 363.210938 173.441406 363.214844 173.359375 363.21875 C 173.226562 363.222656 173.089844 363.222656 172.957031 363.21875 C 172.863281 363.21875 172.773438 363.210938 172.683594 363.203125 C 172.484375 363.183594 172.5 363.183594 172.722656 363.210938 C 172.605469 363.222656 172.4375 363.15625 172.320312 363.125 C 172.140625 363.078125 171.972656 363.015625 171.792969 362.960938 C 171.425781 362.851562 172 363.085938 171.6875 362.921875 C 171.527344 362.832031 171.359375 362.753906 171.203125 362.660156 C 171.136719 362.617188 170.660156 362.273438 170.980469 362.527344 C 170.613281 362.234375 170.269531 362.027344 169.78125 362.027344 C 169.363281 362.027344 168.867188 362.210938 168.578125 362.527344 C 168.019531 363.136719 167.835938 364.335938 168.578125 364.921875 C 169.832031 365.902344 171.214844 366.5 172.816406 366.601562 C 174.332031 366.703125 176.050781 366.1875 176.847656 364.789062 C 177.257812 364.070312 177.386719 363.210938 177.183594 362.40625 C 176.980469 361.597656 176.324219 360.929688 175.582031 360.53125 C 175.027344 360.234375 174.472656 359.929688 173.941406 359.582031 C 173.675781 359.40625 173.410156 359.226562 173.152344 359.039062 C 173.03125 358.953125 172.910156 358.867188 172.789062 358.777344 C 172.753906 358.75 172.503906 358.5625 172.664062 358.6875 C 172.808594 358.800781 172.566406 358.609375 172.539062 358.589844 C 171.371094 357.664062 170.285156 356.636719 169.261719 355.550781 C 168.652344 354.902344 167.46875 354.890625 166.863281 355.550781 C 166.226562 356.242188 166.214844 357.257812 166.863281 357.949219 Z M 166.871094 357.9375 " fill-opacity="1" fill-rule="nonzero"/><path fill="#e96474" d="M 174.457031 366.605469 C 174.457031 366.605469 174.488281 366.605469 174.507812 366.605469 L 174.058594 366.542969 C 174.082031 366.546875 174.105469 366.554688 174.132812 366.566406 L 173.730469 366.394531 C 173.765625 366.410156 173.796875 366.429688 173.828125 366.453125 L 173.484375 366.1875 C 173.535156 366.222656 173.574219 366.269531 173.613281 366.320312 L 173.347656 365.972656 C 173.417969 366.066406 173.472656 366.167969 173.511719 366.273438 L 173.34375 365.871094 C 173.414062 366.035156 173.457031 366.214844 173.480469 366.394531 L 173.417969 365.945312 C 173.4375 366.121094 173.441406 366.289062 173.417969 366.464844 L 173.480469 366.015625 C 173.464844 366.136719 173.429688 366.253906 173.382812 366.363281 L 173.554688 365.960938 C 173.515625 366.050781 173.472656 366.132812 173.414062 366.210938 L 173.679688 365.867188 C 173.625 365.9375 173.5625 366 173.492188 366.054688 L 173.835938 365.789062 C 173.796875 365.816406 173.753906 365.847656 173.707031 365.871094 C 173.34375 366.074219 173.039062 366.480469 172.925781 366.882812 C 172.855469 367.109375 172.847656 367.332031 172.898438 367.5625 C 172.90625 367.785156 172.976562 367.996094 173.097656 368.191406 C 173.328125 368.554688 173.382812 368.355469 174.289062 368.289062 C 174.75 368.253906 175.578125 368.109375 175.992188 367.882812 C 176.90625 367.371094 176.800781 367.289062 176.828125 366.269531 C 176.839844 366.011719 176.789062 365.75 176.75 365.496094 C 176.734375 365.382812 176.714844 365.277344 176.679688 365.164062 C 176.609375 364.933594 176.511719 364.703125 176.40625 364.488281 C 176.300781 364.269531 176.152344 364.101562 176.007812 363.921875 C 175.976562 363.882812 175.949219 363.851562 175.914062 363.816406 C 175.804688 363.710938 175.660156 363.609375 175.539062 363.523438 C 175.519531 363.511719 175.503906 363.5 175.488281 363.488281 C 175.46875 363.480469 175.453125 363.472656 175.4375 363.464844 C 175.304688 363.398438 175.140625 363.324219 175 363.28125 C 174.914062 363.257812 174.808594 363.253906 174.730469 363.242188 C 174.660156 363.234375 174.542969 363.207031 174.453125 363.207031 C 174.007812 363.21875 173.570312 363.386719 173.25 363.707031 C 173.085938 363.859375 172.96875 364.042969 172.902344 364.25 C 172.792969 364.453125 172.75 364.671875 172.757812 364.902344 C 172.777344 365.34375 172.917969 365.796875 173.253906 366.101562 C 173.59375 366.410156 174 366.613281 174.457031 366.601562 Z M 174.457031 366.605469 " fill-opacity="1" fill-rule="nonzero"/></svg>