<svg xmlns="http://www.w3.org/2000/svg" xmlns:xlink="http://www.w3.org/1999/xlink" width="500" zoomAndPan="magnify" viewBox="0 0 375 374.999991" height="500" preserveAspectRatio="xMidYMid meet" version="1.0"><defs><clipPath id="1bf1f6bfda"><path d="M 68 172 L 341 172 L 341 374.960938 L 68 374.960938 Z M 68 172 " clip-rule="nonzero"/></clipPath><clipPath id="49812fbb65"><path d="M 89 297 L 329 297 L 329 374.960938 L 89 374.960938 Z M 89 297 " clip-rule="nonzero"/></clipPath><clipPath id="d3eaf44c2b"><path d="M 150 302 L 186 302 L 186 374.960938 L 150 374.960938 Z M 150 302 " clip-rule="nonzero"/></clipPath><clipPath id="430ce5ef1c"><path d="M 136 362 L 222 362 L 222 374.960938 L 136 374.960938 Z M 136 362 " clip-rule="nonzero"/></clipPath></defs><g clip-path="url(#1bf1f6bfda)"><path fill="#ffcfca" d="M 79.875 335.074219 C 86.574219 342.675781 92.46875 346.535156 102.304688 348.992188 C 109.34375 350.753906 125.339844 348.585938 127.761719 345.777344 C 129.644531 357.625 135.820312 369.128906 145.917969 375.601562 C 156.015625 382.070312 170.167969 382.570312 179.675781 375.261719 C 180.660156 374.503906 181.660156 373.640625 182.890625 373.453125 C 185.15625 373.097656 187.023438 375.085938 188.609375 376.734375 C 196.289062 384.699219 207.960938 388.601562 218.890625 386.855469 C 229.8125 385.101562 239.6875 377.742188 244.484375 367.773438 C 247.433594 373.957031 253.777344 378.386719 260.601562 379.023438 C 267.421875 379.65625 274.476562 376.484375 278.523438 370.953125 C 279.332031 369.851562 280.074219 368.613281 281.296875 368 C 282.734375 367.28125 284.449219 367.601562 286.039062 367.839844 C 305.324219 370.757812 324.699219 357.898438 333.414062 340.453125 C 336.25 334.78125 338.1875 328.425781 337.4375 322.128906 C 336.824219 316.96875 334.125 311.886719 329.894531 309.015625 C 328.605469 308.136719 328.519531 306.316406 329.695312 305.289062 C 337.207031 298.75 341.226562 288.277344 339.742188 278.394531 C 338.152344 267.851562 330.378906 258.503906 320.367188 254.902344 C 319.679688 254.652344 319.46875 253.828125 319.949219 253.277344 C 327.839844 244.289062 329.273438 230.085938 323.128906 219.777344 C 317.105469 209.675781 304.339844 204.191406 292.847656 206.480469 C 291.726562 206.707031 290.648438 205.875 290.550781 204.734375 C 289.855469 196.613281 285.351562 188.855469 278.558594 184.328125 C 271.65625 179.730469 262.589844 178.589844 254.746094 181.234375 C 253.628906 181.609375 252.414062 181.507812 251.441406 180.84375 C 249.839844 179.75 247.246094 178.046875 244.941406 176.882812 C 234.3125 171.519531 213.230469 170.265625 201.070312 180.761719 C 199.566406 182.058594 197.429688 182.308594 195.757812 181.253906 C 183.179688 173.324219 167.171875 170.953125 152.859375 175.039062 C 137.4375 179.445312 124.3125 191.253906 118.320312 206.125 C 117.464844 208.246094 116.742188 210.546875 116.703125 212.804688 C 116.667969 214.535156 115.402344 215.964844 113.679688 216.046875 C 103.980469 216.523438 94.429688 220.773438 88.144531 228.148438 C 81.101562 236.414062 78.625 248.566406 82.636719 258.660156 C 68.550781 268.878906 64.464844 290.550781 73.867188 305.191406 C 73.867188 305.191406 70.113281 324.019531 79.867188 335.078125 Z M 79.875 335.074219 " fill-opacity="1" fill-rule="nonzero"/></g><path fill="#ffa59b" d="M 97.058594 272.941406 C 97.058594 272.941406 95.757812 268.117188 104.710938 266.632812 C 113.660156 265.148438 124.078125 266.902344 121.007812 273.960938 C 117.9375 281.019531 95.625 280.699219 97.058594 272.941406 Z M 97.058594 272.941406 " fill-opacity="1" fill-rule="nonzero"/><path fill="#ffa59b" d="M 207.851562 292.488281 C 207.851562 292.488281 206.550781 287.664062 215.503906 286.179688 C 224.453125 284.695312 234.871094 286.449219 231.800781 293.507812 C 228.730469 300.566406 206.421875 300.246094 207.851562 292.488281 Z M 207.851562 292.488281 " fill-opacity="1" fill-rule="nonzero"/><path fill="#ffa59b" d="M 262.160156 239.703125 C 270.394531 241.179688 275.398438 249.003906 272.90625 257.089844 C 271.679688 261.066406 277.160156 262.941406 279.320312 259.792969 C 282.316406 255.425781 288.546875 259.382812 291.152344 261.953125 C 294.6875 265.4375 298.527344 270.910156 295.222656 275.773438 C 292.671875 279.515625 298.75 283.027344 301.277344 279.3125 C 311.371094 264.492188 284.511719 239.855469 273.265625 256.253906 C 275.40625 257.152344 277.542969 258.050781 279.679688 258.957031 C 283.222656 247.484375 275.9375 235.082031 264.035156 232.945312 C 262.171875 232.613281 260.253906 233.449219 259.71875 235.394531 C 259.257812 237.089844 260.292969 239.371094 262.167969 239.707031 Z M 262.160156 239.703125 " fill-opacity="1" fill-rule="nonzero"/><path fill="#ffa59b" d="M 231.789062 351.851562 L 230.496094 351.632812 C 226.019531 350.878906 224.414062 356.746094 228.632812 358.398438 C 242.96875 364.019531 260.148438 360.226562 271.027344 349.421875 C 274.234375 346.234375 269.273438 341.277344 266.0625 344.460938 C 256.808594 353.652344 242.582031 356.367188 230.496094 351.628906 C 229.875 353.882812 229.25 356.140625 228.632812 358.390625 L 229.925781 358.609375 C 231.796875 358.925781 233.703125 358.117188 234.242188 356.160156 C 234.707031 354.476562 233.667969 352.160156 231.796875 351.847656 Z M 231.789062 351.851562 " fill-opacity="1" fill-rule="nonzero"/><path fill="#ffa59b" d="M 130.484375 220.453125 C 130.507812 220.378906 130.625 219.824219 130.714844 219.789062 C 130.507812 220.257812 130.484375 220.320312 130.640625 219.972656 L 130.742188 219.753906 C 130.960938 219.3125 131.207031 218.882812 131.484375 218.476562 C 131.621094 218.265625 131.769531 218.058594 131.917969 217.851562 C 132.417969 217.148438 131.429688 218.402344 132.011719 217.742188 C 132.363281 217.339844 132.71875 216.933594 133.097656 216.550781 C 133.476562 216.167969 133.902344 215.769531 134.320312 215.40625 C 134.53125 215.214844 134.75 215.03125 134.972656 214.855469 C 135.042969 214.796875 135.671875 214.308594 135.300781 214.589844 C 134.945312 214.859375 135.683594 214.316406 135.761719 214.253906 C 136.003906 214.082031 136.246094 213.914062 136.492188 213.75 C 136.984375 213.414062 137.484375 213.09375 137.992188 212.785156 C 138.972656 212.191406 139.976562 211.640625 141 211.128906 C 141.527344 210.867188 142.0625 210.613281 142.605469 210.371094 C 142.703125 210.328125 143.609375 209.960938 142.835938 210.269531 C 143.097656 210.167969 143.363281 210.050781 143.632812 209.949219 C 145.550781 209.203125 147.527344 208.597656 149.550781 208.230469 C 151.363281 207.902344 152.546875 205.605469 151.996094 203.914062 C 151.367188 201.972656 149.625 201.117188 147.683594 201.46875 C 142.851562 202.332031 138.074219 204.4375 133.941406 207.042969 C 129.570312 209.800781 125.332031 213.519531 123.71875 218.597656 C 123.160156 220.34375 124.371094 222.5 126.164062 222.910156 C 128.078125 223.347656 129.882812 222.332031 130.480469 220.464844 Z M 130.484375 220.453125 " fill-opacity="1" fill-rule="nonzero"/><path fill="#000000" d="M 148.191406 287.59375 C 159.125 295.839844 174.84375 297.027344 186.792969 290.230469 C 188.433594 289.296875 189.371094 287.4375 188.546875 285.605469 C 187.824219 284.007812 185.574219 282.910156 183.921875 283.851562 C 174.054688 289.46875 161.441406 288.824219 152.339844 281.960938 C 148.738281 279.246094 144.601562 284.882812 148.191406 287.59375 Z M 148.191406 287.59375 " fill-opacity="1" fill-rule="nonzero"/><path fill="#000000" d="M 136.828125 250.316406 C 134.863281 249.296875 132.324219 250.4375 131.082031 252.265625 C 129.839844 254.09375 129.574219 256.402344 129.414062 258.609375 C 129.28125 260.429688 129.214844 262.339844 129.964844 264.011719 C 130.714844 265.679688 132.542969 267.007812 134.324219 266.578125 C 136.824219 265.984375 137.460938 262.78125 137.597656 260.21875 C 137.664062 258.929688 137.734375 257.640625 137.804688 256.351562 C 137.882812 254.816406 137.953125 253.199219 137.289062 251.8125 C 136.621094 250.425781 134.957031 249.386719 133.523438 249.960938 " fill-opacity="1" fill-rule="nonzero"/><path fill="#000000" d="M 138.59375 247.296875 C 136.214844 246.160156 133.859375 246.253906 131.5 247.382812 C 129.527344 248.320312 128.0625 250.136719 127.230469 252.117188 C 126.355469 254.191406 126.078125 256.375 125.917969 258.609375 C 125.746094 260.980469 125.871094 263.300781 126.835938 265.507812 C 128.761719 269.921875 134.699219 271.792969 138.308594 268.195312 C 141.136719 265.375 141.046875 261.007812 141.246094 257.3125 C 141.386719 254.722656 141.535156 251.925781 140.078125 249.640625 C 138.535156 247.214844 135.453125 245.605469 132.59375 246.585938 C 130.871094 247.179688 129.546875 249.007812 130.152344 250.890625 C 130.710938 252.597656 132.601562 253.972656 134.457031 253.332031 C 134.761719 253.226562 134.863281 253.3125 134.183594 253.300781 C 134.34375 253.300781 134.601562 253.363281 134.160156 253.253906 C 133.609375 253.117188 134.101562 253.277344 134.238281 253.300781 C 134.589844 253.359375 133.945312 253.222656 133.929688 253.167969 C 133.941406 253.210938 134.320312 253.347656 134.324219 253.417969 L 134.152344 253.289062 C 133.925781 253.113281 133.925781 253.125 134.152344 253.332031 C 134.214844 253.46875 134.296875 253.691406 134.175781 253.339844 C 133.992188 252.792969 134.273438 253.53125 134.273438 253.582031 C 134.273438 253.535156 134.0625 252.832031 134.222656 253.546875 C 134.25 253.679688 134.277344 253.835938 134.324219 253.964844 C 134.492188 254.441406 134.308594 253.382812 134.324219 253.886719 C 134.324219 254.03125 134.347656 254.171875 134.355469 254.320312 C 134.386719 255.105469 134.335938 255.898438 134.296875 256.683594 C 134.214844 258.144531 134.1875 259.617188 134.039062 261.078125 C 134.027344 261.1875 134.011719 261.296875 134.003906 261.40625 C 133.976562 261.867188 134.148438 260.671875 134.039062 261.128906 C 133.980469 261.375 133.945312 261.632812 133.890625 261.886719 C 133.832031 262.136719 133.769531 262.378906 133.6875 262.621094 C 133.65625 262.722656 133.621094 262.820312 133.585938 262.921875 C 133.390625 263.570312 133.867188 262.464844 133.65625 262.761719 C 133.601562 262.835938 133.300781 263.273438 133.304688 263.375 C 133.289062 263.050781 133.808594 262.824219 133.492188 263.128906 C 133.449219 263.167969 133.226562 263.375 133.226562 263.398438 C 133.226562 263.417969 133.84375 262.941406 133.550781 263.140625 C 133.414062 263.238281 133.042969 263.371094 133.546875 263.191406 C 134.148438 262.988281 133.65625 263.164062 133.589844 263.164062 C 132.882812 263.148438 134.210938 263.226562 133.742188 263.167969 C 133.609375 263.152344 133.074219 263.160156 133.632812 263.191406 C 134.160156 263.226562 133.746094 263.164062 133.644531 263.164062 C 133.195312 263.140625 133.671875 262.832031 133.828125 263.25 C 133.816406 263.214844 133.558594 263.089844 133.515625 263.074219 C 133.109375 262.890625 133.964844 263.515625 133.648438 263.1875 C 133.570312 263.101562 133.472656 263.015625 133.386719 262.941406 C 132.882812 262.492188 133.449219 263.082031 133.460938 263.089844 C 133.328125 263.019531 133.203125 262.699219 133.140625 262.578125 C 133.097656 262.511719 132.976562 262.339844 132.976562 262.257812 C 133.023438 262.363281 133.070312 262.460938 133.121094 262.5625 L 133.035156 262.289062 C 133 262.109375 132.9375 261.910156 132.898438 261.730469 C 132.882812 261.664062 132.796875 261.179688 132.871094 261.628906 C 132.949219 262.105469 132.871094 261.496094 132.859375 261.375 C 132.847656 261.234375 132.839844 261.089844 132.835938 260.941406 C 132.824219 260.550781 132.828125 260.160156 132.847656 259.777344 C 132.875 259.066406 132.925781 258.355469 132.996094 257.644531 C 133.007812 257.507812 133.023438 257.363281 133.035156 257.226562 C 133.097656 256.554688 133.019531 257.214844 133.019531 257.324219 C 133.03125 256.964844 133.140625 256.578125 133.21875 256.230469 C 133.3125 255.828125 133.417969 255.425781 133.558594 255.039062 C 133.589844 254.929688 133.632812 254.738281 133.699219 254.652344 C 133.277344 255.199219 133.636719 254.835938 133.753906 254.625 C 133.820312 254.503906 133.894531 254.390625 133.957031 254.269531 C 134.355469 253.546875 133.644531 254.5625 133.914062 254.292969 C 134.019531 254.183594 134.117188 254.0625 134.226562 253.953125 C 134.496094 253.691406 134.691406 253.765625 134.140625 253.972656 C 134.40625 253.875 134.691406 253.628906 134.933594 253.484375 C 135.316406 253.261719 135.058594 253.632812 134.730469 253.570312 C 134.824219 253.589844 135.074219 253.472656 135.167969 253.445312 C 135.78125 253.253906 134.949219 253.53125 134.898438 253.460938 C 134.921875 253.496094 135.40625 253.460938 135.449219 253.460938 C 135.792969 253.417969 135.109375 253.449219 135.0625 253.410156 C 135.171875 253.433594 135.28125 253.460938 135.386719 253.496094 C 135.636719 253.582031 135.527344 253.535156 135.070312 253.359375 C 136.714844 254.144531 138.921875 253.867188 139.855469 252.105469 C 140.679688 250.546875 140.363281 248.160156 138.601562 247.320312 Z M 138.59375 247.296875 " fill-opacity="1" fill-rule="nonzero"/><path fill="#000000" d="M 207.675781 265.667969 C 205.710938 264.648438 203.171875 265.789062 201.929688 267.617188 C 200.683594 269.445312 200.421875 271.753906 200.261719 273.960938 C 200.128906 275.78125 200.058594 277.691406 200.8125 279.363281 C 201.5625 281.03125 203.390625 282.363281 205.171875 281.933594 C 207.671875 281.335938 208.304688 278.132812 208.445312 275.570312 C 208.511719 274.28125 208.582031 272.992188 208.648438 271.703125 C 208.730469 270.167969 208.800781 268.550781 208.132812 267.164062 C 207.46875 265.777344 205.800781 264.738281 204.371094 265.3125 " fill-opacity="1" fill-rule="nonzero"/><path fill="#000000" d="M 209.441406 262.652344 C 207.0625 261.519531 204.707031 261.609375 202.347656 262.738281 C 200.375 263.679688 198.90625 265.496094 198.078125 267.472656 C 197.246094 269.449219 196.925781 271.730469 196.765625 273.964844 C 196.59375 276.339844 196.71875 278.660156 197.683594 280.867188 C 199.605469 285.277344 205.542969 287.152344 209.152344 283.554688 C 211.984375 280.734375 211.894531 276.367188 212.09375 272.671875 C 212.230469 270.082031 212.378906 267.285156 210.925781 264.996094 C 209.382812 262.574219 206.300781 260.964844 203.441406 261.945312 C 201.714844 262.539062 200.390625 264.367188 201 266.246094 C 201.554688 267.953125 203.445312 269.332031 205.304688 268.6875 C 205.605469 268.585938 205.710938 268.671875 205.027344 268.660156 C 205.1875 268.660156 205.445312 268.722656 205.003906 268.613281 C 204.457031 268.476562 204.949219 268.636719 205.085938 268.660156 C 205.433594 268.71875 204.792969 268.578125 204.777344 268.527344 C 204.789062 268.566406 205.164062 268.707031 205.171875 268.773438 L 205 268.648438 C 204.769531 268.472656 204.769531 268.480469 205 268.6875 C 205.0625 268.824219 205.144531 269.050781 205.023438 268.699219 C 204.839844 268.148438 205.121094 268.890625 205.121094 268.941406 C 205.121094 268.894531 204.90625 268.191406 205.066406 268.90625 C 205.097656 269.039062 205.125 269.191406 205.171875 269.324219 C 205.335938 269.800781 205.15625 268.738281 205.171875 269.246094 C 205.171875 269.386719 205.195312 269.53125 205.199219 269.679688 C 205.234375 270.464844 205.183594 271.253906 205.144531 272.039062 C 205.0625 273.503906 205.035156 274.976562 204.886719 276.4375 C 204.875 276.546875 204.855469 276.652344 204.851562 276.761719 C 204.820312 277.226562 204.992188 276.03125 204.886719 276.488281 C 204.828125 276.734375 204.792969 276.992188 204.734375 277.246094 C 204.679688 277.496094 204.617188 277.738281 204.535156 277.976562 C 204.5 278.082031 204.464844 278.179688 204.433594 278.28125 C 204.238281 278.929688 204.714844 277.824219 204.5 278.121094 C 204.449219 278.195312 204.144531 278.632812 204.152344 278.734375 C 204.132812 278.40625 204.65625 278.183594 204.339844 278.488281 C 204.292969 278.527344 204.070312 278.734375 204.070312 278.757812 C 204.070312 278.773438 204.691406 278.300781 204.398438 278.5 C 204.261719 278.597656 203.886719 278.730469 204.390625 278.550781 C 204.992188 278.34375 204.5 278.523438 204.4375 278.523438 C 203.726562 278.503906 205.058594 278.585938 204.585938 278.527344 C 204.457031 278.511719 203.921875 278.515625 204.476562 278.550781 C 205.003906 278.585938 204.59375 278.523438 204.488281 278.523438 C 204.042969 278.5 204.519531 278.191406 204.671875 278.609375 C 204.660156 278.574219 204.402344 278.449219 204.363281 278.429688 C 203.957031 278.246094 204.808594 278.871094 204.496094 278.546875 C 204.414062 278.460938 204.316406 278.375 204.230469 278.300781 C 203.726562 277.851562 204.292969 278.441406 204.304688 278.449219 C 204.175781 278.378906 204.046875 278.058594 203.984375 277.9375 C 203.945312 277.867188 203.824219 277.695312 203.824219 277.617188 L 203.96875 277.921875 L 203.882812 277.644531 C 203.847656 277.46875 203.785156 277.265625 203.746094 277.089844 C 203.726562 277.019531 203.640625 276.539062 203.714844 276.988281 C 203.796875 277.460938 203.714844 276.855469 203.703125 276.734375 C 203.691406 276.589844 203.6875 276.449219 203.679688 276.300781 C 203.671875 275.910156 203.675781 275.519531 203.691406 275.136719 C 203.722656 274.425781 203.773438 273.714844 203.84375 273.003906 C 203.851562 272.867188 203.871094 272.722656 203.882812 272.585938 C 203.945312 271.914062 203.863281 272.574219 203.863281 272.683594 C 203.875 272.320312 203.984375 271.9375 204.066406 271.589844 C 204.15625 271.1875 204.265625 270.785156 204.402344 270.394531 C 204.4375 270.289062 204.476562 270.097656 204.546875 270.011719 C 204.121094 270.558594 204.484375 270.195312 204.597656 269.984375 C 204.667969 269.863281 204.742188 269.75 204.804688 269.628906 C 205.199219 268.90625 204.488281 269.921875 204.757812 269.652344 C 204.867188 269.542969 204.964844 269.421875 205.074219 269.3125 C 205.34375 269.050781 205.539062 269.125 204.988281 269.332031 C 205.25 269.234375 205.539062 268.988281 205.777344 268.84375 C 206.164062 268.621094 205.90625 268.992188 205.578125 268.929688 C 205.671875 268.945312 205.921875 268.832031 206.015625 268.804688 C 206.628906 268.613281 205.796875 268.890625 205.746094 268.820312 C 205.765625 268.855469 206.253906 268.820312 206.292969 268.820312 C 206.636719 268.773438 205.957031 268.808594 205.910156 268.769531 C 206.019531 268.792969 206.128906 268.820312 206.230469 268.855469 C 206.484375 268.941406 206.375 268.894531 205.917969 268.71875 C 207.5625 269.503906 209.765625 269.226562 210.703125 267.460938 C 211.527344 265.902344 211.210938 263.519531 209.445312 262.675781 Z M 209.441406 262.652344 " fill-opacity="1" fill-rule="nonzero"/><path fill="#ffa59b" d="M 168.472656 237.617188 C 169.746094 225.914062 178.738281 215.816406 189.996094 212.738281 C 192.3125 212.109375 193.070312 209.59375 192.09375 207.589844 C 187.980469 199.136719 197.34375 191.347656 202.964844 186.621094 C 206.425781 183.707031 201.441406 178.769531 198.003906 181.65625 C 189.390625 188.898438 180.238281 199.214844 186.039062 211.125 C 186.738281 209.40625 187.433594 207.691406 188.132812 205.972656 C 173.636719 209.9375 163.074219 222.773438 161.464844 237.609375 C 160.976562 242.09375 167.996094 242.058594 168.480469 237.609375 Z M 168.472656 237.617188 " fill-opacity="1" fill-rule="nonzero"/><path fill="#ffa59b" d="M 255.546875 202.148438 C 250.695312 200.957031 245.605469 200.964844 240.785156 202.339844 C 238.421875 203.015625 236.085938 204.011719 233.984375 205.285156 C 233.503906 205.578125 232.746094 205.933594 232.386719 206.339844 L 231.773438 206.796875 C 232.253906 207.042969 232.734375 207.289062 233.214844 207.535156 C 233.335938 207.335938 230.597656 205.175781 230.292969 204.941406 C 223.285156 199.414062 213.464844 196.019531 204.808594 199.53125 C 203.039062 200.246094 201.835938 201.855469 202.363281 203.847656 C 202.804688 205.511719 204.925781 207.007812 206.679688 206.292969 C 214.695312 203.039062 222.355469 207.203125 228.421875 212.640625 C 232.601562 216.402344 236.550781 211.410156 240.484375 209.824219 C 244.695312 208.125 249.300781 207.824219 253.703125 208.898438 C 258.105469 209.976562 259.957031 203.210938 255.566406 202.136719 Z M 255.546875 202.148438 " fill-opacity="1" fill-rule="nonzero"/><path fill="#ffa59b" d="M 223.875 365.796875 C 236.476562 370.054688 248.613281 363.097656 258.878906 356.453125 C 262.65625 354.011719 259.140625 347.9375 255.335938 350.398438 C 246.695312 355.988281 236.4375 362.648438 225.738281 359.027344 C 221.453125 357.578125 219.613281 364.351562 223.875 365.789062 Z M 223.875 365.796875 " fill-opacity="1" fill-rule="nonzero"/><path fill="#ffffff" d="M 314.15625 250.230469 C 315.726562 247.664062 317.105469 243.890625 317.191406 241.003906 C 317.285156 237.972656 316.917969 234.980469 316.5625 231.964844 C 315.953125 226.761719 313.15625 222 309.683594 217.761719 C 309.59375 217.644531 309.480469 217.542969 309.382812 217.425781 C 308.253906 216.109375 306.703125 214.957031 305.777344 214.363281 C 300.96875 211.273438 296.382812 210.0625 290.363281 211.449219 C 284.835938 212.722656 283.816406 216.695312 285.933594 221.941406 C 286.941406 224.441406 288.941406 226.253906 290.800781 228.203125 C 292.628906 230.109375 294.199219 232.207031 295.546875 234.4375 C 296.84375 236.578125 297.910156 238.8125 298.710938 241.164062 C 299.597656 243.769531 299.953125 246.574219 301.335938 249.015625 C 304.402344 254.441406 310.820312 255.675781 314.15625 250.230469 Z M 314.15625 250.230469 " fill-opacity="1" fill-rule="nonzero"/><path fill="#ffffff" d="M 324.5 270.414062 C 325.722656 273.226562 326.554688 276.539062 324.808594 279.261719 C 323.917969 280.648438 322.539062 281.8125 320.898438 282.183594 C 319.15625 282.578125 317.53125 282.277344 315.941406 281.519531 C 313.382812 280.300781 311.851562 277.523438 311.363281 274.832031 C 311.125 273.496094 310.917969 272.058594 310.910156 270.695312 C 310.910156 268.632812 311.851562 266.796875 313.582031 265.679688 C 315.042969 264.734375 316.796875 264.585938 318.46875 264.878906 C 319.851562 265.117188 321.285156 265.65625 322.296875 266.601562 C 323.105469 267.351562 323.59375 268.34375 324.5 270.414062 Z M 324.5 270.414062 " fill-opacity="1" fill-rule="nonzero"/><path fill="#ffffff" d="M 110.910156 248.160156 C 111.632812 244.871094 112.664062 243.417969 115.191406 241.308594 C 117.753906 239.167969 122.730469 237.164062 121.300781 232.929688 C 119.890625 228.769531 114.121094 230.390625 111.410156 232.09375 C 108.261719 234.070312 105.117188 237.105469 103.96875 240.632812 C 102.9375 243.8125 103.03125 244.441406 103.355469 246.722656 C 103.511719 247.804688 104.101562 249.804688 105.585938 250.988281 C 105.585938 250.988281 107.066406 252.355469 108.773438 251.800781 C 110.480469 251.246094 110.652344 249.332031 110.90625 248.167969 Z M 110.910156 248.160156 " fill-opacity="1" fill-rule="nonzero"/><path fill="#ffffff" d="M 218.632812 247.273438 C 216.992188 247.863281 216.425781 249.382812 216.316406 251.039062 C 216.144531 253.589844 218.292969 255.535156 219.992188 257.117188 C 221.824219 258.824219 223.796875 260.394531 225.859375 261.816406 C 226.753906 262.429688 227.675781 263.09375 228.648438 263.570312 C 230.488281 264.476562 232.367188 263.523438 233.054688 261.679688 C 233.46875 260.566406 233.292969 259.386719 233.054688 258.253906 C 232.828125 257.164062 232.429688 256.125 231.972656 255.113281 C 231.136719 253.238281 229.839844 251.496094 228.316406 250.125 C 226.730469 248.699219 224.488281 247.46875 222.304688 247.03125 C 220.476562 246.664062 219.496094 246.964844 218.632812 247.273438 Z M 220.992188 251.179688 C 220.992188 251.179688 220.992188 251.191406 220.992188 251.199219 C 220.992188 251.1875 220.992188 251.1875 220.988281 251.175781 C 220.988281 251.164062 220.988281 251.175781 220.988281 251.164062 C 220.988281 251.164062 220.988281 251.167969 220.992188 251.175781 Z M 228.632812 260.207031 C 228.632812 260.207031 228.632812 260.234375 228.625 260.242188 C 228.570312 260.351562 228.597656 260.292969 228.632812 260.207031 Z M 228.632812 260.207031 " fill-opacity="1" fill-rule="nonzero"/><path fill="#ffffff" d="M 137.855469 191.546875 C 137.855469 191.546875 136.972656 189.546875 139.980469 186.316406 C 142.996094 183.082031 151.96875 178.167969 158.375 177.117188 C 164.78125 176.070312 168.511719 176.394531 167.878906 181.019531 C 167.242188 185.644531 155.816406 186.8125 152.027344 187.988281 C 148.238281 189.15625 139.574219 194.726562 137.855469 191.546875 Z M 137.855469 191.546875 " fill-opacity="1" fill-rule="nonzero"/><g clip-path="url(#49812fbb65)"><path fill="#ffbdc5" d="M 92.542969 331.140625 C 92.542969 331.140625 83.988281 320.484375 94.996094 313.210938 C 106 305.945312 115.5625 317.878906 118.109375 320.757812 C 120.652344 323.632812 127.523438 324.316406 137.855469 323.472656 C 148.1875 322.632812 154.136719 336.511719 160.480469 339 C 166.824219 341.484375 170.929688 342.074219 179.921875 336.390625 C 188.910156 330.707031 199.183594 338.09375 205.96875 341.824219 C 212.753906 345.558594 229.078125 347.027344 236.78125 340.058594 C 244.484375 333.089844 241.789062 332.683594 246.132812 330.523438 C 250.484375 328.363281 258.121094 332.539062 268.546875 329.789062 C 278.96875 327.039062 288.996094 315.789062 292.773438 308.355469 C 300 294.117188 314.5 296.308594 321.15625 302.234375 C 326.503906 306.992188 329.71875 316.214844 327.636719 329.605469 C 325.558594 343 311.191406 361.359375 296.027344 361.726562 C 280.867188 362.09375 282.953125 360.84375 282.953125 360.84375 C 282.953125 360.84375 277.066406 371.078125 264.257812 370.796875 C 251.457031 370.511719 248.523438 362.707031 245.03125 363.582031 C 241.550781 364.460938 232.882812 378.613281 214.015625 380.980469 C 195.144531 383.347656 184.867188 366.945312 184.867188 366.945312 C 184.867188 366.945312 170.558594 372.34375 156.988281 369.773438 C 143.414062 367.203125 132.679688 345.960938 133.464844 343.285156 C 133.464844 343.285156 125.808594 343.359375 121.042969 338.042969 C 121.042969 338.042969 102.199219 344.785156 92.542969 331.140625 Z M 92.542969 331.140625 " fill-opacity="1" fill-rule="nonzero"/></g><g clip-path="url(#d3eaf44c2b)"><path fill="#ffa59b" d="M 154.074219 304.042969 C 149.578125 310.265625 148.945312 318.695312 151.601562 325.800781 C 152.886719 329.234375 154.777344 332.300781 157.097656 335.125 C 158.261719 336.535156 159.539062 337.851562 160.898438 339.066406 C 161.578125 339.675781 162.289062 340.253906 163 340.828125 C 163.417969 341.140625 163.835938 341.46875 164.242188 341.804688 C 164.289062 339.664062 164.0625 339.089844 163.554688 340.09375 C 162.511719 341.03125 161.832031 343.652344 161.492188 344.957031 C 161.019531 346.804688 160.800781 348.796875 160.867188 350.699219 C 161 354.304688 161.996094 357.863281 163.707031 361.039062 C 167.253906 367.628906 173.710938 372.179688 180.375 375.214844 C 184.457031 377.074219 188.019531 371.027344 183.917969 369.160156 C 178.3125 366.609375 172.730469 363.089844 169.761719 357.496094 C 168.261719 354.667969 167.539062 351.296875 167.980469 348.105469 C 168.375 345.238281 171 342.828125 170.738281 339.960938 C 170.457031 336.921875 167.191406 335.371094 165.183594 333.492188 C 162.839844 331.296875 160.828125 328.828125 159.328125 325.984375 C 156.210938 320.097656 156.175781 313.0625 160.128906 307.582031 C 162.777344 303.914062 156.695312 300.414062 154.074219 304.042969 Z M 154.074219 304.042969 " fill-opacity="1" fill-rule="nonzero"/></g><path fill="#ffa59b" d="M 79.273438 291.199219 C 77.035156 297.960938 77.734375 304.808594 81.089844 311.078125 C 84.332031 317.140625 89.746094 321.726562 96.152344 324.136719 C 97.925781 324.804688 100 323.398438 100.46875 321.691406 C 101.007812 319.726562 99.796875 318.046875 98.023438 317.375 C 93.445312 315.652344 89.53125 311.988281 87.152344 307.542969 C 84.773438 303.09375 84.34375 298.203125 86.046875 293.066406 C 86.640625 291.265625 85.359375 289.238281 83.597656 288.75 C 81.691406 288.222656 79.878906 289.398438 79.285156 291.199219 Z M 79.273438 291.199219 " fill-opacity="1" fill-rule="nonzero"/><path fill="#5e4d5c" d="M 137.511719 283.578125 C 125.4375 289.632812 110.324219 284.375 103.25 273.214844 C 95.890625 261.609375 96.261719 243.914062 105.882812 233.566406 C 114.480469 224.316406 131.277344 221.113281 141.980469 228.453125 C 146.542969 231.582031 150.460938 235.726562 152.945312 240.695312 C 156.1875 247.1875 156.027344 254.523438 154.558594 261.46875 C 153.320312 267.335938 151.097656 273.105469 146.789062 277.410156 C 144.105469 280.085938 140.839844 281.851562 137.511719 283.582031 C 133.503906 285.667969 137.046875 291.71875 141.050781 289.640625 C 144.910156 287.632812 148.644531 285.472656 151.75 282.375 C 156.351562 277.773438 159.222656 271.730469 160.824219 265.480469 C 162.941406 257.179688 163.523438 248.210938 160.3125 240.121094 C 157.671875 233.460938 153.035156 228.035156 147.363281 223.742188 C 140.726562 218.71875 132.71875 217.054688 124.496094 217.789062 C 116.464844 218.503906 109.804688 221.234375 103.496094 226.269531 C 90.035156 237.019531 88.1875 258.597656 95.289062 273.332031 C 103.375 290.105469 124.203125 298.097656 141.050781 289.644531 C 145.085938 287.621094 141.539062 281.566406 137.511719 283.589844 Z M 137.511719 283.578125 " fill-opacity="1" fill-rule="nonzero"/><path fill="#5e4d5c" d="M 224.207031 302.121094 C 212.132812 308.179688 197.023438 302.917969 189.945312 291.761719 C 182.585938 280.15625 182.960938 262.460938 192.582031 252.109375 C 201.175781 242.859375 217.972656 239.65625 228.679688 246.996094 C 233.238281 250.125 237.160156 254.269531 239.640625 259.238281 C 242.882812 265.730469 242.722656 273.066406 241.257812 280.011719 C 240.019531 285.878906 237.796875 291.652344 233.484375 295.957031 C 230.804688 298.632812 227.539062 300.394531 224.207031 302.128906 C 220.203125 304.214844 223.742188 310.265625 227.75 308.183594 C 231.605469 306.179688 235.34375 304.019531 238.449219 300.917969 C 243.050781 296.316406 245.921875 290.277344 247.519531 284.023438 C 249.640625 275.726562 250.21875 266.757812 247.011719 258.664062 C 244.367188 252.007812 239.730469 246.578125 234.058594 242.289062 C 227.421875 237.261719 219.417969 235.597656 211.195312 236.332031 C 203.160156 237.050781 196.5 239.777344 190.191406 244.816406 C 176.730469 255.566406 174.886719 277.140625 181.984375 291.875 C 190.070312 308.648438 210.902344 316.644531 227.75 308.191406 C 231.785156 306.167969 228.238281 300.109375 224.207031 302.132812 Z M 224.207031 302.121094 " fill-opacity="1" fill-rule="nonzero"/><path fill="#5e4d5c" d="M 88.703125 236.417969 C 88.675781 236.328125 88.652344 236.234375 88.636719 236.144531 L 88.761719 237.078125 C 88.75 236.933594 88.746094 236.808594 88.761719 236.671875 L 88.636719 237.605469 C 88.660156 237.46875 88.691406 237.347656 88.734375 237.214844 L 88.378906 238.050781 C 88.453125 237.878906 88.539062 237.726562 88.648438 237.570312 C 88.464844 237.804688 88.28125 238.046875 88.097656 238.28125 C 88.25 238.085938 88.417969 237.925781 88.613281 237.769531 C 88.378906 237.953125 88.136719 238.136719 87.902344 238.320312 C 88.109375 238.179688 88.320312 238.058594 88.554688 237.960938 L 87.71875 238.316406 C 87.90625 238.246094 88.097656 238.195312 88.296875 238.15625 L 87.363281 238.28125 C 87.628906 238.246094 87.867188 238.253906 88.125 238.28125 L 87.191406 238.15625 C 87.476562 238.207031 87.746094 238.28125 88.023438 238.382812 L 87.1875 238.03125 C 87.671875 238.234375 88.113281 238.511719 88.539062 238.832031 C 88.304688 238.648438 88.0625 238.464844 87.828125 238.28125 C 88.996094 239.199219 89.992188 240.308594 91.140625 241.253906 C 92.050781 242.011719 92.9375 242.78125 93.792969 243.597656 C 95.117188 244.871094 97.453125 245.015625 98.753906 243.597656 C 100.023438 242.222656 100.171875 239.996094 98.753906 238.636719 C 97.925781 237.835938 97.058594 237.082031 96.171875 236.351562 C 95.066406 235.445312 94.101562 234.382812 92.996094 233.484375 C 91.023438 231.878906 88.507812 230.625 85.917969 231.511719 C 83.128906 232.46875 81.046875 235.261719 81.929688 238.289062 C 82.445312 240.046875 84.421875 241.324219 86.246094 240.734375 C 88.035156 240.15625 89.25 238.304688 88.691406 236.417969 Z M 88.703125 236.417969 " fill-opacity="1" fill-rule="nonzero"/><g clip-path="url(#430ce5ef1c)"><path fill="#ffa59b" d="M 216.902344 363.085938 C 196.003906 377.933594 173.320312 389.996094 152.421875 404.84375 C 154.019531 405.261719 155.621094 405.679688 157.21875 406.105469 C 154.753906 400.644531 150.71875 392.820312 144.335938 391.320312 C 141.429688 390.636719 138.445312 391.921875 136.984375 394.523438 C 135.332031 397.46875 136.320312 400.84375 137.546875 403.726562 C 139.226562 407.675781 141.636719 413.285156 146.285156 414.476562 C 149.660156 415.34375 152.40625 413.3125 154.78125 411.203125 C 155.632812 410.453125 156.105469 408.871094 155.683594 407.796875 C 154.765625 405.453125 153.699219 403.34375 151.558594 401.898438 C 149.773438 400.699219 147.773438 399.972656 146.027344 398.679688 C 142.988281 396.4375 139.761719 400.65625 141.230469 403.472656 C 142.699219 406.292969 144.601562 408.242188 147.082031 409.980469 C 149.332031 411.554688 152.332031 409.433594 152.359375 406.953125 C 152.410156 402.890625 151 399.382812 148.398438 396.304688 C 146.816406 394.429688 142.890625 395.289062 142.535156 397.851562 C 141.761719 403.433594 143.132812 408.460938 146.859375 412.742188 C 149.824219 416.152344 154.773438 411.175781 151.820312 407.777344 C 149.917969 405.59375 148.902344 402.621094 149.304688 399.714844 C 147.351562 400.230469 145.394531 400.746094 143.441406 401.261719 C 144.847656 402.925781 145.375 404.808594 145.34375 406.953125 C 147.105469 405.945312 148.863281 404.9375 150.621094 403.925781 C 149.121094 402.878906 148.125 401.550781 147.289062 399.9375 C 145.6875 401.539062 144.089844 403.136719 142.492188 404.734375 C 144.691406 406.363281 147.871094 406.964844 148.925781 409.65625 L 149.824219 406.246094 C 149.230469 406.78125 148.878906 407.066406 148.632812 407.25 C 148.371094 407.445312 148.078125 407.582031 147.796875 407.742188 C 148.226562 407.496094 147.5625 407.582031 148.125 407.675781 C 147.871094 407.636719 148.066406 407.851562 147.761719 407.472656 C 146.949219 406.472656 146.238281 405.566406 145.597656 404.410156 C 144.675781 402.734375 144.027344 401.011719 143.304688 399.25 C 143.183594 398.894531 143.117188 398.527344 143.105469 398.152344 C 142.605469 398.097656 142.53125 398.109375 142.878906 398.191406 C 143.40625 398.058594 144.386719 399.109375 144.738281 399.441406 C 147.585938 402.140625 149.5625 406.117188 151.15625 409.640625 C 151.890625 411.269531 154.523438 411.910156 155.953125 410.902344 C 176.851562 396.054688 199.53125 383.988281 220.433594 369.140625 C 224.082031 366.546875 220.582031 360.464844 216.890625 363.085938 Z M 216.902344 363.085938 " fill-opacity="1" fill-rule="nonzero"/></g><path fill="#ffa59b" d="M 79.976562 337.085938 C 68.96875 339.320312 58.039062 341.933594 47.210938 344.929688 C 48.6875 346.058594 50.167969 347.183594 51.652344 348.3125 C 51.703125 347 51.929688 346.945312 52.535156 345.773438 C 53.335938 344.203125 53.277344 342.527344 52.664062 340.902344 C 52.40625 340.226562 52.082031 339.589844 51.789062 338.929688 C 51.8125 338.976562 52.167969 339.871094 51.929688 339.257812 C 51.730469 338.742188 51.546875 338.21875 51.339844 337.703125 C 50.695312 336.074219 49.996094 334.441406 49.054688 332.957031 C 46.855469 329.492188 42.882812 325.785156 38.632812 328.476562 C 33.753906 331.566406 34.945312 337.296875 37.332031 341.554688 C 39.433594 345.308594 42.109375 349.074219 46.296875 350.625 C 48.449219 351.421875 50.894531 351.160156 52.332031 349.214844 C 53.769531 347.273438 53.519531 344.914062 52.769531 342.796875 C 52.015625 340.683594 51.003906 338.414062 49.851562 336.375 C 48.695312 334.320312 47.261719 331.519531 45.105469 330.367188 C 42.785156 329.125 39.890625 330.246094 38.976562 332.695312 C 38.167969 334.867188 38.773438 337.601562 39.128906 339.835938 C 39.765625 343.800781 41.953125 349.957031 46.148438 351.375 C 48.996094 352.339844 51.953125 350.453125 52.179688 347.417969 C 52.316406 345.546875 52.296875 343.039062 51.644531 341.273438 C 50.992188 339.507812 49.265625 338.292969 47.328125 338.828125 C 45.621094 339.296875 44.21875 341.355469 44.882812 343.140625 C 45.265625 344.171875 45.296875 346.132812 45.164062 347.421875 L 45.644531 345.652344 L 45.371094 346.132812 L 46.628906 344.871094 L 46.230469 345.105469 C 46.820312 344.945312 47.410156 344.785156 48 344.625 C 48.824219 344.589844 48.792969 345.050781 48.125 344.019531 C 47.898438 343.667969 47.679688 343.308594 47.480469 342.941406 C 47.027344 342.128906 46.683594 341.3125 46.425781 340.414062 C 46.179688 339.570312 46.007812 338.710938 45.878906 337.839844 C 45.816406 337.375 45.777344 336.914062 45.730469 336.449219 C 45.703125 336.128906 45.863281 334.535156 45.425781 335.394531 L 44.167969 336.65625 L 44.542969 336.398438 C 43.953125 336.558594 43.363281 336.71875 42.773438 336.878906 L 43.335938 336.90625 L 41.566406 336.425781 C 42.183594 336.835938 42.660156 338.03125 43.054688 338.664062 C 43.628906 339.589844 44.15625 340.539062 44.640625 341.507812 C 45.050781 342.316406 45.421875 343.136719 45.75 343.984375 C 45.925781 344.441406 46.019531 345.214844 46.304688 345.570312 C 46.878906 346.289062 44.035156 345.988281 47.148438 344.523438 L 48.917969 344.042969 C 46.378906 344.171875 43.960938 339.136719 43.019531 337.363281 C 42.601562 336.578125 42.308594 335.851562 42.125 334.988281 C 42.105469 334.882812 42.28125 334.503906 42.269531 334.484375 C 42.648438 334.21875 42.464844 334.160156 41.71875 334.328125 C 40.945312 334.195312 40.78125 334.242188 41.210938 334.472656 C 41.296875 334.769531 42.113281 335.296875 42.328125 335.554688 C 42.792969 336.117188 43.167969 336.769531 43.523438 337.40625 C 44.535156 339.222656 44.945312 341.375 46.039062 343.148438 C 46.78125 344.34375 45.8125 342.226562 46.367188 342.425781 C 46.332031 342.414062 45.851562 343.238281 45.8125 343.308594 C 44.964844 344.867188 44.699219 346.550781 44.628906 348.304688 C 44.535156 350.597656 46.945312 352.277344 49.070312 351.6875 C 59.902344 348.6875 70.824219 346.070312 81.839844 343.839844 C 86.257812 342.945312 84.390625 336.179688 79.976562 337.078125 Z M 79.976562 337.085938 " fill-opacity="1" fill-rule="nonzero"/><path fill="#5e4d5c" d="M 248.839844 276.378906 C 255.59375 274.40625 262.488281 272.878906 269.460938 271.925781 C 272.90625 271.457031 276.375 271.128906 279.839844 270.921875 C 281.460938 270.824219 283.082031 270.746094 284.710938 270.71875 C 285.253906 270.707031 285.816406 270.675781 286.363281 270.71875 C 287.605469 270.820312 286.808594 270.796875 286.804688 270.820312 C 286.621094 272.707031 288.542969 274.328125 290.308594 274.328125 C 292.363281 274.328125 293.632812 272.710938 293.816406 270.820312 C 294.242188 266.492188 290.136719 263.972656 286.332031 263.714844 C 282.074219 263.429688 277.59375 263.996094 273.363281 264.441406 C 264.425781 265.386719 255.601562 267.101562 246.96875 269.617188 C 242.644531 270.878906 244.484375 277.652344 248.832031 276.378906 Z M 248.839844 276.378906 " fill-opacity="1" fill-rule="nonzero"/><path fill="#5e4d5c" d="M 157.632812 267.691406 C 164.933594 271.589844 173.015625 272.957031 181.195312 271.8125 C 183.015625 271.554688 184.175781 269.140625 183.640625 267.496094 C 182.996094 265.496094 181.28125 264.773438 179.328125 265.050781 C 179.910156 264.96875 178.574219 265.125 178.457031 265.136719 C 178.09375 265.167969 177.734375 265.191406 177.367188 265.214844 C 176.519531 265.261719 175.671875 265.277344 174.828125 265.261719 C 172.914062 265.222656 171.898438 265.117188 170.339844 264.824219 C 168.664062 264.515625 167.011719 264.074219 165.394531 263.515625 C 163.78125 262.953125 162.875 262.546875 161.171875 261.632812 C 159.554688 260.769531 157.28125 261.175781 156.375 262.894531 C 155.515625 264.523438 155.90625 266.769531 157.636719 267.691406 Z M 157.632812 267.691406 " fill-opacity="1" fill-rule="nonzero"/><path fill="#b6c9e0" d="M 76.285156 297.828125 C 75.390625 296.316406 55.691406 262.425781 50.695312 261.3125 C 45.695312 260.203125 39.605469 262.167969 43.492188 271.042969 C 47.375 279.921875 61.425781 306.441406 64.085938 314 C 64.511719 315.210938 82.476562 352.945312 92.714844 368.914062 C 95.765625 373.664062 98.660156 371.914062 100.628906 371.730469 C 105.082031 371.3125 160.554688 353.976562 166.101562 351.199219 C 171.648438 348.425781 172.203125 347.3125 172.757812 341.765625 C 173.316406 336.21875 157.222656 277.953125 152.78125 272.40625 C 148.34375 266.859375 145.566406 266.304688 140.019531 269.632812 C 134.472656 272.964844 80.34375 304.707031 76.28125 297.824219 Z M 76.285156 297.828125 " fill-opacity="1" fill-rule="nonzero"/><path fill="#ffffff" d="M 112.089844 351.433594 C 112.089844 351.433594 110.308594 349.53125 108.726562 343.203125 C 108.042969 340.484375 110.714844 339.0625 111.785156 338 C 113.335938 336.472656 148.078125 325.445312 148.078125 325.445312 C 148.078125 325.445312 153.171875 323.40625 155.210938 328.160156 C 157.253906 332.917969 158.472656 336.179688 158.472656 336.179688 C 158.472656 336.179688 161.609375 341.703125 153.230469 345.191406 C 146.351562 348.054688 131.816406 352.132812 123.230469 354.914062 C 119.765625 356.035156 115.335938 358.914062 112.089844 351.441406 Z M 112.089844 351.433594 " fill-opacity="1" fill-rule="nonzero"/><path fill="#ffffff" d="M 110.261719 318.171875 C 117.398438 315.34375 124.539062 312.511719 131.671875 309.675781 C 132.703125 309.265625 133.734375 308.855469 134.765625 308.449219 C 136.527344 307.75 137.757812 306.105469 137.214844 304.132812 C 136.753906 302.460938 134.667969 300.980469 132.898438 301.6875 C 125.761719 304.515625 118.625 307.347656 111.488281 310.183594 C 110.457031 310.589844 109.425781 311.003906 108.394531 311.410156 C 106.636719 312.109375 105.402344 313.753906 105.949219 315.726562 C 106.40625 317.398438 108.492188 318.878906 110.261719 318.171875 Z M 110.261719 318.171875 " fill-opacity="1" fill-rule="nonzero"/><path fill="#ffffff" d="M 115.746094 328.78125 C 119.375 327.394531 123 326 126.632812 324.613281 C 127.148438 324.417969 127.667969 324.21875 128.183594 324.023438 C 129.058594 323.6875 129.785156 323.25 130.277344 322.414062 C 130.71875 321.664062 130.902344 320.550781 130.632812 319.707031 C 130.097656 318.042969 128.152344 316.558594 126.320312 317.261719 C 122.691406 318.648438 119.066406 320.042969 115.429688 321.429688 C 114.914062 321.621094 114.398438 321.824219 113.882812 322.019531 C 113.007812 322.355469 112.28125 322.792969 111.785156 323.628906 C 111.34375 324.378906 111.164062 325.492188 111.429688 326.332031 C 111.96875 328 113.914062 329.484375 115.746094 328.78125 Z M 115.746094 328.78125 " fill-opacity="1" fill-rule="nonzero"/><path fill="#ffffff" d="M 75.753906 309.140625 C 77.8125 315.308594 79.265625 321.652344 80.894531 327.9375 C 83.101562 336.464844 85.667969 344.882812 88.722656 353.148438 C 90.273438 357.34375 97.054688 355.53125 95.484375 351.285156 C 92.429688 343.019531 89.863281 334.609375 87.65625 326.074219 C 86.027344 319.789062 84.574219 313.445312 82.515625 307.277344 C 81.09375 303.019531 74.316406 304.84375 75.753906 309.140625 Z M 75.753906 309.140625 " fill-opacity="1" fill-rule="nonzero"/><path fill="#ffa59b" d="M 253.53125 308.15625 C 248.363281 320.265625 234.914062 325.394531 223.152344 328.902344 C 210.648438 332.625 196.511719 332.097656 183.722656 330.179688 C 180.679688 329.71875 177.660156 329.117188 174.714844 328.214844 C 170.621094 326.953125 166.039062 325.714844 162.261719 328.472656 C 160.308594 329.898438 160.019531 332.105469 161.550781 333.976562 C 163.589844 336.484375 166.792969 336.96875 169.835938 336.644531 C 172.265625 336.386719 175.929688 334.96875 178.164062 336.355469 C 178.445312 334.21875 178.71875 332.082031 179 329.945312 C 175.597656 331.359375 171.953125 332.6875 168.234375 332.820312 C 166.445312 332.882812 164.695312 332.5 162.921875 332.515625 C 161.382812 332.527344 160.238281 332.792969 158.777344 332.648438 C 157.527344 332.527344 156.394531 333.417969 155.75 334.386719 C 154.203125 336.71875 155.835938 340 158.027344 341.238281 C 160.433594 342.597656 163.660156 342.097656 166.285156 341.816406 C 172.101562 341.1875 177.921875 339.75 182.414062 335.804688 C 184.546875 333.9375 182.964844 329.421875 179.933594 329.816406 C 173.707031 330.632812 167.847656 332.769531 161.75 334.179688 C 157.34375 335.199219 159.21875 341.890625 163.613281 340.941406 C 166.265625 340.367188 168.925781 341.332031 171.574219 340.828125 C 175.171875 340.144531 174.640625 335.039062 171.574219 334.0625 C 166.582031 332.476562 161.820312 331.699219 157.527344 335.273438 C 155.242188 337.183594 157.070312 341.480469 160.007812 341.261719 C 167.5625 340.699219 175.027344 340.316406 181.703125 336.355469 C 185.585938 334.058594 182.058594 327.988281 178.164062 330.300781 C 172.597656 333.601562 166.296875 333.777344 160.007812 334.246094 L 162.492188 340.234375 C 164.375 338.664062 167.699219 340.191406 169.710938 340.832031 L 169.710938 334.070312 C 169.746094 334.0625 167.34375 333.777344 166.691406 333.75 C 165.019531 333.667969 163.390625 333.828125 161.757812 334.183594 L 163.621094 340.945312 C 169.0625 339.6875 174.375 337.566406 179.941406 336.835938 C 179.113281 334.84375 178.285156 332.84375 177.457031 330.847656 C 175.253906 332.785156 172.324219 333.664062 169.503906 334.269531 C 168.175781 334.558594 166.828125 334.761719 165.476562 334.890625 C 164.703125 334.964844 163.921875 335.015625 163.144531 335.050781 L 162.332031 335.085938 C 161.375 334.933594 161.277344 335.050781 162.03125 335.429688 C 161.910156 336.328125 161.796875 337.226562 161.675781 338.132812 L 161.808594 337.933594 C 160.800781 338.511719 159.792969 339.089844 158.78125 339.667969 C 159.894531 339.777344 161.476562 339.59375 162.925781 339.535156 C 165.027344 339.457031 167.070312 339.957031 169.195312 339.785156 C 173.265625 339.449219 177.121094 338.277344 180.875 336.71875 C 183.578125 335.589844 184.484375 332.023438 181.710938 330.304688 C 179.007812 328.625 175.980469 328.710938 172.941406 329.148438 C 171.15625 329.398438 167.84375 330.65625 166.519531 329.019531 L 165.808594 334.527344 C 168.433594 332.613281 172.484375 334.957031 175.296875 335.667969 C 178.363281 336.4375 181.492188 336.917969 184.628906 337.332031 C 191.800781 338.265625 199.074219 338.621094 206.304688 338.414062 C 220.292969 338.011719 234.925781 334.085938 246.6875 326.320312 C 252.226562 322.664062 256.964844 317.859375 259.59375 311.699219 C 261.347656 307.59375 255.308594 304.011719 253.539062 308.15625 Z M 253.53125 308.15625 " fill-opacity="1" fill-rule="nonzero"/><path fill="#ffa59b" d="M 62.53125 296.882812 C 61.917969 294.621094 60.726562 292.511719 59.101562 290.816406 C 58.1875 289.871094 56.929688 289 55.65625 289.332031 L 59.101562 290.816406 C 58.371094 290.367188 56.28125 287.273438 54.082031 288.070312 C 53.277344 288.363281 52.796875 289.273438 52.746094 290.128906 C 52.695312 290.976562 53.070312 291.777344 53.4375 292.539062 C 54.707031 295.136719 55.652344 296.832031 58.4375 299.804688 C 59.101562 300.511719 59.566406 300.414062 60.464844 300.769531 C 60.789062 300.894531 61.898438 300.855469 62.199219 300.6875 C 62.414062 300.566406 62.527344 300.339844 62.609375 300.109375 C 62.96875 299.078125 62.8125 297.9375 62.527344 296.882812 Z M 62.53125 296.882812 " fill-opacity="1" fill-rule="nonzero"/><path fill="#ffa59b" d="M 65.914062 295.949219 C 65.226562 293.480469 64.023438 291.285156 62.425781 289.296875 C 61.65625 288.34375 60.769531 287.496094 59.742188 286.824219 C 58.230469 285.839844 56.480469 285.570312 54.726562 285.945312 C 53.382812 286.230469 52.390625 287.570312 52.21875 288.859375 C 52.046875 290.148438 52.628906 291.8125 53.890625 292.355469 C 55.039062 292.847656 56.183594 293.347656 57.335938 293.839844 C 58.234375 294.230469 59.050781 294.464844 60.039062 294.195312 C 60.855469 293.972656 61.738281 293.34375 62.136719 292.585938 C 63.070312 290.820312 62.515625 288.871094 60.875 287.789062 C 60.597656 287.601562 61.746094 288.550781 61.261719 288.0625 C 61.144531 287.949219 61.027344 287.835938 60.910156 287.714844 C 60.601562 287.398438 60.296875 287.085938 59.972656 286.792969 C 58.933594 285.859375 57.707031 284.945312 56.316406 284.621094 C 54.394531 284.171875 52.316406 284.601562 50.917969 286.058594 C 49.394531 287.644531 48.917969 289.976562 49.496094 292.074219 C 49.863281 293.410156 50.597656 294.722656 51.25 295.949219 C 51.707031 296.808594 52.210938 297.632812 52.78125 298.425781 C 53.609375 299.582031 54.515625 300.695312 55.472656 301.753906 C 56.015625 302.355469 56.609375 302.957031 57.335938 303.34375 C 58 303.691406 58.734375 303.890625 59.445312 304.117188 C 61.289062 304.699219 63.585938 304.308594 64.941406 302.917969 C 66.683594 301.128906 66.492188 298.167969 65.914062 295.949219 C 65.449219 294.171875 63.386719 292.921875 61.597656 293.503906 C 59.8125 294.082031 58.652344 295.914062 59.152344 297.816406 C 59.214844 298.0625 59.253906 298.320312 59.324219 298.566406 C 59.425781 298.929688 59.285156 298.183594 59.285156 298.179688 C 59.273438 298.308594 59.3125 298.476562 59.316406 298.613281 C 59.316406 298.769531 59.253906 299.632812 59.324219 299.007812 C 59.386719 298.464844 59.347656 298.859375 59.300781 298.96875 C 58.933594 299.800781 60.523438 297.601562 60.4375 297.664062 C 61.066406 297.214844 61.328125 297.332031 60.980469 297.398438 C 60.894531 297.417969 61.925781 297.324219 61.570312 297.320312 C 61.394531 297.320312 61.21875 297.34375 61.042969 297.335938 C 60.371094 297.320312 61.433594 297.382812 61.4375 297.398438 C 61.386719 297.289062 60.921875 297.226562 60.796875 297.1875 C 60.722656 297.164062 60.332031 297.003906 60.296875 297.039062 C 60.285156 297.042969 61.066406 297.375 60.808594 297.25 C 60.675781 297.1875 60.382812 296.957031 60.835938 297.300781 C 61.339844 297.679688 60.785156 297.179688 60.671875 297.0625 C 60.457031 296.832031 60.253906 296.609375 60.050781 296.375 C 59.730469 296.011719 59.414062 295.644531 59.113281 295.265625 C 58.636719 294.683594 59.488281 295.785156 59.140625 295.3125 C 59.003906 295.125 58.859375 294.941406 58.726562 294.746094 C 57.84375 293.496094 57.136719 292.144531 56.46875 290.769531 C 56.480469 290.792969 56.257812 290.367188 56.269531 290.351562 C 56.285156 290.328125 56.511719 291.03125 56.394531 290.648438 C 56.332031 290.441406 56.28125 290.058594 56.171875 289.875 C 56.246094 290 56.183594 290.695312 56.253906 290.121094 C 56.253906 290.082031 56.070312 290.957031 56.1875 290.625 C 56.210938 290.558594 56.253906 290.441406 56.257812 290.375 C 56.011719 290.90625 55.949219 291.050781 56.074219 290.808594 C 56.097656 290.757812 56.125 290.707031 56.160156 290.652344 C 56.285156 290.351562 55.855469 291.03125 55.867188 291.019531 C 56.195312 290.625 55.582031 291.214844 55.546875 291.246094 C 55.644531 291.171875 55.984375 291.03125 55.425781 291.285156 C 54.722656 291.601562 55.816406 291.300781 54.984375 291.410156 C 54.15625 291.519531 55.5 291.53125 54.628906 291.410156 C 53.921875 291.308594 54.613281 291.449219 54.796875 291.503906 C 55.179688 291.605469 54.027344 291.105469 54.367188 291.332031 C 54.445312 291.386719 54.542969 291.429688 54.628906 291.480469 C 54.761719 291.558594 55.382812 292.011719 54.84375 291.601562 C 54.304688 291.1875 54.894531 291.65625 55.015625 291.765625 C 55.15625 291.898438 55.300781 292.03125 55.4375 292.167969 C 56.058594 292.773438 56.609375 293.363281 57.335938 293.851562 C 58.515625 291.835938 59.695312 289.8125 60.875 287.792969 C 59.730469 287.300781 58.585938 286.804688 57.433594 286.308594 C 57.152344 288.449219 56.878906 290.585938 56.597656 292.722656 C 56.027344 292.769531 55.886719 292.792969 56.167969 292.78125 C 56.445312 292.78125 56.296875 292.75 55.730469 292.695312 C 55.828125 292.710938 55.925781 292.734375 56.023438 292.761719 C 56.28125 292.84375 56.160156 292.785156 55.660156 292.589844 C 55.738281 292.699219 56.09375 292.835938 56.210938 292.902344 C 56.746094 293.191406 55.804688 292.523438 56.097656 292.804688 C 56.390625 293.085938 56.664062 293.332031 56.921875 293.621094 C 57.066406 293.78125 57.203125 293.945312 57.339844 294.109375 C 57.832031 294.6875 56.886719 293.449219 57.3125 294.074219 C 57.738281 294.699219 58.179688 295.375 58.527344 296.082031 C 58.617188 296.269531 58.699219 296.476562 58.800781 296.660156 C 58.34375 295.835938 58.675781 296.363281 58.773438 296.613281 C 58.921875 297.015625 59.046875 297.421875 59.164062 297.835938 C 59.65625 299.601562 61.667969 300.871094 63.480469 300.28125 C 65.285156 299.695312 66.457031 297.859375 65.925781 295.964844 Z M 65.914062 295.949219 " fill-opacity="1" fill-rule="nonzero"/></svg>