<svg xmlns="http://www.w3.org/2000/svg" xmlns:xlink="http://www.w3.org/1999/xlink" width="500" zoomAndPan="magnify" viewBox="0 0 375 374.999991" height="500" preserveAspectRatio="xMidYMid meet" version="1.0"><path fill="#215700" d="M 115.214844 94.050781 L 157.28125 178.660156 C 169.664062 167.582031 180.5625 148.144531 179.957031 132.21875 L 167.230469 107.121094 C 166.769531 106.21875 165.992188 105.523438 165.042969 105.171875 L 120.214844 88.492188 C 116.796875 87.222656 113.589844 90.789062 115.214844 94.050781 Z M 190.703125 140.289062 C 190.8125 140.128906 190.910156 139.960938 191 139.777344 L 206.96875 107.414062 C 207.421875 106.492188 208.210938 105.78125 209.171875 105.421875 L 254.832031 88.4375 C 258.226562 87.175781 261.425781 90.695312 259.851562 93.953125 L 192.078125 234.089844 C 190.621094 237.097656 186.34375 237.121094 184.859375 234.128906 L 158.71875 181.550781 C 173.050781 171.304688 184.273438 156.984375 190.703125 140.289062 " fill-opacity="1" fill-rule="nonzero"/></svg>