<svg xmlns="http://www.w3.org/2000/svg" xmlns:xlink="http://www.w3.org/1999/xlink" width="500" zoomAndPan="magnify" viewBox="0 0 375 374.999991" height="500" preserveAspectRatio="xMidYMid meet" version="1.0"><defs><g/></defs><path fill="#215700" d="M 115.214844 94.050781 L 157.28125 178.660156 C 169.664062 167.582031 180.5625 148.144531 179.957031 132.21875 L 167.230469 107.121094 C 166.769531 106.21875 165.992188 105.523438 165.042969 105.171875 L 120.214844 88.496094 C 116.796875 87.222656 113.589844 90.789062 115.214844 94.050781 Z M 190.703125 140.289062 C 190.8125 140.128906 190.910156 139.960938 191 139.777344 L 206.96875 107.414062 C 207.421875 106.492188 208.210938 105.78125 209.171875 105.421875 L 254.832031 88.4375 C 258.226562 87.175781 261.425781 90.695312 259.851562 93.957031 L 192.078125 234.089844 C 190.621094 237.097656 186.34375 237.121094 184.859375 234.128906 L 158.71875 181.550781 C 173.050781 171.304688 184.273438 156.984375 190.703125 140.289062 " fill-opacity="1" fill-rule="nonzero"/><g fill="#231f20" fill-opacity="1"><g transform="translate(102.428209, 261.541272)"><g><path d="M 16.90625 -18.578125 L 10.59375 0 L 6.296875 0 L 0 -18.578125 L 3.96875 -18.578125 L 7.46875 -7.515625 C 7.53125 -7.328125 7.628906 -6.976562 7.765625 -6.46875 C 7.898438 -5.957031 8.035156 -5.414062 8.171875 -4.84375 C 8.316406 -4.269531 8.410156 -3.800781 8.453125 -3.4375 C 8.503906 -3.800781 8.597656 -4.265625 8.734375 -4.828125 C 8.867188 -5.398438 9 -5.941406 9.125 -6.453125 C 9.257812 -6.972656 9.351562 -7.328125 9.40625 -7.515625 L 12.9375 -18.578125 Z M 16.90625 -18.578125 "/></g></g></g><g fill="#231f20" fill-opacity="1"><g transform="translate(121.287682, 261.541272)"><g><path d="M 19.1875 -9.3125 C 19.1875 -7.882812 19.007812 -6.582031 18.65625 -5.40625 C 18.300781 -4.226562 17.757812 -3.21875 17.03125 -2.375 C 16.3125 -1.53125 15.394531 -0.878906 14.28125 -0.421875 C 13.175781 0.0234375 11.867188 0.25 10.359375 0.25 C 8.835938 0.25 7.519531 0.0234375 6.40625 -0.421875 C 5.300781 -0.878906 4.382812 -1.53125 3.65625 -2.375 C 2.9375 -3.21875 2.398438 -4.226562 2.046875 -5.40625 C 1.691406 -6.582031 1.515625 -7.894531 1.515625 -9.34375 C 1.515625 -11.257812 1.828125 -12.929688 2.453125 -14.359375 C 3.085938 -15.785156 4.0625 -16.890625 5.375 -17.671875 C 6.6875 -18.460938 8.351562 -18.859375 10.375 -18.859375 C 12.394531 -18.859375 14.050781 -18.460938 15.34375 -17.671875 C 16.644531 -16.890625 17.609375 -15.78125 18.234375 -14.34375 C 18.867188 -12.914062 19.1875 -11.238281 19.1875 -9.3125 Z M 5.640625 -9.3125 C 5.640625 -8.019531 5.800781 -6.90625 6.125 -5.96875 C 6.457031 -5.03125 6.96875 -4.304688 7.65625 -3.796875 C 8.351562 -3.296875 9.253906 -3.046875 10.359375 -3.046875 C 11.472656 -3.046875 12.375 -3.296875 13.0625 -3.796875 C 13.757812 -4.304688 14.265625 -5.03125 14.578125 -5.96875 C 14.898438 -6.90625 15.0625 -8.019531 15.0625 -9.3125 C 15.0625 -11.257812 14.695312 -12.789062 13.96875 -13.90625 C 13.238281 -15.03125 12.039062 -15.59375 10.375 -15.59375 C 9.269531 -15.59375 8.367188 -15.335938 7.671875 -14.828125 C 6.972656 -14.328125 6.457031 -13.609375 6.125 -12.671875 C 5.800781 -11.734375 5.640625 -10.613281 5.640625 -9.3125 Z M 5.640625 -9.3125 "/></g></g></g><g fill="#231f20" fill-opacity="1"><g transform="translate(143.945335, 261.541272)"><g><path d="M 2.34375 0 L 2.34375 -18.578125 L 6.28125 -18.578125 L 6.28125 -3.25 L 13.8125 -3.25 L 13.8125 0 Z M 2.34375 0 "/></g></g></g><g fill="#231f20" fill-opacity="1"><g transform="translate(160.594496, 261.541272)"><g><path d="M 17.453125 -18.578125 L 17.453125 -6.5625 C 17.453125 -5.28125 17.171875 -4.125 16.609375 -3.09375 C 16.046875 -2.0625 15.191406 -1.242188 14.046875 -0.640625 C 12.910156 -0.046875 11.476562 0.25 9.75 0.25 C 7.300781 0.25 5.429688 -0.375 4.140625 -1.625 C 2.847656 -2.875 2.203125 -4.535156 2.203125 -6.609375 L 2.203125 -18.578125 L 6.140625 -18.578125 L 6.140625 -7.203125 C 6.140625 -5.671875 6.453125 -4.59375 7.078125 -3.96875 C 7.703125 -3.351562 8.628906 -3.046875 9.859375 -3.046875 C 10.722656 -3.046875 11.421875 -3.191406 11.953125 -3.484375 C 12.492188 -3.785156 12.890625 -4.242188 13.140625 -4.859375 C 13.398438 -5.484375 13.53125 -6.273438 13.53125 -7.234375 L 13.53125 -18.578125 Z M 17.453125 -18.578125 "/></g></g></g><g fill="#231f20" fill-opacity="1"><g transform="translate(182.210507, 261.541272)"><g><path d="M 18.8125 0 L 13.8125 0 L 5.734375 -14.046875 L 5.609375 -14.046875 C 5.648438 -13.460938 5.679688 -12.875 5.703125 -12.28125 C 5.722656 -11.6875 5.742188 -11.09375 5.765625 -10.5 C 5.796875 -9.914062 5.828125 -9.328125 5.859375 -8.734375 L 5.859375 0 L 2.34375 0 L 2.34375 -18.578125 L 7.296875 -18.578125 L 15.375 -4.65625 L 15.453125 -4.65625 C 15.441406 -5.238281 15.421875 -5.8125 15.390625 -6.375 C 15.367188 -6.945312 15.347656 -7.515625 15.328125 -8.078125 C 15.304688 -8.648438 15.285156 -9.21875 15.265625 -9.78125 L 15.265625 -18.578125 L 18.8125 -18.578125 Z M 18.8125 0 "/></g></g></g><g fill="#231f20" fill-opacity="1"><g transform="translate(205.312762, 261.541272)"><g><path d="M 9.5 0 L 5.5625 0 L 5.5625 -15.296875 L 0.515625 -15.296875 L 0.515625 -18.578125 L 14.546875 -18.578125 L 14.546875 -15.296875 L 9.5 -15.296875 Z M 9.5 0 "/></g></g></g><g fill="#231f20" fill-opacity="1"><g transform="translate(222.330308, 261.541272)"><g><path d="M 13.03125 0 L 2.34375 0 L 2.34375 -18.578125 L 13.03125 -18.578125 L 13.03125 -15.34375 L 6.28125 -15.34375 L 6.28125 -11.265625 L 12.5625 -11.265625 L 12.5625 -8.046875 L 6.28125 -8.046875 L 6.28125 -3.25 L 13.03125 -3.25 Z M 13.03125 0 "/></g></g></g><g fill="#231f20" fill-opacity="1"><g transform="translate(238.85244, 261.541272)"><g><path d="M 13.03125 0 L 2.34375 0 L 2.34375 -18.578125 L 13.03125 -18.578125 L 13.03125 -15.34375 L 6.28125 -15.34375 L 6.28125 -11.265625 L 12.5625 -11.265625 L 12.5625 -8.046875 L 6.28125 -8.046875 L 6.28125 -3.25 L 13.03125 -3.25 Z M 13.03125 0 "/></g></g></g><g fill="#231f20" fill-opacity="1"><g transform="translate(255.374571, 261.541272)"><g><path d="M 7.75 -18.578125 C 9.4375 -18.578125 10.828125 -18.375 11.921875 -17.96875 C 13.015625 -17.5625 13.828125 -16.945312 14.359375 -16.125 C 14.898438 -15.300781 15.171875 -14.265625 15.171875 -13.015625 C 15.171875 -12.160156 15.007812 -11.414062 14.6875 -10.78125 C 14.363281 -10.144531 13.9375 -9.609375 13.40625 -9.171875 C 12.882812 -8.734375 12.320312 -8.375 11.71875 -8.09375 L 17.171875 0 L 12.796875 0 L 8.375 -7.125 L 6.28125 -7.125 L 6.28125 0 L 2.34375 0 L 2.34375 -18.578125 Z M 7.46875 -15.34375 L 6.28125 -15.34375 L 6.28125 -10.328125 L 7.546875 -10.328125 C 8.847656 -10.328125 9.78125 -10.546875 10.34375 -10.984375 C 10.90625 -11.421875 11.1875 -12.0625 11.1875 -12.90625 C 11.1875 -13.789062 10.882812 -14.414062 10.28125 -14.78125 C 9.675781 -15.15625 8.738281 -15.34375 7.46875 -15.34375 Z M 7.46875 -15.34375 "/></g></g></g><g fill="#215700" fill-opacity="1"><g transform="translate(105.561991, 284.952989)"><g><path d="M 10.640625 0 L 8.9375 0 L 4.4375 -6 L 3.140625 -4.84375 L 3.140625 0 L 1.703125 0 L 1.703125 -12.375 L 3.140625 -12.375 L 3.140625 -6.234375 L 8.75 -12.375 L 10.453125 -12.375 L 5.46875 -7 Z M 10.640625 0 "/></g></g></g><g fill="#215700" fill-opacity="1"><g transform="translate(120.17843, 284.952989)"><g><path d="M 11.046875 -12.375 L 11.046875 -4.359375 C 11.046875 -2.953125 10.617188 -1.84375 9.765625 -1.03125 C 8.910156 -0.226562 7.738281 0.171875 6.25 0.171875 C 4.757812 0.171875 3.609375 -0.234375 2.796875 -1.046875 C 1.984375 -1.859375 1.578125 -2.976562 1.578125 -4.40625 L 1.578125 -12.375 L 3.015625 -12.375 L 3.015625 -4.296875 C 3.015625 -3.265625 3.296875 -2.472656 3.859375 -1.921875 C 4.421875 -1.367188 5.25 -1.09375 6.34375 -1.09375 C 7.382812 -1.09375 8.1875 -1.367188 8.75 -1.921875 C 9.320312 -2.484375 9.609375 -3.28125 9.609375 -4.3125 L 9.609375 -12.375 Z M 11.046875 -12.375 "/></g></g></g><g fill="#215700" fill-opacity="1"><g transform="translate(136.77385, 284.952989)"><g/></g></g><g fill="#215700" fill-opacity="1"><g transform="translate(145.258831, 284.952989)"><g><path d="M 12.4375 -6.203125 C 12.4375 -4.222656 11.9375 -2.664062 10.9375 -1.53125 C 9.9375 -0.394531 8.546875 0.171875 6.765625 0.171875 C 4.941406 0.171875 3.535156 -0.382812 2.546875 -1.5 C 1.554688 -2.613281 1.0625 -4.1875 1.0625 -6.21875 C 1.0625 -8.226562 1.554688 -9.785156 2.546875 -10.890625 C 3.535156 -12.003906 4.945312 -12.5625 6.78125 -12.5625 C 8.550781 -12.5625 9.9375 -12 10.9375 -10.875 C 11.9375 -9.75 12.4375 -8.191406 12.4375 -6.203125 Z M 2.578125 -6.203125 C 2.578125 -4.523438 2.929688 -3.253906 3.640625 -2.390625 C 4.359375 -1.523438 5.398438 -1.09375 6.765625 -1.09375 C 8.128906 -1.09375 9.160156 -1.523438 9.859375 -2.390625 C 10.566406 -3.253906 10.921875 -4.523438 10.921875 -6.203125 C 10.921875 -7.867188 10.570312 -9.128906 9.875 -9.984375 C 9.175781 -10.847656 8.144531 -11.28125 6.78125 -11.28125 C 5.40625 -11.28125 4.359375 -10.847656 3.640625 -9.984375 C 2.929688 -9.117188 2.578125 -7.859375 2.578125 -6.203125 Z M 2.578125 -6.203125 "/></g></g></g><g fill="#215700" fill-opacity="1"><g transform="translate(162.733797, 284.952989)"><g><path d="M 3.140625 -5.140625 L 3.140625 0 L 1.703125 0 L 1.703125 -12.375 L 5.09375 -12.375 C 6.613281 -12.375 7.734375 -12.082031 8.453125 -11.5 C 9.179688 -10.914062 9.546875 -10.039062 9.546875 -8.875 C 9.546875 -7.238281 8.71875 -6.132812 7.0625 -5.5625 L 10.421875 0 L 8.71875 0 L 5.71875 -5.140625 Z M 3.140625 -6.375 L 5.109375 -6.375 C 6.128906 -6.375 6.875 -6.578125 7.34375 -6.984375 C 7.820312 -7.390625 8.0625 -7.992188 8.0625 -8.796875 C 8.0625 -9.617188 7.816406 -10.207031 7.328125 -10.5625 C 6.847656 -10.925781 6.078125 -11.109375 5.015625 -11.109375 L 3.140625 -11.109375 Z M 3.140625 -6.375 "/></g></g></g><g fill="#215700" fill-opacity="1"><g transform="translate(177.426351, 284.952989)"><g><path d="M 7.140625 -6.484375 L 11.34375 -6.484375 L 11.34375 -0.46875 C 10.6875 -0.257812 10.019531 -0.101562 9.34375 0 C 8.664062 0.113281 7.882812 0.171875 7 0.171875 C 5.125 0.171875 3.664062 -0.382812 2.625 -1.5 C 1.582031 -2.613281 1.0625 -4.175781 1.0625 -6.1875 C 1.0625 -7.46875 1.316406 -8.59375 1.828125 -9.5625 C 2.347656 -10.53125 3.09375 -11.269531 4.0625 -11.78125 C 5.03125 -12.289062 6.164062 -12.546875 7.46875 -12.546875 C 8.789062 -12.546875 10.019531 -12.300781 11.15625 -11.8125 L 10.609375 -10.546875 C 9.484375 -11.023438 8.40625 -11.265625 7.375 -11.265625 C 5.875 -11.265625 4.695312 -10.816406 3.84375 -9.921875 C 3 -9.023438 2.578125 -7.78125 2.578125 -6.1875 C 2.578125 -4.519531 2.984375 -3.253906 3.796875 -2.390625 C 4.617188 -1.523438 5.816406 -1.09375 7.390625 -1.09375 C 8.253906 -1.09375 9.09375 -1.191406 9.90625 -1.390625 L 9.90625 -5.1875 L 7.140625 -5.1875 Z M 7.140625 -6.484375 "/></g></g></g><g fill="#215700" fill-opacity="1"><g transform="translate(194.021771, 284.952989)"><g><path d="M 9.46875 0 L 7.9375 -3.9375 L 2.984375 -3.9375 L 1.453125 0 L 0 0 L 4.890625 -12.421875 L 6.09375 -12.421875 L 10.96875 0 Z M 7.484375 -5.234375 L 6.046875 -9.0625 C 5.859375 -9.550781 5.664062 -10.144531 5.46875 -10.84375 C 5.34375 -10.300781 5.164062 -9.707031 4.9375 -9.0625 L 3.484375 -5.234375 Z M 7.484375 -5.234375 "/></g></g></g><g fill="#215700" fill-opacity="1"><g transform="translate(208.96804, 284.952989)"><g><path d="M 11.359375 0 L 9.71875 0 L 2.96875 -10.375 L 2.890625 -10.375 C 2.984375 -9.15625 3.03125 -8.039062 3.03125 -7.03125 L 3.03125 0 L 1.703125 0 L 1.703125 -12.375 L 3.328125 -12.375 L 10.0625 -2.03125 L 10.140625 -2.03125 C 10.128906 -2.1875 10.101562 -2.675781 10.0625 -3.5 C 10.019531 -4.320312 10.003906 -4.910156 10.015625 -5.265625 L 10.015625 -12.375 L 11.359375 -12.375 Z M 11.359375 0 "/></g></g></g><g fill="#215700" fill-opacity="1"><g transform="translate(226.011691, 284.952989)"><g><path d="M 1.703125 0 L 1.703125 -12.375 L 3.140625 -12.375 L 3.140625 0 Z M 1.703125 0 "/></g></g></g><g fill="#215700" fill-opacity="1"><g transform="translate(234.826502, 284.952989)"><g><path d="M 9.203125 0 L 0.6875 0 L 0.6875 -1.125 L 7.265625 -11.078125 L 0.890625 -11.078125 L 0.890625 -12.375 L 9.015625 -12.375 L 9.015625 -11.25 L 2.4375 -1.296875 L 9.203125 -1.296875 Z M 9.203125 0 "/></g></g></g><g fill="#215700" fill-opacity="1"><g transform="translate(248.698709, 284.952989)"><g><path d="M 8.59375 0 L 1.703125 0 L 1.703125 -12.375 L 8.59375 -12.375 L 8.59375 -11.09375 L 3.140625 -11.09375 L 3.140625 -7.109375 L 8.265625 -7.109375 L 8.265625 -5.84375 L 3.140625 -5.84375 L 3.140625 -1.28125 L 8.59375 -1.28125 Z M 8.59375 0 "/></g></g></g><g fill="#215700" fill-opacity="1"><g transform="translate(262.3172, 284.952989)"><g><path d="M 3.140625 -5.140625 L 3.140625 0 L 1.703125 0 L 1.703125 -12.375 L 5.09375 -12.375 C 6.613281 -12.375 7.734375 -12.082031 8.453125 -11.5 C 9.179688 -10.914062 9.546875 -10.039062 9.546875 -8.875 C 9.546875 -7.238281 8.71875 -6.132812 7.0625 -5.5625 L 10.421875 0 L 8.71875 0 L 5.71875 -5.140625 Z M 3.140625 -6.375 L 5.109375 -6.375 C 6.128906 -6.375 6.875 -6.578125 7.34375 -6.984375 C 7.820312 -7.390625 8.0625 -7.992188 8.0625 -8.796875 C 8.0625 -9.617188 7.816406 -10.207031 7.328125 -10.5625 C 6.847656 -10.925781 6.078125 -11.109375 5.015625 -11.109375 L 3.140625 -11.109375 Z M 3.140625 -6.375 "/></g></g></g></svg>